<svg width="24" height="25" viewBox="0 0 24 25" fill="none" xmlns="http://www.w3.org/2000/svg">
<path fill-rule="evenodd" clip-rule="evenodd" d="M3 17.2821V17.789C3 19.1298 4.08778 20.2176 5.42854 20.2176H18.5715C19.9122 20.2176 21 19.1298 21 17.789V17.2821C21 16.9785 20.7538 16.7324 20.4493 16.7324H3.54973C3.24616 16.7324 3 16.9785 3 17.2821Z" stroke="#183F6E" stroke-width="1.5" stroke-linecap="round" stroke-linejoin="round"/>
<path d="M17.334 4.51172C19.1982 4.51172 20.7092 6.02275 20.7092 7.88697" stroke="#183F6E" stroke-width="1.5" stroke-linecap="round" stroke-linejoin="round"/>
<path d="M16.209 7.32422C17.1411 7.32422 17.8961 8.08022 17.8961 9.01136" stroke="#183F6E" stroke-width="1.5" stroke-linecap="round" stroke-linejoin="round"/>
<path d="M12.1576 5.51367H7.34143C5.67862 5.51367 4.33008 6.86221 4.33008 8.52502V16.732" stroke="#183F6E" stroke-width="1.5" stroke-linecap="round" stroke-linejoin="round"/>
<path d="M19.6699 16.7314V13.0254" stroke="#183F6E" stroke-width="1.5" stroke-linecap="round" stroke-linejoin="round"/>
</svg>
