<svg width="155" height="13" viewBox="0 0 155 13" fill="none" xmlns="http://www.w3.org/2000/svg">
<path d="M0 0.288128C0 0.288128 8.125 -1.21125 16.5 3.28867C24.875 7.78859 30.9822 9.28813 38.75 9.28813C46.5178 9.28813 50.3572 4.78813 58.125 4.78813C65.8928 4.78813 69.7322 9.28813 77.5 9.28813C85.2678 9.28813 89.1216 5.26108 96.875 4.78813C104.467 4.32499 108.643 6.78813 116.25 6.78813C123.857 6.78813 132.997 2.53715 140.5 1.28866C148.162 0.0137055 155 0.288128 155 0.288128C155 6.91554 149.627 12.2881 143 12.2881H12C5.37258 12.2881 0 6.91554 0 0.288128Z" fill="#EBEBEB"/>
</svg>
