<svg width="1440" height="518" viewBox="0 0 1440 518" fill="none" xmlns="http://www.w3.org/2000/svg">
<rect width="1440" height="461" fill="url(#paint0_linear_2560_5017)"/>
<path fill-rule="evenodd" clip-rule="evenodd" d="M0 393.243L60 396.699C120 400.156 240 419.592 360 412.679C480 405.766 600 372.503 720 386.33C840 400.156 960 448.548 1080 458.917C1200 469.287 1320 441.635 1380 427.808L1440 413.982V517.679H1380C1320 517.679 1200 517.679 1080 517.679C960 517.679 840 517.679 720 517.679C600 517.679 480 517.679 360 517.679C240 517.679 120 517.679 60 517.679H0V393.243Z" fill="#1C1C1C"/>
<path d="M225.943 114.648C236.814 130.563 251.361 143.908 268.381 153.005C270.588 154.189 272.492 151.712 272.003 149.69C271.221 146.612 270.557 143.536 269.948 140.424C265.153 115.712 265.159 90.3508 266.04 65.3197C266.936 39.8896 268.74 14.4179 267.44 -11.0343C266.169 -35.9598 261.974 -61.3714 251.162 -84.0638C244.932 -97.1367 236.384 -109.217 225.937 -119.292C243.952 -131.014 258.157 -148.025 267.309 -167.613C278.809 -192.185 282.575 -219.743 281.586 -246.643C281.498 -248.767 278.299 -248.413 278.324 -246.326C278.542 -231.587 277.279 -216.788 274.163 -202.386C268.705 -177.084 257.226 -152.721 238.126 -134.844C233.243 -130.286 227.896 -126.206 222.183 -122.63C219.476 -125.009 216.705 -127.308 213.795 -129.4C205.944 -135.037 197.29 -139.687 188.086 -142.658C178.683 -145.695 169.278 -146.627 159.454 -146.158C156.539 -146.027 156.965 -141.511 159.88 -141.642C162.177 -141.764 164.544 -141.658 166.846 -141.471C185.626 -140.016 203.023 -131.903 217.26 -119.76C204.449 -112.764 190.162 -108.593 175.598 -108.527C172.772 -108.921 169.898 -109.089 166.964 -108.867C164.131 -108.671 163.912 -104.129 166.784 -103.843C169.584 -103.549 172.387 -103.491 175.182 -103.506C192.566 -100.837 206.241 -86.1886 211.948 -70.1288C219.547 -48.6706 215.776 -25.2775 211.485 -3.53403C207.263 17.7748 202.585 39.2225 205.37 61.0662C207.829 80.2376 215.061 98.778 225.951 114.721L225.943 114.648ZM209.626 48.1873C209.251 25.3705 216.124 3.28267 219.436 -19.0735C222.596 -40.3974 222.921 -63.9393 211.504 -83.0471C206.053 -92.1437 197.943 -99.9895 188.364 -104.626C196.148 -105.84 203.802 -108.1 211.061 -111.273C214.485 -112.785 217.83 -114.48 221.051 -116.367C234.572 -103.644 244.59 -87.723 250.976 -70.3107C259.554 -46.7969 262.063 -21.5816 262.401 3.28523C262.718 28.2426 260.76 53.1133 260.325 78.0509C259.905 100.602 260.864 123.237 265.632 145.317C265.191 145.057 264.723 144.814 264.282 144.554C247.911 134.413 234.399 119.777 224.882 103.064C215.382 86.3787 209.953 67.3739 209.654 48.1696L209.626 48.1873Z" fill="#003777"/>
<path d="M-116.904 76.4518C-93.0523 97.1423 -63.0786 110.37 -31.7774 114.443C1.68851 118.792 35.9076 112.254 65.5705 96.1967C82.8889 86.833 98.7451 74.3636 111.588 59.4015C112.529 58.3259 114.215 59.7291 113.292 60.8321C90.5668 88.6477 58.881 108.506 23.8759 116.72C-8.68935 124.371 -42.8457 121.364 -73.8473 108.956C-86.1814 104.036 -97.9041 97.5907 -108.683 89.8341C-93.8346 111.359 -71.8609 127.577 -47.8956 137.716C-16.4534 151.046 18.4802 153.629 52.1791 150.504C69.4874 148.898 86.814 145.995 103.652 141.733C120.061 137.592 136.367 131.844 150.538 122.372C163.793 113.531 174.308 101.476 180.695 86.831C186.679 73.0692 189.027 57.8404 188.668 42.8818C188.228 25.8713 184.217 9.3002 178.135 -6.5562C171.064 -24.9673 161.307 -41.9918 151.431 -59.0181C148.959 -63.2634 146.607 -67.6249 144.053 -71.8168C142.449 -74.4801 146.408 -77.2731 148.031 -74.5824C153.377 -65.7686 158.953 -57.1421 164.007 -48.1782C168.937 -39.4065 173.647 -30.4929 177.809 -21.342C185.466 -4.55588 191.365 13.2488 193.345 31.6785C195.039 47.2549 194.094 63.3293 189.535 78.3907C184.803 94.0303 176.249 107.973 164.017 118.879C151.059 130.41 134.937 137.948 118.485 143.168C101.395 148.606 83.5703 152.065 65.7883 154.444C30.6331 159.172 -5.95903 158.363 -39.7656 146.678C-69.9603 136.242 -97.9681 116.835 -115.395 89.6936C-117.526 86.3968 -119.437 82.958 -121.239 79.4482C-122.546 76.9434 -118.831 74.7367 -116.922 76.4243L-116.904 76.4518Z" fill="#003777"/>
<path d="M1275.69 262.386C1255.67 262.896 1235.81 268.063 1218.27 277.786C1215.99 279.043 1217.08 282.103 1219.12 282.817C1222.25 283.87 1225.31 285.026 1228.37 286.25C1252.64 296.006 1274.77 310.317 1296.12 325.206C1317.81 340.334 1339.02 356.277 1361.96 369.5C1384.43 382.452 1408.98 393.126 1434.88 396.491C1449.8 398.429 1465.17 397.783 1479.85 394.349C1479.92 416.683 1486.75 438.677 1498.69 457.713C1513.64 481.611 1535.57 500.443 1559.6 514.755C1561.51 515.876 1563 512.885 1561.17 511.729C1548.18 503.605 1535.98 494.154 1525.17 483.31C1506.16 464.274 1491.38 440.513 1486.55 413.76C1485.33 406.927 1484.78 399.958 1484.88 392.956C1488.49 391.936 1492.06 390.814 1495.52 389.454C1504.87 385.783 1513.81 380.854 1521.6 374.497C1529.55 368.004 1535.67 360.322 1540.8 351.484C1542.33 348.866 1538.15 346.69 1536.62 349.308C1535.43 351.381 1534 353.387 1532.54 355.291C1520.68 370.86 1503.78 381.466 1485.16 387.041C1486.28 371.914 1490.7 357.092 1498.86 344.345C1500.79 342.101 1502.56 339.688 1504.02 337.002C1505.45 334.419 1501.61 331.665 1499.74 334.011C1497.9 336.288 1496.27 338.702 1494.71 341.149C1482.57 354.815 1462.07 358.486 1444.84 354.407C1421.83 348.934 1403.54 332.447 1386.98 316.436C1370.77 300.731 1354.69 284.55 1334.05 274.658C1315.94 265.99 1295.68 261.843 1275.62 262.352L1275.69 262.386ZM1342.89 285.638C1363.02 298.182 1378.42 316.64 1396.06 332.141C1412.89 346.928 1433.25 360.492 1456.36 361.308C1467.38 361.682 1478.8 359.03 1488.25 353.285C1484.92 360.764 1482.57 368.718 1481.25 376.843C1480.63 380.684 1480.23 384.559 1480.06 388.434C1461.33 393.058 1441.78 392.82 1422.98 388.57C1397.62 382.792 1374.2 370.758 1352.31 357.024C1330.35 343.223 1309.75 327.484 1288.23 313.037C1268.79 299.949 1248.49 288.018 1226.53 279.723C1227.01 279.485 1227.48 279.213 1227.96 278.975C1246.05 270.409 1266.44 266.874 1286.4 267.995C1306.32 269.117 1325.96 275.1 1342.89 285.672L1342.89 285.638Z" fill="#003777"/>
<path d="M1502.42 -15.2724C1470.91 -6.12812 1442.46 12.5683 1421.25 37.5876C1398.57 64.3405 1384.97 97.8921 1382.25 132.837C1380.66 153.234 1382.59 174.106 1388.41 193.754C1388.82 195.182 1386.64 195.862 1386.2 194.434C1374.74 158.911 1375.29 120.056 1387.86 84.8726C1399.56 52.1368 1421.45 24.0242 1449.77 3.96798C1461.02 -4.02051 1473.26 -10.6153 1486.1 -15.6463C1458.94 -14.8305 1432.4 -4.80236 1410.03 10.3928C1380.66 30.313 1358.7 59.3434 1342.41 90.5155C1334.05 106.526 1326.81 123.285 1321.03 140.384C1315.39 157.041 1311.21 174.514 1311.48 192.224C1311.72 208.779 1316.31 224.756 1325.49 238.591C1334.12 251.577 1346.09 262.217 1359.34 270.341C1374.44 279.554 1391.16 285.401 1408.43 289.038C1428.49 293.253 1448.85 294.341 1469.28 295.327C1474.38 295.565 1479.51 295.973 1484.61 296.108C1487.84 296.21 1488.04 301.242 1484.78 301.14C1474.07 300.834 1463.4 300.834 1452.72 300.188C1442.29 299.542 1431.85 298.624 1421.52 297.094C1402.55 294.307 1383.68 289.412 1366.48 280.743C1351.93 273.435 1338.44 263.543 1327.86 251.067C1316.88 238.116 1309.54 222.784 1306.92 205.958C1304.17 188.145 1306.69 169.822 1311.41 152.52C1316.31 134.537 1323.34 117.03 1331.3 100.17C1347 66.822 1368.35 35.344 1397.62 12.4323C1423.76 -8.03178 1456.5 -21.5272 1490.01 -21.4252C1494.09 -21.4252 1498.17 -21.1533 1502.25 -20.7453C1505.18 -20.4734 1505.01 -15.9862 1502.46 -15.2724L1502.42 -15.2724Z" fill="#003777"/>
<path d="M505.551 286.377C508.493 291.584 507.776 298.095 503.784 302.544C508.991 299.602 515.502 300.319 519.951 304.311C517.009 299.104 517.726 292.593 521.718 288.144C516.511 291.086 510 290.369 505.551 286.377Z" fill="#EBEBEB"/>
<path d="M1378.99 66.2891C1377.97 74.9449 1371.52 81.9849 1363 83.782C1371.66 84.8042 1378.7 91.2507 1380.49 99.7746C1381.52 91.1188 1387.96 84.0788 1396.49 82.2817C1387.83 81.2595 1380.79 74.813 1378.99 66.2891Z" fill="#EBEBEB"/>
<path d="M491.798 284.328C493.956 286.856 494.269 290.482 492.563 293.343C495.091 291.185 498.717 290.872 501.578 292.578C499.42 290.05 499.107 286.423 500.813 283.563C498.285 285.721 494.658 286.034 491.798 284.328Z" fill="#EBEBEB"/>
<path d="M69.512 307.935C66.4114 310.461 62.0404 310.737 58.6464 308.606C61.1731 311.707 61.4491 316.078 59.3181 319.472C62.4188 316.945 66.7898 316.669 70.1837 318.8C67.657 315.699 67.381 311.328 69.512 307.935Z" fill="#EBEBEB"/>
<path d="M72.5423 41.2891C72.7825 44.4883 70.9591 47.4911 68 48.7468C71.1993 48.5065 74.202 50.33 75.4577 53.2891C75.2175 50.0898 77.0409 47.0871 80 45.8314C76.8007 46.0716 73.798 44.2481 72.5423 41.2891Z" fill="#EBEBEB"/>
<path d="M1319.53 361.854C1322.93 365.308 1323.75 370.548 1321.57 374.881C1325.02 371.484 1330.26 370.658 1334.59 372.845C1331.2 369.391 1330.37 364.151 1332.56 359.818C1329.1 363.215 1323.86 364.041 1319.53 361.854Z" fill="#EBEBEB"/>
<g opacity="0.3">
<path d="M830.442 125.781L831.929 128.514L834.662 130.001L831.929 131.499L830.442 134.232L828.944 131.499L826.211 130.001L828.944 128.514L830.442 125.781Z" fill="white"/>
<path d="M770.61 71.4746L772.108 74.2077L774.842 75.6943L772.108 77.1924L770.61 79.9255L769.124 77.1924L766.391 75.6943L769.124 74.2077L770.61 71.4746Z" fill="white"/>
<path d="M736.407 112.186L737.894 114.919L740.627 116.417L737.894 117.903L736.407 120.636L734.909 117.903L732.176 116.417L734.909 114.919L736.407 112.186Z" fill="white"/>
<path d="M659.677 42.5078L661.175 45.2409L663.908 46.7275L661.175 48.2256L659.677 50.9587L658.19 48.2256L655.457 46.7275L658.19 45.2409L659.677 42.5078Z" fill="white"/>
<path d="M846.073 114.301L846.816 115.662L848.177 116.416L846.816 117.16L846.073 118.521L845.329 117.16L843.957 116.416L845.329 115.662L846.073 114.301Z" fill="white"/>
<path d="M939.994 88.2617L940.738 89.6226L942.11 90.3659L940.738 91.1206L939.994 92.4814L939.251 91.1206L937.879 90.3659L939.251 89.6226L939.994 88.2617Z" fill="white"/>
<path d="M981.952 165.475L982.707 166.835L984.067 167.59L982.707 168.333L981.952 169.694L981.208 168.333L979.848 167.59L981.208 166.835L981.952 165.475Z" fill="white"/>
<path d="M899.834 202.113L900.578 203.474L901.938 204.229L900.578 204.972L899.834 206.333L899.091 204.972L897.719 204.229L899.091 203.474L899.834 202.113Z" fill="white"/>
<path d="M860.998 194.098L861.742 195.47L863.114 196.213L861.742 196.957L860.998 198.329L860.255 196.957L858.883 196.213L860.255 195.47L860.998 194.098Z" fill="white"/>
<path d="M948.983 198.764L949.726 200.125L951.098 200.879L949.726 201.623L948.983 202.983L948.239 201.623L946.867 200.879L948.239 200.125L948.983 198.764Z" fill="white"/>
<path d="M678.979 196.213L679.722 197.574L681.083 198.328L679.722 199.072L678.979 200.433L678.224 199.072L676.863 198.328L678.224 197.574L678.979 196.213Z" fill="white"/>
<path d="M890.307 157.4L891.051 158.132L892.423 158.533L891.051 158.933L890.307 159.665L889.564 158.933L888.203 158.533L889.564 158.132L890.307 157.4Z" fill="white"/>
<path d="M815.965 83.8477L816.468 84.774L817.394 85.2771L816.468 85.7917L815.965 86.7065L815.461 85.7917L814.535 85.2771L815.461 84.774L815.965 83.8477Z" fill="white"/>
<path d="M835.77 69.2441L836.055 69.7587L836.57 70.0446L836.055 70.3305L835.77 70.8451L835.495 70.3305L834.98 70.0446L835.495 69.7587L835.77 69.2441Z" fill="white"/>
<path d="M802.129 87.3457L802.415 87.8603L802.929 88.1347L802.415 88.4206L802.129 88.9352L801.854 88.4206L801.34 88.1347L801.854 87.8603L802.129 87.3457Z" fill="white"/>
<path d="M792.453 70.6738L792.739 71.1884L793.253 71.4743L792.739 71.7602L792.453 72.2748L792.167 71.7602L791.652 71.4743L792.167 71.1884L792.453 70.6738Z" fill="white"/>
<path d="M777.691 88.7754L777.966 89.29L778.48 89.5644L777.966 89.8503L777.691 90.3649L777.405 89.8503L776.891 89.5644L777.405 89.29L777.691 88.7754Z" fill="white"/>
<path d="M809.676 119.836L809.961 120.351L810.476 120.636L809.961 120.922L809.676 121.437L809.401 120.922L808.875 120.636L809.401 120.351L809.676 119.836Z" fill="white"/>
<path d="M775.551 144.582L775.836 145.108L776.351 145.383L775.836 145.668L775.551 146.183L775.276 145.668L774.75 145.383L775.276 145.108L775.551 144.582Z" fill="white"/>
<path d="M790.761 155.172L791.047 155.686L791.562 155.972L791.047 156.247L790.761 156.773L790.476 156.247L789.961 155.972L790.476 155.686L790.761 155.172Z" fill="white"/>
<path d="M752.316 173.057L752.602 173.571L753.117 173.846L752.602 174.132L752.316 174.646L752.03 174.132L751.516 173.846L752.03 173.571L752.316 173.057Z" fill="white"/>
<path d="M669.843 173.846L670.129 174.36L670.644 174.646L670.129 174.932L669.843 175.447L669.558 174.932L669.043 174.646L669.558 174.36L669.843 173.846Z" fill="white"/>
<path d="M630.8 179.586L631.075 180.101L631.601 180.386L631.075 180.672L630.8 181.187L630.515 180.672L630 180.386L630.515 180.101L630.8 179.586Z" fill="white"/>
<path d="M659.675 191.285L659.961 191.8L660.476 192.086L659.961 192.372L659.675 192.886L659.401 192.372L658.875 192.086L659.401 191.8L659.675 191.285Z" fill="white"/>
<path d="M721.015 180.387L721.29 180.901L721.804 181.187L721.29 181.473L721.015 181.988L720.729 181.473L720.215 181.187L720.729 180.901L721.015 180.387Z" fill="white"/>
<path d="M732.976 190.484L733.262 190.999L733.777 191.285L733.262 191.571L732.976 192.085L732.702 191.571L732.176 191.285L732.702 190.999L732.976 190.484Z" fill="white"/>
<path d="M924.246 181.188L924.532 181.702L925.046 181.988L924.532 182.262L924.246 182.788L923.96 182.262L923.445 181.988L923.96 181.702L924.246 181.188Z" fill="white"/>
<path d="M825.695 173.846L825.981 174.36L826.496 174.646L825.981 174.932L825.695 175.447L825.409 174.932L824.895 174.646L825.409 174.36L825.695 173.846Z" fill="white"/>
<path d="M916.117 145.383L916.403 145.897L916.918 146.183L916.403 146.469L916.117 146.984L915.843 146.469L915.328 146.183L915.843 145.897L916.117 145.383Z" fill="white"/>
<path d="M975.855 190.484L976.141 190.999L976.656 191.285L976.141 191.571L975.855 192.085L975.569 191.571L975.055 191.285L975.569 190.999L975.855 190.484Z" fill="white"/>
<path d="M958.472 208.791L958.747 209.306L959.261 209.592L958.747 209.877L958.472 210.392L958.186 209.877L957.672 209.592L958.186 209.306L958.472 208.791Z" fill="white"/>
<path d="M916.918 181.988L917.204 182.503L917.718 182.789L917.204 183.063L916.918 183.578L916.632 183.063L916.117 182.789L916.632 182.503L916.918 181.988Z" fill="white"/>
<path d="M888.203 182.787L888.477 183.302L888.992 183.576L888.477 183.862L888.203 184.377L887.917 183.862L887.402 183.576L887.917 183.302L888.203 182.787Z" fill="white"/>
<path d="M893.187 125.781L893.462 126.296L893.976 126.582L893.462 126.856L893.187 127.382L892.901 126.856L892.387 126.582L892.901 126.296L893.187 125.781Z" fill="white"/>
<path d="M655.765 124.98L656.04 125.495L656.554 125.781L656.04 126.067L655.765 126.581L655.479 126.067L654.965 125.781L655.479 125.495L655.765 124.98Z" fill="white"/>
<path d="M707.968 97.6055L708.254 98.1201L708.769 98.406L708.254 98.6919L707.968 99.2065L707.683 98.6919L707.168 98.406L707.683 98.1201L707.968 97.6055Z" fill="white"/>
<path d="M732.176 87.3457L732.462 87.8603L732.976 88.1347L732.462 88.4206L732.176 88.9352L731.901 88.4206L731.387 88.1347L731.901 87.8603L732.176 87.3457Z" fill="white"/>
<path d="M685.75 68.4434L686.036 68.958L686.55 69.2439L686.036 69.5298L685.75 70.0443L685.464 69.5298L684.949 69.2439L685.464 68.958L685.75 68.4434Z" fill="white"/>
<path d="M757.632 133.432L757.918 133.946L758.433 134.232L757.918 134.507L757.632 135.021L757.347 134.507L756.832 134.232L757.347 133.946L757.632 133.432Z" fill="white"/>
<path d="M673.457 128.412L673.743 128.927L674.257 129.213L673.743 129.487L673.457 130.002L673.182 129.487L672.656 129.213L673.182 128.927L673.457 128.412Z" fill="white"/>
<path d="M871.863 41.707L872.149 42.2216L872.664 42.5075L872.149 42.782L871.863 43.308L871.577 42.782L871.062 42.5075L871.577 42.2216L871.863 41.707Z" fill="white"/>
<path d="M976.66 45.9277L976.946 46.4423L977.46 46.7282L976.946 47.0141L976.66 47.5287L976.374 47.0141L975.859 46.7282L976.374 46.4423L976.66 45.9277Z" fill="white"/>
<path d="M948.984 108.137L949.27 108.651L949.785 108.937L949.27 109.223L948.984 109.738L948.698 109.223L948.184 108.937L948.698 108.651L948.984 108.137Z" fill="white"/>
<path d="M909.097 25L909.383 25.526L909.898 25.8005L909.383 26.0864L909.097 26.601L908.811 26.0864L908.297 25.8005L908.811 25.526L909.097 25Z" fill="white"/>
<path d="M969.82 86.5469L970.106 87.0615L970.62 87.3474L970.106 87.6218L969.82 88.1364L969.546 87.6218L969.02 87.3474L969.546 87.0615L969.82 86.5469Z" fill="white"/>
<path d="M674.258 79.125L674.543 79.6396L675.058 79.9255L674.543 80.1999L674.258 80.7145L673.972 80.1999L673.457 79.9255L673.972 79.6396L674.258 79.125Z" fill="white"/>
<path d="M751.511 152.266L751.797 152.78L752.312 153.066L751.797 153.341L751.511 153.867L751.226 153.341L750.711 153.066L751.226 152.78L751.511 152.266Z" fill="white"/>
<path d="M843.961 158.865L844.247 159.38L844.761 159.666L844.247 159.952L843.961 160.466L843.686 159.952L843.16 159.666L843.686 159.38L843.961 158.865Z" fill="white"/>
<path d="M862.851 129.213L863.137 129.728L863.652 130.002L863.137 130.288L862.851 130.802L862.565 130.288L862.051 130.002L862.565 129.728L862.851 129.213Z" fill="white"/>
<path d="M869.941 165.988L870.227 166.503L870.742 166.789L870.227 167.063L869.941 167.589L869.667 167.063L869.152 166.789L869.667 166.503L869.941 165.988Z" fill="white"/>
<path d="M964.695 191.285L964.981 191.8L965.496 192.086L964.981 192.372L964.695 192.886L964.421 192.372L963.895 192.086L964.421 191.8L964.695 191.285Z" fill="white"/>
<path d="M816.57 43.8691L817.085 44.7954L818.011 45.2986L817.085 45.8017L816.57 46.728L816.067 45.8017L815.141 45.2986L816.067 44.7954L816.57 43.8691Z" fill="white"/>
<path d="M846.074 86.707L846.577 87.6333L847.503 88.1365L846.577 88.6511L846.074 89.5659L845.571 88.6511L844.645 88.1365L845.571 87.6333L846.074 86.707Z" fill="white"/>
<path d="M909.094 46.0996L909.597 47.0259L910.523 47.5291L909.597 48.0322L909.094 48.9585L908.59 48.0322L907.664 47.5291L908.59 47.0259L909.094 46.0996Z" fill="white"/>
<path d="M970.617 70.8457L971.12 71.772L972.046 72.2751L971.12 72.7783L970.617 73.7046L970.114 72.7783L969.188 72.2751L970.114 71.772L970.617 70.8457Z" fill="white"/>
<path d="M926.476 123.551L926.979 124.477L927.906 124.98L926.979 125.483L926.476 126.41L925.973 125.483L925.047 124.98L925.973 124.477L926.476 123.551Z" fill="white"/>
<path d="M797.691 142.82L798.194 143.747L799.121 144.25L798.194 144.753L797.691 145.679L797.188 144.753L796.262 144.25L797.188 143.747L797.691 142.82Z" fill="white"/>
<path d="M713.847 55.9668L714.351 56.8931L715.277 57.3962L714.351 57.8994L713.847 58.8257L713.333 57.8994L712.418 57.3962L713.333 56.8931L713.847 55.9668Z" fill="white"/>
<path d="M756.203 91.543L756.706 92.4692L757.632 92.9724L756.706 93.4756L756.203 94.4019L755.7 93.4756L754.773 92.9724L755.7 92.4692L756.203 91.543Z" fill="white"/>
<path d="M774.125 132.803L774.639 133.729L775.554 134.232L774.639 134.735L774.125 135.662L773.622 134.735L772.695 134.232L773.622 133.729L774.125 132.803Z" fill="white"/>
<path d="M785.457 120.006L785.96 120.932L786.886 121.435L785.96 121.938L785.457 122.865L784.954 121.938L784.027 121.435L784.954 120.932L785.457 120.006Z" fill="white"/>
<path d="M702.777 155.973L703.28 156.899L704.207 157.402L703.28 157.905L702.777 158.832L702.274 157.905L701.348 157.402L702.274 156.899L702.777 155.973Z" fill="white"/>
<path d="M876.676 85.2773L877.19 86.2036L878.105 86.7068L877.19 87.2214L876.676 88.1362L876.172 87.2214L875.246 86.7068L876.172 86.2036L876.676 85.2773Z" fill="white"/>
<path d="M822.726 112.871L823.229 113.797L824.156 114.301L823.229 114.804L822.726 115.73L822.223 114.804L821.297 114.301L822.223 113.797L822.726 112.871Z" fill="white"/>
<path d="M776.927 303.719L775.6 306.143L773.176 307.47L775.6 308.796L776.927 311.22L778.253 308.796L780.678 307.47L778.253 306.143L776.927 303.719Z" fill="white"/>
<path d="M830.013 255.518L828.698 257.942L826.273 259.268L828.698 260.595L830.013 263.019L831.339 260.595L833.764 259.268L831.339 257.942L830.013 255.518Z" fill="white"/>
<path d="M860.372 291.654L859.046 294.079L856.633 295.405L859.046 296.732L860.372 299.156L861.699 296.732L864.123 295.405L861.699 294.079L860.372 291.654Z" fill="white"/>
<path d="M928.47 229.811L927.143 232.235L924.719 233.561L927.143 234.888L928.47 237.312L929.796 234.888L932.22 233.561L929.796 232.235L928.47 229.811Z" fill="white"/>
<path d="M763.044 293.529L762.38 294.741L761.18 295.405L762.38 296.068L763.044 297.28L763.707 296.068L764.919 295.405L763.707 294.741L763.044 293.529Z" fill="white"/>
<path d="M679.7 270.418L679.036 271.63L677.824 272.293L679.036 272.957L679.7 274.169L680.351 272.957L681.575 272.293L680.351 271.63L679.7 270.418Z" fill="white"/>
<path d="M642.454 338.951L641.79 340.152L640.578 340.815L641.79 341.478L642.454 342.691L643.117 341.478L644.329 340.815L643.117 340.152L642.454 338.951Z" fill="white"/>
<path d="M715.333 371.463L714.67 372.675L713.469 373.338L714.67 374.002L715.333 375.214L715.996 374.002L717.208 373.338L715.996 372.675L715.333 371.463Z" fill="white"/>
<path d="M749.797 364.35L749.134 365.562L747.922 366.225L749.134 366.888L749.797 368.1L750.461 366.888L751.673 366.225L750.461 365.562L749.797 364.35Z" fill="white"/>
<path d="M671.715 368.49L671.052 369.702L669.84 370.366L671.052 371.029L671.715 372.241L672.379 371.029L673.591 370.366L672.379 369.702L671.715 368.49Z" fill="white"/>
<path d="M911.34 366.227L910.677 367.439L909.465 368.102L910.677 368.765L911.34 369.977L912.004 368.765L913.216 368.102L912.004 367.439L911.34 366.227Z" fill="white"/>
<path d="M723.782 331.781L723.118 332.433L721.906 332.788L723.118 333.142L723.782 333.794L724.445 333.142L725.657 332.788L724.445 332.433L723.782 331.781Z" fill="white"/>
<path d="M789.769 266.508L789.323 267.331L788.5 267.777L789.323 268.223L789.769 269.047L790.215 268.223L791.039 267.777L790.215 267.331L789.769 266.508Z" fill="white"/>
<path d="M772.189 253.551L771.938 254.008L771.48 254.26L771.938 254.5L772.189 254.957L772.43 254.5L772.887 254.26L772.43 254.008L772.189 253.551Z" fill="white"/>
<path d="M802.049 269.607L801.786 270.065L801.328 270.316L801.786 270.568L802.049 271.025L802.289 270.568L802.746 270.316L802.289 270.065L802.049 269.607Z" fill="white"/>
<path d="M810.639 254.82L810.387 255.278L809.93 255.518L810.387 255.769L810.639 256.227L810.89 255.769L811.348 255.518L810.89 255.278L810.639 254.82Z" fill="white"/>
<path d="M823.744 270.877L823.493 271.334L823.035 271.586L823.493 271.838L823.744 272.295L823.996 271.838L824.453 271.586L823.996 271.334L823.744 270.877Z" fill="white"/>
<path d="M795.346 298.447L795.094 298.905L794.637 299.156L795.094 299.408L795.346 299.865L795.597 299.408L796.055 299.156L795.597 298.905L795.346 298.447Z" fill="white"/>
<path d="M825.631 320.414L825.379 320.871L824.922 321.123L825.379 321.363L825.631 321.821L825.882 321.363L826.34 321.123L825.882 320.871L825.631 320.414Z" fill="white"/>
<path d="M812.135 329.803L811.883 330.26L811.426 330.512L811.883 330.763L812.135 331.221L812.386 330.763L812.844 330.512L812.386 330.26L812.135 329.803Z" fill="white"/>
<path d="M846.26 345.676L846.008 346.133L845.551 346.385L846.008 346.625L846.26 347.082L846.511 346.625L846.969 346.385L846.511 346.133L846.26 345.676Z" fill="white"/>
<path d="M919.447 346.373L919.196 346.842L918.738 347.082L919.196 347.334L919.447 347.791L919.699 347.334L920.156 347.082L919.699 346.842L919.447 346.373Z" fill="white"/>
<path d="M954.096 351.475L953.844 351.932L953.387 352.184L953.844 352.435L954.096 352.893L954.347 352.435L954.805 352.184L954.347 351.932L954.096 351.475Z" fill="white"/>
<path d="M928.471 361.857L928.219 362.315L927.762 362.566L928.219 362.807L928.471 363.275L928.722 362.807L929.18 362.566L928.722 362.315L928.471 361.857Z" fill="white"/>
<path d="M874.037 352.184L873.786 352.641L873.328 352.893L873.786 353.144L874.037 353.602L874.289 353.144L874.746 352.893L874.289 352.641L874.037 352.184Z" fill="white"/>
<path d="M863.412 361.148L863.161 361.606L862.703 361.857L863.161 362.098L863.412 362.566L863.664 362.098L864.121 361.857L863.664 361.606L863.412 361.148Z" fill="white"/>
<path d="M693.662 352.893L693.411 353.35L692.953 353.602L693.411 353.853L693.662 354.311L693.914 353.853L694.371 353.602L693.914 353.35L693.662 352.893Z" fill="white"/>
<path d="M781.135 346.373L780.883 346.842L780.426 347.082L780.883 347.334L781.135 347.791L781.386 347.334L781.844 347.082L781.386 346.842L781.135 346.373Z" fill="white"/>
<path d="M700.877 321.123L700.625 321.58L700.168 321.821L700.625 322.072L700.877 322.53L701.129 322.072L701.586 321.821L701.129 321.58L700.877 321.123Z" fill="white"/>
<path d="M647.861 361.148L647.61 361.606L647.152 361.857L647.61 362.098L647.861 362.566L648.113 362.098L648.57 361.857L648.113 361.606L647.861 361.148Z" fill="white"/>
<path d="M663.287 377.398L663.047 377.856L662.59 378.096L663.047 378.348L663.287 378.816L663.55 378.348L663.996 378.096L663.55 377.856L663.287 377.398Z" fill="white"/>
<path d="M700.17 353.6L699.918 354.057L699.461 354.309L699.918 354.56L700.17 355.018L700.422 354.56L700.879 354.309L700.422 354.057L700.17 353.6Z" fill="white"/>
<path d="M725.658 354.309L725.407 354.766L724.949 355.018L725.407 355.269L725.658 355.727L725.91 355.269L726.367 355.018L725.91 354.766L725.658 354.309Z" fill="white"/>
<path d="M721.232 303.719L720.981 304.176L720.523 304.428L720.981 304.679L721.232 305.137L721.484 304.679L721.941 304.428L721.484 304.176L721.232 303.719Z" fill="white"/>
<path d="M931.947 303.01L931.696 303.467L931.238 303.719L931.696 303.97L931.947 304.428L932.199 303.97L932.656 303.719L932.199 303.467L931.947 303.01Z" fill="white"/>
<path d="M885.611 278.721L885.36 279.178L884.902 279.43L885.36 279.681L885.611 280.139L885.863 279.681L886.32 279.43L885.863 279.178L885.611 278.721Z" fill="white"/>
<path d="M864.123 269.607L863.872 270.065L863.414 270.316L863.872 270.568L864.123 271.025L864.375 270.568L864.832 270.316L864.375 270.065L864.123 269.607Z" fill="white"/>
<path d="M905.338 252.842L905.086 253.299L904.629 253.551L905.086 253.791L905.338 254.26L905.589 253.791L906.047 253.551L905.589 253.299L905.338 252.842Z" fill="white"/>
<path d="M841.537 310.512L841.286 310.969L840.828 311.221L841.286 311.472L841.537 311.93L841.789 311.472L842.246 311.221L841.789 310.969L841.537 310.512Z" fill="white"/>
<path d="M916.237 306.053L915.996 306.51L915.539 306.762L915.996 307.013L916.237 307.471L916.488 307.013L916.946 306.762L916.488 306.51L916.237 306.053Z" fill="white"/>
<path d="M740.158 229.102L739.907 229.559L739.449 229.811L739.907 230.062L740.158 230.52L740.41 230.062L740.867 229.811L740.41 229.559L740.158 229.102Z" fill="white"/>
<path d="M647.154 232.852L646.903 233.309L646.445 233.561L646.903 233.812L647.154 234.27L647.406 233.812L647.863 233.561L647.406 233.309L647.154 232.852Z" fill="white"/>
<path d="M671.717 288.062L671.465 288.52L671.008 288.771L671.465 289.023L671.717 289.48L671.968 289.023L672.426 288.771L671.968 288.52L671.717 288.062Z" fill="white"/>
<path d="M707.107 214.281L706.856 214.739L706.398 214.99L706.856 215.242L707.107 215.699L707.359 215.242L707.816 214.99L707.359 214.739L707.107 214.281Z" fill="white"/>
<path d="M653.229 268.896L652.977 269.354L652.52 269.606L652.977 269.857L653.229 270.315L653.48 269.857L653.938 269.606L653.48 269.354L653.229 268.896Z" fill="white"/>
<path d="M915.537 262.311L915.286 262.768L914.828 263.02L915.286 263.271L915.537 263.729L915.777 263.271L916.235 263.02L915.777 262.768L915.537 262.311Z" fill="white"/>
<path d="M846.967 327.219L846.715 327.688L846.258 327.928L846.715 328.179L846.967 328.637L847.218 328.179L847.676 327.928L847.218 327.688L846.967 327.219Z" fill="white"/>
<path d="M764.916 333.084L764.664 333.541L764.207 333.793L764.664 334.045L764.916 334.502L765.168 334.045L765.625 333.793L765.168 333.541L764.916 333.084Z" fill="white"/>
<path d="M748.15 306.76L747.899 307.217L747.441 307.469L747.899 307.72L748.15 308.178L748.402 307.72L748.859 307.469L748.402 307.217L748.15 306.76Z" fill="white"/>
<path d="M741.861 339.408L741.61 339.866L741.152 340.117L741.61 340.357L741.861 340.815L742.113 340.357L742.57 340.117L742.113 339.866L741.861 339.408Z" fill="white"/>
<path d="M657.768 361.857L657.516 362.315L657.059 362.566L657.516 362.807L657.768 363.275L658.019 362.807L658.477 362.566L658.019 362.315L657.768 361.857Z" fill="white"/>
<path d="M789.23 231.023L788.773 231.847L787.961 232.293L788.773 232.739L789.23 233.562L789.676 232.739L790.488 232.293L789.676 231.847L789.23 231.023Z" fill="white"/>
<path d="M763.043 269.045L762.597 269.868L761.773 270.314L762.597 270.76L763.043 271.584L763.5 270.76L764.312 270.314L763.5 269.868L763.043 269.045Z" fill="white"/>
<path d="M748.802 163.529L747.475 165.954L745.051 167.28L747.475 168.607L748.802 171.02L750.117 168.607L752.541 167.28L750.117 165.954L748.802 163.529Z" fill="white"/>
<path d="M708.551 174.52L708.105 175.331L707.281 175.789L708.105 176.235L708.551 177.047L708.997 176.235L709.82 175.789L708.997 175.331L708.551 174.52Z" fill="white"/>
<path d="M690.975 161.551L690.723 162.008L690.266 162.26L690.723 162.511L690.975 162.969L691.215 162.511L691.672 162.26L691.215 162.008L690.975 161.551Z" fill="white"/>
<path d="M720.834 177.607L720.582 178.065L720.113 178.316L720.582 178.568L720.834 179.025L721.074 178.568L721.531 178.316L721.074 178.065L720.834 177.607Z" fill="white"/>
<path d="M729.42 162.822L729.168 163.28L728.711 163.531L729.168 163.783L729.42 164.24L729.672 163.783L730.129 163.531L729.672 163.28L729.42 162.822Z" fill="white"/>
<path d="M742.525 178.877L742.274 179.334L741.816 179.586L742.274 179.838L742.525 180.295L742.777 179.838L743.234 179.586L742.777 179.334L742.525 178.877Z" fill="white"/>
<path d="M708.012 139.035L707.554 139.847L706.742 140.305L707.554 140.75L708.012 141.574L708.458 140.75L709.269 140.305L708.458 139.847L708.012 139.035Z" fill="white"/>
<path d="M681.824 177.047L681.378 177.87L680.566 178.316L681.378 178.774L681.824 179.586L682.282 178.774L683.094 178.316L682.282 177.87L681.824 177.047Z" fill="white"/>
<path d="M797.293 199.586L796.835 200.409L796.023 200.855L796.835 201.301L797.293 202.125L797.739 201.301L798.562 200.855L797.739 200.409L797.293 199.586Z" fill="white"/>
<path d="M779.705 186.619L779.454 187.077L778.996 187.328L779.454 187.58L779.705 188.037L779.957 187.58L780.414 187.328L779.957 187.077L779.705 186.619Z" fill="white"/>
<path d="M809.564 202.686L809.313 203.143L808.855 203.395L809.313 203.635L809.564 204.104L809.816 203.635L810.273 203.395L809.816 203.143L809.564 202.686Z" fill="white"/>
<path d="M796.742 164.102L796.296 164.925L795.473 165.371L796.296 165.817L796.742 166.64L797.188 165.817L798.011 165.371L797.188 164.925L796.742 164.102Z" fill="white"/>
<path d="M770.566 202.125L770.109 202.937L769.297 203.394L770.109 203.84L770.566 204.652L771.012 203.84L771.836 203.394L771.012 202.937L770.566 202.125Z" fill="white"/>
<path d="M848.339 224.002L847.882 224.825L847.059 225.271L847.882 225.717L848.339 226.541L848.785 225.717L849.597 225.271L848.785 224.825L848.339 224.002Z" fill="white"/>
<path d="M830.752 211.033L830.5 211.491L830.043 211.742L830.5 211.994L830.752 212.451L831.004 211.994L831.461 211.742L831.004 211.491L830.752 211.033Z" fill="white"/>
<path d="M860.611 227.102L860.36 227.559L859.902 227.811L860.36 228.062L860.611 228.52L860.863 228.062L861.32 227.811L860.863 227.559L860.611 227.102Z" fill="white"/>
<path d="M847.793 188.518L847.347 189.341L846.523 189.787L847.347 190.233L847.793 191.056L848.239 190.233L849.062 189.787L848.239 189.341L847.793 188.518Z" fill="white"/>
<path d="M821.617 226.541L821.16 227.353L820.348 227.81L821.16 228.256L821.617 229.08L822.063 228.256L822.886 227.81L822.063 227.353L821.617 226.541Z" fill="white"/>
<path d="M707.109 233L706.663 233.823L705.84 234.269L706.663 234.715L707.109 235.539L707.555 234.715L708.379 234.269L707.555 233.823L707.109 233Z" fill="white"/>
<path d="M652.515 254.957L652.069 255.78L651.246 256.226L652.069 256.684L652.515 257.496L652.961 256.684L653.785 256.226L652.961 255.78L652.515 254.957Z" fill="white"/>
<path d="M691.683 301.74L691.237 302.564L690.414 303.01L691.237 303.456L691.683 304.279L692.141 303.456L692.953 303.01L692.141 302.564L691.683 301.74Z" fill="white"/>
<path d="M805.984 318.848L805.538 319.66L804.715 320.117L805.538 320.563L805.984 321.386L806.43 320.563L807.254 320.117L806.43 319.66L805.984 318.848Z" fill="white"/>
<path d="M880.394 241.762L879.948 242.585L879.125 243.031L879.948 243.488L880.394 244.3L880.852 243.488L881.664 243.031L880.852 242.585L880.394 241.762Z" fill="white"/>
<path d="M842.808 273.334L842.362 274.157L841.539 274.603L842.362 275.049L842.808 275.873L843.254 275.049L844.078 274.603L843.254 274.157L842.808 273.334Z" fill="white"/>
<path d="M826.898 309.951L826.452 310.775L825.629 311.221L826.452 311.667L826.898 312.49L827.344 311.667L828.168 311.221L827.344 310.775L826.898 309.951Z" fill="white"/>
<path d="M816.847 298.596L816.39 299.419L815.578 299.865L816.39 300.311L816.847 301.134L817.293 300.311L818.117 299.865L817.293 299.419L816.847 298.596Z" fill="white"/>
<path d="M890.219 330.512L889.773 331.335L888.949 331.781L889.773 332.227L890.219 333.05L890.665 332.227L891.488 331.781L890.665 331.335L890.219 330.512Z" fill="white"/>
<path d="M735.883 267.777L735.437 268.601L734.613 269.047L735.437 269.493L735.883 270.316L736.329 269.493L737.152 269.047L736.329 268.601L735.883 267.777Z" fill="white"/>
<path d="M783.765 292.26L783.319 293.083L782.496 293.529L783.319 293.975L783.765 294.798L784.211 293.975L785.035 293.529L784.211 293.083L783.765 292.26Z" fill="white"/>
</g>
<g opacity="0.3">
<path d="M1184.51 125.781L1186 128.514L1188.73 130.001L1186 131.499L1184.51 134.232L1183.01 131.499L1180.28 130.001L1183.01 128.514L1184.51 125.781Z" fill="white"/>
<path d="M1124.68 71.4746L1126.17 74.2077L1128.91 75.6943L1126.17 77.1924L1124.68 79.9255L1123.19 77.1924L1120.46 75.6943L1123.19 74.2077L1124.68 71.4746Z" fill="white"/>
<path d="M1090.47 112.186L1091.96 114.919L1094.69 116.417L1091.96 117.903L1090.47 120.636L1088.98 117.903L1086.24 116.417L1088.98 114.919L1090.47 112.186Z" fill="white"/>
<path d="M1013.74 42.5078L1015.24 45.2409L1017.97 46.7275L1015.24 48.2256L1013.74 50.9587L1012.26 48.2256L1009.52 46.7275L1012.26 45.2409L1013.74 42.5078Z" fill="white"/>
<path d="M1200.14 114.301L1200.88 115.662L1202.24 116.416L1200.88 117.16L1200.14 118.521L1199.4 117.16L1198.02 116.416L1199.4 115.662L1200.14 114.301Z" fill="white"/>
<path d="M1294.06 88.2617L1294.8 89.6226L1296.18 90.3659L1294.8 91.1206L1294.06 92.4814L1293.32 91.1206L1291.95 90.3659L1293.32 89.6226L1294.06 88.2617Z" fill="white"/>
<path d="M1336.01 165.475L1336.77 166.835L1338.13 167.59L1336.77 168.333L1336.01 169.694L1335.27 168.333L1333.91 167.59L1335.27 166.835L1336.01 165.475Z" fill="white"/>
<path d="M1253.9 202.113L1254.64 203.474L1256 204.229L1254.64 204.972L1253.9 206.333L1253.15 204.972L1251.78 204.229L1253.15 203.474L1253.9 202.113Z" fill="white"/>
<path d="M1215.06 194.098L1215.81 195.47L1217.18 196.213L1215.81 196.957L1215.06 198.329L1214.32 196.957L1212.95 196.213L1214.32 195.47L1215.06 194.098Z" fill="white"/>
<path d="M1303.05 198.764L1303.79 200.125L1305.16 200.879L1303.79 201.623L1303.05 202.983L1302.31 201.623L1300.93 200.879L1302.31 200.125L1303.05 198.764Z" fill="white"/>
<path d="M1033.05 196.213L1033.79 197.574L1035.15 198.328L1033.79 199.072L1033.05 200.433L1032.29 199.072L1030.93 198.328L1032.29 197.574L1033.05 196.213Z" fill="white"/>
<path d="M1244.37 157.4L1245.11 158.132L1246.49 158.533L1245.11 158.933L1244.37 159.665L1243.63 158.933L1242.27 158.533L1243.63 158.132L1244.37 157.4Z" fill="white"/>
<path d="M1170.03 83.8477L1170.53 84.774L1171.46 85.2771L1170.53 85.7917L1170.03 86.7065L1169.52 85.7917L1168.6 85.2771L1169.52 84.774L1170.03 83.8477Z" fill="white"/>
<path d="M1189.84 69.2441L1190.12 69.7587L1190.64 70.0446L1190.12 70.3305L1189.84 70.8451L1189.56 70.3305L1189.05 70.0446L1189.56 69.7587L1189.84 69.2441Z" fill="white"/>
<path d="M1156.19 87.3477L1156.48 87.8623L1156.99 88.1367L1156.48 88.4226L1156.19 88.9372L1155.92 88.4226L1155.4 88.1367L1155.92 87.8623L1156.19 87.3477Z" fill="white"/>
<path d="M1146.52 70.6738L1146.8 71.1884L1147.32 71.4743L1146.8 71.7602L1146.52 72.2748L1146.23 71.7602L1145.71 71.4743L1146.23 71.1884L1146.52 70.6738Z" fill="white"/>
<path d="M1131.75 88.7754L1132.03 89.29L1132.54 89.5644L1132.03 89.8503L1131.75 90.3649L1131.47 89.8503L1130.95 89.5644L1131.47 89.29L1131.75 88.7754Z" fill="white"/>
<path d="M1163.74 119.836L1164.02 120.351L1164.54 120.636L1164.02 120.922L1163.74 121.437L1163.46 120.922L1162.94 120.636L1163.46 120.351L1163.74 119.836Z" fill="white"/>
<path d="M1129.62 144.582L1129.9 145.108L1130.42 145.383L1129.9 145.668L1129.62 146.183L1129.34 145.668L1128.82 145.383L1129.34 145.108L1129.62 144.582Z" fill="white"/>
<path d="M1144.83 155.172L1145.11 155.686L1145.63 155.972L1145.11 156.247L1144.83 156.773L1144.54 156.247L1144.03 155.972L1144.54 155.686L1144.83 155.172Z" fill="white"/>
<path d="M1106.38 173.057L1106.67 173.571L1107.18 173.846L1106.67 174.132L1106.38 174.646L1106.1 174.132L1105.58 173.846L1106.1 173.571L1106.38 173.057Z" fill="white"/>
<path d="M1023.91 173.846L1024.2 174.36L1024.71 174.646L1024.2 174.932L1023.91 175.447L1023.62 174.932L1023.11 174.646L1023.62 174.36L1023.91 173.846Z" fill="white"/>
<path d="M984.867 179.586L985.141 180.101L985.667 180.386L985.141 180.672L984.867 181.187L984.581 180.672L984.066 180.386L984.581 180.101L984.867 179.586Z" fill="white"/>
<path d="M1013.74 191.285L1014.03 191.8L1014.54 192.086L1014.03 192.372L1013.74 192.886L1013.47 192.372L1012.94 192.086L1013.47 191.8L1013.74 191.285Z" fill="white"/>
<path d="M1075.08 180.387L1075.36 180.901L1075.87 181.187L1075.36 181.473L1075.08 181.988L1074.8 181.473L1074.28 181.187L1074.8 180.901L1075.08 180.387Z" fill="white"/>
<path d="M1087.04 190.484L1087.33 190.999L1087.84 191.285L1087.33 191.571L1087.04 192.085L1086.77 191.571L1086.24 191.285L1086.77 190.999L1087.04 190.484Z" fill="white"/>
<path d="M1278.31 181.188L1278.6 181.702L1279.11 181.988L1278.6 182.262L1278.31 182.788L1278.03 182.262L1277.51 181.988L1278.03 181.702L1278.31 181.188Z" fill="white"/>
<path d="M1179.76 173.846L1180.05 174.36L1180.56 174.646L1180.05 174.932L1179.76 175.447L1179.48 174.932L1178.96 174.646L1179.48 174.36L1179.76 173.846Z" fill="white"/>
<path d="M1270.18 145.383L1270.47 145.897L1270.98 146.183L1270.47 146.469L1270.18 146.984L1269.91 146.469L1269.39 146.183L1269.91 145.897L1270.18 145.383Z" fill="white"/>
<path d="M1329.92 190.484L1330.21 190.999L1330.72 191.285L1330.21 191.571L1329.92 192.085L1329.64 191.571L1329.12 191.285L1329.64 190.999L1329.92 190.484Z" fill="white"/>
<path d="M1312.54 208.791L1312.81 209.306L1313.33 209.592L1312.81 209.877L1312.54 210.392L1312.25 209.877L1311.74 209.592L1312.25 209.306L1312.54 208.791Z" fill="white"/>
<path d="M1270.98 181.988L1271.27 182.503L1271.78 182.789L1271.27 183.063L1270.98 183.578L1270.69 183.063L1270.18 182.789L1270.69 182.503L1270.98 181.988Z" fill="white"/>
<path d="M1242.27 182.787L1242.54 183.302L1243.06 183.576L1242.54 183.862L1242.27 184.377L1241.98 183.862L1241.47 183.576L1241.98 183.302L1242.27 182.787Z" fill="white"/>
<path d="M1247.25 125.781L1247.53 126.296L1248.04 126.582L1247.53 126.856L1247.25 127.382L1246.97 126.856L1246.45 126.582L1246.97 126.296L1247.25 125.781Z" fill="white"/>
<path d="M1009.83 124.98L1010.11 125.495L1010.62 125.781L1010.11 126.067L1009.83 126.581L1009.55 126.067L1009.03 125.781L1009.55 125.495L1009.83 124.98Z" fill="white"/>
<path d="M1062.03 97.6055L1062.32 98.1201L1062.84 98.406L1062.32 98.6919L1062.03 99.2065L1061.75 98.6919L1061.23 98.406L1061.75 98.1201L1062.03 97.6055Z" fill="white"/>
<path d="M1086.24 87.3457L1086.53 87.8603L1087.04 88.1347L1086.53 88.4206L1086.24 88.9352L1085.97 88.4206L1085.45 88.1347L1085.97 87.8603L1086.24 87.3457Z" fill="white"/>
<path d="M1039.82 68.4434L1040.1 68.958L1040.62 69.2439L1040.1 69.5298L1039.82 70.0443L1039.53 69.5298L1039.02 69.2439L1039.53 68.958L1039.82 68.4434Z" fill="white"/>
<path d="M1111.7 133.432L1111.98 133.946L1112.5 134.232L1111.98 134.507L1111.7 135.021L1111.41 134.507L1110.9 134.232L1111.41 133.946L1111.7 133.432Z" fill="white"/>
<path d="M1027.52 128.412L1027.81 128.927L1028.32 129.213L1027.81 129.487L1027.52 130.002L1027.25 129.487L1026.72 129.213L1027.25 128.927L1027.52 128.412Z" fill="white"/>
<path d="M1225.93 41.707L1226.21 42.2216L1226.73 42.5075L1226.21 42.782L1225.93 43.308L1225.64 42.782L1225.12 42.5075L1225.64 42.2216L1225.93 41.707Z" fill="white"/>
<path d="M1330.72 45.9277L1331.01 46.4423L1331.52 46.7282L1331.01 47.0141L1330.72 47.5287L1330.44 47.0141L1329.92 46.7282L1330.44 46.4423L1330.72 45.9277Z" fill="white"/>
<path d="M1303.05 108.137L1303.33 108.651L1303.85 108.937L1303.33 109.223L1303.05 109.738L1302.76 109.223L1302.25 108.937L1302.76 108.651L1303.05 108.137Z" fill="white"/>
<path d="M1263.16 25L1263.45 25.526L1263.96 25.8005L1263.45 26.0864L1263.16 26.601L1262.87 26.0864L1262.36 25.8005L1262.87 25.526L1263.16 25Z" fill="white"/>
<path d="M1323.88 86.5469L1324.17 87.0615L1324.68 87.3474L1324.17 87.6218L1323.88 88.1364L1323.61 87.6218L1323.08 87.3474L1323.61 87.0615L1323.88 86.5469Z" fill="white"/>
<path d="M1028.32 79.125L1028.61 79.6396L1029.12 79.9255L1028.61 80.1999L1028.32 80.7145L1028.04 80.1999L1027.52 79.9255L1028.04 79.6396L1028.32 79.125Z" fill="white"/>
<path d="M1105.58 152.266L1105.86 152.78L1106.38 153.066L1105.86 153.341L1105.58 153.867L1105.29 153.341L1104.78 153.066L1105.29 152.78L1105.58 152.266Z" fill="white"/>
<path d="M1198.02 158.865L1198.31 159.38L1198.82 159.666L1198.31 159.952L1198.02 160.466L1197.75 159.952L1197.22 159.666L1197.75 159.38L1198.02 158.865Z" fill="white"/>
<path d="M1216.91 129.213L1217.2 129.728L1217.71 130.002L1217.2 130.288L1216.91 130.802L1216.63 130.288L1216.11 130.002L1216.63 129.728L1216.91 129.213Z" fill="white"/>
<path d="M1224.01 165.988L1224.29 166.503L1224.81 166.789L1224.29 167.063L1224.01 167.589L1223.73 167.063L1223.22 166.789L1223.73 166.503L1224.01 165.988Z" fill="white"/>
<path d="M1318.76 191.285L1319.05 191.8L1319.56 192.086L1319.05 192.372L1318.76 192.886L1318.49 192.372L1317.96 192.086L1318.49 191.8L1318.76 191.285Z" fill="white"/>
<path d="M1170.64 43.8691L1171.15 44.7954L1172.08 45.2986L1171.15 45.8017L1170.64 46.728L1170.13 45.8017L1169.21 45.2986L1170.13 44.7954L1170.64 43.8691Z" fill="white"/>
<path d="M1200.14 86.707L1200.64 87.6333L1201.57 88.1365L1200.64 88.6511L1200.14 89.5659L1199.63 88.6511L1198.71 88.1365L1199.63 87.6333L1200.14 86.707Z" fill="white"/>
<path d="M1263.16 46.0996L1263.66 47.0259L1264.59 47.5291L1263.66 48.0322L1263.16 48.9585L1262.66 48.0322L1261.73 47.5291L1262.66 47.0259L1263.16 46.0996Z" fill="white"/>
<path d="M1324.68 70.8457L1325.19 71.772L1326.11 72.2751L1325.19 72.7783L1324.68 73.7046L1324.18 72.7783L1323.25 72.2751L1324.18 71.772L1324.68 70.8457Z" fill="white"/>
<path d="M1280.54 123.551L1281.05 124.477L1281.97 124.98L1281.05 125.483L1280.54 126.41L1280.04 125.483L1279.11 124.98L1280.04 124.477L1280.54 123.551Z" fill="white"/>
<path d="M1151.76 142.82L1152.26 143.747L1153.19 144.25L1152.26 144.753L1151.76 145.679L1151.25 144.753L1150.33 144.25L1151.25 143.747L1151.76 142.82Z" fill="white"/>
<path d="M1067.91 55.9668L1068.42 56.8931L1069.34 57.3962L1068.42 57.8994L1067.91 58.8257L1067.4 57.8994L1066.48 57.3962L1067.4 56.8931L1067.91 55.9668Z" fill="white"/>
<path d="M1110.27 91.543L1110.77 92.4692L1111.7 92.9724L1110.77 93.4756L1110.27 94.4019L1109.77 93.4756L1108.84 92.9724L1109.77 92.4692L1110.27 91.543Z" fill="white"/>
<path d="M1128.19 132.803L1128.7 133.729L1129.62 134.232L1128.7 134.735L1128.19 135.662L1127.68 134.735L1126.76 134.232L1127.68 133.729L1128.19 132.803Z" fill="white"/>
<path d="M1139.52 120.006L1140.02 120.932L1140.95 121.435L1140.02 121.938L1139.52 122.865L1139.02 121.938L1138.09 121.435L1139.02 120.932L1139.52 120.006Z" fill="white"/>
<path d="M1056.84 155.973L1057.35 156.899L1058.27 157.402L1057.35 157.905L1056.84 158.832L1056.34 157.905L1055.41 157.402L1056.34 156.899L1056.84 155.973Z" fill="white"/>
<path d="M1230.74 85.2773L1231.26 86.2036L1232.17 86.7068L1231.26 87.2214L1230.74 88.1362L1230.24 87.2214L1229.31 86.7068L1230.24 86.2036L1230.74 85.2773Z" fill="white"/>
<path d="M1176.79 112.871L1177.29 113.797L1178.22 114.301L1177.29 114.804L1176.79 115.73L1176.29 114.804L1175.36 114.301L1176.29 113.797L1176.79 112.871Z" fill="white"/>
<path d="M1130.99 303.719L1129.66 306.143L1127.24 307.47L1129.66 308.796L1130.99 311.22L1132.32 308.796L1134.74 307.47L1132.32 306.143L1130.99 303.719Z" fill="white"/>
<path d="M1184.08 255.518L1182.76 257.942L1180.34 259.268L1182.76 260.595L1184.08 263.019L1185.4 260.595L1187.83 259.268L1185.4 257.942L1184.08 255.518Z" fill="white"/>
<path d="M1214.43 291.654L1213.11 294.079L1210.7 295.405L1213.11 296.732L1214.43 299.156L1215.76 296.732L1218.19 295.405L1215.76 294.079L1214.43 291.654Z" fill="white"/>
<path d="M1282.53 229.811L1281.21 232.235L1278.78 233.561L1281.21 234.888L1282.53 237.312L1283.86 234.888L1286.28 233.561L1283.86 232.235L1282.53 229.811Z" fill="white"/>
<path d="M1117.11 293.529L1116.45 294.741L1115.25 295.405L1116.45 296.068L1117.11 297.28L1117.77 296.068L1118.99 295.405L1117.77 294.741L1117.11 293.529Z" fill="white"/>
<path d="M1033.77 270.418L1033.1 271.63L1031.89 272.293L1033.1 272.957L1033.77 274.169L1034.42 272.957L1035.64 272.293L1034.42 271.63L1033.77 270.418Z" fill="white"/>
<path d="M996.52 338.951L995.857 340.152L994.645 340.815L995.857 341.478L996.52 342.691L997.183 341.478L998.395 340.815L997.183 340.152L996.52 338.951Z" fill="white"/>
<path d="M1069.4 371.463L1068.74 372.675L1067.54 373.338L1068.74 374.002L1069.4 375.214L1070.06 374.002L1071.27 373.338L1070.06 372.675L1069.4 371.463Z" fill="white"/>
<path d="M1103.86 364.35L1103.2 365.562L1101.99 366.225L1103.2 366.888L1103.86 368.1L1104.53 366.888L1105.74 366.225L1104.53 365.562L1103.86 364.35Z" fill="white"/>
<path d="M1025.78 368.49L1025.12 369.702L1023.91 370.366L1025.12 371.029L1025.78 372.241L1026.44 371.029L1027.66 370.366L1026.44 369.702L1025.78 368.49Z" fill="white"/>
<path d="M1265.41 366.225L1264.74 367.437L1263.53 368.1L1264.74 368.763L1265.41 369.975L1266.07 368.763L1267.28 368.1L1266.07 367.437L1265.41 366.225Z" fill="white"/>
<path d="M1077.85 331.781L1077.18 332.433L1075.97 332.788L1077.18 333.142L1077.85 333.794L1078.51 333.142L1079.72 332.788L1078.51 332.433L1077.85 331.781Z" fill="white"/>
<path d="M1143.83 266.508L1143.39 267.331L1142.56 267.777L1143.39 268.223L1143.83 269.047L1144.28 268.223L1145.1 267.777L1144.28 267.331L1143.83 266.508Z" fill="white"/>
<path d="M1126.26 253.551L1126 254.008L1125.55 254.26L1126 254.5L1126.26 254.957L1126.5 254.5L1126.95 254.26L1126.5 254.008L1126.26 253.551Z" fill="white"/>
<path d="M1156.11 269.607L1155.85 270.065L1155.39 270.316L1155.85 270.568L1156.11 271.025L1156.36 270.568L1156.81 270.316L1156.36 270.065L1156.11 269.607Z" fill="white"/>
<path d="M1164.7 254.82L1164.45 255.278L1163.99 255.518L1164.45 255.769L1164.7 256.227L1164.95 255.769L1165.41 255.518L1164.95 255.278L1164.7 254.82Z" fill="white"/>
<path d="M1177.81 270.875L1177.56 271.332L1177.1 271.584L1177.56 271.836L1177.81 272.293L1178.06 271.836L1178.52 271.584L1178.06 271.332L1177.81 270.875Z" fill="white"/>
<path d="M1149.41 298.447L1149.16 298.905L1148.7 299.156L1149.16 299.408L1149.41 299.865L1149.66 299.408L1150.12 299.156L1149.66 298.905L1149.41 298.447Z" fill="white"/>
<path d="M1179.69 320.414L1179.44 320.871L1178.98 321.123L1179.44 321.363L1179.69 321.821L1179.94 321.363L1180.4 321.123L1179.94 320.871L1179.69 320.414Z" fill="white"/>
<path d="M1166.2 329.803L1165.95 330.26L1165.49 330.512L1165.95 330.763L1166.2 331.221L1166.45 330.763L1166.91 330.512L1166.45 330.26L1166.2 329.803Z" fill="white"/>
<path d="M1200.33 345.676L1200.07 346.133L1199.62 346.385L1200.07 346.625L1200.33 347.082L1200.58 346.625L1201.04 346.385L1200.58 346.133L1200.33 345.676Z" fill="white"/>
<path d="M1273.51 346.373L1273.26 346.842L1272.8 347.082L1273.26 347.334L1273.51 347.791L1273.77 347.334L1274.22 347.082L1273.77 346.842L1273.51 346.373Z" fill="white"/>
<path d="M1308.16 351.473L1307.91 351.93L1307.45 352.182L1307.91 352.433L1308.16 352.891L1308.41 352.433L1308.87 352.182L1308.41 351.93L1308.16 351.473Z" fill="white"/>
<path d="M1282.54 361.857L1282.29 362.315L1281.83 362.566L1282.29 362.807L1282.54 363.275L1282.79 362.807L1283.25 362.566L1282.79 362.315L1282.54 361.857Z" fill="white"/>
<path d="M1228.1 352.182L1227.85 352.639L1227.39 352.891L1227.85 353.142L1228.1 353.6L1228.36 353.142L1228.81 352.891L1228.36 352.639L1228.1 352.182Z" fill="white"/>
<path d="M1217.48 361.148L1217.23 361.606L1216.77 361.857L1217.23 362.098L1217.48 362.566L1217.73 362.098L1218.19 361.857L1217.73 361.606L1217.48 361.148Z" fill="white"/>
<path d="M1047.73 352.893L1047.48 353.35L1047.02 353.602L1047.48 353.853L1047.73 354.311L1047.98 353.853L1048.44 353.602L1047.98 353.35L1047.73 352.893Z" fill="white"/>
<path d="M1135.2 346.373L1134.95 346.842L1134.49 347.082L1134.95 347.334L1135.2 347.791L1135.45 347.334L1135.91 347.082L1135.45 346.842L1135.2 346.373Z" fill="white"/>
<path d="M1054.94 321.123L1054.69 321.58L1054.23 321.821L1054.69 322.072L1054.94 322.53L1055.19 322.072L1055.65 321.821L1055.19 321.58L1054.94 321.123Z" fill="white"/>
<path d="M1001.93 361.148L1001.68 361.606L1001.22 361.857L1001.68 362.098L1001.93 362.566L1002.18 362.098L1002.64 361.857L1002.18 361.606L1001.93 361.148Z" fill="white"/>
<path d="M1017.35 377.398L1017.11 377.856L1016.66 378.096L1017.11 378.348L1017.35 378.816L1017.62 378.348L1018.06 378.096L1017.62 377.856L1017.35 377.398Z" fill="white"/>
<path d="M1054.24 353.6L1053.98 354.057L1053.53 354.309L1053.98 354.56L1054.24 355.018L1054.49 354.56L1054.95 354.309L1054.49 354.057L1054.24 353.6Z" fill="white"/>
<path d="M1079.72 354.309L1079.47 354.766L1079.02 355.018L1079.47 355.269L1079.72 355.727L1079.98 355.269L1080.43 355.018L1079.98 354.766L1079.72 354.309Z" fill="white"/>
<path d="M1075.3 303.719L1075.05 304.176L1074.59 304.428L1075.05 304.679L1075.3 305.137L1075.55 304.679L1076.01 304.428L1075.55 304.176L1075.3 303.719Z" fill="white"/>
<path d="M1286.01 303.01L1285.76 303.467L1285.3 303.719L1285.76 303.97L1286.01 304.428L1286.26 303.97L1286.72 303.719L1286.26 303.467L1286.01 303.01Z" fill="white"/>
<path d="M1239.67 278.721L1239.42 279.178L1238.96 279.43L1239.42 279.681L1239.67 280.139L1239.93 279.681L1240.38 279.43L1239.93 279.178L1239.67 278.721Z" fill="white"/>
<path d="M1218.19 269.607L1217.93 270.065L1217.48 270.316L1217.93 270.568L1218.19 271.025L1218.44 270.568L1218.89 270.316L1218.44 270.065L1218.19 269.607Z" fill="white"/>
<path d="M1259.4 252.842L1259.15 253.299L1258.69 253.551L1259.15 253.791L1259.4 254.26L1259.65 253.791L1260.11 253.551L1259.65 253.299L1259.4 252.842Z" fill="white"/>
<path d="M1195.6 310.512L1195.35 310.969L1194.89 311.221L1195.35 311.472L1195.6 311.93L1195.85 311.472L1196.31 311.221L1195.85 310.969L1195.6 310.512Z" fill="white"/>
<path d="M1270.3 306.051L1270.06 306.508L1269.6 306.76L1270.06 307.011L1270.3 307.469L1270.55 307.011L1271.01 306.76L1270.55 306.508L1270.3 306.051Z" fill="white"/>
<path d="M1094.22 229.102L1093.97 229.559L1093.52 229.811L1093.97 230.062L1094.22 230.52L1094.48 230.062L1094.93 229.811L1094.48 229.559L1094.22 229.102Z" fill="white"/>
<path d="M1001.22 232.852L1000.97 233.309L1000.51 233.561L1000.97 233.812L1001.22 234.27L1001.47 233.812L1001.93 233.561L1001.47 233.309L1001.22 232.852Z" fill="white"/>
<path d="M1025.78 288.062L1025.53 288.52L1025.07 288.771L1025.53 289.023L1025.78 289.48L1026.03 289.023L1026.49 288.771L1026.03 288.52L1025.78 288.062Z" fill="white"/>
<path d="M1061.17 214.281L1060.92 214.739L1060.46 214.99L1060.92 215.242L1061.17 215.699L1061.43 215.242L1061.88 214.99L1061.43 214.739L1061.17 214.281Z" fill="white"/>
<path d="M1007.29 268.896L1007.04 269.354L1006.59 269.606L1007.04 269.857L1007.29 270.315L1007.55 269.857L1008 269.606L1007.55 269.354L1007.29 268.896Z" fill="white"/>
<path d="M1269.6 262.311L1269.35 262.768L1268.89 263.02L1269.35 263.271L1269.6 263.729L1269.84 263.271L1270.3 263.02L1269.84 262.768L1269.6 262.311Z" fill="white"/>
<path d="M1201.03 327.219L1200.78 327.688L1200.32 327.928L1200.78 328.179L1201.03 328.637L1201.28 328.179L1201.74 327.928L1201.28 327.688L1201.03 327.219Z" fill="white"/>
<path d="M1118.98 333.084L1118.73 333.541L1118.27 333.793L1118.73 334.045L1118.98 334.502L1119.23 334.045L1119.69 333.793L1119.23 333.541L1118.98 333.084Z" fill="white"/>
<path d="M1102.22 306.76L1101.97 307.217L1101.51 307.469L1101.97 307.72L1102.22 308.178L1102.47 307.72L1102.93 307.469L1102.47 307.217L1102.22 306.76Z" fill="white"/>
<path d="M1095.93 339.408L1095.68 339.866L1095.22 340.117L1095.68 340.357L1095.93 340.815L1096.18 340.357L1096.64 340.117L1096.18 339.866L1095.93 339.408Z" fill="white"/>
<path d="M1011.83 361.857L1011.58 362.315L1011.12 362.566L1011.58 362.807L1011.83 363.275L1012.09 362.807L1012.54 362.566L1012.09 362.315L1011.83 361.857Z" fill="white"/>
<path d="M1143.3 231.023L1142.84 231.847L1142.03 232.293L1142.84 232.739L1143.3 233.562L1143.74 232.739L1144.55 232.293L1143.74 231.847L1143.3 231.023Z" fill="white"/>
<path d="M1117.11 269.045L1116.66 269.868L1115.84 270.314L1116.66 270.76L1117.11 271.584L1117.57 270.76L1118.38 270.314L1117.57 269.868L1117.11 269.045Z" fill="white"/>
<path d="M1102.87 163.529L1101.54 165.954L1099.12 167.28L1101.54 168.607L1102.87 171.02L1104.18 168.607L1106.61 167.28L1104.18 165.954L1102.87 163.529Z" fill="white"/>
<path d="M1062.62 174.52L1062.17 175.331L1061.35 175.789L1062.17 176.235L1062.62 177.047L1063.06 176.235L1063.89 175.789L1063.06 175.331L1062.62 174.52Z" fill="white"/>
<path d="M1045.04 161.551L1044.79 162.008L1044.33 162.26L1044.79 162.511L1045.04 162.969L1045.28 162.511L1045.74 162.26L1045.28 162.008L1045.04 161.551Z" fill="white"/>
<path d="M1074.9 177.607L1074.65 178.065L1074.18 178.316L1074.65 178.568L1074.9 179.025L1075.14 178.568L1075.6 178.316L1075.14 178.065L1074.9 177.607Z" fill="white"/>
<path d="M1083.49 162.822L1083.23 163.28L1082.78 163.531L1083.23 163.783L1083.49 164.24L1083.74 163.783L1084.2 163.531L1083.74 163.28L1083.49 162.822Z" fill="white"/>
<path d="M1096.6 178.877L1096.34 179.334L1095.89 179.586L1096.34 179.838L1096.6 180.295L1096.85 179.838L1097.3 179.586L1096.85 179.334L1096.6 178.877Z" fill="white"/>
<path d="M1062.08 139.035L1061.62 139.847L1060.81 140.305L1061.62 140.75L1062.08 141.574L1062.52 140.75L1063.34 140.305L1062.52 139.847L1062.08 139.035Z" fill="white"/>
<path d="M1035.89 177.047L1035.44 177.87L1034.63 178.316L1035.44 178.774L1035.89 179.586L1036.35 178.774L1037.16 178.316L1036.35 177.87L1035.89 177.047Z" fill="white"/>
<path d="M1151.36 199.586L1150.9 200.409L1150.09 200.855L1150.9 201.301L1151.36 202.125L1151.8 201.301L1152.62 200.855L1151.8 200.409L1151.36 199.586Z" fill="white"/>
<path d="M1133.77 186.619L1133.52 187.077L1133.06 187.328L1133.52 187.58L1133.77 188.037L1134.02 187.58L1134.48 187.328L1134.02 187.077L1133.77 186.619Z" fill="white"/>
<path d="M1163.63 202.686L1163.38 203.143L1162.92 203.395L1163.38 203.635L1163.63 204.104L1163.88 203.635L1164.34 203.395L1163.88 203.143L1163.63 202.686Z" fill="white"/>
<path d="M1150.81 164.102L1150.36 164.925L1149.54 165.371L1150.36 165.817L1150.81 166.64L1151.25 165.817L1152.08 165.371L1151.25 164.925L1150.81 164.102Z" fill="white"/>
<path d="M1124.63 202.125L1124.18 202.937L1123.36 203.394L1124.18 203.84L1124.63 204.652L1125.08 203.84L1125.9 203.394L1125.08 202.937L1124.63 202.125Z" fill="white"/>
<path d="M1202.41 224.002L1201.95 224.825L1201.12 225.271L1201.95 225.717L1202.41 226.541L1202.85 225.717L1203.66 225.271L1202.85 224.825L1202.41 224.002Z" fill="white"/>
<path d="M1184.82 211.033L1184.57 211.491L1184.11 211.742L1184.57 211.994L1184.82 212.451L1185.07 211.994L1185.53 211.742L1185.07 211.491L1184.82 211.033Z" fill="white"/>
<path d="M1214.67 227.102L1214.42 227.559L1213.96 227.811L1214.42 228.062L1214.67 228.52L1214.93 228.062L1215.38 227.811L1214.93 227.559L1214.67 227.102Z" fill="white"/>
<path d="M1201.86 188.518L1201.41 189.341L1200.59 189.787L1201.41 190.233L1201.86 191.056L1202.3 190.233L1203.12 189.787L1202.3 189.341L1201.86 188.518Z" fill="white"/>
<path d="M1175.68 226.539L1175.22 227.351L1174.41 227.808L1175.22 228.254L1175.68 229.078L1176.13 228.254L1176.95 227.808L1176.13 227.351L1175.68 226.539Z" fill="white"/>
<path d="M1061.18 233L1060.73 233.823L1059.91 234.269L1060.73 234.715L1061.18 235.539L1061.62 234.715L1062.44 234.269L1061.62 233.823L1061.18 233Z" fill="white"/>
<path d="M1006.58 254.957L1006.14 255.78L1005.31 256.226L1006.14 256.684L1006.58 257.496L1007.03 256.684L1007.85 256.226L1007.03 255.78L1006.58 254.957Z" fill="white"/>
<path d="M1045.75 301.74L1045.3 302.564L1044.48 303.01L1045.3 303.456L1045.75 304.279L1046.21 303.456L1047.02 303.01L1046.21 302.564L1045.75 301.74Z" fill="white"/>
<path d="M1160.05 318.848L1159.6 319.66L1158.78 320.117L1159.6 320.563L1160.05 321.386L1160.5 320.563L1161.32 320.117L1160.5 319.66L1160.05 318.848Z" fill="white"/>
<path d="M1234.46 241.762L1234.01 242.585L1233.19 243.031L1234.01 243.488L1234.46 244.3L1234.92 243.488L1235.73 243.031L1234.92 242.585L1234.46 241.762Z" fill="white"/>
<path d="M1196.87 273.334L1196.42 274.157L1195.6 274.603L1196.42 275.049L1196.87 275.873L1197.32 275.049L1198.14 274.603L1197.32 274.157L1196.87 273.334Z" fill="white"/>
<path d="M1180.96 309.951L1180.52 310.775L1179.7 311.221L1180.52 311.667L1180.96 312.49L1181.41 311.667L1182.23 311.221L1181.41 310.775L1180.96 309.951Z" fill="white"/>
<path d="M1170.91 298.596L1170.46 299.419L1169.64 299.865L1170.46 300.311L1170.91 301.134L1171.36 300.311L1172.18 299.865L1171.36 299.419L1170.91 298.596Z" fill="white"/>
<path d="M1244.28 330.512L1243.84 331.335L1243.02 331.781L1243.84 332.227L1244.28 333.05L1244.73 332.227L1245.55 331.781L1244.73 331.335L1244.28 330.512Z" fill="white"/>
<path d="M1089.95 267.777L1089.5 268.601L1088.68 269.047L1089.5 269.493L1089.95 270.316L1090.4 269.493L1091.22 269.047L1090.4 268.601L1089.95 267.777Z" fill="white"/>
<path d="M1137.83 292.26L1137.38 293.083L1136.56 293.529L1137.38 293.975L1137.83 294.798L1138.27 293.975L1139.1 293.529L1138.27 293.083L1137.83 292.26Z" fill="white"/>
</g>
<defs>
<linearGradient id="paint0_linear_2560_5017" x1="-295.5" y1="461" x2="1468.5" y2="104.837" gradientUnits="userSpaceOnUse">
<stop stop-color="#013572"/>
<stop offset="0.59375" stop-color="#01244F"/>
<stop offset="1" stop-color="#002551"/>
</linearGradient>
</defs>
</svg>
