<svg width="375" height="541" viewBox="0 0 375 541" fill="none" xmlns="http://www.w3.org/2000/svg">
<rect width="375" height="524" fill="url(#paint0_linear_2560_5018)"/>
<path d="M299.764 398.275C291.067 398.497 282.444 400.741 274.825 404.964C273.836 405.51 274.309 406.839 275.194 407.149C276.553 407.607 277.882 408.109 279.211 408.64C289.753 412.878 299.365 419.094 308.638 425.561C318.058 432.132 327.271 439.057 337.238 444.8C346.998 450.426 357.658 455.062 368.91 456.524C375.391 457.366 382.065 457.085 388.444 455.594C388.474 465.295 391.441 474.848 396.624 483.116C403.121 493.496 412.644 501.676 423.083 507.892C423.91 508.38 424.56 507.08 423.762 506.578C418.122 503.049 412.821 498.945 408.126 494.235C399.872 485.966 393.449 475.645 391.353 464.025C390.821 461.057 390.585 458.03 390.629 454.989C392.194 454.546 393.745 454.058 395.251 453.468C399.311 451.873 403.194 449.732 406.576 446.971C410.031 444.151 412.689 440.814 414.918 436.975C415.583 435.838 413.766 434.893 413.102 436.03C412.585 436.931 411.965 437.802 411.33 438.629C406.177 445.391 398.839 449.998 390.747 452.419C391.235 445.849 393.154 439.411 396.698 433.874C397.539 432.9 398.307 431.851 398.942 430.685C399.562 429.563 397.894 428.367 397.082 429.386C396.284 430.375 395.576 431.423 394.896 432.486C389.625 438.422 380.722 440.017 373.236 438.245C363.24 435.867 355.296 428.706 348.105 421.752C341.062 414.93 334.078 407.902 325.116 403.605C317.246 399.84 308.446 398.039 299.734 398.26L299.764 398.275ZM328.955 408.375C337.696 413.823 344.384 421.841 352.048 428.573C359.356 434.996 368.201 440.888 378.241 441.242C383.025 441.404 387.986 440.253 392.091 437.757C390.644 441.006 389.625 444.461 389.049 447.99C388.784 449.658 388.606 451.341 388.533 453.025C380.397 455.033 371.907 454.929 363.742 453.084C352.727 450.574 342.554 445.347 333.045 439.382C323.506 433.387 314.559 426.551 305.212 420.275C296.766 414.591 287.952 409.408 278.413 405.805C278.62 405.702 278.827 405.584 279.033 405.481C286.889 401.76 295.748 400.224 304.415 400.711C313.067 401.199 321.602 403.797 328.955 408.389L328.955 408.375Z" fill="#003777"/>
<path d="M398.247 277.673C384.56 281.645 372.201 289.766 362.988 300.633C353.14 312.253 347.233 326.826 346.052 342.005C345.358 350.864 346.2 359.93 348.725 368.464C348.902 369.084 347.957 369.38 347.765 368.76C342.789 353.33 343.025 336.453 348.489 321.171C353.568 306.952 363.077 294.741 375.376 286.03C380.263 282.56 385.579 279.696 391.16 277.51C379.363 277.865 367.831 282.22 358.115 288.821C345.358 297.473 335.82 310.082 328.747 323.622C325.115 330.577 321.97 337.856 319.46 345.283C317.009 352.518 315.193 360.107 315.311 367.8C315.414 374.991 317.408 381.93 321.394 387.94C325.145 393.58 330.342 398.202 336.1 401.73C342.656 405.732 349.921 408.271 357.421 409.851C366.133 411.682 374.977 412.155 383.851 412.583C386.066 412.686 388.296 412.863 390.51 412.923C391.913 412.967 392.002 415.152 390.584 415.108C385.933 414.975 381.297 414.975 376.661 414.694C372.128 414.414 367.595 414.015 363.106 413.351C354.867 412.14 346.672 410.014 339.201 406.249C332.882 403.074 327.02 398.777 322.428 393.359C317.659 387.733 314.469 381.074 313.332 373.765C312.136 366.028 313.229 358.07 315.281 350.554C317.408 342.743 320.464 335.139 323.919 327.816C330.741 313.331 340.013 299.658 352.726 289.706C364.081 280.818 378.3 274.956 392.858 275C394.63 275 396.402 275.118 398.174 275.296C399.443 275.414 399.37 277.363 398.262 277.673L398.247 277.673Z" fill="#003777"/>
<mask id="mask0_2560_5018" style="mask-type:luminance" maskUnits="userSpaceOnUse" x="54" y="281" width="273" height="218">
<path d="M326.397 281.391H54.0566V498.568H326.397V281.391Z" fill="white"/>
</mask>
<g mask="url(#mask0_2560_5018)">
<path d="M172.406 361.064L172.971 362.103L174.009 362.667L172.971 363.236L172.406 364.274L171.837 363.236L170.799 362.667L171.837 362.103L172.406 361.064Z" fill="#1F2075"/>
<path d="M149.679 340.438L150.248 341.476L151.286 342.04L150.248 342.609L149.679 343.647L149.114 342.609L148.076 342.04L149.114 341.476L149.679 340.438Z" fill="#1F2075"/>
<path d="M136.687 355.9L137.252 356.938L138.29 357.508L137.252 358.072L136.687 359.11L136.118 358.072L135.08 357.508L136.118 356.938L136.687 355.9Z" fill="#1F2075"/>
<path d="M107.544 329.436L108.113 330.474L109.151 331.038L108.113 331.607L107.544 332.645L106.98 331.607L105.941 331.038L106.98 330.474L107.544 329.436Z" fill="#1F2075"/>
<path d="M178.341 356.703L178.623 357.22L179.14 357.507L178.623 357.789L178.341 358.306L178.058 357.789L177.537 357.507L178.058 357.22L178.341 356.703Z" fill="#1F2075"/>
<path d="M214.016 346.812L214.299 347.329L214.82 347.612L214.299 347.898L214.016 348.415L213.734 347.898L213.213 347.612L213.734 347.329L214.016 346.812Z" fill="#1F2075"/>
<path d="M229.952 376.141L230.238 376.658L230.755 376.944L230.238 377.227L229.952 377.743L229.669 377.227L229.152 376.944L229.669 376.658L229.952 376.141Z" fill="#1F2075"/>
<path d="M198.763 390.059L199.045 390.575L199.562 390.862L199.045 391.144L198.763 391.661L198.48 391.144L197.959 390.862L198.48 390.575L198.763 390.059Z" fill="#1F2075"/>
<path d="M184.013 387.014L184.295 387.535L184.816 387.817L184.295 388.1L184.013 388.621L183.73 388.1L183.209 387.817L183.73 387.535L184.013 387.014Z" fill="#1F2075"/>
<path d="M217.431 388.785L217.713 389.302L218.234 389.589L217.713 389.871L217.431 390.388L217.148 389.871L216.627 389.589L217.148 389.302L217.431 388.785Z" fill="#1F2075"/>
<path d="M114.876 387.816L115.158 388.333L115.675 388.62L115.158 388.902L114.876 389.419L114.589 388.902L114.072 388.62L114.589 388.333L114.876 387.816Z" fill="#1F2075"/>
<path d="M195.143 373.074L195.425 373.352L195.947 373.504L195.425 373.656L195.143 373.934L194.861 373.656L194.344 373.504L194.861 373.352L195.143 373.074Z" fill="#1F2075"/>
<path d="M166.906 345.137L167.097 345.489L167.449 345.68L167.097 345.875L166.906 346.223L166.715 345.875L166.363 345.68L166.715 345.489L166.906 345.137Z" fill="#1F2075"/>
<path d="M174.431 339.59L174.539 339.785L174.735 339.894L174.539 340.002L174.431 340.198L174.326 340.002L174.131 339.894L174.326 339.785L174.431 339.59Z" fill="#1F2075"/>
<path d="M161.651 346.467L161.76 346.662L161.955 346.766L161.76 346.875L161.651 347.071L161.547 346.875L161.352 346.766L161.547 346.662L161.651 346.467Z" fill="#1F2075"/>
<path d="M157.976 340.133L158.085 340.328L158.28 340.437L158.085 340.545L157.976 340.741L157.867 340.545L157.672 340.437L157.867 340.328L157.976 340.133Z" fill="#1F2075"/>
<path d="M152.367 347.01L152.471 347.205L152.666 347.309L152.471 347.418L152.367 347.614L152.258 347.418L152.062 347.309L152.258 347.205L152.367 347.01Z" fill="#1F2075"/>
<path d="M164.517 358.807L164.626 359.002L164.821 359.111L164.626 359.219L164.517 359.415L164.413 359.219L164.213 359.111L164.413 359.002L164.517 358.807Z" fill="#1F2075"/>
<path d="M151.556 368.205L151.665 368.405L151.86 368.509L151.665 368.618L151.556 368.813L151.452 368.618L151.252 368.509L151.452 368.405L151.556 368.205Z" fill="#1F2075"/>
<path d="M157.331 372.229L157.44 372.424L157.635 372.533L157.44 372.637L157.331 372.837L157.223 372.637L157.027 372.533L157.223 372.424L157.331 372.229Z" fill="#1F2075"/>
<path d="M142.732 379.021L142.84 379.217L143.036 379.321L142.84 379.43L142.732 379.625L142.623 379.43L142.428 379.321L142.623 379.217L142.732 379.021Z" fill="#1F2075"/>
<path d="M111.406 379.32L111.514 379.516L111.71 379.624L111.514 379.733L111.406 379.928L111.297 379.733L111.102 379.624L111.297 379.516L111.406 379.32Z" fill="#1F2075"/>
<path d="M96.5755 381.502L96.6798 381.697L96.8796 381.806L96.6798 381.915L96.5755 382.11L96.4669 381.915L96.2715 381.806L96.4669 381.697L96.5755 381.502Z" fill="#1F2075"/>
<path d="M107.542 385.945L107.651 386.141L107.846 386.249L107.651 386.358L107.542 386.553L107.438 386.358L107.238 386.249L107.438 386.141L107.542 385.945Z" fill="#1F2075"/>
<path d="M130.843 381.805L130.947 382L131.143 382.109L130.947 382.217L130.843 382.413L130.735 382.217L130.539 382.109L130.735 382L130.843 381.805Z" fill="#1F2075"/>
<path d="M135.384 385.641L135.493 385.836L135.688 385.945L135.493 386.053L135.384 386.249L135.28 386.053L135.08 385.945L135.28 385.836L135.384 385.641Z" fill="#1F2075"/>
<path d="M208.035 382.109L208.143 382.305L208.339 382.413L208.143 382.518L208.035 382.717L207.926 382.518L207.73 382.413L207.926 382.305L208.035 382.109Z" fill="#1F2075"/>
<path d="M170.601 379.32L170.71 379.516L170.905 379.624L170.71 379.733L170.601 379.928L170.492 379.733L170.297 379.624L170.492 379.516L170.601 379.32Z" fill="#1F2075"/>
<path d="M204.948 368.51L205.057 368.705L205.252 368.814L205.057 368.922L204.948 369.118L204.844 368.922L204.648 368.814L204.844 368.705L204.948 368.51Z" fill="#1F2075"/>
<path d="M227.638 385.641L227.747 385.836L227.942 385.945L227.747 386.053L227.638 386.249L227.529 386.053L227.334 385.945L227.529 385.836L227.638 385.641Z" fill="#1F2075"/>
<path d="M221.036 392.594L221.141 392.789L221.336 392.898L221.141 393.006L221.036 393.202L220.928 393.006L220.732 392.898L220.928 392.789L221.036 392.594Z" fill="#1F2075"/>
<path d="M205.249 382.414L205.358 382.61L205.553 382.718L205.358 382.822L205.249 383.018L205.141 382.822L204.945 382.718L205.141 382.61L205.249 382.414Z" fill="#1F2075"/>
<path d="M194.345 382.717L194.449 382.912L194.645 383.017L194.449 383.125L194.345 383.321L194.236 383.125L194.041 383.017L194.236 382.912L194.345 382.717Z" fill="#1F2075"/>
<path d="M196.238 361.064L196.342 361.26L196.537 361.369L196.342 361.473L196.238 361.673L196.129 361.473L195.934 361.369L196.129 361.26L196.238 361.064Z" fill="#1F2075"/>
<path d="M106.058 360.762L106.162 360.957L106.358 361.066L106.162 361.174L106.058 361.37L105.949 361.174L105.754 361.066L105.949 360.957L106.058 360.762Z" fill="#1F2075"/>
<path d="M125.886 350.363L125.995 350.559L126.19 350.667L125.995 350.776L125.886 350.971L125.777 350.776L125.582 350.667L125.777 350.559L125.886 350.363Z" fill="#1F2075"/>
<path d="M135.081 346.467L135.19 346.662L135.385 346.766L135.19 346.875L135.081 347.071L134.977 346.875L134.781 346.766L134.977 346.662L135.081 346.467Z" fill="#1F2075"/>
<path d="M117.447 339.285L117.555 339.481L117.751 339.589L117.555 339.698L117.447 339.893L117.338 339.698L117.143 339.589L117.338 339.481L117.447 339.285Z" fill="#1F2075"/>
<path d="M144.751 363.971L144.86 364.166L145.055 364.275L144.86 364.379L144.751 364.574L144.643 364.379L144.447 364.275L144.643 364.166L144.751 363.971Z" fill="#1F2075"/>
<path d="M112.779 362.064L112.887 362.26L113.083 362.369L112.887 362.473L112.779 362.668L112.674 362.473L112.475 362.369L112.674 362.26L112.779 362.064Z" fill="#1F2075"/>
<path d="M188.138 329.131L188.247 329.326L188.442 329.435L188.247 329.539L188.138 329.739L188.029 329.539L187.834 329.435L188.029 329.326L188.138 329.131Z" fill="#1F2075"/>
<path d="M227.941 330.734L228.049 330.93L228.245 331.038L228.049 331.147L227.941 331.342L227.832 331.147L227.637 331.038L227.832 330.93L227.941 330.734Z" fill="#1F2075"/>
<path d="M217.431 354.363L217.54 354.559L217.735 354.667L217.54 354.776L217.431 354.971L217.322 354.776L217.127 354.667L217.322 354.559L217.431 354.363Z" fill="#1F2075"/>
<path d="M202.279 322.785L202.387 322.985L202.583 323.089L202.387 323.198L202.279 323.393L202.17 323.198L201.975 323.089L202.17 322.985L202.279 322.785Z" fill="#1F2075"/>
<path d="M225.345 346.162L225.454 346.358L225.649 346.466L225.454 346.57L225.345 346.766L225.241 346.57L225.041 346.466L225.241 346.358L225.345 346.162Z" fill="#1F2075"/>
<path d="M113.081 343.344L113.19 343.539L113.385 343.648L113.19 343.752L113.081 343.948L112.973 343.752L112.777 343.648L112.973 343.539L113.081 343.344Z" fill="#1F2075"/>
<path d="M142.425 371.125L142.534 371.32L142.729 371.429L142.534 371.533L142.425 371.733L142.317 371.533L142.121 371.429L142.317 371.32L142.425 371.125Z" fill="#1F2075"/>
<path d="M177.538 373.631L177.647 373.826L177.842 373.935L177.647 374.043L177.538 374.239L177.434 374.043L177.234 373.935L177.434 373.826L177.538 373.631Z" fill="#1F2075"/>
<path d="M184.716 362.367L184.825 362.563L185.02 362.667L184.825 362.775L184.716 362.971L184.608 362.775L184.412 362.667L184.608 362.563L184.716 362.367Z" fill="#1F2075"/>
<path d="M187.409 376.336L187.518 376.531L187.713 376.64L187.518 376.744L187.409 376.944L187.305 376.744L187.109 376.64L187.305 376.531L187.409 376.336Z" fill="#1F2075"/>
<path d="M223.398 385.945L223.506 386.141L223.702 386.249L223.506 386.358L223.398 386.553L223.294 386.358L223.094 386.249L223.294 386.141L223.398 385.945Z" fill="#1F2075"/>
<path d="M167.137 329.953L167.332 330.305L167.684 330.496L167.332 330.687L167.137 331.039L166.946 330.687L166.594 330.496L166.946 330.305L167.137 329.953Z" fill="#1F2075"/>
<path d="M178.344 346.223L178.535 346.574L178.887 346.766L178.535 346.961L178.344 347.309L178.153 346.961L177.801 346.766L178.153 346.574L178.344 346.223Z" fill="#1F2075"/>
<path d="M202.279 330.799L202.47 331.151L202.822 331.342L202.47 331.533L202.279 331.885L202.088 331.533L201.736 331.342L202.088 331.151L202.279 330.799Z" fill="#1F2075"/>
<path d="M225.65 340.199L225.841 340.551L226.193 340.742L225.841 340.933L225.65 341.285L225.459 340.933L225.107 340.742L225.459 340.551L225.65 340.199Z" fill="#1F2075"/>
<path d="M208.881 360.219L209.072 360.571L209.424 360.762L209.072 360.953L208.881 361.305L208.69 360.953L208.338 360.762L208.69 360.571L208.881 360.219Z" fill="#1F2075"/>
<path d="M159.965 367.537L160.156 367.889L160.508 368.08L160.156 368.271L159.965 368.623L159.774 368.271L159.422 368.08L159.774 367.889L159.965 367.537Z" fill="#1F2075"/>
<path d="M128.119 334.547L128.31 334.899L128.662 335.09L128.31 335.281L128.119 335.633L127.924 335.281L127.576 335.09L127.924 334.899L128.119 334.547Z" fill="#1F2075"/>
<path d="M144.207 348.061L144.398 348.412L144.75 348.603L144.398 348.795L144.207 349.146L144.016 348.795L143.664 348.603L144.016 348.412L144.207 348.061Z" fill="#1F2075"/>
<path d="M151.012 363.732L151.207 364.084L151.555 364.275L151.207 364.466L151.012 364.818L150.821 364.466L150.469 364.275L150.821 364.084L151.012 363.732Z" fill="#1F2075"/>
<path d="M155.316 358.871L155.507 359.223L155.859 359.414L155.507 359.605L155.316 359.957L155.125 359.605L154.773 359.414L155.125 359.223L155.316 358.871Z" fill="#1F2075"/>
<path d="M123.914 372.531L124.105 372.883L124.457 373.074L124.105 373.265L123.914 373.617L123.723 373.265L123.371 373.074L123.723 372.883L123.914 372.531Z" fill="#1F2075"/>
<path d="M189.965 345.68L190.16 346.032L190.508 346.223L190.16 346.418L189.965 346.766L189.774 346.418L189.422 346.223L189.774 346.032L189.965 345.68Z" fill="#1F2075"/>
<path d="M169.473 356.16L169.664 356.512L170.016 356.703L169.664 356.894L169.473 357.246L169.282 356.894L168.93 356.703L169.282 356.512L169.473 356.16Z" fill="#1F2075"/>
<path d="M152.079 428.648L151.575 429.569L150.654 430.073L151.575 430.577L152.079 431.498L152.583 430.577L153.504 430.073L152.583 429.569L152.079 428.648Z" fill="#1F2075"/>
<path d="M172.239 410.34L171.739 411.261L170.818 411.765L171.739 412.268L172.239 413.189L172.743 412.268L173.663 411.765L172.743 411.261L172.239 410.34Z" fill="#1F2075"/>
<path d="M183.772 424.066L183.268 424.987L182.352 425.491L183.268 425.995L183.772 426.916L184.276 425.995L185.197 425.491L184.276 424.987L183.772 424.066Z" fill="#1F2075"/>
<path d="M209.64 400.576L209.136 401.497L208.215 402.001L209.136 402.505L209.64 403.426L210.143 402.505L211.064 402.001L210.143 401.497L209.64 400.576Z" fill="#1F2075"/>
<path d="M146.806 424.779L146.554 425.24L146.098 425.492L146.554 425.744L146.806 426.204L147.058 425.744L147.518 425.492L147.058 425.24L146.806 424.779Z" fill="#1F2075"/>
<path d="M115.148 416L114.896 416.46L114.436 416.712L114.896 416.964L115.148 417.425L115.395 416.964L115.86 416.712L115.395 416.46L115.148 416Z" fill="#1F2075"/>
<path d="M101.001 442.031L100.749 442.487L100.289 442.739L100.749 442.991L101.001 443.452L101.253 442.991L101.714 442.739L101.253 442.487L101.001 442.031Z" fill="#1F2075"/>
<path d="M128.683 454.379L128.431 454.839L127.975 455.091L128.431 455.343L128.683 455.804L128.935 455.343L129.395 455.091L128.935 454.839L128.683 454.379Z" fill="#1F2075"/>
<path d="M141.773 451.678L141.521 452.138L141.061 452.39L141.521 452.642L141.773 453.102L142.025 452.642L142.485 452.39L142.025 452.138L141.773 451.678Z" fill="#1F2075"/>
<path d="M112.117 453.25L111.865 453.71L111.404 453.962L111.865 454.214L112.117 454.675L112.369 454.214L112.829 453.962L112.369 453.71L112.117 453.25Z" fill="#1F2075"/>
<path d="M203.132 452.391L202.88 452.851L202.42 453.103L202.88 453.355L203.132 453.815L203.384 453.355L203.845 453.103L203.384 452.851L203.132 452.391Z" fill="#1F2075"/>
<path d="M131.892 439.309L131.64 439.556L131.18 439.691L131.64 439.825L131.892 440.073L132.144 439.825L132.604 439.691L132.144 439.556L131.892 439.309Z" fill="#1F2075"/>
<path d="M156.955 414.516L156.785 414.828L156.473 414.998L156.785 415.167L156.955 415.48L157.124 415.167L157.437 414.998L157.124 414.828L156.955 414.516Z" fill="#1F2075"/>
<path d="M150.279 409.594L150.184 409.767L150.01 409.863L150.184 409.954L150.279 410.128L150.37 409.954L150.544 409.863L150.37 409.767L150.279 409.594Z" fill="#1F2075"/>
<path d="M161.619 415.691L161.519 415.865L161.346 415.961L161.519 416.056L161.619 416.23L161.711 416.056L161.884 415.961L161.711 415.865L161.619 415.691Z" fill="#1F2075"/>
<path d="M164.883 410.076L164.787 410.25L164.613 410.341L164.787 410.437L164.883 410.61L164.978 410.437L165.152 410.341L164.978 410.25L164.883 410.076Z" fill="#1F2075"/>
<path d="M169.861 416.174L169.766 416.348L169.592 416.443L169.766 416.539L169.861 416.712L169.957 416.539L170.13 416.443L169.957 416.348L169.861 416.174Z" fill="#1F2075"/>
<path d="M159.076 426.646L158.98 426.82L158.807 426.916L158.98 427.011L159.076 427.185L159.171 427.011L159.345 426.916L159.171 426.82L159.076 426.646Z" fill="#1F2075"/>
<path d="M170.576 434.99L170.48 435.164L170.307 435.26L170.48 435.351L170.576 435.524L170.671 435.351L170.845 435.26L170.671 435.164L170.576 434.99Z" fill="#1F2075"/>
<path d="M165.451 438.557L165.355 438.73L165.182 438.826L165.355 438.921L165.451 439.095L165.546 438.921L165.72 438.826L165.546 438.73L165.451 438.557Z" fill="#1F2075"/>
<path d="M178.412 444.586L178.316 444.76L178.143 444.855L178.316 444.946L178.412 445.12L178.507 444.946L178.681 444.855L178.507 444.76L178.412 444.586Z" fill="#1F2075"/>
<path d="M206.211 444.85L206.115 445.028L205.941 445.119L206.115 445.214L206.211 445.388L206.306 445.214L206.48 445.119L206.306 445.028L206.211 444.85Z" fill="#1F2075"/>
<path d="M219.373 446.789L219.277 446.963L219.104 447.058L219.277 447.154L219.373 447.328L219.468 447.154L219.642 447.058L219.468 446.963L219.373 446.789Z" fill="#1F2075"/>
<path d="M209.64 450.732L209.545 450.906L209.371 451.002L209.545 451.093L209.64 451.271L209.736 451.093L209.91 451.002L209.736 450.906L209.64 450.732Z" fill="#1F2075"/>
<path d="M188.961 447.057L188.865 447.23L188.691 447.326L188.865 447.421L188.961 447.595L189.056 447.421L189.23 447.326L189.056 447.23L188.961 447.057Z" fill="#1F2075"/>
<path d="M184.928 450.463L184.832 450.637L184.658 450.732L184.832 450.823L184.928 451.001L185.023 450.823L185.197 450.732L185.023 450.637L184.928 450.463Z" fill="#1F2075"/>
<path d="M120.451 447.326L120.355 447.5L120.182 447.595L120.355 447.691L120.451 447.865L120.546 447.691L120.72 447.595L120.546 447.5L120.451 447.326Z" fill="#1F2075"/>
<path d="M153.676 444.85L153.58 445.028L153.406 445.119L153.58 445.214L153.676 445.388L153.771 445.214L153.945 445.119L153.771 445.028L153.676 444.85Z" fill="#1F2075"/>
<path d="M123.191 435.26L123.096 435.434L122.922 435.525L123.096 435.62L123.191 435.794L123.287 435.62L123.46 435.525L123.287 435.434L123.191 435.26Z" fill="#1F2075"/>
<path d="M103.054 450.463L102.959 450.637L102.785 450.732L102.959 450.823L103.054 451.001L103.15 450.823L103.324 450.732L103.15 450.637L103.054 450.463Z" fill="#1F2075"/>
<path d="M108.913 456.635L108.822 456.809L108.648 456.9L108.822 456.995L108.913 457.173L109.013 456.995L109.183 456.9L109.013 456.809L108.913 456.635Z" fill="#1F2075"/>
<path d="M122.926 447.596L122.83 447.769L122.656 447.865L122.83 447.961L122.926 448.134L123.021 447.961L123.195 447.865L123.021 447.769L122.926 447.596Z" fill="#1F2075"/>
<path d="M132.603 447.865L132.508 448.039L132.334 448.135L132.508 448.23L132.603 448.404L132.699 448.23L132.873 448.135L132.699 448.039L132.603 447.865Z" fill="#1F2075"/>
<path d="M130.926 428.648L130.83 428.822L130.656 428.918L130.83 429.013L130.926 429.187L131.021 429.013L131.195 428.918L131.021 428.822L130.926 428.648Z" fill="#1F2075"/>
<path d="M210.959 428.379L210.863 428.553L210.689 428.648L210.863 428.744L210.959 428.918L211.054 428.744L211.228 428.648L211.054 428.553L210.959 428.379Z" fill="#1F2075"/>
<path d="M193.359 419.154L193.264 419.328L193.09 419.424L193.264 419.519L193.359 419.693L193.455 419.519L193.628 419.424L193.455 419.328L193.359 419.154Z" fill="#1F2075"/>
<path d="M185.195 415.691L185.1 415.865L184.926 415.961L185.1 416.056L185.195 416.23L185.291 416.056L185.464 415.961L185.291 415.865L185.195 415.691Z" fill="#1F2075"/>
<path d="M200.851 409.324L200.756 409.498L200.582 409.594L200.756 409.685L200.851 409.863L200.947 409.685L201.121 409.594L200.947 409.498L200.851 409.324Z" fill="#1F2075"/>
<path d="M176.619 431.229L176.523 431.402L176.35 431.498L176.523 431.593L176.619 431.767L176.714 431.593L176.888 431.498L176.714 431.402L176.619 431.229Z" fill="#1F2075"/>
<path d="M204.988 429.535L204.896 429.709L204.723 429.804L204.896 429.9L204.988 430.074L205.083 429.9L205.257 429.804L205.083 429.709L204.988 429.535Z" fill="#1F2075"/>
<path d="M138.113 400.309L138.017 400.482L137.844 400.578L138.017 400.673L138.113 400.847L138.209 400.673L138.382 400.578L138.209 400.482L138.113 400.309Z" fill="#1F2075"/>
<path d="M102.789 401.732L102.693 401.906L102.52 402.002L102.693 402.097L102.789 402.271L102.884 402.097L103.058 402.002L102.884 401.906L102.789 401.732Z" fill="#1F2075"/>
<path d="M112.115 422.703L112.019 422.877L111.846 422.972L112.019 423.068L112.115 423.242L112.211 423.068L112.384 422.972L112.211 422.877L112.115 422.703Z" fill="#1F2075"/>
<path d="M125.56 394.678L125.465 394.851L125.291 394.947L125.465 395.043L125.56 395.216L125.656 395.043L125.83 394.947L125.656 394.851L125.56 394.678Z" fill="#1F2075"/>
<path d="M105.092 415.422L104.996 415.596L104.822 415.691L104.996 415.787L105.092 415.96L105.187 415.787L105.361 415.691L105.187 415.596L105.092 415.422Z" fill="#1F2075"/>
<path d="M204.726 412.922L204.631 413.096L204.457 413.191L204.631 413.287L204.726 413.46L204.818 413.287L204.991 413.191L204.818 413.096L204.726 412.922Z" fill="#1F2075"/>
<path d="M178.679 437.574L178.584 437.752L178.41 437.844L178.584 437.939L178.679 438.113L178.775 437.939L178.949 437.844L178.775 437.752L178.679 437.574Z" fill="#1F2075"/>
<path d="M147.515 439.803L147.42 439.976L147.246 440.072L147.42 440.168L147.515 440.341L147.611 440.168L147.785 440.072L147.611 439.976L147.515 439.803Z" fill="#1F2075"/>
<path d="M141.15 429.805L141.055 429.978L140.881 430.074L141.055 430.17L141.15 430.343L141.246 430.17L141.419 430.074L141.246 429.978L141.15 429.805Z" fill="#1F2075"/>
<path d="M138.761 442.205L138.666 442.379L138.492 442.474L138.666 442.566L138.761 442.739L138.857 442.566L139.031 442.474L138.857 442.379L138.761 442.205Z" fill="#1F2075"/>
<path d="M106.816 450.732L106.721 450.906L106.547 451.002L106.721 451.093L106.816 451.271L106.912 451.093L107.085 451.002L106.912 450.906L106.816 450.732Z" fill="#1F2075"/>
<path d="M156.754 401.037L156.58 401.35L156.271 401.519L156.58 401.689L156.754 402.001L156.923 401.689L157.231 401.519L156.923 401.35L156.754 401.037Z" fill="#1F2075"/>
<path d="M146.804 415.479L146.635 415.791L146.322 415.961L146.635 416.13L146.804 416.443L146.978 416.13L147.287 415.961L146.978 415.791L146.804 415.479Z" fill="#1F2075"/>
<path d="M141.397 375.402L140.893 376.323L139.973 376.827L140.893 377.331L141.397 378.247L141.897 377.331L142.818 376.827L141.897 376.323L141.397 375.402Z" fill="#1F2075"/>
<path d="M126.107 379.574L125.938 379.883L125.625 380.056L125.938 380.226L126.107 380.534L126.277 380.226L126.589 380.056L126.277 379.883L126.107 379.574Z" fill="#1F2075"/>
<path d="M119.431 374.648L119.336 374.822L119.162 374.918L119.336 375.013L119.431 375.187L119.523 375.013L119.696 374.918L119.523 374.822L119.431 374.648Z" fill="#1F2075"/>
<path d="M130.772 380.748L130.676 380.922L130.498 381.017L130.676 381.113L130.772 381.287L130.863 381.113L131.037 381.017L130.863 380.922L130.772 380.748Z" fill="#1F2075"/>
<path d="M134.035 375.133L133.939 375.307L133.766 375.402L133.939 375.498L134.035 375.671L134.13 375.498L134.304 375.402L134.13 375.307L134.035 375.133Z" fill="#1F2075"/>
<path d="M139.011 381.23L138.916 381.404L138.742 381.5L138.916 381.595L139.011 381.769L139.107 381.595L139.281 381.5L139.107 381.404L139.011 381.23Z" fill="#1F2075"/>
<path d="M125.902 366.098L125.728 366.406L125.42 366.58L125.728 366.749L125.902 367.062L126.071 366.749L126.38 366.58L126.071 366.406L125.902 366.098Z" fill="#1F2075"/>
<path d="M115.956 380.535L115.787 380.848L115.479 381.017L115.787 381.191L115.956 381.499L116.13 381.191L116.438 381.017L116.13 380.848L115.956 380.535Z" fill="#1F2075"/>
<path d="M159.814 389.098L159.64 389.41L159.332 389.58L159.64 389.749L159.814 390.062L159.984 389.749L160.296 389.58L159.984 389.41L159.814 389.098Z" fill="#1F2075"/>
<path d="M153.133 384.172L153.037 384.346L152.863 384.441L153.037 384.537L153.133 384.71L153.228 384.537L153.402 384.441L153.228 384.346L153.133 384.172Z" fill="#1F2075"/>
<path d="M164.474 390.273L164.379 390.447L164.205 390.543L164.379 390.634L164.474 390.812L164.57 390.634L164.744 390.543L164.57 390.447L164.474 390.273Z" fill="#1F2075"/>
<path d="M159.603 375.617L159.434 375.93L159.121 376.099L159.434 376.269L159.603 376.581L159.773 376.269L160.085 376.099L159.773 375.93L159.603 375.617Z" fill="#1F2075"/>
<path d="M149.662 390.061L149.488 390.369L149.18 390.543L149.488 390.712L149.662 391.02L149.831 390.712L150.144 390.543L149.831 390.369L149.662 390.061Z" fill="#1F2075"/>
<path d="M179.203 398.371L179.03 398.684L178.717 398.853L179.03 399.023L179.203 399.335L179.373 399.023L179.681 398.853L179.373 398.684L179.203 398.371Z" fill="#1F2075"/>
<path d="M172.523 393.445L172.428 393.619L172.254 393.715L172.428 393.81L172.523 393.984L172.619 393.81L172.793 393.715L172.619 393.619L172.523 393.445Z" fill="#1F2075"/>
<path d="M183.865 399.547L183.769 399.721L183.596 399.816L183.769 399.912L183.865 400.085L183.961 399.912L184.134 399.816L183.961 399.721L183.865 399.547Z" fill="#1F2075"/>
<path d="M178.994 384.893L178.824 385.205L178.512 385.375L178.824 385.544L178.994 385.857L179.163 385.544L179.476 385.375L179.163 385.205L178.994 384.893Z" fill="#1F2075"/>
<path d="M169.052 399.334L168.879 399.642L168.57 399.816L168.879 399.986L169.052 400.298L169.222 399.986L169.535 399.816L169.222 399.642L169.052 399.334Z" fill="#1F2075"/>
<path d="M125.56 401.789L125.391 402.102L125.078 402.271L125.391 402.441L125.56 402.753L125.73 402.441L126.042 402.271L125.73 402.102L125.56 401.789Z" fill="#1F2075"/>
<path d="M104.824 410.129L104.655 410.442L104.342 410.611L104.655 410.785L104.824 411.093L104.993 410.785L105.306 410.611L104.993 410.442L104.824 410.129Z" fill="#1F2075"/>
<path d="M119.701 427.898L119.531 428.211L119.219 428.381L119.531 428.55L119.701 428.863L119.875 428.55L120.183 428.381L119.875 428.211L119.701 427.898Z" fill="#1F2075"/>
<path d="M163.115 434.395L162.946 434.703L162.633 434.877L162.946 435.046L163.115 435.359L163.284 435.046L163.597 434.877L163.284 434.703L163.115 434.395Z" fill="#1F2075"/>
<path d="M191.377 405.115L191.207 405.428L190.895 405.597L191.207 405.771L191.377 406.08L191.55 405.771L191.859 405.597L191.55 405.428L191.377 405.115Z" fill="#1F2075"/>
<path d="M177.101 417.107L176.932 417.42L176.619 417.59L176.932 417.759L177.101 418.072L177.271 417.759L177.583 417.59L177.271 417.42L177.101 417.107Z" fill="#1F2075"/>
<path d="M171.058 431.016L170.889 431.328L170.576 431.498L170.889 431.667L171.058 431.98L171.228 431.667L171.54 431.498L171.228 431.328L171.058 431.016Z" fill="#1F2075"/>
<path d="M167.24 426.703L167.066 427.016L166.758 427.185L167.066 427.355L167.24 427.667L167.409 427.355L167.722 427.185L167.409 427.016L167.24 426.703Z" fill="#1F2075"/>
<path d="M195.109 438.826L194.94 439.139L194.627 439.308L194.94 439.478L195.109 439.79L195.278 439.478L195.591 439.308L195.278 439.139L195.109 438.826Z" fill="#1F2075"/>
<path d="M136.488 414.996L136.319 415.309L136.006 415.478L136.319 415.648L136.488 415.96L136.657 415.648L136.97 415.478L136.657 415.309L136.488 414.996Z" fill="#1F2075"/>
<path d="M154.675 424.297L154.506 424.61L154.193 424.779L154.506 424.948L154.675 425.261L154.845 424.948L155.158 424.779L154.845 424.61L154.675 424.297Z" fill="#1F2075"/>
</g>
<path d="M47.5214 59.5661C50.9791 64.6279 55.6057 68.8723 61.019 71.7656C61.7207 72.1421 62.3264 71.3542 62.171 70.7113C61.9223 69.7323 61.711 68.7539 61.5173 67.7642C59.9924 59.9045 59.9941 51.8384 60.2744 43.8773C60.5593 35.7892 61.133 27.688 60.7196 19.5929C60.3154 11.6654 58.9812 3.58323 55.5425 -3.6341C53.5611 -7.79191 50.8422 -11.6341 47.5197 -14.8384C53.2492 -18.5665 57.7673 -23.977 60.678 -30.2069C64.3355 -38.022 65.5333 -46.7868 65.2188 -55.3422C65.1909 -56.0179 64.1734 -55.9054 64.1813 -55.2415C64.2505 -50.5538 63.8491 -45.8468 62.8578 -41.2665C61.1218 -33.2192 57.471 -25.4704 51.3964 -19.7847C49.8434 -18.3349 48.1426 -17.0372 46.3256 -15.9C45.4648 -16.6567 44.5834 -17.3878 43.6578 -18.0532C41.161 -19.8461 38.4085 -21.3251 35.4812 -22.2699C32.4907 -23.2358 29.4993 -23.5322 26.3746 -23.3831C25.4477 -23.3414 25.5831 -21.9052 26.5101 -21.9469C27.2408 -21.9856 27.9935 -21.9518 28.7257 -21.8924C34.6987 -21.4297 40.232 -18.8492 44.76 -14.9871C40.6854 -12.7621 36.1415 -11.4355 31.5093 -11.4146C30.6107 -11.5399 29.6966 -11.5932 28.7634 -11.5228C27.8621 -11.4605 27.7926 -10.0157 28.7062 -9.92479C29.5966 -9.83136 30.4881 -9.81298 31.377 -9.81769C36.9059 -8.96879 41.2553 -4.30988 43.0703 0.797925C45.4872 7.62272 44.288 15.0629 42.923 21.9784C41.5803 28.7556 40.0926 35.577 40.9782 42.5244C41.7604 48.6219 44.0606 54.5186 47.524 59.5892L47.5214 59.5661ZM42.332 38.4283C42.2127 31.1714 44.3987 24.1464 45.4519 17.036C46.4571 10.254 46.5603 2.7665 42.9294 -3.31073C41.1955 -6.20389 38.6163 -8.69926 35.5695 -10.1738C38.0453 -10.5601 40.4796 -11.2788 42.7882 -12.2879C43.8773 -12.7688 44.9411 -13.3079 45.9655 -13.908C50.2659 -9.86165 53.4523 -4.79789 55.4834 0.740088C58.2113 8.21862 59.0096 16.2383 59.1168 24.1472C59.2179 32.0849 58.595 39.995 58.4566 47.9264C58.3232 55.0989 58.628 62.2977 60.1446 69.3204C60.0044 69.2377 59.8554 69.1605 59.7152 69.0777C54.5085 65.8525 50.211 61.1972 47.184 55.8818C44.1627 50.575 42.436 44.5306 42.3407 38.4227L42.332 38.4283Z" fill="#003777"/>
<path d="M-61.5203 47.4193C-53.9341 54 -44.401 58.2071 -34.4457 59.5026C-23.8019 60.8857 -12.9185 58.8063 -3.48425 53.6992C2.02386 50.7211 7.06693 46.7552 11.1516 41.9965C11.4508 41.6544 11.987 42.1007 11.6934 42.4515C4.46581 51.2983 -5.61184 57.6141 -16.7452 60.2267C-27.1025 62.6599 -37.9659 61.7037 -47.826 57.7574C-51.7488 56.1925 -55.4772 54.1426 -58.9054 51.6756C-54.1829 58.5215 -47.1942 63.6796 -39.5721 66.9044C-29.5719 71.1441 -18.4613 71.9654 -7.74336 70.9716C-2.23848 70.4609 3.27225 69.5376 8.6275 68.1821C13.8466 66.865 19.0325 65.0367 23.5397 62.0242C27.7554 59.2125 31.0997 55.3784 33.131 50.7204C35.0343 46.3435 35.7811 41.5 35.6667 36.7424C35.527 31.3323 34.2511 26.0618 32.3169 21.0187C30.068 15.1631 26.9645 9.74843 23.8235 4.33324C23.0375 2.98304 22.2895 1.59586 21.4772 0.262606C20.9669 -0.584425 22.2262 -1.47274 22.7422 -0.616974C24.4427 2.18625 26.2161 4.92991 27.8236 7.78088C29.3915 10.5707 30.8895 13.4057 32.2132 16.3161C34.6483 21.6549 36.5247 27.3177 37.1544 33.1792C37.6931 38.1333 37.3927 43.2458 35.9424 48.036C34.4376 53.0102 31.7169 57.4448 27.8266 60.9133C23.7055 64.5806 18.5779 66.9783 13.3453 68.6385C7.90968 70.3681 2.24059 71.468 -3.41496 72.2248C-14.5961 73.7286 -26.2342 73.4713 -36.9863 69.7548C-46.5897 66.4355 -55.4976 60.2633 -61.0403 51.6309C-61.718 50.5824 -62.3259 49.4887 -62.8988 48.3723C-63.3146 47.5757 -62.133 46.8739 -61.5259 47.4106L-61.5203 47.4193Z" fill="#003777"/>
<path d="M50.4603 237.705C49.3689 238.595 47.8303 238.692 46.6356 237.942C47.525 239.033 47.6222 240.572 46.8721 241.767C47.9635 240.877 49.5021 240.78 50.6967 241.53C49.8073 240.439 49.7102 238.9 50.4603 237.705Z" fill="#EBEBEB"/>
<path d="M351.599 175.07C351.683 176.196 351.042 177.253 350 177.695C351.126 177.611 352.183 178.253 352.625 179.294C352.541 178.168 353.182 177.111 354.224 176.669C353.098 176.754 352.041 176.112 351.599 175.07Z" fill="#EBEBEB"/>
<path d="M39.5008 354.801C40.6636 356.86 40.3802 359.434 38.8022 361.193C40.8607 360.03 43.4345 360.313 45.1934 361.891C44.0305 359.833 44.3139 357.259 45.892 355.5C43.8334 356.663 41.2597 356.379 39.5008 354.801Z" fill="#EBEBEB"/>
<path d="M218.501 96.874C219.355 97.8733 219.478 99.3069 218.804 100.438C219.803 99.5844 221.237 99.4608 222.368 100.135C221.514 99.1358 221.391 97.7022 222.065 96.5715C221.066 97.4247 219.632 97.5483 218.501 96.874Z" fill="#EBEBEB"/>
<path fill-rule="evenodd" clip-rule="evenodd" d="M-1 493.879L14.75 495.188C30.5 496.497 62 503.857 93.5 501.239C125 498.621 156.5 486.025 188 491.261C219.5 496.497 251 514.822 282.5 518.748C314 522.675 345.5 512.204 361.25 506.968L377 501.732V541H361.25C345.5 541 314 541 282.5 541C251 541 219.5 541 188 541C156.5 541 125 541 93.5 541C62 541 30.5 541 14.75 541H-1V493.879Z" fill="#1C1C1C"/>
<path d="M317.164 459.106C318.868 462.122 318.452 465.893 316.141 468.469C319.156 466.766 322.927 467.181 325.504 469.493C323.8 466.477 324.216 462.706 326.528 460.13C323.512 461.833 319.741 461.418 317.164 459.106Z" fill="#EBEBEB"/>
<path d="M309.2 457.92C310.45 459.384 310.631 461.484 309.643 463.141C311.107 461.891 313.207 461.71 314.864 462.698C313.614 461.233 313.433 459.133 314.421 457.476C312.957 458.727 310.856 458.908 309.2 457.92Z" fill="#EBEBEB"/>
<g opacity="0.3">
<path d="M99.8029 89.2637L100.528 90.5973L101.862 91.3227L100.528 92.0537L99.8029 93.3873L99.0719 92.0537L97.7383 91.3227L99.0719 90.5973L99.8029 89.2637Z" fill="white"/>
<path d="M70.6098 62.7656L71.3408 64.0992L72.6744 64.8246L71.3408 65.5556L70.6098 66.8892L69.8844 65.5556L68.5508 64.8246L69.8844 64.0992L70.6098 62.7656Z" fill="white"/>
<path d="M53.924 82.6289L54.6494 83.9625L55.983 84.6935L54.6494 85.4189L53.924 86.7525L53.193 85.4189L51.8594 84.6935L53.193 83.9625L53.924 82.6289Z" fill="white"/>
<path d="M16.4789 48.6309L17.2099 49.9645L18.5435 50.6899L17.2099 51.4208L16.4789 52.7545L15.7535 51.4208L14.4199 50.6899L15.7535 49.9645L16.4789 48.6309Z" fill="white"/>
<path d="M107.435 83.6621L107.797 84.3261L108.461 84.6944L107.797 85.0571L107.435 85.7211L107.072 85.0571L106.402 84.6944L107.072 84.3261L107.435 83.6621Z" fill="white"/>
<path d="M153.265 70.957L153.627 71.621L154.297 71.9838L153.627 72.352L153.265 73.016L152.902 72.352L152.232 71.9838L152.902 71.621L153.265 70.957Z" fill="white"/>
<path d="M173.734 108.633L174.102 109.297L174.766 109.665L174.102 110.028L173.734 110.692L173.371 110.028L172.707 109.665L173.371 109.297L173.734 108.633Z" fill="white"/>
<path d="M133.665 126.512L134.028 127.176L134.692 127.544L134.028 127.907L133.665 128.571L133.302 127.907L132.633 127.544L133.302 127.176L133.665 126.512Z" fill="white"/>
<path d="M114.716 122.6L115.079 123.269L115.748 123.632L115.079 123.995L114.716 124.664L114.353 123.995L113.684 123.632L114.353 123.269L114.716 122.6Z" fill="white"/>
<path d="M157.648 124.875L158.01 125.539L158.68 125.907L158.01 126.27L157.648 126.934L157.285 126.27L156.615 125.907L157.285 125.539L157.648 124.875Z" fill="white"/>
<path d="M25.8995 123.631L26.2622 124.295L26.9262 124.663L26.2622 125.026L25.8995 125.69L25.5312 125.026L24.8672 124.663L25.5312 124.295L25.8995 123.631Z" fill="white"/>
<path d="M129.017 104.693L129.38 105.05L130.049 105.246L129.38 105.441L129.017 105.798L128.654 105.441L127.99 105.246L128.654 105.05L129.017 104.693Z" fill="white"/>
<path d="M92.7424 68.8027L92.9879 69.2547L93.4399 69.5002L92.9879 69.7513L92.7424 70.1977L92.4969 69.7513L92.0449 69.5002L92.4969 69.2547L92.7424 68.8027Z" fill="white"/>
<path d="M102.405 61.6777L102.544 61.9288L102.795 62.0683L102.544 62.2078L102.405 62.4589L102.271 62.2078L102.02 62.0683L102.271 61.9288L102.405 61.6777Z" fill="white"/>
<path d="M85.9905 70.5098L86.13 70.7609L86.3811 70.8948L86.13 71.0343L85.9905 71.2854L85.8566 71.0343L85.6055 70.8948L85.8566 70.7609L85.9905 70.5098Z" fill="white"/>
<path d="M81.2637 62.375L81.4032 62.6261L81.6543 62.7656L81.4032 62.9051L81.2637 63.1562L81.1242 62.9051L80.873 62.7656L81.1242 62.6261L81.2637 62.375Z" fill="white"/>
<path d="M74.0625 71.207L74.1964 71.4581L74.4475 71.592L74.1964 71.7315L74.0625 71.9826L73.923 71.7315L73.6719 71.592L73.923 71.4581L74.0625 71.207Z" fill="white"/>
<path d="M89.6738 86.3633L89.8133 86.6144L90.0644 86.7539L89.8133 86.8934L89.6738 87.1445L89.5399 86.8934L89.2832 86.7539L89.5399 86.6144L89.6738 86.3633Z" fill="white"/>
<path d="M73.0215 98.4375L73.161 98.6942L73.4121 98.8281L73.161 98.9676L73.0215 99.2187L72.8876 98.9676L72.6309 98.8281L72.8876 98.6942L73.0215 98.4375Z" fill="white"/>
<path d="M80.4453 103.605L80.5848 103.857L80.8359 103.996L80.5848 104.13L80.4453 104.387L80.3058 104.13L80.0547 103.996L80.3058 103.857L80.4453 103.605Z" fill="white"/>
<path d="M61.6855 112.332L61.825 112.583L62.0761 112.717L61.825 112.857L61.6855 113.108L61.546 112.857L61.2949 112.717L61.546 112.583L61.6855 112.332Z" fill="white"/>
<path d="M21.4414 112.717L21.5809 112.968L21.832 113.107L21.5809 113.247L21.4414 113.498L21.3019 113.247L21.0508 113.107L21.3019 112.968L21.4414 112.717Z" fill="white"/>
<path d="M2.3906 115.52L2.52452 115.771L2.78119 115.91L2.52452 116.05L2.3906 116.301L2.2511 116.05L2 115.91L2.2511 115.771L2.3906 115.52Z" fill="white"/>
<path d="M16.4785 121.227L16.618 121.478L16.8691 121.617L16.618 121.757L16.4785 122.008L16.3446 121.757L16.0879 121.617L16.3446 121.478L16.4785 121.227Z" fill="white"/>
<path d="M46.4121 115.908L46.546 116.159L46.7971 116.299L46.546 116.438L46.4121 116.689L46.2726 116.438L46.0215 116.299L46.2726 116.159L46.4121 115.908Z" fill="white"/>
<path d="M52.25 120.836L52.3895 121.087L52.6406 121.227L52.3895 121.366L52.25 121.617L52.116 121.366L51.8594 121.227L52.116 121.087L52.25 120.836Z" fill="white"/>
<path d="M145.578 116.299L145.718 116.55L145.969 116.689L145.718 116.823L145.578 117.08L145.439 116.823L145.188 116.689L145.439 116.55L145.578 116.299Z" fill="white"/>
<path d="M97.4922 112.717L97.6317 112.968L97.8828 113.107L97.6317 113.247L97.4922 113.498L97.3527 113.247L97.1016 113.107L97.3527 112.968L97.4922 112.717Z" fill="white"/>
<path d="M141.61 98.8281L141.749 99.0792L142 99.2187L141.749 99.3582L141.61 99.6093L141.476 99.3582L141.225 99.2187L141.476 99.0792L141.61 98.8281Z" fill="white"/>
<path d="M170.764 120.836L170.903 121.087L171.154 121.227L170.903 121.366L170.764 121.617L170.624 121.366L170.373 121.227L170.624 121.087L170.764 120.836Z" fill="white"/>
<path d="M162.279 129.77L162.413 130.021L162.664 130.16L162.413 130.3L162.279 130.551L162.14 130.3L161.889 130.16L162.14 130.021L162.279 129.77Z" fill="white"/>
<path d="M142.002 116.689L142.141 116.941L142.393 117.08L142.141 117.214L142.002 117.465L141.862 117.214L141.611 117.08L141.862 116.941L142.002 116.689Z" fill="white"/>
<path d="M127.986 117.08L128.12 117.331L128.371 117.465L128.12 117.605L127.986 117.856L127.847 117.605L127.596 117.465L127.847 117.331L127.986 117.08Z" fill="white"/>
<path d="M130.426 89.2637L130.56 89.5148L130.811 89.6543L130.56 89.7882L130.426 90.0449L130.286 89.7882L130.035 89.6543L130.286 89.5148L130.426 89.2637Z" fill="white"/>
<path d="M14.5722 88.875L14.7062 89.1261L14.9573 89.2656L14.7062 89.4051L14.5722 89.6562L14.4327 89.4051L14.1816 89.2656L14.4327 89.1261L14.5722 88.875Z" fill="white"/>
<path d="M40.0429 75.5156L40.1824 75.7667L40.4335 75.9062L40.1824 76.0457L40.0429 76.2968L39.9034 76.0457L39.6523 75.9062L39.9034 75.7667L40.0429 75.5156Z" fill="white"/>
<path d="M51.8557 70.5098L51.9952 70.7609L52.2463 70.8948L51.9952 71.0343L51.8557 71.2854L51.7218 71.0343L51.4707 70.8948L51.7218 70.7609L51.8557 70.5098Z" fill="white"/>
<path d="M29.2031 61.2852L29.3426 61.5363L29.5937 61.6758L29.3426 61.8153L29.2031 62.0664L29.0636 61.8153L28.8125 61.6758L29.0636 61.5363L29.2031 61.2852Z" fill="white"/>
<path d="M64.2754 92.9961L64.4149 93.2472L64.666 93.3867L64.4149 93.5206L64.2754 93.7717L64.1359 93.5206L63.8848 93.3867L64.1359 93.2472L64.2754 92.9961Z" fill="white"/>
<path d="M23.2031 90.5469L23.3426 90.798L23.5937 90.9375L23.3426 91.0714L23.2031 91.3225L23.0692 91.0714L22.8125 90.9375L23.0692 90.798L23.2031 90.5469Z" fill="white"/>
<path d="M120.018 48.2402L120.157 48.4913L120.408 48.6308L120.157 48.7647L120.018 49.0214L119.878 48.7647L119.627 48.6308L119.878 48.4913L120.018 48.2402Z" fill="white"/>
<path d="M171.15 50.2988L171.29 50.5499L171.541 50.6894L171.29 50.8289L171.15 51.08L171.011 50.8289L170.76 50.6894L171.011 50.5499L171.15 50.2988Z" fill="white"/>
<path d="M157.648 80.6543L157.788 80.9054L158.039 81.0449L157.788 81.1844L157.648 81.4355L157.509 81.1844L157.258 81.0449L157.509 80.9054L157.648 80.6543Z" fill="white"/>
<path d="M138.186 40.0879L138.325 40.3446L138.576 40.4785L138.325 40.618L138.186 40.8691L138.046 40.618L137.795 40.4785L138.046 40.3446L138.186 40.0879Z" fill="white"/>
<path d="M167.816 70.1191L167.956 70.3702L168.207 70.5097L167.956 70.6437L167.816 70.8948L167.682 70.6437L167.426 70.5097L167.682 70.3702L167.816 70.1191Z" fill="white"/>
<path d="M23.5937 66.498L23.7332 66.7491L23.9843 66.8886L23.7332 67.0226L23.5937 67.2737L23.4542 67.0226L23.2031 66.8886L23.4542 66.7491L23.5937 66.498Z" fill="white"/>
<path d="M61.2929 102.188L61.4324 102.439L61.6835 102.578L61.4324 102.712L61.2929 102.969L61.1534 102.712L60.9023 102.578L61.1534 102.439L61.2929 102.188Z" fill="white"/>
<path d="M106.402 105.408L106.542 105.659L106.793 105.799L106.542 105.938L106.402 106.189L106.268 105.938L106.012 105.799L106.268 105.659L106.402 105.408Z" fill="white"/>
<path d="M115.621 90.9375L115.761 91.1886L116.012 91.3225L115.761 91.462L115.621 91.7131L115.482 91.462L115.23 91.3225L115.482 91.1886L115.621 90.9375Z" fill="white"/>
<path d="M119.084 108.883L119.224 109.134L119.475 109.273L119.224 109.407L119.084 109.664L118.95 109.407L118.699 109.273L118.95 109.134L119.084 108.883Z" fill="white"/>
<path d="M165.314 121.227L165.454 121.478L165.705 121.617L165.454 121.757L165.314 122.008L165.181 121.757L164.924 121.617L165.181 121.478L165.314 121.227Z" fill="white"/>
<path d="M93.0373 49.2949L93.2884 49.7469L93.7404 49.9924L93.2884 50.2379L93.0373 50.6899L92.7918 50.2379L92.3398 49.9924L92.7918 49.7469L93.0373 49.2949Z" fill="white"/>
<path d="M107.436 70.1973L107.681 70.6493L108.133 70.8948L107.681 71.1459L107.436 71.5923L107.19 71.1459L106.738 70.8948L107.19 70.6493L107.436 70.1973Z" fill="white"/>
<path d="M138.186 50.3828L138.431 50.8348L138.883 51.0803L138.431 51.3258L138.186 51.7778L137.94 51.3258L137.488 51.0803L137.94 50.8348L138.186 50.3828Z" fill="white"/>
<path d="M168.209 62.459L168.455 62.911L168.907 63.1565L168.455 63.402L168.209 63.854L167.964 63.402L167.512 63.1565L167.964 62.911L168.209 62.459Z" fill="white"/>
<path d="M146.67 88.1758L146.916 88.6278L147.368 88.8733L146.916 89.1188L146.67 89.5708L146.425 89.1188L145.973 88.8733L146.425 88.6278L146.67 88.1758Z" fill="white"/>
<path d="M83.8244 97.5781L84.07 98.0301L84.5219 98.2756L84.07 98.5211L83.8244 98.9731L83.5789 98.5211L83.127 98.2756L83.5789 98.0301L83.8244 97.5781Z" fill="white"/>
<path d="M42.9065 55.1992L43.152 55.6512L43.604 55.8967L43.152 56.1422L42.9065 56.5942L42.6554 56.1422L42.209 55.8967L42.6554 55.6512L42.9065 55.1992Z" fill="white"/>
<path d="M63.5803 72.5566L63.8258 73.0086L64.2778 73.2541L63.8258 73.4996L63.5803 73.9516L63.3348 73.4996L62.8828 73.2541L63.3348 73.0086L63.5803 72.5566Z" fill="white"/>
<path d="M72.3225 92.6914L72.5736 93.1434L73.02 93.3889L72.5736 93.6344L72.3225 94.0864L72.077 93.6344L71.625 93.3889L72.077 93.1434L72.3225 92.6914Z" fill="white"/>
<path d="M77.8537 86.4473L78.0993 86.8992L78.5512 87.1448L78.0993 87.3903L77.8537 87.8423L77.6082 87.3903L77.1562 87.1448L77.6082 86.8992L77.8537 86.4473Z" fill="white"/>
<path d="M37.5139 103.996L37.7594 104.448L38.2114 104.694L37.7594 104.939L37.5139 105.391L37.2684 104.939L36.8164 104.694L37.2684 104.448L37.5139 103.996Z" fill="white"/>
<path d="M122.365 69.5L122.617 69.952L123.063 70.1975L122.617 70.4486L122.365 70.895L122.12 70.4486L121.668 70.1975L122.12 69.952L122.365 69.5Z" fill="white"/>
<path d="M96.0373 82.9648L96.2829 83.4168L96.7348 83.6623L96.2829 83.9079L96.0373 84.3598L95.7918 83.9079L95.3398 83.6623L95.7918 83.4168L96.0373 82.9648Z" fill="white"/>
<path d="M73.6857 176.09L73.0384 177.273L71.8555 177.92L73.0384 178.567L73.6857 179.75L74.333 178.567L75.5159 177.92L74.333 177.273L73.6857 176.09Z" fill="white"/>
<path d="M99.5883 152.57L98.9466 153.753L97.7637 154.401L98.9466 155.048L99.5883 156.231L100.236 155.048L101.419 154.401L100.236 153.753L99.5883 152.57Z" fill="white"/>
<path d="M114.403 170.203L113.756 171.386L112.578 172.033L113.756 172.681L114.403 173.864L115.05 172.681L116.233 172.033L115.05 171.386L114.403 170.203Z" fill="white"/>
<path d="M147.635 140.025L146.988 141.208L145.805 141.856L146.988 142.503L147.635 143.686L148.282 142.503L149.465 141.856L148.282 141.208L147.635 140.025Z" fill="white"/>
<path d="M66.9134 171.117L66.5898 171.709L66.0039 172.032L66.5898 172.356L66.9134 172.947L67.2371 172.356L67.8286 172.032L67.2371 171.709L66.9134 171.117Z" fill="white"/>
<path d="M26.2452 159.842L25.9216 160.433L25.3301 160.757L25.9216 161.081L26.2452 161.672L26.5632 161.081L27.1603 160.757L26.5632 160.433L26.2452 159.842Z" fill="white"/>
<path d="M8.07137 193.281L7.74773 193.867L7.15625 194.191L7.74773 194.514L8.07137 195.106L8.39501 194.514L8.98648 194.191L8.39501 193.867L8.07137 193.281Z" fill="white"/>
<path d="M43.6322 209.145L43.3086 209.736L42.7227 210.06L43.3086 210.383L43.6322 210.975L43.9558 210.383L44.5473 210.06L43.9558 209.736L43.6322 209.145Z" fill="white"/>
<path d="M60.4483 205.674L60.1247 206.265L59.5332 206.589L60.1247 206.913L60.4483 207.504L60.772 206.913L61.3634 206.589L60.772 206.265L60.4483 205.674Z" fill="white"/>
<path d="M22.3487 207.695L22.0251 208.287L21.4336 208.61L22.0251 208.934L22.3487 209.526L22.6723 208.934L23.2638 208.61L22.6723 208.287L22.3487 207.695Z" fill="white"/>
<path d="M139.273 206.59L138.949 207.181L138.357 207.505L138.949 207.829L139.273 208.42L139.596 207.829L140.188 207.505L139.596 207.181L139.273 206.59Z" fill="white"/>
<path d="M47.753 189.783L47.4294 190.101L46.8379 190.274L47.4294 190.447L47.753 190.765L48.0766 190.447L48.6681 190.274L48.0766 190.101L47.753 189.783Z" fill="white"/>
<path d="M79.9553 157.934L79.7377 158.335L79.3359 158.553L79.7377 158.771L79.9553 159.172L80.1729 158.771L80.5747 158.553L80.1729 158.335L79.9553 157.934Z" fill="white"/>
<path d="M71.3733 151.611L71.2505 151.835L71.0273 151.957L71.2505 152.074L71.3733 152.298L71.4905 152.074L71.7137 151.957L71.4905 151.835L71.3733 151.611Z" fill="white"/>
<path d="M85.9472 159.445L85.8189 159.669L85.5957 159.791L85.8189 159.914L85.9472 160.137L86.0644 159.914L86.2876 159.791L86.0644 159.669L85.9472 159.445Z" fill="white"/>
<path d="M90.1331 152.23L90.0103 152.454L89.7871 152.571L90.0103 152.694L90.1331 152.917L90.2558 152.694L90.479 152.571L90.2558 152.454L90.1331 152.23Z" fill="white"/>
<path d="M96.5295 160.064L96.4068 160.288L96.1836 160.41L96.4068 160.533L96.5295 160.756L96.6523 160.533L96.8755 160.41L96.6523 160.288L96.5295 160.064Z" fill="white"/>
<path d="M82.676 173.518L82.5533 173.741L82.3301 173.864L82.5533 173.986L82.676 174.209L82.7988 173.986L83.022 173.864L82.7988 173.741L82.676 173.518Z" fill="white"/>
<path d="M97.4495 184.236L97.3267 184.46L97.1035 184.582L97.3267 184.699L97.4495 184.923L97.5722 184.699L97.7954 184.582L97.5722 184.46L97.4495 184.236Z" fill="white"/>
<path d="M90.8694 188.816L90.7466 189.04L90.5234 189.162L90.7466 189.285L90.8694 189.508L90.9922 189.285L91.2153 189.162L90.9922 189.04L90.8694 188.816Z" fill="white"/>
<path d="M107.518 196.562L107.395 196.786L107.172 196.908L107.395 197.026L107.518 197.249L107.641 197.026L107.864 196.908L107.641 196.786L107.518 196.562Z" fill="white"/>
<path d="M143.229 196.902L143.106 197.131L142.883 197.248L143.106 197.371L143.229 197.594L143.352 197.371L143.575 197.248L143.352 197.131L143.229 196.902Z" fill="white"/>
<path d="M160.139 199.393L160.016 199.616L159.793 199.739L160.016 199.861L160.139 200.084L160.262 199.861L160.485 199.739L160.262 199.616L160.139 199.393Z" fill="white"/>
<path d="M147.633 204.459L147.51 204.682L147.287 204.805L147.51 204.922L147.633 205.151L147.756 204.922L147.979 204.805L147.756 204.682L147.633 204.459Z" fill="white"/>
<path d="M121.071 199.738L120.948 199.961L120.725 200.084L120.948 200.207L121.071 200.43L121.193 200.207L121.417 200.084L121.193 199.961L121.071 199.738Z" fill="white"/>
<path d="M115.889 204.113L115.766 204.336L115.543 204.459L115.766 204.576L115.889 204.805L116.012 204.576L116.235 204.459L116.012 204.336L115.889 204.113Z" fill="white"/>
<path d="M33.0588 200.084L32.9361 200.307L32.7129 200.43L32.9361 200.553L33.0588 200.776L33.1816 200.553L33.4048 200.43L33.1816 200.307L33.0588 200.084Z" fill="white"/>
<path d="M75.7405 196.902L75.6177 197.131L75.3945 197.248L75.6177 197.371L75.7405 197.594L75.8632 197.371L76.0864 197.248L75.8632 197.131L75.7405 196.902Z" fill="white"/>
<path d="M36.5784 184.582L36.4556 184.805L36.2324 184.922L36.4556 185.045L36.5784 185.268L36.7012 185.045L36.9244 184.922L36.7012 184.805L36.5784 184.582Z" fill="white"/>
<path d="M10.7112 204.111L10.5884 204.335L10.3652 204.457L10.5884 204.574L10.7112 204.803L10.834 204.574L11.0571 204.457L10.834 204.335L10.7112 204.111Z" fill="white"/>
<path d="M18.2369 212.041L18.1197 212.264L17.8965 212.381L18.1197 212.504L18.2369 212.733L18.3652 212.504L18.5828 212.381L18.3652 212.264L18.2369 212.041Z" fill="white"/>
<path d="M36.2288 200.43L36.106 200.653L35.8828 200.776L36.106 200.898L36.2288 201.122L36.3515 200.898L36.5747 200.776L36.3515 200.653L36.2288 200.43Z" fill="white"/>
<path d="M48.6702 200.775L48.5474 200.999L48.3242 201.121L48.5474 201.244L48.6702 201.467L48.7929 201.244L49.0161 201.121L48.7929 200.999L48.6702 200.775Z" fill="white"/>
<path d="M46.5081 176.09L46.3853 176.313L46.1621 176.436L46.3853 176.559L46.5081 176.782L46.6308 176.559L46.854 176.436L46.6308 176.313L46.5081 176.09Z" fill="white"/>
<path d="M149.326 175.744L149.204 175.967L148.98 176.09L149.204 176.213L149.326 176.436L149.449 176.213L149.672 176.09L149.449 175.967L149.326 175.744Z" fill="white"/>
<path d="M126.717 163.893L126.594 164.116L126.371 164.239L126.594 164.361L126.717 164.584L126.84 164.361L127.063 164.239L126.84 164.116L126.717 163.893Z" fill="white"/>
<path d="M116.237 159.445L116.114 159.669L115.891 159.791L116.114 159.914L116.237 160.137L116.359 159.914L116.583 159.791L116.359 159.669L116.237 159.445Z" fill="white"/>
<path d="M136.346 151.264L136.223 151.487L136 151.61L136.223 151.727L136.346 151.956L136.469 151.727L136.692 151.61L136.469 151.487L136.346 151.264Z" fill="white"/>
<path d="M105.213 179.404L105.09 179.627L104.867 179.75L105.09 179.873L105.213 180.096L105.336 179.873L105.559 179.75L105.336 179.627L105.213 179.404Z" fill="white"/>
<path d="M141.665 177.229L141.547 177.452L141.324 177.574L141.547 177.697L141.665 177.92L141.787 177.697L142.011 177.574L141.787 177.452L141.665 177.229Z" fill="white"/>
<path d="M55.7444 139.682L55.6216 139.905L55.3984 140.028L55.6216 140.15L55.7444 140.374L55.8672 140.15L56.0904 140.028L55.8672 139.905L55.7444 139.682Z" fill="white"/>
<path d="M10.3635 141.51L10.2408 141.733L10.0176 141.856L10.2408 141.978L10.3635 142.202L10.4863 141.978L10.7095 141.856L10.4863 141.733L10.3635 141.51Z" fill="white"/>
<path d="M22.3499 168.451L22.2271 168.674L22.0039 168.797L22.2271 168.92L22.3499 169.143L22.4726 168.92L22.6958 168.797L22.4726 168.674L22.3499 168.451Z" fill="white"/>
<path d="M39.6213 132.449L39.4986 132.672L39.2754 132.795L39.4986 132.918L39.6213 133.141L39.7441 132.918L39.9673 132.795L39.7441 132.672L39.6213 132.449Z" fill="white"/>
<path d="M13.3284 159.1L13.2056 159.323L12.9824 159.446L13.2056 159.568L13.3284 159.792L13.4511 159.568L13.6743 159.446L13.4511 159.323L13.3284 159.1Z" fill="white"/>
<path d="M141.323 155.885L141.2 156.108L140.977 156.231L141.2 156.353L141.323 156.577L141.44 156.353L141.663 156.231L141.44 156.108L141.323 155.885Z" fill="white"/>
<path d="M107.862 187.557L107.739 187.785L107.516 187.903L107.739 188.025L107.862 188.249L107.984 188.025L108.208 187.903L107.984 187.785L107.862 187.557Z" fill="white"/>
<path d="M67.8264 190.42L67.7037 190.643L67.4805 190.766L67.7037 190.889L67.8264 191.112L67.9492 190.889L68.1724 190.766L67.9492 190.643L67.8264 190.42Z" fill="white"/>
<path d="M59.6467 177.574L59.524 177.797L59.3008 177.92L59.524 178.043L59.6467 178.266L59.7695 178.043L59.9927 177.92L59.7695 177.797L59.6467 177.574Z" fill="white"/>
<path d="M56.5784 193.504L56.4556 193.727L56.2324 193.85L56.4556 193.967L56.5784 194.19L56.7011 193.967L56.9243 193.85L56.7011 193.727L56.5784 193.504Z" fill="white"/>
<path d="M15.5413 204.459L15.4185 204.682L15.1953 204.805L15.4185 204.922L15.5413 205.151L15.664 204.922L15.8872 204.805L15.664 204.682L15.5413 204.459Z" fill="white"/>
<path d="M79.6897 140.619L79.4665 141.021L79.0703 141.239L79.4665 141.456L79.6897 141.858L79.9073 141.456L80.3035 141.239L79.9073 141.021L79.6897 140.619Z" fill="white"/>
<path d="M66.9104 159.172L66.6928 159.574L66.291 159.791L66.6928 160.009L66.9104 160.411L67.1336 160.009L67.5298 159.791L67.1336 159.574L66.9104 159.172Z" fill="white"/>
<path d="M59.965 107.686L59.3177 108.868L58.1348 109.516L59.3177 110.163L59.965 111.34L60.6067 110.163L61.7897 109.516L60.6067 108.868L59.965 107.686Z" fill="white"/>
<path d="M40.3225 113.047L40.1049 113.443L39.7031 113.666L40.1049 113.884L40.3225 114.28L40.5401 113.884L40.9419 113.666L40.5401 113.443L40.3225 113.047Z" fill="white"/>
<path d="M31.7463 106.719L31.6236 106.942L31.4004 107.065L31.6236 107.187L31.7463 107.411L31.8635 107.187L32.0867 107.065L31.8635 106.942L31.7463 106.719Z" fill="white"/>
<path d="M46.3144 114.555L46.1917 114.778L45.9629 114.901L46.1917 115.023L46.3144 115.247L46.4316 115.023L46.6548 114.901L46.4316 114.778L46.3144 114.555Z" fill="white"/>
<path d="M50.5081 107.34L50.3853 107.563L50.1621 107.686L50.3853 107.809L50.5081 108.032L50.6308 107.809L50.854 107.686L50.6308 107.563L50.5081 107.34Z" fill="white"/>
<path d="M56.8987 115.174L56.7759 115.397L56.5527 115.52L56.7759 115.643L56.8987 115.866L57.0215 115.643L57.2446 115.52L57.0215 115.397L56.8987 115.174Z" fill="white"/>
<path d="M40.0588 95.7324L39.8356 96.1286L39.4395 96.3518L39.8356 96.5694L40.0588 96.9712L40.2764 96.5694L40.6726 96.3518L40.2764 96.1286L40.0588 95.7324Z" fill="white"/>
<path d="M27.2818 114.279L27.0641 114.681L26.668 114.899L27.0641 115.122L27.2818 115.518L27.505 115.122L27.9011 114.899L27.505 114.681L27.2818 114.279Z" fill="white"/>
<path d="M83.6252 125.279L83.402 125.681L83.0059 125.899L83.402 126.116L83.6252 126.518L83.8429 126.116L84.2446 125.899L83.8429 125.681L83.6252 125.279Z" fill="white"/>
<path d="M75.0413 118.949L74.9185 119.172L74.6953 119.295L74.9185 119.418L75.0413 119.641L75.164 119.418L75.3872 119.295L75.164 119.172L75.0413 118.949Z" fill="white"/>
<path d="M89.6077 126.791L89.4849 127.014L89.2617 127.137L89.4849 127.254L89.6077 127.483L89.7304 127.254L89.9536 127.137L89.7304 127.014L89.6077 126.791Z" fill="white"/>
<path d="M83.3577 107.965L83.14 108.367L82.7383 108.584L83.14 108.802L83.3577 109.204L83.5753 108.802L83.977 108.584L83.5753 108.367L83.3577 107.965Z" fill="white"/>
<path d="M70.5842 126.518L70.361 126.914L69.9648 127.137L70.361 127.355L70.5842 127.751L70.8018 127.355L71.2036 127.137L70.8018 126.914L70.5842 126.518Z" fill="white"/>
<path d="M108.531 137.191L108.308 137.593L107.906 137.811L108.308 138.028L108.531 138.43L108.749 138.028L109.145 137.811L108.749 137.593L108.531 137.191Z" fill="white"/>
<path d="M99.9514 130.865L99.8287 131.088L99.6055 131.211L99.8287 131.334L99.9514 131.557L100.074 131.334L100.297 131.211L100.074 131.088L99.9514 130.865Z" fill="white"/>
<path d="M114.518 138.703L114.395 138.926L114.172 139.049L114.395 139.172L114.518 139.395L114.641 139.172L114.864 139.049L114.641 138.926L114.518 138.703Z" fill="white"/>
<path d="M108.266 119.877L108.048 120.279L107.646 120.496L108.048 120.714L108.266 121.116L108.483 120.714L108.885 120.496L108.483 120.279L108.266 119.877Z" fill="white"/>
<path d="M95.4905 138.43L95.2673 138.826L94.8711 139.049L95.2673 139.267L95.4905 139.668L95.7081 139.267L96.1098 139.049L95.7081 138.826L95.4905 138.43Z" fill="white"/>
<path d="M39.6213 141.584L39.4037 141.986L39.002 142.203L39.4037 142.421L39.6213 142.823L39.8389 142.421L40.2407 142.203L39.8389 141.986L39.6213 141.584Z" fill="white"/>
<path d="M12.9768 152.295L12.7592 152.697L12.3574 152.914L12.7592 153.137L12.9768 153.534L13.1944 153.137L13.5962 152.914L13.1944 152.697L12.9768 152.295Z" fill="white"/>
<path d="M32.0901 175.123L31.8725 175.525L31.4707 175.742L31.8725 175.96L32.0901 176.362L32.3133 175.96L32.7095 175.742L32.3133 175.525L32.0901 175.123Z" fill="white"/>
<path d="M87.8655 183.473L87.6479 183.869L87.2461 184.092L87.6479 184.31L87.8655 184.711L88.0831 184.31L88.4848 184.092L88.0831 183.869L87.8655 183.473Z" fill="white"/>
<path d="M124.17 145.857L123.953 146.259L123.551 146.477L123.953 146.7L124.17 147.096L124.393 146.7L124.79 146.477L124.393 146.259L124.17 145.857Z" fill="white"/>
<path d="M105.83 161.264L105.613 161.665L105.211 161.883L105.613 162.101L105.83 162.502L106.048 162.101L106.45 161.883L106.048 161.665L105.83 161.264Z" fill="white"/>
<path d="M98.0705 179.131L97.8529 179.533L97.4512 179.75L97.8529 179.968L98.0705 180.37L98.2882 179.968L98.6899 179.75L98.2882 179.533L98.0705 179.131Z" fill="white"/>
<path d="M93.1682 173.59L92.945 173.992L92.5488 174.209L92.945 174.427L93.1682 174.829L93.3858 174.427L93.7876 174.209L93.3858 173.992L93.1682 173.59Z" fill="white"/>
<path d="M128.963 189.164L128.746 189.566L128.344 189.783L128.746 190.001L128.963 190.403L129.181 190.001L129.583 189.783L129.181 189.566L128.963 189.164Z" fill="white"/>
<path d="M53.6604 158.553L53.4428 158.954L53.041 159.172L53.4428 159.39L53.6604 159.791L53.878 159.39L54.2798 159.172L53.878 158.954L53.6604 158.553Z" fill="white"/>
<path d="M77.0217 170.498L76.8041 170.9L76.4023 171.117L76.8041 171.335L77.0217 171.737L77.2393 171.335L77.6411 171.117L77.2393 170.9L77.0217 170.498Z" fill="white"/>
</g>
<g opacity="0.3">
<path d="M272.561 89.2637L273.286 90.5973L274.62 91.3227L273.286 92.0537L272.561 93.3873L271.83 92.0537L270.496 91.3227L271.83 90.5973L272.561 89.2637Z" fill="white"/>
<path d="M243.366 62.7656L244.097 64.0992L245.43 64.8246L244.097 65.5556L243.366 66.8892L242.64 65.5556L241.307 64.8246L242.64 64.0992L243.366 62.7656Z" fill="white"/>
<path d="M226.68 82.6289L227.405 83.9625L228.739 84.6935L227.405 85.4189L226.68 86.7525L225.949 85.4189L224.615 84.6935L225.949 83.9625L226.68 82.6289Z" fill="white"/>
<path d="M189.235 48.6309L189.966 49.9645L191.299 50.6899L189.966 51.4208L189.235 52.7545L188.509 51.4208L187.176 50.6899L188.509 49.9645L189.235 48.6309Z" fill="white"/>
<path d="M280.191 83.6621L280.553 84.3261L281.217 84.6944L280.553 85.0571L280.191 85.7211L279.828 85.0571L279.158 84.6944L279.828 84.3261L280.191 83.6621Z" fill="white"/>
<path d="M326.017 70.957L326.379 71.621L327.049 71.9838L326.379 72.352L326.017 73.016L325.654 72.352L324.984 71.9838L325.654 71.621L326.017 70.957Z" fill="white"/>
<path d="M346.49 108.633L346.858 109.297L347.522 109.665L346.858 110.028L346.49 110.692L346.127 110.028L345.463 109.665L346.127 109.297L346.49 108.633Z" fill="white"/>
<path d="M306.417 126.512L306.78 127.176L307.444 127.544L306.78 127.907L306.417 128.571L306.054 127.907L305.385 127.544L306.054 127.176L306.417 126.512Z" fill="white"/>
<path d="M287.472 122.6L287.834 123.269L288.504 123.632L287.834 123.995L287.472 124.664L287.109 123.995L286.439 123.632L287.109 123.269L287.472 122.6Z" fill="white"/>
<path d="M330.403 124.875L330.766 125.539L331.436 125.907L330.766 126.27L330.403 126.934L330.041 126.27L329.371 125.907L330.041 125.539L330.403 124.875Z" fill="white"/>
<path d="M198.657 123.631L199.02 124.295L199.684 124.663L199.02 125.026L198.657 125.69L198.289 125.026L197.625 124.663L198.289 124.295L198.657 123.631Z" fill="white"/>
<path d="M301.773 104.693L302.136 105.05L302.805 105.246L302.136 105.441L301.773 105.798L301.41 105.441L300.746 105.246L301.41 105.05L301.773 104.693Z" fill="white"/>
<path d="M265.494 68.8027L265.74 69.2547L266.192 69.5002L265.74 69.7513L265.494 70.1977L265.249 69.7513L264.797 69.5002L265.249 69.2547L265.494 68.8027Z" fill="white"/>
<path d="M275.162 61.6777L275.302 61.9288L275.553 62.0683L275.302 62.2078L275.162 62.4589L275.028 62.2078L274.777 62.0683L275.028 61.9288L275.162 61.6777Z" fill="white"/>
<path d="M258.746 70.5098L258.886 70.7609L259.137 70.8948L258.886 71.0343L258.746 71.2854L258.612 71.0343L258.361 70.8948L258.612 70.7609L258.746 70.5098Z" fill="white"/>
<path d="M254.02 62.375L254.159 62.6261L254.41 62.7656L254.159 62.9051L254.02 63.1562L253.88 62.9051L253.629 62.7656L253.88 62.6261L254.02 62.375Z" fill="white"/>
<path d="M246.818 71.207L246.952 71.4581L247.203 71.592L246.952 71.7315L246.818 71.9826L246.679 71.7315L246.428 71.592L246.679 71.4581L246.818 71.207Z" fill="white"/>
<path d="M262.43 86.3633L262.569 86.6144L262.82 86.7539L262.569 86.8934L262.43 87.1445L262.296 86.8934L262.039 86.7539L262.296 86.6144L262.43 86.3633Z" fill="white"/>
<path d="M245.777 98.4375L245.917 98.6942L246.168 98.8281L245.917 98.9676L245.777 99.2187L245.643 98.9676L245.387 98.8281L245.643 98.6942L245.777 98.4375Z" fill="white"/>
<path d="M253.201 103.605L253.341 103.857L253.592 103.996L253.341 104.13L253.201 104.387L253.062 104.13L252.811 103.996L253.062 103.857L253.201 103.605Z" fill="white"/>
<path d="M234.441 112.332L234.581 112.583L234.832 112.717L234.581 112.857L234.441 113.108L234.302 112.857L234.051 112.717L234.302 112.583L234.441 112.332Z" fill="white"/>
<path d="M194.197 112.717L194.337 112.968L194.588 113.107L194.337 113.247L194.197 113.498L194.058 113.247L193.807 113.107L194.058 112.968L194.197 112.717Z" fill="white"/>
<path d="M175.146 115.52L175.28 115.771L175.537 115.91L175.28 116.05L175.146 116.301L175.007 116.05L174.756 115.91L175.007 115.771L175.146 115.52Z" fill="white"/>
<path d="M189.234 121.227L189.374 121.478L189.625 121.617L189.374 121.757L189.234 122.008L189.1 121.757L188.844 121.617L189.1 121.478L189.234 121.227Z" fill="white"/>
<path d="M219.168 115.908L219.302 116.159L219.553 116.299L219.302 116.438L219.168 116.689L219.028 116.438L218.777 116.299L219.028 116.159L219.168 115.908Z" fill="white"/>
<path d="M225.006 120.836L225.145 121.087L225.396 121.227L225.145 121.366L225.006 121.617L224.872 121.366L224.615 121.227L224.872 121.087L225.006 120.836Z" fill="white"/>
<path d="M318.334 116.299L318.473 116.55L318.725 116.689L318.473 116.823L318.334 117.08L318.194 116.823L317.943 116.689L318.194 116.55L318.334 116.299Z" fill="white"/>
<path d="M270.248 112.717L270.388 112.968L270.639 113.107L270.388 113.247L270.248 113.498L270.109 113.247L269.857 113.107L270.109 112.968L270.248 112.717Z" fill="white"/>
<path d="M314.365 98.8281L314.505 99.0792L314.756 99.2187L314.505 99.3582L314.365 99.6093L314.232 99.3582L313.98 99.2187L314.232 99.0792L314.365 98.8281Z" fill="white"/>
<path d="M343.516 120.836L343.655 121.087L343.906 121.227L343.655 121.366L343.516 121.617L343.376 121.366L343.125 121.227L343.376 121.087L343.516 120.836Z" fill="white"/>
<path d="M335.035 129.77L335.169 130.021L335.42 130.16L335.169 130.3L335.035 130.551L334.896 130.3L334.645 130.16L334.896 130.021L335.035 129.77Z" fill="white"/>
<path d="M314.758 116.689L314.897 116.941L315.148 117.08L314.897 117.214L314.758 117.465L314.618 117.214L314.367 117.08L314.618 116.941L314.758 116.689Z" fill="white"/>
<path d="M300.742 117.08L300.876 117.331L301.127 117.465L300.876 117.605L300.742 117.856L300.603 117.605L300.352 117.465L300.603 117.331L300.742 117.08Z" fill="white"/>
<path d="M303.176 89.2637L303.31 89.5148L303.561 89.6543L303.31 89.7882L303.176 90.0449L303.036 89.7882L302.785 89.6543L303.036 89.5148L303.176 89.2637Z" fill="white"/>
<path d="M187.328 88.875L187.462 89.1261L187.713 89.2656L187.462 89.4051L187.328 89.6562L187.189 89.4051L186.938 89.2656L187.189 89.1261L187.328 88.875Z" fill="white"/>
<path d="M212.799 75.5156L212.938 75.7667L213.189 75.9062L212.938 76.0457L212.799 76.2968L212.659 76.0457L212.408 75.9062L212.659 75.7667L212.799 75.5156Z" fill="white"/>
<path d="M224.612 70.5098L224.751 70.7609L225.002 70.8948L224.751 71.0343L224.612 71.2854L224.478 71.0343L224.227 70.8948L224.478 70.7609L224.612 70.5098Z" fill="white"/>
<path d="M201.957 61.2852L202.097 61.5363L202.348 61.6758L202.097 61.8153L201.957 62.0664L201.818 61.8153L201.566 61.6758L201.818 61.5363L201.957 61.2852Z" fill="white"/>
<path d="M237.031 92.9961L237.171 93.2472L237.422 93.3867L237.171 93.5206L237.031 93.7717L236.892 93.5206L236.641 93.3867L236.892 93.2472L237.031 92.9961Z" fill="white"/>
<path d="M195.957 90.5469L196.097 90.798L196.348 90.9375L196.097 91.0714L195.957 91.3225L195.823 91.0714L195.566 90.9375L195.823 90.798L195.957 90.5469Z" fill="white"/>
<path d="M292.771 48.2402L292.911 48.4913L293.162 48.6308L292.911 48.7647L292.771 49.0214L292.632 48.7647L292.381 48.6308L292.632 48.4913L292.771 48.2402Z" fill="white"/>
<path d="M343.906 50.2988L344.046 50.5499L344.297 50.6894L344.046 50.8289L343.906 51.08L343.767 50.8289L343.516 50.6894L343.767 50.5499L343.906 50.2988Z" fill="white"/>
<path d="M330.398 80.6543L330.538 80.9054L330.789 81.0449L330.538 81.1844L330.398 81.4355L330.259 81.1844L330.008 81.0449L330.259 80.9054L330.398 80.6543Z" fill="white"/>
<path d="M310.941 40.0879L311.081 40.3446L311.332 40.4785L311.081 40.618L310.941 40.8691L310.802 40.618L310.551 40.4785L310.802 40.3446L310.941 40.0879Z" fill="white"/>
<path d="M340.572 70.1191L340.712 70.3702L340.963 70.5097L340.712 70.6437L340.572 70.8948L340.438 70.6437L340.182 70.5097L340.438 70.3702L340.572 70.1191Z" fill="white"/>
<path d="M196.348 66.498L196.487 66.7491L196.738 66.8886L196.487 67.0226L196.348 67.2737L196.208 67.0226L195.957 66.8886L196.208 66.7491L196.348 66.498Z" fill="white"/>
<path d="M234.049 102.188L234.188 102.439L234.439 102.578L234.188 102.712L234.049 102.969L233.909 102.712L233.658 102.578L233.909 102.439L234.049 102.188Z" fill="white"/>
<path d="M279.158 105.406L279.298 105.657L279.549 105.797L279.298 105.936L279.158 106.187L279.024 105.936L278.768 105.797L279.024 105.657L279.158 105.406Z" fill="white"/>
<path d="M288.375 90.9375L288.514 91.1886L288.766 91.3225L288.514 91.462L288.375 91.7131L288.235 91.462L287.984 91.3225L288.235 91.1886L288.375 90.9375Z" fill="white"/>
<path d="M291.836 108.883L291.976 109.134L292.227 109.273L291.976 109.407L291.836 109.664L291.702 109.407L291.451 109.273L291.702 109.134L291.836 108.883Z" fill="white"/>
<path d="M338.07 121.227L338.21 121.478L338.461 121.617L338.21 121.757L338.07 122.008L337.936 121.757L337.68 121.617L337.936 121.478L338.07 121.227Z" fill="white"/>
<path d="M265.793 49.2949L266.044 49.7469L266.496 49.9924L266.044 50.2379L265.793 50.6899L265.548 50.2379L265.096 49.9924L265.548 49.7469L265.793 49.2949Z" fill="white"/>
<path d="M280.192 70.1973L280.437 70.6493L280.889 70.8948L280.437 71.1459L280.192 71.5923L279.946 71.1459L279.494 70.8948L279.946 70.6493L280.192 70.1973Z" fill="white"/>
<path d="M310.942 50.3828L311.187 50.8348L311.639 51.0803L311.187 51.3258L310.942 51.7778L310.696 51.3258L310.244 51.0803L310.696 50.8348L310.942 50.3828Z" fill="white"/>
<path d="M340.963 62.459L341.209 62.911L341.661 63.1565L341.209 63.402L340.963 63.854L340.718 63.402L340.266 63.1565L340.718 62.911L340.963 62.459Z" fill="white"/>
<path d="M319.42 88.1758L319.666 88.6278L320.118 88.8733L319.666 89.1188L319.42 89.5708L319.175 89.1188L318.723 88.8733L319.175 88.6278L319.42 88.1758Z" fill="white"/>
<path d="M256.58 97.5781L256.826 98.0301L257.278 98.2756L256.826 98.5211L256.58 98.9731L256.335 98.5211L255.883 98.2756L256.335 98.0301L256.58 97.5781Z" fill="white"/>
<path d="M215.666 55.1992L215.912 55.6512L216.364 55.8967L215.912 56.1422L215.666 56.5942L215.415 56.1422L214.969 55.8967L215.415 55.6512L215.666 55.1992Z" fill="white"/>
<path d="M236.33 72.5566L236.576 73.0086L237.028 73.2541L236.576 73.4996L236.33 73.9516L236.085 73.4996L235.633 73.2541L236.085 73.0086L236.33 72.5566Z" fill="white"/>
<path d="M245.078 92.6914L245.329 93.1434L245.776 93.3889L245.329 93.6344L245.078 94.0864L244.833 93.6344L244.381 93.3889L244.833 93.1434L245.078 92.6914Z" fill="white"/>
<path d="M250.61 86.4473L250.855 86.8992L251.307 87.1448L250.855 87.3903L250.61 87.8423L250.364 87.3903L249.912 87.1448L250.364 86.8992L250.61 86.4473Z" fill="white"/>
<path d="M210.272 103.996L210.517 104.448L210.969 104.694L210.517 104.939L210.272 105.391L210.026 104.939L209.574 104.694L210.026 104.448L210.272 103.996Z" fill="white"/>
<path d="M295.123 69.5L295.374 69.952L295.821 70.1975L295.374 70.4486L295.123 70.895L294.878 70.4486L294.426 70.1975L294.878 69.952L295.123 69.5Z" fill="white"/>
<path d="M268.793 82.9648L269.039 83.4168L269.491 83.6623L269.039 83.9079L268.793 84.3598L268.548 83.9079L268.096 83.6623L268.548 83.4168L268.793 82.9648Z" fill="white"/>
<path d="M246.445 176.09L245.798 177.273L244.615 177.92L245.798 178.567L246.445 179.75L247.093 178.567L248.276 177.92L247.093 177.273L246.445 176.09Z" fill="white"/>
<path d="M272.348 152.572L271.706 153.755L270.523 154.402L271.706 155.05L272.348 156.233L272.995 155.05L274.178 154.402L272.995 153.755L272.348 152.572Z" fill="white"/>
<path d="M287.161 170.205L286.513 171.388L285.336 172.035L286.513 172.683L287.161 173.866L287.808 172.683L288.991 172.035L287.808 171.388L287.161 170.205Z" fill="white"/>
<path d="M320.395 140.027L319.747 141.21L318.564 141.858L319.747 142.505L320.395 143.688L321.042 142.505L322.225 141.858L321.042 141.21L320.395 140.027Z" fill="white"/>
<path d="M239.675 171.119L239.352 171.711L238.766 172.034L239.352 172.358L239.675 172.949L239.999 172.358L240.59 172.034L239.999 171.711L239.675 171.119Z" fill="white"/>
<path d="M199.005 159.842L198.681 160.433L198.09 160.757L198.681 161.081L199.005 161.672L199.323 161.081L199.92 160.757L199.323 160.433L199.005 159.842Z" fill="white"/>
<path d="M180.831 193.283L180.507 193.869L179.916 194.193L180.507 194.516L180.831 195.108L181.155 194.516L181.746 194.193L181.155 193.869L180.831 193.283Z" fill="white"/>
<path d="M216.394 209.146L216.07 209.738L215.484 210.062L216.07 210.385L216.394 210.977L216.718 210.385L217.309 210.062L216.718 209.738L216.394 209.146Z" fill="white"/>
<path d="M233.212 205.676L232.888 206.267L232.297 206.591L232.888 206.915L233.212 207.506L233.536 206.915L234.127 206.591L233.536 206.267L233.212 205.676Z" fill="white"/>
<path d="M195.108 207.695L194.785 208.287L194.193 208.61L194.785 208.934L195.108 209.526L195.432 208.934L196.024 208.61L195.432 208.287L195.108 207.695Z" fill="white"/>
<path d="M312.032 206.592L311.709 207.183L311.117 207.507L311.709 207.831L312.032 208.422L312.356 207.831L312.947 207.507L312.356 207.183L312.032 206.592Z" fill="white"/>
<path d="M220.513 189.783L220.189 190.101L219.598 190.274L220.189 190.447L220.513 190.765L220.836 190.447L221.428 190.274L220.836 190.101L220.513 189.783Z" fill="white"/>
<path d="M252.715 157.934L252.497 158.335L252.096 158.553L252.497 158.771L252.715 159.172L252.933 158.771L253.334 158.553L252.933 158.335L252.715 157.934Z" fill="white"/>
<path d="M244.133 151.611L244.01 151.835L243.787 151.957L244.01 152.074L244.133 152.298L244.25 152.074L244.473 151.957L244.25 151.835L244.133 151.611Z" fill="white"/>
<path d="M258.707 159.445L258.579 159.669L258.355 159.791L258.579 159.914L258.707 160.137L258.824 159.914L259.047 159.791L258.824 159.669L258.707 159.445Z" fill="white"/>
<path d="M262.897 152.23L262.774 152.454L262.551 152.571L262.774 152.694L262.897 152.917L263.019 152.694L263.243 152.571L263.019 152.454L262.897 152.23Z" fill="white"/>
<path d="M269.289 160.064L269.167 160.288L268.943 160.41L269.167 160.533L269.289 160.756L269.412 160.533L269.635 160.41L269.412 160.288L269.289 160.064Z" fill="white"/>
<path d="M255.436 173.52L255.313 173.743L255.09 173.865L255.313 173.988L255.436 174.211L255.559 173.988L255.782 173.865L255.559 173.743L255.436 173.52Z" fill="white"/>
<path d="M270.209 184.238L270.086 184.461L269.863 184.584L270.086 184.701L270.209 184.925L270.332 184.701L270.555 184.584L270.332 184.461L270.209 184.238Z" fill="white"/>
<path d="M263.627 188.818L263.504 189.042L263.281 189.164L263.504 189.287L263.627 189.51L263.75 189.287L263.973 189.164L263.75 189.042L263.627 188.818Z" fill="white"/>
<path d="M280.276 196.564L280.153 196.788L279.93 196.91L280.153 197.028L280.276 197.251L280.398 197.028L280.622 196.91L280.398 196.788L280.276 196.564Z" fill="white"/>
<path d="M315.989 196.904L315.866 197.133L315.643 197.25L315.866 197.373L315.989 197.596L316.111 197.373L316.335 197.25L316.111 197.133L315.989 196.904Z" fill="white"/>
<path d="M332.897 199.393L332.774 199.616L332.551 199.739L332.774 199.861L332.897 200.084L333.019 199.861L333.243 199.739L333.019 199.616L332.897 199.393Z" fill="white"/>
<path d="M320.393 204.461L320.27 204.684L320.047 204.807L320.27 204.924L320.393 205.153L320.516 204.924L320.739 204.807L320.516 204.684L320.393 204.461Z" fill="white"/>
<path d="M293.834 199.738L293.711 199.961L293.488 200.084L293.711 200.207L293.834 200.43L293.957 200.207L294.18 200.084L293.957 199.961L293.834 199.738Z" fill="white"/>
<path d="M288.647 204.113L288.524 204.336L288.301 204.459L288.524 204.576L288.647 204.805L288.769 204.576L288.993 204.459L288.769 204.336L288.647 204.113Z" fill="white"/>
<path d="M205.819 200.086L205.696 200.309L205.473 200.432L205.696 200.555L205.819 200.778L205.941 200.555L206.165 200.432L205.941 200.309L205.819 200.086Z" fill="white"/>
<path d="M248.496 196.904L248.374 197.133L248.15 197.25L248.374 197.373L248.496 197.596L248.619 197.373L248.842 197.25L248.619 197.133L248.496 196.904Z" fill="white"/>
<path d="M209.338 184.584L209.215 184.807L208.992 184.924L209.215 185.047L209.338 185.27L209.461 185.047L209.684 184.924L209.461 184.807L209.338 184.584Z" fill="white"/>
<path d="M183.471 204.113L183.348 204.336L183.125 204.459L183.348 204.576L183.471 204.805L183.594 204.576L183.817 204.459L183.594 204.336L183.471 204.113Z" fill="white"/>
<path d="M190.997 212.043L190.879 212.266L190.656 212.383L190.879 212.506L190.997 212.735L191.125 212.506L191.343 212.383L191.125 212.266L190.997 212.043Z" fill="white"/>
<path d="M208.994 200.432L208.872 200.655L208.648 200.778L208.872 200.9L208.994 201.124L209.117 200.9L209.34 200.778L209.117 200.655L208.994 200.432Z" fill="white"/>
<path d="M221.434 200.775L221.311 200.999L221.088 201.121L221.311 201.244L221.434 201.467L221.557 201.244L221.78 201.121L221.557 200.999L221.434 200.775Z" fill="white"/>
<path d="M219.268 176.09L219.145 176.313L218.922 176.436L219.145 176.559L219.268 176.782L219.391 176.559L219.614 176.436L219.391 176.313L219.268 176.09Z" fill="white"/>
<path d="M322.092 175.746L321.969 175.969L321.746 176.092L321.969 176.215L322.092 176.438L322.215 176.215L322.438 176.092L322.215 175.969L322.092 175.746Z" fill="white"/>
<path d="M299.479 163.893L299.356 164.116L299.133 164.239L299.356 164.361L299.479 164.584L299.602 164.361L299.825 164.239L299.602 164.116L299.479 163.893Z" fill="white"/>
<path d="M288.994 159.445L288.872 159.669L288.648 159.791L288.872 159.914L288.994 160.137L289.117 159.914L289.34 159.791L289.117 159.669L288.994 159.445Z" fill="white"/>
<path d="M309.104 151.266L308.981 151.489L308.758 151.612L308.981 151.729L309.104 151.958L309.227 151.729L309.45 151.612L309.227 151.489L309.104 151.266Z" fill="white"/>
<path d="M277.975 179.406L277.852 179.629L277.629 179.752L277.852 179.875L277.975 180.098L278.098 179.875L278.321 179.752L278.098 179.629L277.975 179.406Z" fill="white"/>
<path d="M314.424 177.23L314.307 177.454L314.084 177.576L314.307 177.699L314.424 177.922L314.547 177.699L314.77 177.576L314.547 177.454L314.424 177.23Z" fill="white"/>
<path d="M228.506 139.682L228.383 139.905L228.16 140.028L228.383 140.15L228.506 140.374L228.629 140.15L228.852 140.028L228.629 139.905L228.506 139.682Z" fill="white"/>
<path d="M183.123 141.512L183.001 141.735L182.777 141.858L183.001 141.98L183.123 142.204L183.246 141.98L183.469 141.858L183.246 141.735L183.123 141.512Z" fill="white"/>
<path d="M195.11 168.453L194.987 168.676L194.764 168.799L194.987 168.922L195.11 169.145L195.232 168.922L195.456 168.799L195.232 168.676L195.11 168.453Z" fill="white"/>
<path d="M212.381 132.451L212.258 132.674L212.035 132.797L212.258 132.92L212.381 133.143L212.504 132.92L212.727 132.797L212.504 132.674L212.381 132.451Z" fill="white"/>
<path d="M186.088 159.102L185.965 159.325L185.742 159.448L185.965 159.57L186.088 159.793L186.211 159.57L186.434 159.448L186.211 159.325L186.088 159.102Z" fill="white"/>
<path d="M314.082 155.887L313.96 156.11L313.736 156.233L313.96 156.355L314.082 156.579L314.199 156.355L314.423 156.233L314.199 156.11L314.082 155.887Z" fill="white"/>
<path d="M280.625 187.559L280.503 187.787L280.279 187.905L280.503 188.027L280.625 188.251L280.748 188.027L280.971 187.905L280.748 187.787L280.625 187.559Z" fill="white"/>
<path d="M240.586 190.42L240.463 190.643L240.24 190.766L240.463 190.889L240.586 191.112L240.709 190.889L240.932 190.766L240.709 190.643L240.586 190.42Z" fill="white"/>
<path d="M232.408 177.576L232.286 177.799L232.062 177.922L232.286 178.045L232.408 178.268L232.531 178.045L232.754 177.922L232.531 177.799L232.408 177.576Z" fill="white"/>
<path d="M229.338 193.506L229.215 193.729L228.992 193.852L229.215 193.969L229.338 194.192L229.461 193.969L229.684 193.852L229.461 193.729L229.338 193.506Z" fill="white"/>
<path d="M188.303 204.461L188.18 204.684L187.957 204.807L188.18 204.924L188.303 205.153L188.426 204.924L188.649 204.807L188.426 204.684L188.303 204.461Z" fill="white"/>
<path d="M252.447 140.619L252.224 141.021L251.828 141.239L252.224 141.456L252.447 141.858L252.665 141.456L253.061 141.239L252.665 141.021L252.447 140.619Z" fill="white"/>
<path d="M239.67 159.172L239.453 159.574L239.051 159.791L239.453 160.009L239.67 160.411L239.893 160.009L240.29 159.791L239.893 159.574L239.67 159.172Z" fill="white"/>
<path d="M232.725 107.686L232.078 108.868L230.895 109.516L232.078 110.163L232.725 111.34L233.366 110.163L234.549 109.516L233.366 108.868L232.725 107.686Z" fill="white"/>
<path d="M213.084 113.049L212.867 113.445L212.465 113.668L212.867 113.886L213.084 114.282L213.302 113.886L213.704 113.668L213.302 113.445L213.084 113.049Z" fill="white"/>
<path d="M204.506 106.721L204.383 106.944L204.16 107.067L204.383 107.189L204.506 107.413L204.623 107.189L204.846 107.067L204.623 106.944L204.506 106.721Z" fill="white"/>
<path d="M219.074 114.555L218.951 114.778L218.723 114.901L218.951 115.023L219.074 115.247L219.191 115.023L219.415 114.901L219.191 114.778L219.074 114.555Z" fill="white"/>
<path d="M223.268 107.34L223.145 107.563L222.922 107.686L223.145 107.809L223.268 108.032L223.391 107.809L223.614 107.686L223.391 107.563L223.268 107.34Z" fill="white"/>
<path d="M229.662 115.176L229.54 115.399L229.316 115.522L229.54 115.644L229.662 115.868L229.785 115.644L230.008 115.522L229.785 115.399L229.662 115.176Z" fill="white"/>
<path d="M212.823 95.7344L212.599 96.1305L212.203 96.3538L212.599 96.5714L212.823 96.9731L213.04 96.5714L213.436 96.3538L213.04 96.1305L212.823 95.7344Z" fill="white"/>
<path d="M200.043 114.281L199.826 114.683L199.43 114.901L199.826 115.124L200.043 115.52L200.267 115.124L200.663 114.901L200.267 114.683L200.043 114.281Z" fill="white"/>
<path d="M256.383 125.279L256.16 125.681L255.764 125.899L256.16 126.116L256.383 126.518L256.601 126.116L257.002 125.899L256.601 125.681L256.383 125.279Z" fill="white"/>
<path d="M247.803 118.951L247.68 119.174L247.457 119.297L247.68 119.42L247.803 119.643L247.926 119.42L248.149 119.297L247.926 119.174L247.803 118.951Z" fill="white"/>
<path d="M262.367 126.793L262.245 127.016L262.021 127.139L262.245 127.256L262.367 127.485L262.49 127.256L262.713 127.139L262.49 127.016L262.367 126.793Z" fill="white"/>
<path d="M256.117 107.967L255.9 108.369L255.498 108.586L255.9 108.804L256.117 109.206L256.335 108.804L256.737 108.586L256.335 108.369L256.117 107.967Z" fill="white"/>
<path d="M243.342 126.52L243.119 126.916L242.723 127.139L243.119 127.357L243.342 127.753L243.56 127.357L243.961 127.139L243.56 126.916L243.342 126.52Z" fill="white"/>
<path d="M281.293 137.193L281.07 137.595L280.668 137.813L281.07 138.03L281.293 138.432L281.511 138.03L281.907 137.813L281.511 137.595L281.293 137.193Z" fill="white"/>
<path d="M272.713 130.865L272.59 131.088L272.367 131.211L272.59 131.334L272.713 131.557L272.836 131.334L273.059 131.211L272.836 131.088L272.713 130.865Z" fill="white"/>
<path d="M287.28 138.707L287.157 138.93L286.934 139.053L287.157 139.176L287.28 139.399L287.402 139.176L287.626 139.053L287.402 138.93L287.28 138.707Z" fill="white"/>
<path d="M281.026 119.879L280.808 120.281L280.406 120.498L280.808 120.716L281.026 121.118L281.243 120.716L281.645 120.498L281.243 120.281L281.026 119.879Z" fill="white"/>
<path d="M268.248 138.432L268.025 138.828L267.629 139.051L268.025 139.269L268.248 139.67L268.466 139.269L268.868 139.051L268.466 138.828L268.248 138.432Z" fill="white"/>
<path d="M212.381 141.586L212.163 141.988L211.762 142.205L212.163 142.423L212.381 142.825L212.599 142.423L213 142.205L212.599 141.988L212.381 141.586Z" fill="white"/>
<path d="M185.739 152.297L185.521 152.699L185.119 152.916L185.521 153.139L185.739 153.536L185.956 153.139L186.358 152.916L185.956 152.699L185.739 152.297Z" fill="white"/>
<path d="M204.85 175.125L204.632 175.527L204.23 175.744L204.632 175.962L204.85 176.364L205.073 175.962L205.469 175.744L205.073 175.527L204.85 175.125Z" fill="white"/>
<path d="M260.625 183.475L260.408 183.871L260.006 184.094L260.408 184.312L260.625 184.713L260.843 184.312L261.245 184.094L260.843 183.871L260.625 183.475Z" fill="white"/>
<path d="M296.932 145.857L296.714 146.259L296.312 146.477L296.714 146.7L296.932 147.096L297.155 146.7L297.551 146.477L297.155 146.259L296.932 145.857Z" fill="white"/>
<path d="M278.588 161.266L278.371 161.667L277.969 161.885L278.371 162.103L278.588 162.504L278.806 162.103L279.208 161.885L278.806 161.667L278.588 161.266Z" fill="white"/>
<path d="M270.83 179.133L270.613 179.535L270.211 179.752L270.613 179.97L270.83 180.372L271.048 179.97L271.45 179.752L271.048 179.535L270.83 179.133Z" fill="white"/>
<path d="M265.928 173.592L265.705 173.994L265.309 174.211L265.705 174.429L265.928 174.831L266.146 174.429L266.547 174.211L266.146 173.994L265.928 173.592Z" fill="white"/>
<path d="M301.725 189.164L301.507 189.566L301.105 189.783L301.507 190.001L301.725 190.403L301.942 190.001L302.344 189.783L301.942 189.566L301.725 189.164Z" fill="white"/>
<path d="M226.42 158.553L226.203 158.954L225.801 159.172L226.203 159.39L226.42 159.791L226.638 159.39L227.04 159.172L226.638 158.954L226.42 158.553Z" fill="white"/>
<path d="M249.781 170.5L249.564 170.902L249.162 171.119L249.564 171.337L249.781 171.739L249.999 171.337L250.401 171.119L249.999 170.902L249.781 170.5Z" fill="white"/>
</g>
<defs>
<linearGradient id="paint0_linear_2560_5018" x1="-76.9531" y1="524" x2="400.127" y2="501.931" gradientUnits="userSpaceOnUse">
<stop stop-color="#013572"/>
<stop offset="0.59375" stop-color="#01244F"/>
<stop offset="1" stop-color="#002551"/>
</linearGradient>
</defs>
</svg>
