<svg width="1441" height="517" viewBox="0 0 1441 517" fill="none" xmlns="http://www.w3.org/2000/svg">
<g clip-path="url(#clip0_353_4395)">
<rect x="0.941406" y="0.837402" width="1440" height="461" fill="url(#paint0_linear_353_4395)"/>
<path d="M226.881 115.484C237.753 131.4 252.299 144.745 269.32 153.842C271.526 155.025 273.43 152.548 272.942 150.527C272.16 147.449 271.496 144.372 270.886 141.261C266.092 116.548 266.097 91.1872 266.978 66.1562C267.874 40.726 269.678 15.2543 268.378 -10.1979C267.107 -35.1234 262.913 -60.5349 252.101 -83.2274C245.871 -96.3003 237.322 -108.381 226.876 -118.455C244.89 -130.177 259.096 -147.189 268.248 -166.777C279.748 -191.349 283.514 -218.907 282.525 -245.806C282.437 -247.931 279.238 -247.577 279.263 -245.49C279.48 -230.751 278.218 -215.951 275.101 -201.55C269.643 -176.248 258.164 -151.884 239.065 -134.008C234.182 -129.449 228.834 -125.369 223.121 -121.793C220.415 -124.173 217.644 -126.471 214.733 -128.563C206.883 -134.201 198.229 -138.851 189.025 -141.822C179.622 -144.858 170.217 -145.79 160.392 -145.322C157.478 -145.19 157.904 -140.675 160.818 -140.806C163.115 -140.927 165.482 -140.821 167.784 -140.635C186.565 -139.18 203.962 -131.066 218.199 -118.923C205.387 -111.927 191.101 -107.756 176.536 -107.691C173.711 -108.085 170.837 -108.252 167.903 -108.031C165.069 -107.835 164.85 -103.292 167.723 -103.006C170.522 -102.713 173.325 -102.655 176.12 -102.67C193.504 -100.001 207.179 -85.3522 212.886 -69.2924C220.485 -47.8341 216.715 -24.441 212.423 -2.69761C208.201 18.6113 203.524 40.0589 206.308 61.9026C208.768 81.074 216 99.6144 226.889 115.557L226.881 115.484ZM210.565 49.0237C210.19 26.207 217.063 4.11909 220.374 -18.2371C223.535 -39.561 223.859 -63.1029 212.443 -82.2107C206.992 -91.3073 198.882 -99.1531 189.302 -103.789C197.087 -105.004 204.741 -107.264 211.999 -110.436C215.423 -111.949 218.768 -113.643 221.989 -115.53C235.51 -102.808 245.529 -86.8866 251.915 -69.4742C260.492 -45.9605 263.002 -20.7452 263.339 4.12166C263.657 29.079 261.698 53.9497 261.263 78.8873C260.844 101.439 261.802 124.073 266.571 146.154C266.13 145.893 265.661 145.651 265.22 145.39C248.85 135.25 235.338 120.613 225.82 103.9C216.321 87.2151 210.892 68.2103 210.592 49.006L210.565 49.0237Z" fill="#003777"/>
<path d="M-115.964 77.2887C-92.1119 97.9792 -62.1382 111.207 -30.837 115.28C2.62894 119.629 36.848 113.091 66.5109 97.0336C83.8293 87.6699 99.6856 75.2005 112.528 60.2384C113.469 59.1629 115.155 60.566 114.232 61.669C91.5072 89.4846 59.8214 109.343 24.8164 117.557C-7.74892 125.208 -41.9053 122.201 -72.9069 109.793C-85.241 104.873 -96.9637 98.4276 -107.742 90.671C-92.8941 112.196 -70.9205 128.414 -46.9552 138.553C-15.513 151.883 19.4207 154.465 53.1196 151.341C70.4278 149.735 87.7544 146.832 104.592 142.57C121.002 138.429 137.307 132.681 151.479 123.209C164.734 114.368 175.249 102.313 181.635 87.6679C187.62 73.9061 189.968 58.6774 189.608 43.7187C189.169 26.7082 185.157 10.1371 179.076 -5.71928C172.005 -24.1304 162.247 -41.1549 152.371 -58.1812C149.9 -62.4264 147.548 -66.788 144.994 -70.9799C143.389 -73.6431 147.349 -76.4362 148.971 -73.7455C154.318 -64.9317 159.894 -56.3052 164.948 -47.3413C169.878 -38.5696 174.588 -29.656 178.75 -20.5051C186.406 -3.71897 192.306 14.0857 194.286 32.5154C195.979 48.0918 195.035 64.1663 190.475 79.2276C185.744 94.8672 177.189 108.81 164.957 119.716C152 131.247 135.878 138.785 119.426 144.005C102.335 149.443 84.5108 152.902 66.7288 155.281C31.5735 160.009 -5.0186 159.2 -38.8252 147.515C-69.0199 137.079 -97.0277 117.672 -114.455 90.5305C-116.586 87.2338 -118.497 83.7949 -120.298 80.2851C-121.606 77.7803 -117.89 75.5736 -115.982 77.2612L-115.964 77.2887Z" fill="#003777"/>
<path d="M1276.63 263.224C1256.61 263.734 1236.75 268.901 1219.21 278.623C1216.94 279.881 1218.02 282.941 1220.06 283.654C1223.19 284.708 1226.25 285.864 1229.31 287.088C1253.58 296.844 1275.71 311.155 1297.06 326.044C1318.75 341.171 1339.96 357.114 1362.9 370.338C1385.37 383.289 1409.92 393.963 1435.82 397.329C1450.74 399.266 1466.11 398.621 1480.79 395.187C1480.86 417.521 1487.69 439.515 1499.63 458.551C1514.58 482.449 1536.51 501.281 1560.54 515.592C1562.45 516.714 1563.94 513.723 1562.11 512.567C1549.12 504.442 1536.92 494.992 1526.11 484.148C1507.1 465.112 1492.32 441.351 1487.49 414.598C1486.27 407.765 1485.72 400.796 1485.82 393.794C1489.43 392.774 1493 391.652 1496.46 390.292C1505.81 386.621 1514.75 381.692 1522.54 375.335C1530.49 368.842 1536.61 361.16 1541.74 352.321C1543.27 349.704 1539.09 347.528 1537.56 350.146C1536.37 352.219 1534.95 354.225 1533.48 356.129C1521.62 371.698 1504.72 382.304 1486.1 387.879C1487.22 372.752 1491.64 357.93 1499.8 345.183C1501.73 342.939 1503.5 340.526 1504.96 337.84C1506.39 335.257 1502.55 332.503 1500.68 334.849C1498.84 337.126 1497.21 339.54 1495.65 341.987C1483.51 355.653 1463.01 359.324 1445.78 355.245C1422.77 349.772 1404.48 333.285 1387.92 317.274C1371.71 301.569 1355.63 285.388 1334.99 275.496C1316.88 266.828 1296.62 262.68 1276.56 263.19L1276.63 263.224ZM1343.83 286.476C1363.96 299.02 1379.36 317.478 1397 332.979C1413.83 347.766 1434.19 361.33 1457.3 362.145C1468.32 362.519 1479.74 359.868 1489.19 354.123C1485.86 361.602 1483.51 369.556 1482.19 377.681C1481.58 381.522 1481.17 385.397 1481 389.272C1462.27 393.896 1442.72 393.658 1423.92 389.408C1398.56 383.629 1375.14 371.596 1353.25 357.862C1331.29 344.061 1310.69 328.322 1289.17 313.875C1269.73 300.787 1249.43 288.855 1227.47 280.561C1227.95 280.323 1228.43 280.051 1228.9 279.813C1246.99 271.247 1267.38 267.711 1287.34 268.833C1307.26 269.955 1326.9 275.938 1343.83 286.51L1343.83 286.476Z" fill="#003777"/>
<path d="M1503.36 -14.4345C1471.85 -5.29023 1443.4 13.4062 1422.19 38.4255C1399.51 65.1784 1385.92 98.73 1383.2 133.675C1381.6 154.071 1383.54 174.944 1389.35 194.592C1389.76 196.02 1387.58 196.699 1387.14 195.272C1375.68 159.748 1376.23 120.894 1388.81 85.7105C1400.5 52.9747 1422.39 24.8621 1450.71 4.80587C1461.96 -3.18262 1474.2 -9.77738 1487.05 -14.8084C1459.89 -13.9926 1433.34 -3.96447 1410.97 11.2306C1381.6 31.1509 1359.64 60.1813 1343.36 91.3534C1334.99 107.364 1327.75 124.123 1321.97 141.222C1316.33 157.879 1312.15 175.351 1312.42 193.062C1312.66 209.617 1317.25 225.594 1326.43 239.429C1335.06 252.415 1347.03 263.055 1360.29 271.179C1375.38 280.392 1392.1 286.238 1409.37 289.876C1429.43 294.091 1449.79 295.179 1470.22 296.165C1475.32 296.403 1480.45 296.81 1485.55 296.946C1488.78 297.048 1488.98 302.079 1485.72 301.977C1475.01 301.672 1464.34 301.672 1453.67 301.026C1443.23 300.38 1432.79 299.462 1422.46 297.932C1403.49 295.145 1384.62 290.25 1367.42 281.581C1352.87 274.273 1339.38 264.381 1328.81 251.905C1317.83 238.953 1310.48 223.622 1307.87 206.796C1305.11 188.983 1307.63 170.66 1312.35 153.358C1317.25 135.375 1324.29 117.868 1332.24 101.008C1347.95 67.6599 1369.29 36.1819 1398.56 13.2702C1424.7 -7.19389 1457.44 -20.6893 1490.96 -20.5873C1495.04 -20.5873 1499.12 -20.3154 1503.19 -19.9075C1506.12 -19.6355 1505.95 -15.1484 1503.4 -14.4345L1503.36 -14.4345Z" fill="#003777"/>
<mask id="mask0_353_4395" style="mask-type:luminance" maskUnits="userSpaceOnUse" x="710" y="-6" width="628" height="501">
<path d="M1337.94 -5.87402H710.943V494.126H1337.94V-5.87402Z" fill="white"/>
</mask>
<g mask="url(#mask0_353_4395)">
<path d="M983.413 177.555L984.713 179.945L987.103 181.245L984.713 182.555L983.413 184.945L982.103 182.555L979.713 181.245L982.103 179.945L983.413 177.555Z" fill="#1F2075"/>
<path d="M931.092 130.065L932.402 132.455L934.792 133.755L932.402 135.065L931.092 137.455L929.792 135.065L927.402 133.755L929.792 132.455L931.092 130.065Z" fill="#1F2075"/>
<path d="M901.182 165.666L902.482 168.056L904.872 169.366L902.482 170.666L901.182 173.056L899.872 170.666L897.482 169.366L899.872 168.056L901.182 165.666Z" fill="#1F2075"/>
<path d="M834.083 104.735L835.393 107.125L837.783 108.425L835.393 109.735L834.083 112.125L832.783 109.735L830.393 108.425L832.783 107.125L834.083 104.735Z" fill="#1F2075"/>
<path d="M997.082 167.515L997.732 168.705L998.922 169.365L997.732 170.015L997.082 171.205L996.432 170.015L995.232 169.365L996.432 168.705L997.082 167.515Z" fill="#1F2075"/>
<path d="M1079.21 144.745L1079.86 145.935L1081.06 146.585L1079.86 147.245L1079.21 148.435L1078.56 147.245L1077.36 146.585L1078.56 145.935L1079.21 144.745Z" fill="#1F2075"/>
<path d="M1115.9 212.265L1116.56 213.455L1117.75 214.115L1116.56 214.765L1115.9 215.955L1115.25 214.765L1114.06 214.115L1115.25 213.455L1115.9 212.265Z" fill="#1F2075"/>
<path d="M1044.09 244.305L1044.74 245.495L1045.93 246.155L1044.74 246.805L1044.09 247.995L1043.44 246.805L1042.24 246.155L1043.44 245.495L1044.09 244.305Z" fill="#1F2075"/>
<path d="M1010.13 237.295L1010.78 238.495L1011.98 239.145L1010.78 239.795L1010.13 240.995L1009.48 239.795L1008.28 239.145L1009.48 238.495L1010.13 237.295Z" fill="#1F2075"/>
<path d="M1087.07 241.375L1087.72 242.565L1088.92 243.225L1087.72 243.875L1087.07 245.065L1086.42 243.875L1085.22 243.225L1086.42 242.565L1087.07 241.375Z" fill="#1F2075"/>
<path d="M850.963 239.145L851.613 240.335L852.803 240.995L851.613 241.645L850.963 242.835L850.303 241.645L849.113 240.995L850.303 240.335L850.963 239.145Z" fill="#1F2075"/>
<path d="M1035.76 205.206L1036.41 205.846L1037.61 206.196L1036.41 206.546L1035.76 207.186L1035.11 206.546L1033.92 206.196L1035.11 205.846L1035.76 205.206Z" fill="#1F2075"/>
<path d="M970.752 140.885L971.192 141.695L972.002 142.135L971.192 142.585L970.752 143.385L970.312 142.585L969.502 142.135L970.312 141.695L970.752 140.885Z" fill="#1F2075"/>
<path d="M988.073 128.115L988.323 128.565L988.773 128.815L988.323 129.065L988.073 129.515L987.833 129.065L987.383 128.815L987.833 128.565L988.073 128.115Z" fill="#1F2075"/>
<path d="M958.653 143.945L958.903 144.395L959.353 144.635L958.903 144.885L958.653 145.335L958.413 144.885L957.963 144.635L958.413 144.395L958.653 143.945Z" fill="#1F2075"/>
<path d="M950.192 129.365L950.442 129.815L950.892 130.065L950.442 130.315L950.192 130.765L949.942 130.315L949.492 130.065L949.942 129.815L950.192 129.365Z" fill="#1F2075"/>
<path d="M937.282 145.195L937.522 145.645L937.972 145.885L937.522 146.135L937.282 146.585L937.032 146.135L936.582 145.885L937.032 145.645L937.282 145.195Z" fill="#1F2075"/>
<path d="M965.253 172.355L965.503 172.805L965.953 173.055L965.503 173.305L965.253 173.755L965.013 173.305L964.553 173.055L965.013 172.805L965.253 172.355Z" fill="#1F2075"/>
<path d="M935.413 193.995L935.663 194.455L936.113 194.695L935.663 194.945L935.413 195.395L935.173 194.945L934.713 194.695L935.173 194.455L935.413 193.995Z" fill="#1F2075"/>
<path d="M948.714 203.255L948.964 203.705L949.414 203.955L948.964 204.195L948.714 204.655L948.464 204.195L948.014 203.955L948.464 203.705L948.714 203.255Z" fill="#1F2075"/>
<path d="M915.093 218.895L915.343 219.345L915.793 219.585L915.343 219.835L915.093 220.285L914.843 219.835L914.393 219.585L914.843 219.345L915.093 218.895Z" fill="#1F2075"/>
<path d="M842.973 219.585L843.223 220.035L843.673 220.285L843.223 220.535L842.973 220.985L842.723 220.535L842.273 220.285L842.723 220.035L842.973 219.585Z" fill="#1F2075"/>
<path d="M808.833 224.605L809.073 225.055L809.533 225.305L809.073 225.555L808.833 226.005L808.583 225.555L808.133 225.305L808.583 225.055L808.833 224.605Z" fill="#1F2075"/>
<path d="M834.083 234.835L834.333 235.285L834.783 235.535L834.333 235.785L834.083 236.235L833.843 235.785L833.383 235.535L833.843 235.285L834.083 234.835Z" fill="#1F2075"/>
<path d="M887.723 225.305L887.963 225.755L888.413 226.005L887.963 226.255L887.723 226.705L887.473 226.255L887.023 226.005L887.473 225.755L887.723 225.305Z" fill="#1F2075"/>
<path d="M898.182 234.135L898.432 234.585L898.882 234.835L898.432 235.085L898.182 235.535L897.942 235.085L897.482 234.835L897.942 234.585L898.182 234.135Z" fill="#1F2075"/>
<path d="M1065.44 226.005L1065.69 226.455L1066.14 226.705L1065.69 226.945L1065.44 227.405L1065.19 226.945L1064.74 226.705L1065.19 226.455L1065.44 226.005Z" fill="#1F2075"/>
<path d="M979.263 219.585L979.513 220.035L979.962 220.285L979.513 220.535L979.263 220.985L979.013 220.535L978.562 220.285L979.013 220.035L979.263 219.585Z" fill="#1F2075"/>
<path d="M1058.33 194.695L1058.58 195.145L1059.03 195.395L1058.58 195.645L1058.33 196.095L1058.09 195.645L1057.64 195.395L1058.09 195.145L1058.33 194.695Z" fill="#1F2075"/>
<path d="M1110.57 234.135L1110.82 234.585L1111.27 234.835L1110.82 235.085L1110.57 235.535L1110.32 235.085L1109.87 234.835L1110.32 234.585L1110.57 234.135Z" fill="#1F2075"/>
<path d="M1095.37 250.145L1095.61 250.595L1096.06 250.845L1095.61 251.095L1095.37 251.545L1095.12 251.095L1094.67 250.845L1095.12 250.595L1095.37 250.145Z" fill="#1F2075"/>
<path d="M1059.03 226.706L1059.28 227.156L1059.73 227.406L1059.28 227.646L1059.03 228.096L1058.78 227.646L1058.33 227.406L1058.78 227.156L1059.03 226.706Z" fill="#1F2075"/>
<path d="M1033.92 227.405L1034.16 227.855L1034.61 228.095L1034.16 228.345L1033.92 228.795L1033.67 228.345L1033.22 228.095L1033.67 227.855L1033.92 227.405Z" fill="#1F2075"/>
<path d="M1038.28 177.555L1038.52 178.005L1038.97 178.255L1038.52 178.495L1038.28 178.955L1038.03 178.495L1037.58 178.255L1038.03 178.005L1038.28 177.555Z" fill="#1F2075"/>
<path d="M830.663 176.855L830.903 177.305L831.353 177.555L830.903 177.805L830.663 178.255L830.413 177.805L829.963 177.555L830.413 177.305L830.663 176.855Z" fill="#1F2075"/>
<path d="M876.313 152.916L876.563 153.366L877.013 153.616L876.563 153.866L876.313 154.316L876.063 153.866L875.613 153.616L876.063 153.366L876.313 152.916Z" fill="#1F2075"/>
<path d="M897.483 143.945L897.733 144.395L898.183 144.635L897.733 144.885L897.483 145.335L897.243 144.885L896.793 144.635L897.243 144.395L897.483 143.945Z" fill="#1F2075"/>
<path d="M856.884 127.416L857.134 127.866L857.584 128.116L857.134 128.366L856.884 128.816L856.634 128.366L856.184 128.116L856.634 127.866L856.884 127.416Z" fill="#1F2075"/>
<path d="M919.743 184.245L919.993 184.695L920.443 184.945L919.993 185.185L919.743 185.635L919.493 185.185L919.043 184.945L919.493 184.695L919.743 184.245Z" fill="#1F2075"/>
<path d="M846.134 179.855L846.384 180.305L846.834 180.555L846.384 180.795L846.134 181.245L845.894 180.795L845.434 180.555L845.894 180.305L846.134 179.855Z" fill="#1F2075"/>
<path d="M1019.63 104.035L1019.88 104.485L1020.33 104.735L1019.88 104.975L1019.63 105.435L1019.38 104.975L1018.93 104.735L1019.38 104.485L1019.63 104.035Z" fill="#1F2075"/>
<path d="M1111.27 107.725L1111.52 108.175L1111.97 108.425L1111.52 108.675L1111.27 109.125L1111.02 108.675L1110.57 108.425L1111.02 108.175L1111.27 107.725Z" fill="#1F2075"/>
<path d="M1087.07 162.125L1087.32 162.575L1087.77 162.825L1087.32 163.075L1087.07 163.525L1086.82 163.075L1086.37 162.825L1086.82 162.575L1087.07 162.125Z" fill="#1F2075"/>
<path d="M1052.19 89.4253L1052.44 89.8853L1052.89 90.1253L1052.44 90.3753L1052.19 90.8253L1051.94 90.3753L1051.49 90.1253L1051.94 89.8853L1052.19 89.4253Z" fill="#1F2075"/>
<path d="M1105.29 143.245L1105.54 143.695L1105.99 143.945L1105.54 144.185L1105.29 144.635L1105.05 144.185L1104.59 143.945L1105.05 143.695L1105.29 143.245Z" fill="#1F2075"/>
<path d="M846.833 136.755L847.083 137.205L847.533 137.455L847.083 137.695L846.833 138.145L846.583 137.695L846.133 137.455L846.583 137.205L846.833 136.755Z" fill="#1F2075"/>
<path d="M914.393 200.715L914.643 201.165L915.093 201.415L914.643 201.655L914.393 202.115L914.143 201.655L913.693 201.415L914.143 201.165L914.393 200.715Z" fill="#1F2075"/>
<path d="M995.233 206.485L995.483 206.935L995.933 207.185L995.483 207.435L995.233 207.885L994.993 207.435L994.533 207.185L994.993 206.935L995.233 206.485Z" fill="#1F2075"/>
<path d="M1011.75 180.555L1012 181.005L1012.45 181.245L1012 181.495L1011.75 181.945L1011.5 181.495L1011.05 181.245L1011.5 181.005L1011.75 180.555Z" fill="#1F2075"/>
<path d="M1017.95 212.715L1018.2 213.165L1018.65 213.415L1018.2 213.655L1017.95 214.115L1017.71 213.655L1017.26 213.415L1017.71 213.165L1017.95 212.715Z" fill="#1F2075"/>
<path d="M1100.81 234.835L1101.06 235.285L1101.51 235.535L1101.06 235.785L1100.81 236.235L1100.57 235.785L1100.11 235.535L1100.57 235.285L1100.81 234.835Z" fill="#1F2075"/>
<path d="M971.283 105.925L971.733 106.735L972.543 107.175L971.733 107.615L971.283 108.425L970.843 107.615L970.033 107.175L970.843 106.735L971.283 105.925Z" fill="#1F2075"/>
<path d="M997.082 143.385L997.522 144.195L998.332 144.635L997.522 145.085L997.082 145.885L996.642 145.085L995.832 144.635L996.642 144.195L997.082 143.385Z" fill="#1F2075"/>
<path d="M1052.19 107.875L1052.63 108.685L1053.44 109.125L1052.63 109.565L1052.19 110.375L1051.75 109.565L1050.94 109.125L1051.75 108.685L1052.19 107.875Z" fill="#1F2075"/>
<path d="M1105.99 129.515L1106.43 130.325L1107.24 130.765L1106.43 131.205L1105.99 132.015L1105.55 131.205L1104.74 130.765L1105.55 130.325L1105.99 129.515Z" fill="#1F2075"/>
<path d="M1067.39 175.605L1067.83 176.415L1068.64 176.855L1067.83 177.295L1067.39 178.105L1066.95 177.295L1066.14 176.855L1066.95 176.415L1067.39 175.605Z" fill="#1F2075"/>
<path d="M954.773 192.456L955.213 193.266L956.023 193.706L955.213 194.146L954.773 194.956L954.333 194.146L953.523 193.706L954.333 193.266L954.773 192.456Z" fill="#1F2075"/>
<path d="M881.453 116.505L881.893 117.315L882.703 117.755L881.893 118.195L881.453 119.005L881.003 118.195L880.203 117.755L881.003 117.315L881.453 116.505Z" fill="#1F2075"/>
<path d="M918.492 147.615L918.932 148.425L919.742 148.865L918.932 149.305L918.492 150.115L918.052 149.305L917.242 148.865L918.052 148.425L918.492 147.615Z" fill="#1F2075"/>
<path d="M934.162 183.695L934.612 184.505L935.412 184.945L934.612 185.385L934.162 186.195L933.722 185.385L932.912 184.945L933.722 184.505L934.162 183.695Z" fill="#1F2075"/>
<path d="M944.072 172.505L944.512 173.315L945.322 173.755L944.512 174.195L944.072 175.005L943.632 174.195L942.822 173.755L943.632 173.315L944.072 172.505Z" fill="#1F2075"/>
<path d="M871.773 203.956L872.213 204.766L873.023 205.206L872.213 205.646L871.773 206.456L871.333 205.646L870.523 205.206L871.333 204.766L871.773 203.956Z" fill="#1F2075"/>
<path d="M1023.84 142.135L1024.29 142.945L1025.09 143.385L1024.29 143.835L1023.84 144.635L1023.4 143.835L1022.59 143.385L1023.4 142.945L1023.84 142.135Z" fill="#1F2075"/>
<path d="M976.662 166.265L977.102 167.075L977.912 167.515L977.102 167.955L976.662 168.765L976.222 167.955L975.412 167.515L976.222 167.075L976.662 166.265Z" fill="#1F2075"/>
<path d="M936.612 333.156L935.452 335.276L933.332 336.436L935.452 337.596L936.612 339.716L937.772 337.596L939.892 336.436L937.772 335.276L936.612 333.156Z" fill="#1F2075"/>
<path d="M983.034 291.005L981.884 293.125L979.764 294.285L981.884 295.445L983.034 297.565L984.194 295.445L986.314 294.285L984.194 293.125L983.034 291.005Z" fill="#1F2075"/>
<path d="M1009.58 322.605L1008.42 324.725L1006.31 325.885L1008.42 327.045L1009.58 329.165L1010.74 327.045L1012.86 325.885L1010.74 324.725L1009.58 322.605Z" fill="#1F2075"/>
<path d="M1069.13 268.525L1067.97 270.645L1065.85 271.805L1067.97 272.965L1069.13 275.085L1070.29 272.965L1072.41 271.805L1070.29 270.645L1069.13 268.525Z" fill="#1F2075"/>
<path d="M924.474 324.246L923.894 325.306L922.844 325.886L923.894 326.466L924.474 327.526L925.054 326.466L926.114 325.886L925.054 325.306L924.474 324.246Z" fill="#1F2075"/>
<path d="M851.593 304.036L851.013 305.096L849.953 305.676L851.013 306.256L851.593 307.316L852.163 306.256L853.233 305.676L852.163 305.096L851.593 304.036Z" fill="#1F2075"/>
<path d="M819.023 363.965L818.443 365.015L817.383 365.595L818.443 366.175L819.023 367.235L819.603 366.175L820.663 365.595L819.603 365.015L819.023 363.965Z" fill="#1F2075"/>
<path d="M882.753 392.396L882.173 393.456L881.123 394.036L882.173 394.616L882.753 395.676L883.333 394.616L884.393 394.036L883.333 393.456L882.753 392.396Z" fill="#1F2075"/>
<path d="M912.892 386.175L912.312 387.235L911.252 387.815L912.312 388.395L912.892 389.455L913.472 388.395L914.532 387.815L913.472 387.235L912.892 386.175Z" fill="#1F2075"/>
<path d="M844.613 389.795L844.033 390.855L842.973 391.435L844.033 392.015L844.613 393.075L845.193 392.015L846.253 391.435L845.193 390.855L844.613 389.795Z" fill="#1F2075"/>
<path d="M1054.15 387.815L1053.57 388.875L1052.51 389.455L1053.57 390.035L1054.15 391.095L1054.73 390.035L1055.79 389.455L1054.73 388.875L1054.15 387.815Z" fill="#1F2075"/>
<path d="M890.142 357.696L889.562 358.266L888.502 358.576L889.562 358.886L890.142 359.456L890.722 358.886L891.782 358.576L890.722 358.266L890.142 357.696Z" fill="#1F2075"/>
<path d="M947.842 300.616L947.452 301.336L946.732 301.726L947.452 302.116L947.842 302.836L948.232 302.116L948.952 301.726L948.232 301.336L947.842 300.616Z" fill="#1F2075"/>
<path d="M932.474 289.286L932.254 289.686L931.854 289.906L932.254 290.116L932.474 290.516L932.684 290.116L933.084 289.906L932.684 289.686L932.474 289.286Z" fill="#1F2075"/>
<path d="M958.583 303.326L958.353 303.726L957.953 303.946L958.353 304.166L958.583 304.566L958.793 304.166L959.193 303.946L958.793 303.726L958.583 303.326Z" fill="#1F2075"/>
<path d="M966.093 290.396L965.873 290.796L965.473 291.006L965.873 291.226L966.093 291.626L966.313 291.226L966.713 291.006L966.313 290.796L966.093 290.396Z" fill="#1F2075"/>
<path d="M977.554 304.436L977.334 304.836L976.934 305.056L977.334 305.276L977.554 305.676L977.774 305.276L978.174 305.056L977.774 304.836L977.554 304.436Z" fill="#1F2075"/>
<path d="M952.724 328.545L952.504 328.945L952.104 329.165L952.504 329.385L952.724 329.785L952.944 329.385L953.344 329.165L952.944 328.945L952.724 328.545Z" fill="#1F2075"/>
<path d="M979.202 347.755L978.982 348.155L978.582 348.375L978.982 348.585L979.202 348.985L979.422 348.585L979.822 348.375L979.422 348.155L979.202 347.755Z" fill="#1F2075"/>
<path d="M967.403 355.965L967.183 356.365L966.783 356.585L967.183 356.805L967.403 357.205L967.623 356.805L968.023 356.585L967.623 356.365L967.403 355.965Z" fill="#1F2075"/>
<path d="M997.243 369.845L997.023 370.245L996.623 370.465L997.023 370.675L997.243 371.075L997.463 370.675L997.863 370.465L997.463 370.245L997.243 369.845Z" fill="#1F2075"/>
<path d="M1061.24 370.456L1061.02 370.866L1060.62 371.076L1061.02 371.296L1061.24 371.696L1061.46 371.296L1061.86 371.076L1061.46 370.866L1061.24 370.456Z" fill="#1F2075"/>
<path d="M1091.54 374.916L1091.32 375.316L1090.92 375.536L1091.32 375.756L1091.54 376.156L1091.76 375.756L1092.16 375.536L1091.76 375.316L1091.54 374.916Z" fill="#1F2075"/>
<path d="M1069.13 383.996L1068.91 384.396L1068.51 384.616L1068.91 384.826L1069.13 385.236L1069.35 384.826L1069.75 384.616L1069.35 384.396L1069.13 383.996Z" fill="#1F2075"/>
<path d="M1021.53 375.536L1021.31 375.936L1020.91 376.156L1021.31 376.376L1021.53 376.776L1021.75 376.376L1022.15 376.156L1021.75 375.936L1021.53 375.536Z" fill="#1F2075"/>
<path d="M1012.24 383.375L1012.02 383.775L1011.62 383.995L1012.02 384.205L1012.24 384.615L1012.46 384.205L1012.86 383.995L1012.46 383.775L1012.24 383.375Z" fill="#1F2075"/>
<path d="M863.804 376.156L863.584 376.556L863.184 376.776L863.584 376.996L863.804 377.396L864.024 376.996L864.424 376.776L864.024 376.556L863.804 376.156Z" fill="#1F2075"/>
<path d="M940.292 370.456L940.072 370.866L939.672 371.076L940.072 371.296L940.292 371.696L940.512 371.296L940.912 371.076L940.512 370.866L940.292 370.456Z" fill="#1F2075"/>
<path d="M870.112 348.375L869.892 348.775L869.492 348.985L869.892 349.205L870.112 349.605L870.332 349.205L870.732 348.985L870.332 348.775L870.112 348.375Z" fill="#1F2075"/>
<path d="M823.753 383.375L823.533 383.775L823.133 383.995L823.533 384.205L823.753 384.615L823.973 384.205L824.373 383.995L823.973 383.775L823.753 383.375Z" fill="#1F2075"/>
<path d="M837.243 397.585L837.033 397.985L836.633 398.195L837.033 398.415L837.243 398.825L837.473 398.415L837.863 398.195L837.473 397.985L837.243 397.585Z" fill="#1F2075"/>
<path d="M869.493 376.775L869.273 377.175L868.873 377.395L869.273 377.615L869.493 378.015L869.713 377.615L870.113 377.395L869.713 377.175L869.493 376.775Z" fill="#1F2075"/>
<path d="M891.782 377.396L891.562 377.796L891.162 378.016L891.562 378.236L891.782 378.636L892.002 378.236L892.402 378.016L892.002 377.796L891.782 377.396Z" fill="#1F2075"/>
<path d="M887.913 333.155L887.693 333.555L887.293 333.775L887.693 333.995L887.913 334.395L888.133 333.995L888.533 333.775L888.133 333.555L887.913 333.155Z" fill="#1F2075"/>
<path d="M1072.17 332.536L1071.95 332.936L1071.55 333.156L1071.95 333.376L1072.17 333.776L1072.39 333.376L1072.79 333.156L1072.39 332.936L1072.17 332.536Z" fill="#1F2075"/>
<path d="M1031.65 311.295L1031.43 311.695L1031.03 311.915L1031.43 312.135L1031.65 312.535L1031.87 312.135L1032.27 311.915L1031.87 311.695L1031.65 311.295Z" fill="#1F2075"/>
<path d="M1012.86 303.326L1012.64 303.726L1012.24 303.946L1012.64 304.166L1012.86 304.566L1013.08 304.166L1013.48 303.946L1013.08 303.726L1012.86 303.326Z" fill="#1F2075"/>
<path d="M1048.9 288.666L1048.68 289.066L1048.28 289.286L1048.68 289.496L1048.9 289.906L1049.12 289.496L1049.52 289.286L1049.12 289.066L1048.9 288.666Z" fill="#1F2075"/>
<path d="M993.112 339.095L992.892 339.495L992.492 339.715L992.892 339.935L993.112 340.335L993.332 339.935L993.732 339.715L993.332 339.495L993.112 339.095Z" fill="#1F2075"/>
<path d="M1058.43 335.196L1058.22 335.596L1057.82 335.816L1058.22 336.036L1058.43 336.436L1058.65 336.036L1059.05 335.816L1058.65 335.596L1058.43 335.196Z" fill="#1F2075"/>
<path d="M904.464 267.906L904.244 268.306L903.844 268.526L904.244 268.746L904.464 269.146L904.684 268.746L905.084 268.526L904.684 268.306L904.464 267.906Z" fill="#1F2075"/>
<path d="M823.134 271.186L822.914 271.586L822.514 271.806L822.914 272.026L823.134 272.426L823.354 272.026L823.754 271.806L823.354 271.586L823.134 271.186Z" fill="#1F2075"/>
<path d="M844.612 319.465L844.392 319.865L843.992 320.085L844.392 320.305L844.612 320.705L844.832 320.305L845.232 320.085L844.832 319.865L844.612 319.465Z" fill="#1F2075"/>
<path d="M875.563 254.946L875.343 255.346L874.943 255.566L875.343 255.786L875.563 256.186L875.783 255.786L876.183 255.566L875.783 255.346L875.563 254.946Z" fill="#1F2075"/>
<path d="M828.442 302.706L828.222 303.106L827.822 303.326L828.222 303.546L828.442 303.946L828.662 303.546L829.062 303.326L828.662 303.106L828.442 302.706Z" fill="#1F2075"/>
<path d="M1057.82 296.946L1057.6 297.346L1057.2 297.566L1057.6 297.786L1057.82 298.186L1058.03 297.786L1058.43 297.566L1058.03 297.346L1057.82 296.946Z" fill="#1F2075"/>
<path d="M997.862 353.706L997.642 354.116L997.242 354.326L997.642 354.546L997.862 354.946L998.082 354.546L998.482 354.326L998.082 354.116L997.862 353.706Z" fill="#1F2075"/>
<path d="M926.112 358.835L925.892 359.235L925.492 359.455L925.892 359.675L926.112 360.075L926.332 359.675L926.732 359.455L926.332 359.235L926.112 358.835Z" fill="#1F2075"/>
<path d="M911.452 335.815L911.232 336.215L910.832 336.435L911.232 336.655L911.452 337.055L911.672 336.655L912.072 336.435L911.672 336.215L911.452 335.815Z" fill="#1F2075"/>
<path d="M905.952 364.366L905.732 364.766L905.332 364.986L905.732 365.196L905.952 365.596L906.172 365.196L906.572 364.986L906.172 364.766L905.952 364.366Z" fill="#1F2075"/>
<path d="M832.413 383.996L832.193 384.396L831.793 384.616L832.193 384.826L832.413 385.236L832.633 384.826L833.033 384.616L832.633 384.396L832.413 383.996Z" fill="#1F2075"/>
<path d="M947.374 269.585L946.974 270.305L946.264 270.695L946.974 271.085L947.374 271.805L947.764 271.085L948.474 270.695L947.764 270.305L947.374 269.585Z" fill="#1F2075"/>
<path d="M924.473 302.835L924.083 303.555L923.363 303.945L924.083 304.335L924.473 305.055L924.873 304.335L925.583 303.945L924.873 303.555L924.473 302.835Z" fill="#1F2075"/>
<path d="M912.022 210.565L910.862 212.685L908.742 213.845L910.862 215.005L912.022 217.115L913.172 215.005L915.292 213.845L913.172 212.685L912.022 210.565Z" fill="#1F2075"/>
<path d="M876.823 220.175L876.433 220.885L875.713 221.285L876.433 221.675L876.823 222.385L877.213 221.675L877.933 221.285L877.213 220.885L876.823 220.175Z" fill="#1F2075"/>
<path d="M861.452 208.835L861.232 209.235L860.832 209.455L861.232 209.675L861.452 210.075L861.662 209.675L862.062 209.455L861.662 209.235L861.452 208.835Z" fill="#1F2075"/>
<path d="M887.564 222.875L887.344 223.275L886.934 223.495L887.344 223.715L887.564 224.115L887.774 223.715L888.174 223.495L887.774 223.275L887.564 222.875Z" fill="#1F2075"/>
<path d="M895.073 209.946L894.853 210.346L894.453 210.566L894.853 210.786L895.073 211.186L895.293 210.786L895.693 210.566L895.293 210.346L895.073 209.946Z" fill="#1F2075"/>
<path d="M906.532 223.985L906.312 224.385L905.912 224.605L906.312 224.825L906.532 225.225L906.752 224.825L907.152 224.605L906.752 224.385L906.532 223.985Z" fill="#1F2075"/>
<path d="M876.352 189.146L875.952 189.855L875.242 190.256L875.952 190.646L876.352 191.366L876.742 190.646L877.452 190.256L876.742 189.855L876.352 189.146Z" fill="#1F2075"/>
<path d="M853.454 222.385L853.064 223.105L852.354 223.495L853.064 223.895L853.454 224.605L853.854 223.895L854.564 223.495L853.854 223.105L853.454 222.385Z" fill="#1F2075"/>
<path d="M954.423 242.095L954.022 242.815L953.312 243.205L954.022 243.595L954.423 244.315L954.812 243.595L955.533 243.205L954.812 242.815L954.423 242.095Z" fill="#1F2075"/>
<path d="M939.042 230.755L938.822 231.155L938.422 231.375L938.822 231.595L939.042 231.995L939.262 231.595L939.662 231.375L939.262 231.155L939.042 230.755Z" fill="#1F2075"/>
<path d="M965.153 244.806L964.933 245.206L964.533 245.426L964.933 245.636L965.153 246.046L965.373 245.636L965.773 245.426L965.373 245.206L965.153 244.806Z" fill="#1F2075"/>
<path d="M953.942 211.065L953.552 211.785L952.832 212.175L953.552 212.565L953.942 213.285L954.332 212.565L955.052 212.175L954.332 211.785L953.942 211.065Z" fill="#1F2075"/>
<path d="M931.053 244.315L930.653 245.025L929.943 245.425L930.653 245.815L931.053 246.525L931.443 245.815L932.163 245.425L931.443 245.025L931.053 244.315Z" fill="#1F2075"/>
<path d="M999.063 263.446L998.663 264.166L997.943 264.556L998.663 264.946L999.063 265.666L999.453 264.946L1000.16 264.556L999.453 264.166L999.063 263.446Z" fill="#1F2075"/>
<path d="M983.682 252.105L983.462 252.505L983.062 252.725L983.462 252.945L983.682 253.345L983.902 252.945L984.302 252.725L983.902 252.505L983.682 252.105Z" fill="#1F2075"/>
<path d="M1009.79 266.156L1009.57 266.556L1009.17 266.776L1009.57 266.996L1009.79 267.396L1010.01 266.996L1010.41 266.776L1010.01 266.556L1009.79 266.156Z" fill="#1F2075"/>
<path d="M998.583 232.416L998.193 233.136L997.473 233.526L998.193 233.916L998.583 234.636L998.973 233.916L999.693 233.526L998.973 233.136L998.583 232.416Z" fill="#1F2075"/>
<path d="M975.692 265.666L975.292 266.376L974.582 266.776L975.292 267.166L975.692 267.886L976.082 267.166L976.802 266.776L976.082 266.376L975.692 265.666Z" fill="#1F2075"/>
<path d="M875.563 271.315L875.173 272.035L874.453 272.425L875.173 272.815L875.563 273.535L875.953 272.815L876.673 272.425L875.953 272.035L875.563 271.315Z" fill="#1F2075"/>
<path d="M827.823 290.516L827.433 291.236L826.713 291.626L827.433 292.026L827.823 292.736L828.213 292.026L828.933 291.626L828.213 291.236L827.823 290.516Z" fill="#1F2075"/>
<path d="M862.073 331.425L861.683 332.145L860.963 332.535L861.683 332.925L862.073 333.645L862.473 332.925L863.183 332.535L862.473 332.145L862.073 331.425Z" fill="#1F2075"/>
<path d="M962.022 346.385L961.632 347.095L960.912 347.495L961.632 347.885L962.022 348.605L962.412 347.885L963.132 347.495L962.412 347.095L962.022 346.385Z" fill="#1F2075"/>
<path d="M1027.09 278.976L1026.7 279.696L1025.98 280.086L1026.7 280.486L1027.09 281.196L1027.49 280.486L1028.2 280.086L1027.49 279.696L1027.09 278.976Z" fill="#1F2075"/>
<path d="M994.223 306.585L993.833 307.305L993.113 307.695L993.833 308.085L994.223 308.805L994.613 308.085L995.333 307.695L994.613 307.305L994.223 306.585Z" fill="#1F2075"/>
<path d="M980.313 338.605L979.923 339.325L979.203 339.715L979.923 340.105L980.313 340.825L980.703 340.105L981.423 339.715L980.703 339.325L980.313 338.605Z" fill="#1F2075"/>
<path d="M971.522 328.675L971.122 329.395L970.412 329.785L971.122 330.175L971.522 330.895L971.912 330.175L972.632 329.785L971.912 329.395L971.522 328.675Z" fill="#1F2075"/>
<path d="M1035.68 356.585L1035.29 357.305L1034.57 357.695L1035.29 358.085L1035.68 358.805L1036.07 358.085L1036.79 357.695L1036.07 357.305L1035.68 356.585Z" fill="#1F2075"/>
<path d="M900.723 301.726L900.333 302.446L899.613 302.836L900.333 303.226L900.723 303.946L901.113 303.226L901.833 302.836L901.113 302.446L900.723 301.726Z" fill="#1F2075"/>
<path d="M942.592 323.135L942.202 323.855L941.482 324.245L942.202 324.635L942.592 325.355L942.982 324.635L943.702 324.245L942.982 323.855L942.592 323.135Z" fill="#1F2075"/>
</g>
<path d="M506.49 287.214C509.432 292.422 508.715 298.932 504.723 303.381C509.931 300.44 516.441 301.157 520.89 305.149C517.949 299.941 518.666 293.431 522.658 288.981C517.45 291.923 510.94 291.206 506.49 287.214Z" fill="#EBEBEB"/>
<path d="M1379.93 67.126C1378.91 75.7818 1372.46 82.8218 1363.94 84.6189C1372.6 85.6411 1379.64 92.0876 1381.43 100.612C1382.46 91.9557 1388.9 84.9157 1397.43 83.1186C1388.77 82.0964 1381.73 75.6499 1379.93 67.126Z" fill="#EBEBEB"/>
<path d="M492.739 285.166C494.898 287.694 495.21 291.32 493.505 294.18C496.033 292.022 499.659 291.709 502.519 293.415C500.361 290.887 500.048 287.261 501.754 284.4C499.226 286.559 495.6 286.871 492.739 285.166Z" fill="#EBEBEB"/>
<path d="M70.4524 308.771C67.3518 311.298 62.9808 311.574 59.5869 309.443C62.1135 312.544 62.3895 316.915 60.2586 320.309C63.3592 317.782 67.7302 317.506 71.1241 319.637C68.5975 316.536 68.3215 312.165 70.4524 308.771Z" fill="#EBEBEB"/>
<path d="M73.4827 42.126C73.723 45.3252 71.8995 48.328 68.9404 49.5837C72.1397 49.3434 75.1424 51.1669 76.3981 54.126C76.1579 50.9267 77.9814 47.924 80.9404 46.6683C77.7412 46.9085 74.7384 45.085 73.4827 42.126Z" fill="#EBEBEB"/>
<path d="M1320.47 362.69C1323.87 366.144 1324.69 371.384 1322.5 375.717C1325.96 372.32 1331.2 371.494 1335.53 373.681C1332.14 370.227 1331.31 364.987 1333.5 360.654C1330.04 364.051 1324.8 364.877 1320.47 362.69Z" fill="#EBEBEB"/>
<g opacity="0.3">
<path d="M831.384 151.907L832.871 154.64L835.604 156.127L832.871 157.625L831.384 160.358L829.886 157.625L827.153 156.127L829.886 154.64L831.384 151.907Z" fill="white"/>
<path d="M771.552 97.6001L773.05 100.333L775.783 101.82L773.05 103.318L771.552 106.051L770.066 103.318L767.333 101.82L770.066 100.333L771.552 97.6001Z" fill="white"/>
<path d="M737.348 138.311L738.835 141.044L741.568 142.542L738.835 144.029L737.348 146.762L735.85 144.029L733.117 142.542L735.85 141.044L737.348 138.311Z" fill="white"/>
<path d="M660.616 68.6338L662.114 71.3669L664.847 72.8535L662.114 74.3516L660.616 77.0847L659.13 74.3516L656.396 72.8535L659.13 71.3669L660.616 68.6338Z" fill="white"/>
<path d="M847.016 140.426L847.759 141.787L849.12 142.542L847.759 143.285L847.016 144.646L846.273 143.285L844.9 142.542L846.273 141.787L847.016 140.426Z" fill="white"/>
<path d="M940.937 114.387L941.68 115.748L943.052 116.491L941.68 117.246L940.937 118.607L940.194 117.246L938.821 116.491L940.194 115.748L940.937 114.387Z" fill="white"/>
<path d="M982.893 191.6L983.648 192.961L985.009 193.716L983.648 194.459L982.893 195.82L982.15 194.459L980.789 193.716L982.15 192.961L982.893 191.6Z" fill="white"/>
<path d="M900.774 228.24L901.517 229.601L902.878 230.355L901.517 231.099L900.774 232.459L900.03 231.099L898.658 230.355L900.03 229.601L900.774 228.24Z" fill="white"/>
<path d="M861.94 220.224L862.683 221.596L864.055 222.339L862.683 223.083L861.94 224.455L861.196 223.083L859.824 222.339L861.196 221.596L861.94 220.224Z" fill="white"/>
<path d="M949.925 224.89L950.668 226.25L952.04 227.005L950.668 227.749L949.925 229.109L949.181 227.749L947.809 227.005L949.181 226.25L949.925 224.89Z" fill="white"/>
<path d="M679.92 222.339L680.664 223.7L682.024 224.454L680.664 225.198L679.92 226.559L679.165 225.198L677.805 224.454L679.165 223.7L679.92 222.339Z" fill="white"/>
<path d="M891.248 183.527L891.991 184.259L893.363 184.659L891.991 185.06L891.248 185.792L890.504 185.06L889.144 184.659L890.504 184.259L891.248 183.527Z" fill="white"/>
<path d="M816.906 109.973L817.409 110.899L818.335 111.403L817.409 111.917L816.906 112.832L816.402 111.917L815.476 111.403L816.402 110.899L816.906 109.973Z" fill="white"/>
<path d="M836.713 95.3701L836.999 95.8847L837.513 96.1706L836.999 96.4565L836.713 96.9711L836.438 96.4565L835.924 96.1706L836.438 95.8847L836.713 95.3701Z" fill="white"/>
<path d="M803.069 113.473L803.355 113.987L803.87 114.262L803.355 114.548L803.069 115.062L802.795 114.548L802.28 114.262L802.795 113.987L803.069 113.473Z" fill="white"/>
<path d="M793.394 96.7993L793.68 97.3139L794.195 97.5998L793.68 97.8857L793.394 98.4003L793.108 97.8857L792.594 97.5998L793.108 97.3139L793.394 96.7993Z" fill="white"/>
<path d="M778.631 114.902L778.905 115.416L779.42 115.691L778.905 115.977L778.631 116.491L778.345 115.977L777.83 115.691L778.345 115.416L778.631 114.902Z" fill="white"/>
<path d="M810.617 145.961L810.903 146.476L811.417 146.762L810.903 147.048L810.617 147.562L810.342 147.048L809.816 146.762L810.342 146.476L810.617 145.961Z" fill="white"/>
<path d="M776.493 170.708L776.779 171.234L777.294 171.508L776.779 171.794L776.493 172.309L776.219 171.794L775.693 171.508L776.219 171.234L776.493 170.708Z" fill="white"/>
<path d="M791.703 181.297L791.989 181.811L792.504 182.097L791.989 182.372L791.703 182.898L791.417 182.372L790.903 182.097L791.417 181.811L791.703 181.297Z" fill="white"/>
<path d="M753.256 199.182L753.542 199.696L754.057 199.971L753.542 200.257L753.256 200.771L752.97 200.257L752.456 199.971L752.97 199.696L753.256 199.182Z" fill="white"/>
<path d="M670.784 199.971L671.07 200.486L671.584 200.772L671.07 201.058L670.784 201.572L670.498 201.058L669.983 200.772L670.498 200.486L670.784 199.971Z" fill="white"/>
<path d="M631.742 205.712L632.016 206.227L632.542 206.512L632.016 206.798L631.742 207.313L631.456 206.798L630.941 206.512L631.456 206.227L631.742 205.712Z" fill="white"/>
<path d="M660.617 217.411L660.903 217.925L661.417 218.211L660.903 218.497L660.617 219.012L660.342 218.497L659.816 218.211L660.342 217.925L660.617 217.411Z" fill="white"/>
<path d="M721.958 206.512L722.232 207.027L722.747 207.313L722.232 207.599L721.958 208.113L721.672 207.599L721.157 207.313L721.672 207.027L721.958 206.512Z" fill="white"/>
<path d="M733.918 216.61L734.204 217.124L734.718 217.41L734.204 217.696L733.918 218.211L733.643 217.696L733.117 217.41L733.643 217.124L733.918 216.61Z" fill="white"/>
<path d="M925.189 207.313L925.475 207.828L925.99 208.113L925.475 208.388L925.189 208.914L924.903 208.388L924.389 208.113L924.903 207.828L925.189 207.313Z" fill="white"/>
<path d="M826.638 199.971L826.924 200.486L827.438 200.772L826.924 201.058L826.638 201.572L826.352 201.058L825.837 200.772L826.352 200.486L826.638 199.971Z" fill="white"/>
<path d="M917.059 171.508L917.344 172.023L917.859 172.309L917.344 172.595L917.059 173.109L916.784 172.595L916.27 172.309L916.784 172.023L917.059 171.508Z" fill="white"/>
<path d="M976.799 216.61L977.084 217.124L977.599 217.41L977.084 217.696L976.799 218.211L976.513 217.696L975.998 217.41L976.513 217.124L976.799 216.61Z" fill="white"/>
<path d="M959.415 234.918L959.69 235.433L960.204 235.718L959.69 236.004L959.415 236.519L959.129 236.004L958.615 235.718L959.129 235.433L959.415 234.918Z" fill="white"/>
<path d="M917.859 208.114L918.144 208.628L918.659 208.914L918.144 209.189L917.859 209.703L917.573 209.189L917.058 208.914L917.573 208.628L917.859 208.114Z" fill="white"/>
<path d="M889.145 208.914L889.419 209.428L889.934 209.703L889.419 209.989L889.145 210.503L888.859 209.989L888.344 209.703L888.859 209.428L889.145 208.914Z" fill="white"/>
<path d="M894.13 151.907L894.404 152.422L894.919 152.708L894.404 152.982L894.13 153.508L893.844 152.982L893.329 152.708L893.844 152.422L894.13 151.907Z" fill="white"/>
<path d="M656.706 151.107L656.98 151.622L657.495 151.908L656.98 152.194L656.706 152.708L656.42 152.194L655.905 151.908L656.42 151.622L656.706 151.107Z" fill="white"/>
<path d="M708.91 123.73L709.196 124.245L709.71 124.531L709.196 124.817L708.91 125.331L708.624 124.817L708.109 124.531L708.624 124.245L708.91 123.73Z" fill="white"/>
<path d="M733.118 113.473L733.404 113.987L733.919 114.262L733.404 114.548L733.118 115.062L732.844 114.548L732.329 114.262L732.844 113.987L733.118 113.473Z" fill="white"/>
<path d="M686.69 94.5698L686.976 95.0844L687.491 95.3703L686.976 95.6562L686.69 96.1708L686.404 95.6562L685.89 95.3703L686.404 95.0844L686.69 94.5698Z" fill="white"/>
<path d="M758.574 159.558L758.86 160.072L759.374 160.358L758.86 160.633L758.574 161.147L758.288 160.633L757.773 160.358L758.288 160.072L758.574 159.558Z" fill="white"/>
<path d="M674.397 154.537L674.683 155.052L675.198 155.338L674.683 155.612L674.397 156.127L674.123 155.612L673.597 155.338L674.123 155.052L674.397 154.537Z" fill="white"/>
<path d="M872.804 67.833L873.09 68.3476L873.605 68.6335L873.09 68.9079L872.804 69.434L872.519 68.9079L872.004 68.6335L872.519 68.3476L872.804 67.833Z" fill="white"/>
<path d="M977.6 72.0527L977.886 72.5673L978.401 72.8532L977.886 73.1391L977.6 73.6537L977.314 73.1391L976.8 72.8532L977.314 72.5673L977.6 72.0527Z" fill="white"/>
<path d="M949.925 134.263L950.211 134.777L950.725 135.063L950.211 135.349L949.925 135.864L949.639 135.349L949.125 135.063L949.639 134.777L949.925 134.263Z" fill="white"/>
<path d="M910.037 51.126L910.323 51.652L910.837 51.9265L910.323 52.2124L910.037 52.7269L909.751 52.2124L909.236 51.9265L909.751 51.652L910.037 51.126Z" fill="white"/>
<path d="M970.761 112.672L971.047 113.186L971.562 113.472L971.047 113.747L970.761 114.261L970.487 113.747L969.961 113.472L970.487 113.186L970.761 112.672Z" fill="white"/>
<path d="M675.197 105.25L675.483 105.765L675.997 106.051L675.483 106.325L675.197 106.84L674.911 106.325L674.396 106.051L674.911 105.765L675.197 105.25Z" fill="white"/>
<path d="M752.454 178.392L752.74 178.907L753.254 179.193L752.74 179.467L752.454 179.993L752.168 179.467L751.653 179.193L752.168 178.907L752.454 178.392Z" fill="white"/>
<path d="M844.901 184.991L845.187 185.505L845.702 185.791L845.187 186.077L844.901 186.592L844.627 186.077L844.101 185.791L844.627 185.505L844.901 184.991Z" fill="white"/>
<path d="M863.792 155.338L864.078 155.853L864.593 156.127L864.078 156.413L863.792 156.927L863.506 156.413L862.992 156.127L863.506 155.853L863.792 155.338Z" fill="white"/>
<path d="M870.883 192.115L871.169 192.629L871.684 192.915L871.169 193.19L870.883 193.716L870.609 193.19L870.094 192.915L870.609 192.629L870.883 192.115Z" fill="white"/>
<path d="M965.638 217.411L965.924 217.925L966.438 218.211L965.924 218.497L965.638 219.012L965.363 218.497L964.837 218.211L965.363 217.925L965.638 217.411Z" fill="white"/>
<path d="M817.513 69.9946L818.028 70.9209L818.954 71.4241L818.028 71.9272L817.513 72.8535L817.01 71.9272L816.083 71.4241L817.01 70.9209L817.513 69.9946Z" fill="white"/>
<path d="M847.015 112.832L847.519 113.758L848.445 114.261L847.519 114.776L847.015 115.691L846.512 114.776L845.586 114.261L846.512 113.758L847.015 112.832Z" fill="white"/>
<path d="M910.036 72.2246L910.539 73.1509L911.465 73.6541L910.539 74.1572L910.036 75.0835L909.533 74.1572L908.606 73.6541L909.533 73.1509L910.036 72.2246Z" fill="white"/>
<path d="M971.56 96.9707L972.063 97.897L972.99 98.4001L972.063 98.9033L971.56 99.8296L971.057 98.9033L970.131 98.4001L971.057 97.897L971.56 96.9707Z" fill="white"/>
<path d="M927.419 149.677L927.922 150.604L928.849 151.107L927.922 151.61L927.419 152.536L926.916 151.61L925.99 151.107L926.916 150.604L927.419 149.677Z" fill="white"/>
<path d="M798.633 168.947L799.136 169.873L800.063 170.376L799.136 170.879L798.633 171.806L798.13 170.879L797.204 170.376L798.13 169.873L798.633 168.947Z" fill="white"/>
<path d="M714.787 82.0938L715.29 83.02L716.216 83.5232L715.29 84.0264L714.787 84.9526L714.272 84.0264L713.357 83.5232L714.272 83.02L714.787 82.0938Z" fill="white"/>
<path d="M757.143 117.669L757.646 118.596L758.573 119.099L757.646 119.602L757.143 120.528L756.64 119.602L755.714 119.099L756.64 118.596L757.143 117.669Z" fill="white"/>
<path d="M775.065 158.929L775.58 159.855L776.495 160.359L775.58 160.862L775.065 161.788L774.562 160.862L773.636 160.359L774.562 159.855L775.065 158.929Z" fill="white"/>
<path d="M786.398 146.133L786.901 147.059L787.827 147.562L786.901 148.065L786.398 148.992L785.895 148.065L784.968 147.562L785.895 147.059L786.398 146.133Z" fill="white"/>
<path d="M703.718 182.098L704.221 183.024L705.147 183.527L704.221 184.03L703.718 184.957L703.214 184.03L702.288 183.527L703.214 183.024L703.718 182.098Z" fill="white"/>
<path d="M877.619 111.403L878.134 112.329L879.048 112.832L878.134 113.347L877.619 114.262L877.116 113.347L876.189 112.832L877.116 112.329L877.619 111.403Z" fill="white"/>
<path d="M823.666 138.997L824.169 139.923L825.096 140.426L824.169 140.929L823.666 141.855L823.163 140.929L822.237 140.426L823.163 139.923L823.666 138.997Z" fill="white"/>
<path d="M777.868 329.846L776.542 332.27L774.117 333.597L776.542 334.923L777.868 337.347L779.195 334.923L781.619 333.597L779.195 332.27L777.868 329.846Z" fill="white"/>
<path d="M830.953 281.645L829.638 284.069L827.214 285.395L829.638 286.722L830.953 289.146L832.28 286.722L834.704 285.395L832.28 284.069L830.953 281.645Z" fill="white"/>
<path d="M861.314 317.781L859.987 320.206L857.574 321.532L859.987 322.859L861.314 325.283L862.64 322.859L865.065 321.532L862.64 320.206L861.314 317.781Z" fill="white"/>
<path d="M929.411 255.938L928.084 258.362L925.66 259.688L928.084 261.015L929.411 263.439L930.738 261.015L933.162 259.688L930.738 258.362L929.411 255.938Z" fill="white"/>
<path d="M763.984 319.656L763.32 320.868L762.12 321.531L763.32 322.194L763.984 323.407L764.647 322.194L765.859 321.531L764.647 320.868L763.984 319.656Z" fill="white"/>
<path d="M680.641 296.545L679.978 297.757L678.766 298.42L679.978 299.084L680.641 300.296L681.293 299.084L682.516 298.42L681.293 297.757L680.641 296.545Z" fill="white"/>
<path d="M643.395 365.078L642.732 366.278L641.52 366.942L642.732 367.605L643.395 368.817L644.058 367.605L645.27 366.942L644.058 366.278L643.395 365.078Z" fill="white"/>
<path d="M716.274 397.589L715.611 398.802L714.41 399.465L715.611 400.128L716.274 401.34L716.937 400.128L718.15 399.465L716.937 398.802L716.274 397.589Z" fill="white"/>
<path d="M750.74 390.476L750.076 391.688L748.864 392.352L750.076 393.015L750.74 394.227L751.403 393.015L752.615 392.352L751.403 391.688L750.74 390.476Z" fill="white"/>
<path d="M672.658 394.616L671.994 395.828L670.782 396.491L671.994 397.154L672.658 398.367L673.321 397.154L674.533 396.491L673.321 395.828L672.658 394.616Z" fill="white"/>
<path d="M912.283 392.352L911.619 393.564L910.407 394.227L911.619 394.891L912.283 396.103L912.946 394.891L914.158 394.227L912.946 393.564L912.283 392.352Z" fill="white"/>
<path d="M724.723 357.908L724.06 358.56L722.848 358.915L724.06 359.269L724.723 359.921L725.386 359.269L726.599 358.915L725.386 358.56L724.723 357.908Z" fill="white"/>
<path d="M790.71 292.635L790.264 293.458L789.44 293.904L790.264 294.35L790.71 295.173L791.156 294.35L791.979 293.904L791.156 293.458L790.71 292.635Z" fill="white"/>
<path d="M773.133 279.678L772.881 280.136L772.424 280.387L772.881 280.627L773.133 281.085L773.373 280.627L773.83 280.387L773.373 280.136L773.133 279.678Z" fill="white"/>
<path d="M802.993 295.733L802.73 296.191L802.272 296.442L802.73 296.694L802.993 297.151L803.233 296.694L803.69 296.442L803.233 296.191L802.993 295.733Z" fill="white"/>
<path d="M811.58 280.947L811.329 281.405L810.871 281.645L811.329 281.896L811.58 282.354L811.832 281.896L812.289 281.645L811.832 281.405L811.58 280.947Z" fill="white"/>
<path d="M824.687 297.003L824.435 297.46L823.978 297.712L824.435 297.964L824.687 298.421L824.938 297.964L825.396 297.712L824.938 297.46L824.687 297.003Z" fill="white"/>
<path d="M796.289 324.574L796.037 325.031L795.58 325.283L796.037 325.534L796.289 325.992L796.541 325.534L796.998 325.283L796.541 325.031L796.289 324.574Z" fill="white"/>
<path d="M826.571 346.542L826.32 346.999L825.862 347.251L826.32 347.491L826.571 347.948L826.823 347.491L827.28 347.251L826.823 346.999L826.571 346.542Z" fill="white"/>
<path d="M813.079 355.93L812.828 356.387L812.37 356.639L812.828 356.89L813.079 357.348L813.331 356.89L813.788 356.639L813.331 356.387L813.079 355.93Z" fill="white"/>
<path d="M847.202 371.802L846.951 372.26L846.493 372.511L846.951 372.751L847.202 373.209L847.454 372.751L847.911 372.511L847.454 372.26L847.202 371.802Z" fill="white"/>
<path d="M920.39 372.5L920.138 372.969L919.681 373.21L920.138 373.461L920.39 373.919L920.641 373.461L921.099 373.21L920.641 372.969L920.39 372.5Z" fill="white"/>
<path d="M955.038 377.601L954.787 378.058L954.329 378.31L954.787 378.561L955.038 379.019L955.29 378.561L955.747 378.31L955.29 378.058L955.038 377.601Z" fill="white"/>
<path d="M929.413 387.984L929.162 388.441L928.704 388.693L929.162 388.933L929.413 389.402L929.665 388.933L930.122 388.693L929.665 388.441L929.413 387.984Z" fill="white"/>
<path d="M874.98 378.31L874.729 378.767L874.271 379.019L874.729 379.27L874.98 379.728L875.232 379.27L875.689 379.019L875.232 378.767L874.98 378.31Z" fill="white"/>
<path d="M864.355 387.275L864.104 387.732L863.646 387.984L864.104 388.224L864.355 388.693L864.607 388.224L865.065 387.984L864.607 387.732L864.355 387.275Z" fill="white"/>
<path d="M694.604 379.018L694.352 379.475L693.895 379.727L694.352 379.979L694.604 380.436L694.855 379.979L695.313 379.727L694.855 379.475L694.604 379.018Z" fill="white"/>
<path d="M782.076 372.5L781.825 372.969L781.367 373.21L781.825 373.461L782.076 373.919L782.328 373.461L782.785 373.21L782.328 372.969L782.076 372.5Z" fill="white"/>
<path d="M701.818 347.25L701.567 347.707L701.109 347.948L701.567 348.199L701.818 348.657L702.07 348.199L702.527 347.948L702.07 347.707L701.818 347.25Z" fill="white"/>
<path d="M648.804 387.274L648.552 387.732L648.095 387.983L648.552 388.224L648.804 388.692L649.055 388.224L649.513 387.983L649.055 387.732L648.804 387.274Z" fill="white"/>
<path d="M664.231 403.524L663.991 403.981L663.533 404.222L663.991 404.473L664.231 404.942L664.494 404.473L664.94 404.222L664.494 403.981L664.231 403.524Z" fill="white"/>
<path d="M701.11 379.727L700.859 380.184L700.401 380.436L700.859 380.687L701.11 381.145L701.362 380.687L701.819 380.436L701.362 380.184L701.11 379.727Z" fill="white"/>
<path d="M726.602 380.436L726.35 380.893L725.893 381.145L726.35 381.397L726.602 381.854L726.853 381.397L727.311 381.145L726.853 380.893L726.602 380.436Z" fill="white"/>
<path d="M722.175 329.845L721.923 330.302L721.466 330.554L721.923 330.805L722.175 331.263L722.426 330.805L722.884 330.554L722.426 330.302L722.175 329.845Z" fill="white"/>
<path d="M932.889 329.137L932.637 329.594L932.18 329.846L932.637 330.097L932.889 330.555L933.14 330.097L933.598 329.846L933.14 329.594L932.889 329.137Z" fill="white"/>
<path d="M886.552 304.847L886.3 305.305L885.843 305.556L886.3 305.808L886.552 306.265L886.803 305.808L887.261 305.556L886.803 305.305L886.552 304.847Z" fill="white"/>
<path d="M865.064 295.733L864.812 296.191L864.354 296.442L864.812 296.694L865.064 297.151L865.315 296.694L865.773 296.442L865.315 296.191L865.064 295.733Z" fill="white"/>
<path d="M906.278 278.969L906.027 279.426L905.569 279.678L906.027 279.918L906.278 280.387L906.53 279.918L906.987 279.678L906.53 279.426L906.278 278.969Z" fill="white"/>
<path d="M842.479 336.638L842.227 337.096L841.77 337.347L842.227 337.599L842.479 338.056L842.73 337.599L843.188 337.347L842.73 337.096L842.479 336.638Z" fill="white"/>
<path d="M917.178 332.179L916.938 332.636L916.48 332.888L916.938 333.139L917.178 333.597L917.43 333.139L917.887 332.888L917.43 332.636L917.178 332.179Z" fill="white"/>
<path d="M741.102 255.228L740.85 255.685L740.393 255.937L740.85 256.189L741.102 256.646L741.353 256.189L741.811 255.937L741.353 255.685L741.102 255.228Z" fill="white"/>
<path d="M648.096 258.979L647.844 259.436L647.387 259.688L647.844 259.94L648.096 260.397L648.347 259.94L648.805 259.688L648.347 259.436L648.096 258.979Z" fill="white"/>
<path d="M672.657 314.189L672.406 314.647L671.948 314.898L672.406 315.15L672.657 315.607L672.909 315.15L673.366 314.898L672.909 314.647L672.657 314.189Z" fill="white"/>
<path d="M708.05 240.408L707.798 240.865L707.341 241.117L707.798 241.368L708.05 241.826L708.301 241.368L708.759 241.117L708.301 240.865L708.05 240.408Z" fill="white"/>
<path d="M654.169 295.024L653.917 295.481L653.46 295.733L653.917 295.985L654.169 296.442L654.421 295.985L654.878 295.733L654.421 295.481L654.169 295.024Z" fill="white"/>
<path d="M916.479 288.438L916.227 288.895L915.77 289.147L916.227 289.399L916.479 289.856L916.719 289.399L917.176 289.147L916.719 288.895L916.479 288.438Z" fill="white"/>
<path d="M847.91 353.346L847.659 353.815L847.201 354.055L847.659 354.306L847.91 354.764L848.162 354.306L848.619 354.055L848.162 353.815L847.91 353.346Z" fill="white"/>
<path d="M765.857 359.211L765.606 359.669L765.148 359.92L765.606 360.172L765.857 360.629L766.109 360.172L766.566 359.92L766.109 359.669L765.857 359.211Z" fill="white"/>
<path d="M749.093 332.887L748.841 333.344L748.384 333.596L748.841 333.847L749.093 334.305L749.344 333.847L749.802 333.596L749.344 333.344L749.093 332.887Z" fill="white"/>
<path d="M742.803 365.536L742.551 365.993L742.094 366.245L742.551 366.485L742.803 366.942L743.054 366.485L743.512 366.245L743.054 365.993L742.803 365.536Z" fill="white"/>
<path d="M658.707 387.983L658.455 388.441L657.998 388.692L658.455 388.933L658.707 389.401L658.959 388.933L659.416 388.692L658.959 388.441L658.707 387.983Z" fill="white"/>
<path d="M790.175 257.15L789.717 257.973L788.905 258.419L789.717 258.865L790.175 259.689L790.621 258.865L791.433 258.419L790.621 257.973L790.175 257.15Z" fill="white"/>
<path d="M763.983 295.172L763.537 295.996L762.714 296.442L763.537 296.888L763.983 297.711L764.441 296.888L765.253 296.442L764.441 295.996L763.983 295.172Z" fill="white"/>
<path d="M749.745 189.656L748.419 192.081L745.994 193.407L748.419 194.734L749.745 197.147L751.06 194.734L753.484 193.407L751.06 192.081L749.745 189.656Z" fill="white"/>
<path d="M709.492 200.646L709.046 201.458L708.223 201.915L709.046 202.361L709.492 203.173L709.938 202.361L710.761 201.915L709.938 201.458L709.492 200.646Z" fill="white"/>
<path d="M691.915 187.678L691.663 188.136L691.206 188.387L691.663 188.639L691.915 189.096L692.155 188.639L692.613 188.387L692.155 188.136L691.915 187.678Z" fill="white"/>
<path d="M721.775 203.734L721.524 204.191L721.055 204.443L721.524 204.694L721.775 205.152L722.015 204.694L722.473 204.443L722.015 204.191L721.775 203.734Z" fill="white"/>
<path d="M730.362 188.948L730.111 189.405L729.653 189.657L730.111 189.908L730.362 190.366L730.614 189.908L731.071 189.657L730.614 189.405L730.362 188.948Z" fill="white"/>
<path d="M743.469 205.003L743.217 205.46L742.76 205.712L743.217 205.964L743.469 206.421L743.72 205.964L744.178 205.712L743.72 205.46L743.469 205.003Z" fill="white"/>
<path d="M708.954 165.162L708.497 165.974L707.685 166.431L708.497 166.877L708.954 167.7L709.4 166.877L710.212 166.431L709.4 165.974L708.954 165.162Z" fill="white"/>
<path d="M682.766 203.173L682.32 203.996L681.508 204.442L682.32 204.9L682.766 205.712L683.223 204.9L684.035 204.442L683.223 203.996L682.766 203.173Z" fill="white"/>
<path d="M798.235 225.713L797.778 226.537L796.966 226.983L797.778 227.429L798.235 228.252L798.681 227.429L799.505 226.983L798.681 226.537L798.235 225.713Z" fill="white"/>
<path d="M780.646 212.746L780.395 213.203L779.938 213.455L780.395 213.706L780.646 214.164L780.898 213.706L781.355 213.455L780.898 213.203L780.646 212.746Z" fill="white"/>
<path d="M810.506 228.812L810.254 229.27L809.797 229.522L810.254 229.762L810.506 230.231L810.757 229.762L811.215 229.522L810.757 229.27L810.506 228.812Z" fill="white"/>
<path d="M797.685 190.229L797.239 191.052L796.416 191.498L797.239 191.944L797.685 192.768L798.131 191.944L798.955 191.498L798.131 191.052L797.685 190.229Z" fill="white"/>
<path d="M771.509 228.252L771.051 229.064L770.239 229.521L771.051 229.967L771.509 230.779L771.955 229.967L772.778 229.521L771.955 229.064L771.509 228.252Z" fill="white"/>
<path d="M849.282 250.129L848.824 250.952L848.001 251.398L848.824 251.844L849.282 252.668L849.728 251.844L850.54 251.398L849.728 250.952L849.282 250.129Z" fill="white"/>
<path d="M831.695 237.161L831.444 237.618L830.986 237.87L831.444 238.121L831.695 238.579L831.947 238.121L832.404 237.87L831.947 237.618L831.695 237.161Z" fill="white"/>
<path d="M861.553 253.228L861.301 253.685L860.844 253.937L861.301 254.188L861.553 254.646L861.804 254.188L862.262 253.937L861.804 253.685L861.553 253.228Z" fill="white"/>
<path d="M848.734 214.644L848.288 215.467L847.465 215.913L848.288 216.359L848.734 217.183L849.18 216.359L850.004 215.913L849.18 215.467L848.734 214.644Z" fill="white"/>
<path d="M822.557 252.667L822.1 253.479L821.288 253.936L822.1 254.382L822.557 255.206L823.003 254.382L823.827 253.936L823.003 253.479L822.557 252.667Z" fill="white"/>
<path d="M708.052 259.127L707.606 259.951L706.782 260.397L707.606 260.843L708.052 261.666L708.498 260.843L709.321 260.397L708.498 259.951L708.052 259.127Z" fill="white"/>
<path d="M653.458 281.084L653.012 281.907L652.188 282.353L653.012 282.811L653.458 283.623L653.904 282.811L654.727 282.353L653.904 281.907L653.458 281.084Z" fill="white"/>
<path d="M692.625 327.866L692.179 328.69L691.355 329.136L692.179 329.582L692.625 330.405L693.082 329.582L693.894 329.136L693.082 328.69L692.625 327.866Z" fill="white"/>
<path d="M806.928 344.975L806.482 345.787L805.658 346.244L806.482 346.69L806.928 347.513L807.374 346.69L808.197 346.244L807.374 345.787L806.928 344.975Z" fill="white"/>
<path d="M881.337 267.888L880.891 268.711L880.067 269.157L880.891 269.614L881.337 270.426L881.794 269.614L882.606 269.157L881.794 268.711L881.337 267.888Z" fill="white"/>
<path d="M843.749 299.461L843.303 300.285L842.479 300.731L843.303 301.177L843.749 302L844.195 301.177L845.018 300.731L844.195 300.285L843.749 299.461Z" fill="white"/>
<path d="M827.843 336.078L827.397 336.901L826.573 337.347L827.397 337.793L827.843 338.617L828.289 337.793L829.112 337.347L828.289 336.901L827.843 336.078Z" fill="white"/>
<path d="M817.792 324.722L817.334 325.546L816.522 325.992L817.334 326.438L817.792 327.261L818.238 326.438L819.061 325.992L818.238 325.546L817.792 324.722Z" fill="white"/>
<path d="M891.162 356.639L890.716 357.463L889.893 357.909L890.716 358.354L891.162 359.178L891.608 358.354L892.431 357.909L891.608 357.463L891.162 356.639Z" fill="white"/>
<path d="M736.824 293.903L736.378 294.727L735.555 295.173L736.378 295.619L736.824 296.442L737.27 295.619L738.093 295.173L737.27 294.727L736.824 293.903Z" fill="white"/>
<path d="M784.707 318.387L784.261 319.21L783.438 319.656L784.261 320.102L784.707 320.925L785.153 320.102L785.976 319.656L785.153 319.21L784.707 318.387Z" fill="white"/>
</g>
<g opacity="0.3">
<path d="M1185.45 151.907L1186.93 154.64L1189.67 156.127L1186.93 157.625L1185.45 160.358L1183.95 157.625L1181.22 156.127L1183.95 154.64L1185.45 151.907Z" fill="white"/>
<path d="M1125.62 97.6001L1127.12 100.333L1129.85 101.82L1127.12 103.318L1125.62 106.051L1124.13 103.318L1121.4 101.82L1124.13 100.333L1125.62 97.6001Z" fill="white"/>
<path d="M1091.42 138.311L1092.9 141.044L1095.64 142.542L1092.9 144.029L1091.42 146.762L1089.92 144.029L1087.19 142.542L1089.92 141.044L1091.42 138.311Z" fill="white"/>
<path d="M1014.68 68.6338L1016.18 71.3669L1018.92 72.8535L1016.18 74.3516L1014.68 77.0847L1013.2 74.3516L1010.46 72.8535L1013.2 71.3669L1014.68 68.6338Z" fill="white"/>
<path d="M1201.08 140.426L1201.82 141.787L1203.18 142.542L1201.82 143.285L1201.08 144.646L1200.34 143.285L1198.96 142.542L1200.34 141.787L1201.08 140.426Z" fill="white"/>
<path d="M1295 114.387L1295.74 115.748L1297.12 116.491L1295.74 117.246L1295 118.607L1294.26 117.246L1292.89 116.491L1294.26 115.748L1295 114.387Z" fill="white"/>
<path d="M1336.96 191.6L1337.71 192.961L1339.07 193.716L1337.71 194.459L1336.96 195.82L1336.21 194.459L1334.85 193.716L1336.21 192.961L1336.96 191.6Z" fill="white"/>
<path d="M1254.84 228.24L1255.58 229.601L1256.94 230.355L1255.58 231.099L1254.84 232.459L1254.09 231.099L1252.72 230.355L1254.09 229.601L1254.84 228.24Z" fill="white"/>
<path d="M1216 220.224L1216.75 221.596L1218.12 222.339L1216.75 223.083L1216 224.455L1215.26 223.083L1213.89 222.339L1215.26 221.596L1216 220.224Z" fill="white"/>
<path d="M1303.99 224.889L1304.73 226.25L1306.1 227.005L1304.73 227.748L1303.99 229.109L1303.25 227.748L1301.87 227.005L1303.25 226.25L1303.99 224.889Z" fill="white"/>
<path d="M1033.99 222.339L1034.73 223.7L1036.09 224.454L1034.73 225.198L1033.99 226.559L1033.23 225.198L1031.87 224.454L1033.23 223.7L1033.99 222.339Z" fill="white"/>
<path d="M1245.31 183.527L1246.06 184.259L1247.43 184.659L1246.06 185.059L1245.31 185.791L1244.57 185.059L1243.21 184.659L1244.57 184.259L1245.31 183.527Z" fill="white"/>
<path d="M1170.97 109.973L1171.47 110.899L1172.4 111.403L1171.47 111.917L1170.97 112.832L1170.47 111.917L1169.54 111.403L1170.47 110.899L1170.97 109.973Z" fill="white"/>
<path d="M1190.78 95.3701L1191.06 95.8847L1191.58 96.1706L1191.06 96.4565L1190.78 96.9711L1190.5 96.4565L1189.99 96.1706L1190.5 95.8847L1190.78 95.3701Z" fill="white"/>
<path d="M1157.13 113.473L1157.42 113.987L1157.93 114.262L1157.42 114.548L1157.13 115.062L1156.86 114.548L1156.34 114.262L1156.86 113.987L1157.13 113.473Z" fill="white"/>
<path d="M1147.46 96.7993L1147.74 97.3139L1148.26 97.5998L1147.74 97.8857L1147.46 98.4003L1147.17 97.8857L1146.66 97.5998L1147.17 97.3139L1147.46 96.7993Z" fill="white"/>
<path d="M1132.69 114.902L1132.97 115.416L1133.48 115.691L1132.97 115.977L1132.69 116.491L1132.41 115.977L1131.89 115.691L1132.41 115.416L1132.69 114.902Z" fill="white"/>
<path d="M1164.68 145.961L1164.97 146.476L1165.48 146.762L1164.97 147.048L1164.68 147.562L1164.41 147.048L1163.88 146.762L1164.41 146.476L1164.68 145.961Z" fill="white"/>
<path d="M1130.56 170.708L1130.84 171.234L1131.36 171.508L1130.84 171.794L1130.56 172.309L1130.28 171.794L1129.76 171.508L1130.28 171.234L1130.56 170.708Z" fill="white"/>
<path d="M1145.77 181.297L1146.05 181.811L1146.57 182.097L1146.05 182.372L1145.77 182.898L1145.48 182.372L1144.97 182.097L1145.48 181.811L1145.77 181.297Z" fill="white"/>
<path d="M1107.32 199.182L1107.61 199.696L1108.12 199.971L1107.61 200.257L1107.32 200.771L1107.04 200.257L1106.52 199.971L1107.04 199.696L1107.32 199.182Z" fill="white"/>
<path d="M1024.85 199.971L1025.14 200.486L1025.65 200.772L1025.14 201.058L1024.85 201.572L1024.57 201.058L1024.05 200.772L1024.57 200.486L1024.85 199.971Z" fill="white"/>
<path d="M985.809 205.712L986.084 206.227L986.61 206.512L986.084 206.798L985.809 207.313L985.523 206.798L985.009 206.512L985.523 206.227L985.809 205.712Z" fill="white"/>
<path d="M1014.68 217.411L1014.97 217.925L1015.48 218.211L1014.97 218.497L1014.68 219.012L1014.41 218.497L1013.88 218.211L1014.41 217.925L1014.68 217.411Z" fill="white"/>
<path d="M1076.03 206.512L1076.3 207.027L1076.81 207.313L1076.3 207.599L1076.03 208.113L1075.74 207.599L1075.22 207.313L1075.74 207.027L1076.03 206.512Z" fill="white"/>
<path d="M1087.99 216.61L1088.27 217.124L1088.79 217.41L1088.27 217.696L1087.99 218.211L1087.71 217.696L1087.19 217.41L1087.71 217.124L1087.99 216.61Z" fill="white"/>
<path d="M1279.25 207.313L1279.54 207.828L1280.05 208.113L1279.54 208.388L1279.25 208.914L1278.97 208.388L1278.45 208.113L1278.97 207.828L1279.25 207.313Z" fill="white"/>
<path d="M1180.7 199.971L1180.99 200.486L1181.5 200.772L1180.99 201.058L1180.7 201.572L1180.42 201.058L1179.9 200.772L1180.42 200.486L1180.7 199.971Z" fill="white"/>
<path d="M1271.12 171.508L1271.41 172.023L1271.92 172.309L1271.41 172.595L1271.12 173.109L1270.85 172.595L1270.33 172.309L1270.85 172.023L1271.12 171.508Z" fill="white"/>
<path d="M1330.86 216.61L1331.15 217.124L1331.66 217.41L1331.15 217.696L1330.86 218.211L1330.58 217.696L1330.06 217.41L1330.58 217.124L1330.86 216.61Z" fill="white"/>
<path d="M1313.48 234.918L1313.75 235.433L1314.27 235.718L1313.75 236.004L1313.48 236.519L1313.19 236.004L1312.68 235.718L1313.19 235.433L1313.48 234.918Z" fill="white"/>
<path d="M1271.92 208.114L1272.21 208.628L1272.72 208.914L1272.21 209.189L1271.92 209.703L1271.64 209.189L1271.12 208.914L1271.64 208.628L1271.92 208.114Z" fill="white"/>
<path d="M1243.21 208.914L1243.48 209.428L1244 209.703L1243.48 209.989L1243.21 210.503L1242.92 209.989L1242.41 209.703L1242.92 209.428L1243.21 208.914Z" fill="white"/>
<path d="M1248.19 151.907L1248.47 152.422L1248.98 152.708L1248.47 152.982L1248.19 153.508L1247.91 152.982L1247.39 152.708L1247.91 152.422L1248.19 151.907Z" fill="white"/>
<path d="M1010.77 151.107L1011.05 151.622L1011.56 151.908L1011.05 152.194L1010.77 152.708L1010.49 152.194L1009.97 151.908L1010.49 151.622L1010.77 151.107Z" fill="white"/>
<path d="M1062.98 123.73L1063.26 124.245L1063.78 124.531L1063.26 124.817L1062.98 125.331L1062.69 124.817L1062.18 124.531L1062.69 124.245L1062.98 123.73Z" fill="white"/>
<path d="M1087.19 113.473L1087.47 113.987L1087.99 114.262L1087.47 114.548L1087.19 115.062L1086.91 114.548L1086.4 114.262L1086.91 113.987L1087.19 113.473Z" fill="white"/>
<path d="M1040.76 94.5698L1041.04 95.0844L1041.56 95.3703L1041.04 95.6562L1040.76 96.1708L1040.47 95.6562L1039.96 95.3703L1040.47 95.0844L1040.76 94.5698Z" fill="white"/>
<path d="M1112.64 159.558L1112.93 160.072L1113.44 160.358L1112.93 160.633L1112.64 161.147L1112.36 160.633L1111.84 160.358L1112.36 160.072L1112.64 159.558Z" fill="white"/>
<path d="M1028.47 154.537L1028.75 155.052L1029.27 155.338L1028.75 155.612L1028.47 156.127L1028.19 155.612L1027.66 155.338L1028.19 155.052L1028.47 154.537Z" fill="white"/>
<path d="M1226.87 67.833L1227.15 68.3476L1227.67 68.6335L1227.15 68.9079L1226.87 69.434L1226.58 68.9079L1226.07 68.6335L1226.58 68.3476L1226.87 67.833Z" fill="white"/>
<path d="M1331.66 72.0527L1331.95 72.5673L1332.47 72.8532L1331.95 73.1391L1331.66 73.6537L1331.38 73.1391L1330.86 72.8532L1331.38 72.5673L1331.66 72.0527Z" fill="white"/>
<path d="M1303.99 134.263L1304.28 134.777L1304.79 135.063L1304.28 135.349L1303.99 135.864L1303.7 135.349L1303.19 135.063L1303.7 134.777L1303.99 134.263Z" fill="white"/>
<path d="M1264.1 51.126L1264.39 51.652L1264.9 51.9265L1264.39 52.2124L1264.1 52.7269L1263.82 52.2124L1263.3 51.9265L1263.82 51.652L1264.1 51.126Z" fill="white"/>
<path d="M1324.83 112.672L1325.11 113.186L1325.63 113.472L1325.11 113.747L1324.83 114.261L1324.55 113.747L1324.03 113.472L1324.55 113.186L1324.83 112.672Z" fill="white"/>
<path d="M1029.26 105.25L1029.55 105.765L1030.07 106.051L1029.55 106.325L1029.26 106.84L1028.98 106.325L1028.46 106.051L1028.98 105.765L1029.26 105.25Z" fill="white"/>
<path d="M1106.52 178.392L1106.81 178.907L1107.32 179.193L1106.81 179.467L1106.52 179.993L1106.24 179.467L1105.72 179.193L1106.24 178.907L1106.52 178.392Z" fill="white"/>
<path d="M1198.97 184.991L1199.25 185.505L1199.77 185.791L1199.25 186.077L1198.97 186.592L1198.69 186.077L1198.17 185.791L1198.69 185.505L1198.97 184.991Z" fill="white"/>
<path d="M1217.86 155.338L1218.14 155.853L1218.66 156.127L1218.14 156.413L1217.86 156.927L1217.57 156.413L1217.06 156.127L1217.57 155.853L1217.86 155.338Z" fill="white"/>
<path d="M1224.95 192.115L1225.23 192.629L1225.75 192.915L1225.23 193.19L1224.95 193.716L1224.67 193.19L1224.16 192.915L1224.67 192.629L1224.95 192.115Z" fill="white"/>
<path d="M1319.7 217.411L1319.99 217.925L1320.5 218.211L1319.99 218.497L1319.7 219.012L1319.43 218.497L1318.9 218.211L1319.43 217.925L1319.7 217.411Z" fill="white"/>
<path d="M1171.58 69.9946L1172.09 70.9209L1173.02 71.4241L1172.09 71.9272L1171.58 72.8535L1171.07 71.9272L1170.15 71.4241L1171.07 70.9209L1171.58 69.9946Z" fill="white"/>
<path d="M1201.08 112.832L1201.58 113.758L1202.51 114.261L1201.58 114.776L1201.08 115.691L1200.58 114.776L1199.65 114.261L1200.58 113.758L1201.08 112.832Z" fill="white"/>
<path d="M1264.1 72.2251L1264.6 73.1514L1265.53 73.6545L1264.6 74.1577L1264.1 75.084L1263.6 74.1577L1262.67 73.6545L1263.6 73.1514L1264.1 72.2251Z" fill="white"/>
<path d="M1325.62 96.9712L1326.13 97.8975L1327.05 98.4006L1326.13 98.9038L1325.62 99.8301L1325.12 98.9038L1324.2 98.4006L1325.12 97.8975L1325.62 96.9712Z" fill="white"/>
<path d="M1281.48 149.677L1281.99 150.604L1282.91 151.107L1281.99 151.61L1281.48 152.536L1280.98 151.61L1280.05 151.107L1280.98 150.604L1281.48 149.677Z" fill="white"/>
<path d="M1152.7 168.947L1153.2 169.873L1154.13 170.376L1153.2 170.879L1152.7 171.806L1152.19 170.879L1151.27 170.376L1152.19 169.873L1152.7 168.947Z" fill="white"/>
<path d="M1068.85 82.0938L1069.36 83.02L1070.28 83.5232L1069.36 84.0264L1068.85 84.9526L1068.34 84.0264L1067.43 83.5232L1068.34 83.02L1068.85 82.0938Z" fill="white"/>
<path d="M1111.21 117.669L1111.71 118.596L1112.64 119.099L1111.71 119.602L1111.21 120.528L1110.71 119.602L1109.78 119.099L1110.71 118.596L1111.21 117.669Z" fill="white"/>
<path d="M1129.13 158.929L1129.64 159.855L1130.56 160.359L1129.64 160.862L1129.13 161.788L1128.63 160.862L1127.7 160.359L1128.63 159.855L1129.13 158.929Z" fill="white"/>
<path d="M1140.46 146.133L1140.97 147.059L1141.89 147.562L1140.97 148.065L1140.46 148.992L1139.96 148.065L1139.03 147.562L1139.96 147.059L1140.46 146.133Z" fill="white"/>
<path d="M1057.79 182.098L1058.29 183.024L1059.21 183.527L1058.29 184.03L1057.79 184.957L1057.28 184.03L1056.36 183.527L1057.28 183.024L1057.79 182.098Z" fill="white"/>
<path d="M1231.68 111.403L1232.2 112.329L1233.11 112.832L1232.2 113.347L1231.68 114.262L1231.18 113.347L1230.25 112.832L1231.18 112.329L1231.68 111.403Z" fill="white"/>
<path d="M1177.73 138.997L1178.23 139.923L1179.16 140.426L1178.23 140.929L1177.73 141.855L1177.23 140.929L1176.3 140.426L1177.23 139.923L1177.73 138.997Z" fill="white"/>
<path d="M1131.93 329.845L1130.61 332.27L1128.18 333.596L1130.61 334.923L1131.93 337.347L1133.26 334.923L1135.68 333.596L1133.26 332.27L1131.93 329.845Z" fill="white"/>
<path d="M1185.02 281.644L1183.7 284.068L1181.28 285.395L1183.7 286.721L1185.02 289.146L1186.34 286.721L1188.77 285.395L1186.34 284.068L1185.02 281.644Z" fill="white"/>
<path d="M1215.38 317.78L1214.05 320.205L1211.64 321.531L1214.05 322.858L1215.38 325.282L1216.7 322.858L1219.13 321.531L1216.7 320.205L1215.38 317.78Z" fill="white"/>
<path d="M1283.48 255.937L1282.15 258.361L1279.72 259.688L1282.15 261.014L1283.48 263.439L1284.8 261.014L1287.23 259.688L1284.8 258.361L1283.48 255.937Z" fill="white"/>
<path d="M1118.05 319.656L1117.39 320.868L1116.19 321.531L1117.39 322.194L1118.05 323.407L1118.71 322.194L1119.93 321.531L1118.71 320.868L1118.05 319.656Z" fill="white"/>
<path d="M1034.71 296.545L1034.05 297.757L1032.83 298.42L1034.05 299.084L1034.71 300.296L1035.36 299.084L1036.58 298.42L1035.36 297.757L1034.71 296.545Z" fill="white"/>
<path d="M997.462 365.078L996.799 366.278L995.587 366.942L996.799 367.605L997.462 368.817L998.126 367.605L999.338 366.942L998.126 366.278L997.462 365.078Z" fill="white"/>
<path d="M1070.34 397.589L1069.68 398.802L1068.48 399.465L1069.68 400.128L1070.34 401.34L1071 400.128L1072.22 399.465L1071 398.802L1070.34 397.589Z" fill="white"/>
<path d="M1104.81 390.476L1104.14 391.688L1102.93 392.352L1104.14 393.015L1104.81 394.227L1105.47 393.015L1106.68 392.352L1105.47 391.688L1104.81 390.476Z" fill="white"/>
<path d="M1026.73 394.616L1026.06 395.828L1024.85 396.491L1026.06 397.154L1026.73 398.367L1027.39 397.154L1028.6 396.491L1027.39 395.828L1026.73 394.616Z" fill="white"/>
<path d="M1266.35 392.352L1265.68 393.564L1264.47 394.227L1265.68 394.89L1266.35 396.102L1267.01 394.89L1268.22 394.227L1267.01 393.564L1266.35 392.352Z" fill="white"/>
<path d="M1078.79 357.908L1078.13 358.56L1076.92 358.915L1078.13 359.269L1078.79 359.921L1079.45 359.269L1080.67 358.915L1079.45 358.56L1078.79 357.908Z" fill="white"/>
<path d="M1144.77 292.634L1144.33 293.457L1143.51 293.903L1144.33 294.349L1144.77 295.172L1145.22 294.349L1146.04 293.903L1145.22 293.457L1144.77 292.634Z" fill="white"/>
<path d="M1127.2 279.677L1126.95 280.135L1126.49 280.386L1126.95 280.626L1127.2 281.084L1127.44 280.626L1127.89 280.386L1127.44 280.135L1127.2 279.677Z" fill="white"/>
<path d="M1157.06 295.733L1156.79 296.19L1156.34 296.442L1156.79 296.693L1157.06 297.151L1157.3 296.693L1157.75 296.442L1157.3 296.19L1157.06 295.733Z" fill="white"/>
<path d="M1165.65 280.947L1165.39 281.404L1164.94 281.644L1165.39 281.896L1165.65 282.353L1165.9 281.896L1166.35 281.644L1165.9 281.404L1165.65 280.947Z" fill="white"/>
<path d="M1178.75 297.002L1178.5 297.459L1178.04 297.711L1178.5 297.963L1178.75 298.42L1179 297.963L1179.46 297.711L1179 297.459L1178.75 297.002Z" fill="white"/>
<path d="M1150.35 324.573L1150.1 325.031L1149.65 325.282L1150.1 325.534L1150.35 325.991L1150.61 325.534L1151.06 325.282L1150.61 325.031L1150.35 324.573Z" fill="white"/>
<path d="M1180.64 346.541L1180.38 346.998L1179.93 347.25L1180.38 347.49L1180.64 347.947L1180.89 347.49L1181.35 347.25L1180.89 346.998L1180.64 346.541Z" fill="white"/>
<path d="M1167.14 355.929L1166.89 356.387L1166.43 356.638L1166.89 356.89L1167.14 357.347L1167.4 356.89L1167.85 356.638L1167.4 356.387L1167.14 355.929Z" fill="white"/>
<path d="M1201.27 371.802L1201.02 372.259L1200.56 372.511L1201.02 372.751L1201.27 373.208L1201.52 372.751L1201.98 372.511L1201.52 372.259L1201.27 371.802Z" fill="white"/>
<path d="M1274.45 372.5L1274.2 372.968L1273.75 373.209L1274.2 373.46L1274.45 373.918L1274.71 373.46L1275.16 373.209L1274.71 372.968L1274.45 372.5Z" fill="white"/>
<path d="M1309.1 377.6L1308.85 378.058L1308.39 378.309L1308.85 378.561L1309.1 379.018L1309.35 378.561L1309.81 378.309L1309.35 378.058L1309.1 377.6Z" fill="white"/>
<path d="M1283.48 387.983L1283.23 388.441L1282.77 388.692L1283.23 388.933L1283.48 389.401L1283.73 388.933L1284.19 388.692L1283.73 388.441L1283.48 387.983Z" fill="white"/>
<path d="M1229.04 378.309L1228.79 378.766L1228.34 379.018L1228.79 379.27L1229.04 379.727L1229.3 379.27L1229.75 379.018L1229.3 378.766L1229.04 378.309Z" fill="white"/>
<path d="M1218.42 387.274L1218.17 387.732L1217.71 387.983L1218.17 388.224L1218.42 388.692L1218.67 388.224L1219.13 387.983L1218.67 387.732L1218.42 387.274Z" fill="white"/>
<path d="M1048.67 379.018L1048.42 379.475L1047.96 379.727L1048.42 379.979L1048.67 380.436L1048.92 379.979L1049.38 379.727L1048.92 379.475L1048.67 379.018Z" fill="white"/>
<path d="M1136.14 372.5L1135.89 372.968L1135.43 373.209L1135.89 373.46L1136.14 373.918L1136.39 373.46L1136.85 373.209L1136.39 372.968L1136.14 372.5Z" fill="white"/>
<path d="M1055.89 347.25L1055.63 347.707L1055.18 347.948L1055.63 348.199L1055.89 348.657L1056.14 348.199L1056.59 347.948L1056.14 347.707L1055.89 347.25Z" fill="white"/>
<path d="M1002.87 387.274L1002.62 387.732L1002.16 387.983L1002.62 388.224L1002.87 388.692L1003.12 388.224L1003.58 387.983L1003.12 387.732L1002.87 387.274Z" fill="white"/>
<path d="M1018.3 403.524L1018.06 403.981L1017.6 404.222L1018.06 404.473L1018.3 404.942L1018.56 404.473L1019.01 404.222L1018.56 403.981L1018.3 403.524Z" fill="white"/>
<path d="M1055.18 379.727L1054.93 380.184L1054.47 380.436L1054.93 380.687L1055.18 381.145L1055.43 380.687L1055.89 380.436L1055.43 380.184L1055.18 379.727Z" fill="white"/>
<path d="M1080.67 380.436L1080.42 380.893L1079.96 381.145L1080.42 381.397L1080.67 381.854L1080.92 381.397L1081.38 381.145L1080.92 380.893L1080.67 380.436Z" fill="white"/>
<path d="M1076.24 329.845L1075.99 330.302L1075.53 330.554L1075.99 330.805L1076.24 331.263L1076.49 330.805L1076.95 330.554L1076.49 330.302L1076.24 329.845Z" fill="white"/>
<path d="M1286.95 329.136L1286.7 329.594L1286.24 329.845L1286.7 330.097L1286.95 330.554L1287.2 330.097L1287.66 329.845L1287.2 329.594L1286.95 329.136Z" fill="white"/>
<path d="M1240.62 304.847L1240.37 305.304L1239.91 305.556L1240.37 305.807L1240.62 306.265L1240.87 305.807L1241.33 305.556L1240.87 305.304L1240.62 304.847Z" fill="white"/>
<path d="M1219.13 295.733L1218.88 296.19L1218.42 296.442L1218.88 296.693L1219.13 297.151L1219.38 296.693L1219.84 296.442L1219.38 296.19L1219.13 295.733Z" fill="white"/>
<path d="M1260.34 278.968L1260.09 279.426L1259.63 279.677L1260.09 279.917L1260.34 280.386L1260.59 279.917L1261.05 279.677L1260.59 279.426L1260.34 278.968Z" fill="white"/>
<path d="M1196.54 336.637L1196.29 337.095L1195.83 337.346L1196.29 337.598L1196.54 338.055L1196.79 337.598L1197.25 337.346L1196.79 337.095L1196.54 336.637Z" fill="white"/>
<path d="M1271.24 332.178L1271 332.636L1270.54 332.887L1271 333.139L1271.24 333.596L1271.49 333.139L1271.95 332.887L1271.49 332.636L1271.24 332.178Z" fill="white"/>
<path d="M1095.17 255.229L1094.92 255.686L1094.46 255.938L1094.92 256.189L1095.17 256.647L1095.42 256.189L1095.88 255.938L1095.42 255.686L1095.17 255.229Z" fill="white"/>
<path d="M1002.16 258.979L1001.91 259.436L1001.45 259.688L1001.91 259.94L1002.16 260.397L1002.41 259.94L1002.87 259.688L1002.41 259.436L1002.16 258.979Z" fill="white"/>
<path d="M1026.73 314.189L1026.47 314.647L1026.02 314.898L1026.47 315.15L1026.73 315.607L1026.98 315.15L1027.43 314.898L1026.98 314.647L1026.73 314.189Z" fill="white"/>
<path d="M1062.12 240.408L1061.87 240.865L1061.41 241.117L1061.87 241.368L1062.12 241.826L1062.37 241.368L1062.83 241.117L1062.37 240.865L1062.12 240.408Z" fill="white"/>
<path d="M1008.24 295.024L1007.98 295.481L1007.53 295.733L1007.98 295.985L1008.24 296.442L1008.49 295.985L1008.95 295.733L1008.49 295.481L1008.24 295.024Z" fill="white"/>
<path d="M1270.54 288.437L1270.29 288.894L1269.83 289.146L1270.29 289.398L1270.54 289.855L1270.78 289.398L1271.24 289.146L1270.78 288.894L1270.54 288.437Z" fill="white"/>
<path d="M1201.98 353.345L1201.72 353.814L1201.27 354.054L1201.72 354.306L1201.98 354.763L1202.23 354.306L1202.68 354.054L1202.23 353.814L1201.98 353.345Z" fill="white"/>
<path d="M1119.92 359.211L1119.67 359.669L1119.22 359.92L1119.67 360.172L1119.92 360.629L1120.18 360.172L1120.63 359.92L1120.18 359.669L1119.92 359.211Z" fill="white"/>
<path d="M1103.16 332.887L1102.91 333.344L1102.45 333.596L1102.91 333.847L1103.16 334.305L1103.41 333.847L1103.87 333.596L1103.41 333.344L1103.16 332.887Z" fill="white"/>
<path d="M1096.87 365.536L1096.62 365.993L1096.16 366.245L1096.62 366.485L1096.87 366.942L1097.12 366.485L1097.58 366.245L1097.12 365.993L1096.87 365.536Z" fill="white"/>
<path d="M1012.77 387.983L1012.52 388.441L1012.07 388.692L1012.52 388.933L1012.77 389.401L1013.03 388.933L1013.48 388.692L1013.03 388.441L1012.77 387.983Z" fill="white"/>
<path d="M1144.24 257.149L1143.78 257.972L1142.97 258.418L1143.78 258.864L1144.24 259.688L1144.68 258.864L1145.5 258.418L1144.68 257.972L1144.24 257.149Z" fill="white"/>
<path d="M1118.05 295.172L1117.6 295.996L1116.78 296.442L1117.6 296.888L1118.05 297.711L1118.51 296.888L1119.32 296.442L1118.51 295.996L1118.05 295.172Z" fill="white"/>
<path d="M1103.81 189.656L1102.49 192.081L1100.06 193.407L1102.49 194.734L1103.81 197.147L1105.13 194.734L1107.55 193.407L1105.13 192.081L1103.81 189.656Z" fill="white"/>
<path d="M1063.56 200.646L1063.11 201.458L1062.29 201.915L1063.11 202.361L1063.56 203.173L1064.01 202.361L1064.83 201.915L1064.01 201.458L1063.56 200.646Z" fill="white"/>
<path d="M1045.98 187.678L1045.73 188.136L1045.27 188.387L1045.73 188.639L1045.98 189.096L1046.22 188.639L1046.68 188.387L1046.22 188.136L1045.98 187.678Z" fill="white"/>
<path d="M1075.84 203.734L1075.59 204.191L1075.12 204.443L1075.59 204.694L1075.84 205.152L1076.08 204.694L1076.54 204.443L1076.08 204.191L1075.84 203.734Z" fill="white"/>
<path d="M1084.43 188.948L1084.18 189.405L1083.72 189.657L1084.18 189.908L1084.43 190.366L1084.68 189.908L1085.14 189.657L1084.68 189.405L1084.43 188.948Z" fill="white"/>
<path d="M1097.54 205.003L1097.28 205.46L1096.83 205.712L1097.28 205.964L1097.54 206.421L1097.79 205.964L1098.25 205.712L1097.79 205.46L1097.54 205.003Z" fill="white"/>
<path d="M1063.02 165.162L1062.56 165.974L1061.75 166.431L1062.56 166.877L1063.02 167.7L1063.47 166.877L1064.28 166.431L1063.47 165.974L1063.02 165.162Z" fill="white"/>
<path d="M1036.83 203.173L1036.39 203.996L1035.58 204.442L1036.39 204.9L1036.83 205.712L1037.29 204.9L1038.1 204.442L1037.29 203.996L1036.83 203.173Z" fill="white"/>
<path d="M1152.3 225.712L1151.84 226.536L1151.03 226.982L1151.84 227.428L1152.3 228.251L1152.75 227.428L1153.57 226.982L1152.75 226.536L1152.3 225.712Z" fill="white"/>
<path d="M1134.71 212.745L1134.46 213.202L1134 213.454L1134.46 213.705L1134.71 214.163L1134.96 213.705L1135.42 213.454L1134.96 213.202L1134.71 212.745Z" fill="white"/>
<path d="M1164.57 228.812L1164.32 229.269L1163.86 229.521L1164.32 229.761L1164.57 230.23L1164.82 229.761L1165.28 229.521L1164.82 229.269L1164.57 228.812Z" fill="white"/>
<path d="M1151.75 190.228L1151.3 191.051L1150.48 191.497L1151.3 191.943L1151.75 192.767L1152.2 191.943L1153.02 191.497L1152.2 191.051L1151.75 190.228Z" fill="white"/>
<path d="M1125.57 228.251L1125.12 229.063L1124.3 229.521L1125.12 229.967L1125.57 230.779L1126.02 229.967L1126.84 229.521L1126.02 229.063L1125.57 228.251Z" fill="white"/>
<path d="M1203.35 250.128L1202.89 250.951L1202.07 251.397L1202.89 251.843L1203.35 252.667L1203.79 251.843L1204.6 251.397L1203.79 250.951L1203.35 250.128Z" fill="white"/>
<path d="M1185.76 237.16L1185.51 237.617L1185.05 237.869L1185.51 238.12L1185.76 238.578L1186.01 238.12L1186.47 237.869L1186.01 237.617L1185.76 237.16Z" fill="white"/>
<path d="M1215.62 253.227L1215.37 253.684L1214.91 253.936L1215.37 254.188L1215.62 254.645L1215.87 254.188L1216.33 253.936L1215.87 253.684L1215.62 253.227Z" fill="white"/>
<path d="M1202.8 214.643L1202.35 215.466L1201.53 215.912L1202.35 216.358L1202.8 217.182L1203.25 216.358L1204.07 215.912L1203.25 215.466L1202.8 214.643Z" fill="white"/>
<path d="M1176.62 252.667L1176.16 253.478L1175.35 253.936L1176.16 254.382L1176.62 255.205L1177.07 254.382L1177.89 253.936L1177.07 253.478L1176.62 252.667Z" fill="white"/>
<path d="M1062.12 259.127L1061.67 259.951L1060.85 260.397L1061.67 260.843L1062.12 261.666L1062.57 260.843L1063.39 260.397L1062.57 259.951L1062.12 259.127Z" fill="white"/>
<path d="M1007.53 281.084L1007.08 281.907L1006.26 282.353L1007.08 282.811L1007.53 283.623L1007.97 282.811L1008.8 282.353L1007.97 281.907L1007.53 281.084Z" fill="white"/>
<path d="M1046.69 327.866L1046.25 328.69L1045.42 329.136L1046.25 329.582L1046.69 330.405L1047.15 329.582L1047.96 329.136L1047.15 328.69L1046.69 327.866Z" fill="white"/>
<path d="M1160.99 344.974L1160.55 345.786L1159.72 346.243L1160.55 346.689L1160.99 347.513L1161.44 346.689L1162.26 346.243L1161.44 345.786L1160.99 344.974Z" fill="white"/>
<path d="M1235.4 267.887L1234.96 268.711L1234.13 269.157L1234.96 269.614L1235.4 270.426L1235.86 269.614L1236.67 269.157L1235.86 268.711L1235.4 267.887Z" fill="white"/>
<path d="M1197.81 299.46L1197.37 300.284L1196.54 300.73L1197.37 301.176L1197.81 301.999L1198.26 301.176L1199.08 300.73L1198.26 300.284L1197.81 299.46Z" fill="white"/>
<path d="M1181.91 336.077L1181.46 336.901L1180.64 337.346L1181.46 337.792L1181.91 338.616L1182.35 337.792L1183.18 337.346L1182.35 336.901L1181.91 336.077Z" fill="white"/>
<path d="M1171.86 324.722L1171.4 325.545L1170.59 325.991L1171.4 326.437L1171.86 327.26L1172.3 326.437L1173.13 325.991L1172.3 325.545L1171.86 324.722Z" fill="white"/>
<path d="M1245.23 356.638L1244.78 357.462L1243.96 357.908L1244.78 358.354L1245.23 359.177L1245.67 358.354L1246.5 357.908L1245.67 357.462L1245.23 356.638Z" fill="white"/>
<path d="M1090.89 293.903L1090.45 294.727L1089.62 295.173L1090.45 295.619L1090.89 296.442L1091.34 295.619L1092.16 295.173L1091.34 294.727L1090.89 293.903Z" fill="white"/>
<path d="M1138.77 318.386L1138.32 319.21L1137.5 319.656L1138.32 320.102L1138.77 320.925L1139.22 320.102L1140.04 319.656L1139.22 319.21L1138.77 318.386Z" fill="white"/>
</g>
<path fill-rule="evenodd" clip-rule="evenodd" d="M0.941406 394.08L60.9414 397.537C120.941 400.993 240.941 420.429 360.941 413.516C480.941 406.603 600.941 373.341 720.941 387.167C840.941 400.993 960.941 449.385 1080.94 459.755C1200.94 470.124 1320.94 442.472 1380.94 428.646L1440.94 414.82V518.516H1380.94C1320.94 518.516 1200.94 518.516 1080.94 518.516C960.941 518.516 840.941 518.516 720.941 518.516C600.941 518.516 480.941 518.516 360.941 518.516C240.941 518.516 120.941 518.516 60.9414 518.516H0.941406V394.08Z" fill="#1E1E1E"/>
</g>
<defs>
<linearGradient id="paint0_linear_353_4395" x1="-294.559" y1="461.837" x2="1469.44" y2="105.674" gradientUnits="userSpaceOnUse">
<stop stop-color="#013572"/>
<stop offset="0.59375" stop-color="#01244F"/>
<stop offset="1" stop-color="#002551"/>
</linearGradient>
<clipPath id="clip0_353_4395">
<rect width="1440" height="515.356" fill="white" transform="translate(0.941406 0.837402)"/>
</clipPath>
</defs>
</svg>
