<svg width="1440" height="518" viewBox="0 0 1440 518" fill="none" xmlns="http://www.w3.org/2000/svg">
<rect width="1440" height="461" fill="url(#paint0_linear_2644_5014)"/>
<path fill-rule="evenodd" clip-rule="evenodd" d="M0 393.243L60 396.699C120 400.156 240 419.592 360 412.679C480 405.766 600 372.503 720 386.33C840 400.156 960 448.548 1080 458.917C1200 469.287 1320 441.635 1380 427.808L1440 413.982V517.679H1380C1320 517.679 1200 517.679 1080 517.679C960 517.679 840 517.679 720 517.679C600 517.679 480 517.679 360 517.679C240 517.679 120 517.679 60 517.679H0V393.243Z" fill="#1E1E1E"/>
<path d="M225.94 114.647C236.812 130.563 251.358 143.908 268.379 153.005C270.585 154.189 272.489 151.711 272.001 149.69C271.219 146.612 270.555 143.536 269.945 140.424C265.151 115.711 265.157 90.3503 266.038 65.3192C266.933 39.8891 268.737 14.4174 267.437 -11.0348C266.166 -35.9603 261.972 -61.3718 251.16 -84.0643C244.93 -97.1372 236.381 -109.218 225.935 -119.292C243.949 -131.014 258.155 -148.026 267.307 -167.614C278.807 -192.186 282.573 -219.744 281.584 -246.643C281.496 -248.768 278.297 -248.414 278.322 -246.327C278.539 -231.588 277.277 -216.788 274.16 -202.387C268.702 -177.085 257.223 -152.721 238.124 -134.844C233.241 -130.286 227.893 -126.206 222.18 -122.63C219.474 -125.01 216.703 -127.308 213.792 -129.4C205.942 -135.037 197.288 -139.688 188.084 -142.658C178.681 -145.695 169.276 -146.627 159.451 -146.158C156.537 -146.027 156.963 -141.512 159.877 -141.643C162.175 -141.764 164.541 -141.658 166.843 -141.471C185.624 -140.017 203.021 -131.903 217.258 -119.76C204.446 -112.764 190.16 -108.593 175.595 -108.528C172.77 -108.921 169.896 -109.089 166.962 -108.868C164.128 -108.672 163.91 -104.129 166.782 -103.843C169.582 -103.55 172.384 -103.492 175.179 -103.507C192.563 -100.837 206.238 -86.1891 211.945 -70.1293C219.544 -48.671 215.774 -25.278 211.482 -3.53452C207.26 17.7744 202.583 39.222 205.367 61.0657C207.827 80.2371 215.059 98.7775 225.948 114.72L225.94 114.647ZM209.624 48.1868C209.249 25.37 216.122 3.28218 219.433 -19.074C222.594 -40.3979 222.918 -63.9398 211.502 -83.0476C206.051 -92.1442 197.941 -99.99 188.361 -104.626C196.146 -105.841 203.8 -108.101 211.058 -111.273C214.482 -112.785 217.827 -114.48 221.048 -116.367C234.569 -103.645 244.588 -87.7235 250.974 -70.3112C259.551 -46.7974 262.061 -21.5821 262.398 3.28474C262.716 28.2421 260.757 53.1128 260.322 78.0504C259.903 100.602 260.861 123.236 265.63 145.317C265.189 145.057 264.72 144.814 264.279 144.554C247.909 134.413 234.397 119.776 224.879 103.063C215.38 86.3782 209.951 67.3734 209.651 48.1691L209.624 48.1868Z" fill="#003777"/>
<path d="M-116.905 76.4518C-93.0533 97.1423 -63.0796 110.37 -31.7784 114.443C1.68753 118.792 35.9066 112.254 65.5695 96.1967C82.8879 86.833 98.7442 74.3636 111.587 59.4015C112.528 58.3259 114.214 59.7291 113.291 60.8321C90.5658 88.6477 58.88 108.506 23.875 116.72C-8.69033 124.371 -42.8467 121.364 -73.8483 108.956C-86.1824 104.036 -97.9051 97.5907 -108.684 89.8341C-93.8355 111.359 -71.8619 127.577 -47.8966 137.716C-16.4544 151.046 18.4793 153.629 52.1781 150.504C69.4864 148.898 86.813 145.995 103.651 141.733C120.06 137.592 136.366 131.844 150.537 122.372C163.792 113.531 174.307 101.476 180.694 86.831C186.678 73.0692 189.026 57.8404 188.667 42.8818C188.227 25.8713 184.216 9.3002 178.134 -6.5562C171.063 -24.9673 161.306 -41.9918 151.43 -59.0181C148.958 -63.2634 146.606 -67.6249 144.053 -71.8168C142.448 -74.4801 146.407 -77.2731 148.03 -74.5824C153.376 -65.7686 158.952 -57.1421 164.006 -48.1782C168.936 -39.4065 173.646 -30.4929 177.808 -21.342C185.465 -4.55588 191.364 13.2488 193.344 31.6785C195.038 47.2549 194.093 63.3293 189.534 78.3907C184.802 94.0303 176.248 107.973 164.016 118.879C151.059 130.41 134.936 137.948 118.484 143.168C101.394 148.606 83.5694 152.065 65.7874 154.444C30.6321 159.172 -5.96001 158.363 -39.7666 146.678C-69.9613 136.242 -97.9691 116.835 -115.396 89.6936C-117.527 86.3968 -119.438 82.958 -121.24 79.4482C-122.547 76.9434 -118.832 74.7367 -116.923 76.4243L-116.905 76.4518Z" fill="#003777"/>
<path d="M1275.69 262.386C1255.66 262.896 1235.81 268.063 1218.27 277.786C1215.99 279.043 1217.08 282.103 1219.12 282.817C1222.25 283.87 1225.31 285.026 1228.37 286.25C1252.64 296.006 1274.77 310.317 1296.12 325.206C1317.8 340.334 1339.02 356.277 1361.96 369.5C1384.43 382.452 1408.98 393.126 1434.88 396.491C1449.8 398.429 1465.17 397.783 1479.85 394.349C1479.92 416.683 1486.75 438.677 1498.68 457.713C1513.64 481.611 1535.57 500.443 1559.6 514.755C1561.5 515.876 1563 512.885 1561.16 511.729C1548.18 503.605 1535.98 494.154 1525.17 483.31C1506.16 464.274 1491.38 440.513 1486.55 413.76C1485.32 406.927 1484.78 399.958 1484.88 392.956C1488.49 391.936 1492.06 390.814 1495.52 389.454C1504.87 385.783 1513.81 380.854 1521.6 374.497C1529.55 368.004 1535.67 360.322 1540.8 351.484C1542.33 348.866 1538.15 346.69 1536.62 349.308C1535.43 351.381 1534 353.387 1532.54 355.291C1520.68 370.86 1503.78 381.466 1485.15 387.041C1486.28 371.914 1490.7 357.092 1498.85 344.345C1500.79 342.101 1502.56 339.688 1504.02 337.002C1505.45 334.419 1501.61 331.665 1499.74 334.011C1497.9 336.288 1496.27 338.702 1494.71 341.149C1482.57 354.815 1462.07 358.486 1444.84 354.407C1421.82 348.934 1403.54 332.447 1386.98 316.436C1370.77 300.731 1354.69 284.55 1334.05 274.658C1315.93 265.99 1295.67 261.843 1275.62 262.352L1275.69 262.386ZM1342.89 285.638C1363.02 298.182 1378.42 316.64 1396.06 332.141C1412.88 346.928 1433.25 360.492 1456.36 361.308C1467.38 361.682 1478.8 359.03 1488.25 353.285C1484.92 360.764 1482.57 368.718 1481.25 376.843C1480.63 380.684 1480.23 384.559 1480.06 388.434C1461.33 393.058 1441.78 392.82 1422.98 388.57C1397.62 382.792 1374.2 370.758 1352.31 357.024C1330.35 343.223 1309.75 327.484 1288.23 313.037C1268.79 299.949 1248.49 288.018 1226.53 279.723C1227.01 279.485 1227.48 279.213 1227.96 278.975C1246.04 270.409 1266.44 266.874 1286.39 267.995C1306.31 269.117 1325.96 275.1 1342.89 285.672L1342.89 285.638Z" fill="#003777"/>
<path d="M1502.42 -15.2724C1470.91 -6.12812 1442.46 12.5683 1421.25 37.5876C1398.57 64.3405 1384.98 97.8921 1382.26 132.837C1380.66 153.234 1382.6 174.106 1388.41 193.754C1388.82 195.182 1386.64 195.862 1386.2 194.434C1374.74 158.911 1375.29 120.056 1387.86 84.8726C1399.56 52.1368 1421.45 24.0242 1449.77 3.96798C1461.02 -4.02051 1473.26 -10.6153 1486.11 -15.6463C1458.95 -14.8305 1432.4 -4.80236 1410.03 10.3928C1380.66 30.313 1358.7 59.3434 1342.42 90.5155C1334.05 106.526 1326.81 123.285 1321.03 140.384C1315.39 157.041 1311.21 174.514 1311.48 192.224C1311.72 208.779 1316.31 224.756 1325.49 238.591C1334.12 251.577 1346.09 262.217 1359.34 270.341C1374.44 279.554 1391.16 285.401 1408.43 289.038C1428.49 293.253 1448.85 294.341 1469.28 295.327C1474.38 295.565 1479.51 295.973 1484.61 296.108C1487.84 296.21 1488.04 301.242 1484.78 301.14C1474.07 300.834 1463.4 300.834 1452.72 300.188C1442.29 299.542 1431.85 298.624 1421.52 297.094C1402.55 294.307 1383.68 289.412 1366.48 280.743C1351.93 273.435 1338.44 263.543 1327.87 251.067C1316.89 238.116 1309.54 222.784 1306.93 205.958C1304.17 188.145 1306.69 169.822 1311.41 152.52C1316.31 134.537 1323.34 117.03 1331.3 100.17C1347 66.822 1368.35 35.344 1397.62 12.4323C1423.76 -8.03178 1456.5 -21.5272 1490.02 -21.4252C1494.09 -21.4252 1498.17 -21.1533 1502.25 -20.7453C1505.18 -20.4734 1505.01 -15.9862 1502.46 -15.2724L1502.42 -15.2724Z" fill="#003777"/>
<g opacity="0.3">
<path d="M830.443 125.781L831.929 128.514L834.662 130.001L831.929 131.499L830.443 134.232L828.945 131.499L826.211 130.001L828.945 128.514L830.443 125.781Z" fill="white"/>
<path d="M770.611 71.4746L772.109 74.2077L774.842 75.6943L772.109 77.1924L770.611 79.9255L769.124 77.1924L766.391 75.6943L769.124 74.2077L770.611 71.4746Z" fill="white"/>
<path d="M736.407 112.185L737.894 114.918L740.627 116.416L737.894 117.902L736.407 120.635L734.909 117.902L732.176 116.416L734.909 114.918L736.407 112.185Z" fill="white"/>
<path d="M659.675 42.5078L661.173 45.2409L663.906 46.7275L661.173 48.2256L659.675 50.9587L658.188 48.2256L655.455 46.7275L658.188 45.2409L659.675 42.5078Z" fill="white"/>
<path d="M846.075 114.3L846.818 115.661L848.179 116.415L846.818 117.159L846.075 118.52L845.331 117.159L843.959 116.415L845.331 115.661L846.075 114.3Z" fill="white"/>
<path d="M939.995 88.2617L940.739 89.6226L942.111 90.3659L940.739 91.1206L939.995 92.4814L939.252 91.1206L937.88 90.3659L939.252 89.6226L939.995 88.2617Z" fill="white"/>
<path d="M981.952 165.475L982.707 166.835L984.067 167.59L982.707 168.333L981.952 169.694L981.208 168.333L979.848 167.59L981.208 166.835L981.952 165.475Z" fill="white"/>
<path d="M899.832 202.113L900.576 203.474L901.937 204.229L900.576 204.972L899.832 206.333L899.089 204.972L897.717 204.229L899.089 203.474L899.832 202.113Z" fill="white"/>
<path d="M860.998 194.098L861.742 195.47L863.114 196.213L861.742 196.957L860.998 198.329L860.255 196.957L858.883 196.213L860.255 195.47L860.998 194.098Z" fill="white"/>
<path d="M948.983 198.764L949.727 200.125L951.099 200.879L949.727 201.623L948.983 202.983L948.24 201.623L946.868 200.879L948.24 200.125L948.983 198.764Z" fill="white"/>
<path d="M678.979 196.213L679.722 197.574L681.083 198.328L679.722 199.072L678.979 200.433L678.224 199.072L676.863 198.328L678.224 197.574L678.979 196.213Z" fill="white"/>
<path d="M890.306 157.401L891.05 158.133L892.422 158.533L891.05 158.934L890.306 159.666L889.563 158.934L888.202 158.533L889.563 158.133L890.306 157.401Z" fill="white"/>
<path d="M815.964 83.8477L816.467 84.774L817.394 85.2771L816.467 85.7917L815.964 86.7065L815.461 85.7917L814.535 85.2771L815.461 84.774L815.964 83.8477Z" fill="white"/>
<path d="M835.771 69.2441L836.057 69.7587L836.572 70.0446L836.057 70.3305L835.771 70.8451L835.497 70.3305L834.982 70.0446L835.497 69.7587L835.771 69.2441Z" fill="white"/>
<path d="M802.128 87.3467L802.414 87.8613L802.928 88.1357L802.414 88.4216L802.128 88.9362L801.853 88.4216L801.339 88.1357L801.853 87.8613L802.128 87.3467Z" fill="white"/>
<path d="M792.453 70.6738L792.739 71.1884L793.253 71.4743L792.739 71.7602L792.453 72.2748L792.167 71.7602L791.652 71.4743L792.167 71.1884L792.453 70.6738Z" fill="white"/>
<path d="M777.689 88.7764L777.964 89.291L778.478 89.5654L777.964 89.8513L777.689 90.3659L777.403 89.8513L776.889 89.5654L777.403 89.291L777.689 88.7764Z" fill="white"/>
<path d="M809.676 119.835L809.961 120.35L810.476 120.635L809.961 120.921L809.676 121.436L809.401 120.921L808.875 120.635L809.401 120.35L809.676 119.835Z" fill="white"/>
<path d="M775.552 144.581L775.838 145.107L776.352 145.382L775.838 145.667L775.552 146.182L775.278 145.667L774.751 145.382L775.278 145.107L775.552 144.581Z" fill="white"/>
<path d="M790.762 155.171L791.048 155.685L791.562 155.971L791.048 156.246L790.762 156.772L790.476 156.246L789.961 155.971L790.476 155.685L790.762 155.171Z" fill="white"/>
<path d="M752.315 173.056L752.601 173.57L753.115 173.845L752.601 174.131L752.315 174.645L752.029 174.131L751.514 173.845L752.029 173.57L752.315 173.056Z" fill="white"/>
<path d="M669.842 173.846L670.128 174.36L670.642 174.646L670.128 174.932L669.842 175.447L669.556 174.932L669.042 174.646L669.556 174.36L669.842 173.846Z" fill="white"/>
<path d="M630.8 179.586L631.075 180.101L631.601 180.386L631.075 180.672L630.8 181.187L630.515 180.672L630 180.386L630.515 180.101L630.8 179.586Z" fill="white"/>
<path d="M659.675 191.284L659.961 191.799L660.476 192.085L659.961 192.371L659.675 192.885L659.401 192.371L658.875 192.085L659.401 191.799L659.675 191.284Z" fill="white"/>
<path d="M721.016 180.386L721.291 180.9L721.805 181.186L721.291 181.472L721.016 181.987L720.73 181.472L720.216 181.186L720.73 180.9L721.016 180.386Z" fill="white"/>
<path d="M732.977 190.483L733.263 190.998L733.777 191.284L733.263 191.57L732.977 192.084L732.702 191.57L732.176 191.284L732.702 190.998L732.977 190.483Z" fill="white"/>
<path d="M924.248 181.187L924.534 181.701L925.048 181.987L924.534 182.261L924.248 182.787L923.962 182.261L923.447 181.987L923.962 181.701L924.248 181.187Z" fill="white"/>
<path d="M825.696 173.846L825.982 174.36L826.497 174.646L825.982 174.932L825.696 175.447L825.411 174.932L824.896 174.646L825.411 174.36L825.696 173.846Z" fill="white"/>
<path d="M916.117 145.382L916.403 145.896L916.918 146.182L916.403 146.468L916.117 146.983L915.843 146.468L915.328 146.182L915.843 145.896L916.117 145.382Z" fill="white"/>
<path d="M975.857 190.483L976.143 190.998L976.658 191.284L976.143 191.57L975.857 192.084L975.571 191.57L975.057 191.284L975.571 190.998L975.857 190.483Z" fill="white"/>
<path d="M958.474 208.792L958.748 209.307L959.263 209.592L958.748 209.878L958.474 210.393L958.188 209.878L957.673 209.592L958.188 209.307L958.474 208.792Z" fill="white"/>
<path d="M916.917 181.987L917.203 182.502L917.718 182.788L917.203 183.062L916.917 183.577L916.631 183.062L916.117 182.788L916.631 182.502L916.917 181.987Z" fill="white"/>
<path d="M888.203 182.788L888.478 183.303L888.992 183.577L888.478 183.863L888.203 184.378L887.917 183.863L887.403 183.577L887.917 183.303L888.203 182.788Z" fill="white"/>
<path d="M893.188 125.781L893.463 126.296L893.977 126.582L893.463 126.856L893.188 127.382L892.902 126.856L892.388 126.582L892.902 126.296L893.188 125.781Z" fill="white"/>
<path d="M655.764 124.981L656.039 125.496L656.553 125.782L656.039 126.068L655.764 126.582L655.478 126.068L654.964 125.782L655.478 125.496L655.764 124.981Z" fill="white"/>
<path d="M707.968 97.6045L708.254 98.1191L708.768 98.405L708.254 98.6909L707.968 99.2055L707.682 98.6909L707.167 98.405L707.682 98.1191L707.968 97.6045Z" fill="white"/>
<path d="M732.177 87.3467L732.463 87.8613L732.977 88.1357L732.463 88.4216L732.177 88.9362L731.902 88.4216L731.388 88.1357L731.902 87.8613L732.177 87.3467Z" fill="white"/>
<path d="M685.749 68.4443L686.035 68.9589L686.55 69.2448L686.035 69.5307L685.749 70.0453L685.463 69.5307L684.949 69.2448L685.463 68.9589L685.749 68.4443Z" fill="white"/>
<path d="M757.632 133.432L757.918 133.946L758.433 134.232L757.918 134.507L757.632 135.021L757.347 134.507L756.832 134.232L757.347 133.946L757.632 133.432Z" fill="white"/>
<path d="M673.456 128.411L673.742 128.926L674.256 129.212L673.742 129.486L673.456 130.001L673.181 129.486L672.655 129.212L673.181 128.926L673.456 128.411Z" fill="white"/>
<path d="M871.863 41.707L872.149 42.2216L872.664 42.5075L872.149 42.782L871.863 43.308L871.577 42.782L871.062 42.5075L871.577 42.2216L871.863 41.707Z" fill="white"/>
<path d="M976.659 45.9268L976.945 46.4414L977.459 46.7273L976.945 47.0131L976.659 47.5277L976.373 47.0131L975.858 46.7273L976.373 46.4414L976.659 45.9268Z" fill="white"/>
<path d="M948.984 108.137L949.269 108.651L949.784 108.937L949.269 109.223L948.984 109.738L948.698 109.223L948.183 108.937L948.698 108.651L948.984 108.137Z" fill="white"/>
<path d="M909.095 25L909.381 25.526L909.896 25.8005L909.381 26.0864L909.095 26.601L908.81 26.0864L908.295 25.8005L908.81 25.526L909.095 25Z" fill="white"/>
<path d="M969.82 86.5459L970.106 87.0605L970.62 87.3464L970.106 87.6208L969.82 88.1354L969.546 87.6208L969.02 87.3464L969.546 87.0605L969.82 86.5459Z" fill="white"/>
<path d="M674.256 79.125L674.541 79.6396L675.056 79.9255L674.541 80.1999L674.256 80.7145L673.97 80.1999L673.455 79.9255L673.97 79.6396L674.256 79.125Z" fill="white"/>
<path d="M751.512 152.267L751.798 152.781L752.313 153.067L751.798 153.342L751.512 153.868L751.227 153.342L750.712 153.067L751.227 152.781L751.512 152.267Z" fill="white"/>
<path d="M843.96 158.864L844.246 159.379L844.76 159.665L844.246 159.951L843.96 160.465L843.685 159.951L843.159 159.665L843.685 159.379L843.96 158.864Z" fill="white"/>
<path d="M862.851 129.212L863.137 129.727L863.651 130.001L863.137 130.287L862.851 130.801L862.565 130.287L862.05 130.001L862.565 129.727L862.851 129.212Z" fill="white"/>
<path d="M869.942 165.989L870.228 166.504L870.742 166.79L870.228 167.064L869.942 167.59L869.667 167.064L869.153 166.79L869.667 166.504L869.942 165.989Z" fill="white"/>
<path d="M964.696 191.284L964.982 191.799L965.497 192.085L964.982 192.371L964.696 192.885L964.422 192.371L963.896 192.085L964.422 191.799L964.696 191.284Z" fill="white"/>
<path d="M816.572 43.8691L817.086 44.7954L818.012 45.2986L817.086 45.8017L816.572 46.728L816.068 45.8017L815.142 45.2986L816.068 44.7954L816.572 43.8691Z" fill="white"/>
<path d="M846.074 86.7061L846.577 87.6323L847.503 88.1355L846.577 88.6501L846.074 89.5649L845.571 88.6501L844.645 88.1355L845.571 87.6323L846.074 86.7061Z" fill="white"/>
<path d="M909.094 46.0986L909.598 47.0249L910.524 47.5281L909.598 48.0312L909.094 48.9575L908.591 48.0312L907.665 47.5281L908.591 47.0249L909.094 46.0986Z" fill="white"/>
<path d="M970.619 70.8447L971.122 71.771L972.048 72.2742L971.122 72.7773L970.619 73.7036L970.116 72.7773L969.189 72.2742L970.116 71.771L970.619 70.8447Z" fill="white"/>
<path d="M926.478 123.551L926.981 124.477L927.907 124.98L926.981 125.483L926.478 126.41L925.975 125.483L925.048 124.98L925.975 124.477L926.478 123.551Z" fill="white"/>
<path d="M797.692 142.821L798.195 143.748L799.121 144.251L798.195 144.754L797.692 145.68L797.189 144.754L796.262 144.251L797.189 143.748L797.692 142.821Z" fill="white"/>
<path d="M713.846 55.9678L714.349 56.8941L715.275 57.3972L714.349 57.9004L713.846 58.8267L713.331 57.9004L712.417 57.3972L713.331 56.8941L713.846 55.9678Z" fill="white"/>
<path d="M756.202 91.543L756.705 92.4692L757.631 92.9724L756.705 93.4756L756.202 94.4019L755.699 93.4756L754.772 92.9724L755.699 92.4692L756.202 91.543Z" fill="white"/>
<path d="M774.124 132.803L774.638 133.729L775.553 134.232L774.638 134.735L774.124 135.662L773.621 134.735L772.694 134.232L773.621 133.729L774.124 132.803Z" fill="white"/>
<path d="M785.456 120.007L785.959 120.933L786.886 121.436L785.959 121.939L785.456 122.866L784.953 121.939L784.027 121.436L784.953 120.933L785.456 120.007Z" fill="white"/>
<path d="M702.777 155.972L703.28 156.898L704.206 157.401L703.28 157.904L702.777 158.831L702.273 157.904L701.347 157.401L702.273 156.898L702.777 155.972Z" fill="white"/>
<path d="M876.677 85.2764L877.192 86.2027L878.107 86.7058L877.192 87.2204L876.677 88.1353L876.174 87.2204L875.248 86.7058L876.174 86.2027L876.677 85.2764Z" fill="white"/>
<path d="M822.725 112.871L823.228 113.797L824.154 114.301L823.228 114.804L822.725 115.73L822.222 114.804L821.295 114.301L822.222 113.797L822.725 112.871Z" fill="white"/>
<path d="M776.925 303.719L775.599 306.143L773.174 307.47L775.599 308.796L776.925 311.22L778.252 308.796L780.676 307.47L778.252 306.143L776.925 303.719Z" fill="white"/>
<path d="M830.011 255.518L828.696 257.942L826.271 259.268L828.696 260.595L830.011 263.019L831.337 260.595L833.762 259.268L831.337 257.942L830.011 255.518Z" fill="white"/>
<path d="M860.371 291.654L859.044 294.079L856.631 295.405L859.044 296.732L860.371 299.156L861.697 296.732L864.122 295.405L861.697 294.079L860.371 291.654Z" fill="white"/>
<path d="M928.469 229.811L927.142 232.235L924.718 233.561L927.142 234.888L928.469 237.312L929.795 234.888L932.219 233.561L929.795 232.235L928.469 229.811Z" fill="white"/>
<path d="M763.042 293.529L762.379 294.741L761.178 295.405L762.379 296.068L763.042 297.28L763.705 296.068L764.918 295.405L763.705 294.741L763.042 293.529Z" fill="white"/>
<path d="M679.699 270.418L679.036 271.63L677.824 272.293L679.036 272.957L679.699 274.169L680.351 272.957L681.575 272.293L680.351 271.63L679.699 270.418Z" fill="white"/>
<path d="M642.454 338.951L641.79 340.152L640.578 340.815L641.79 341.478L642.454 342.691L643.117 341.478L644.329 340.815L643.117 340.152L642.454 338.951Z" fill="white"/>
<path d="M715.332 371.463L714.669 372.675L713.468 373.338L714.669 374.002L715.332 375.214L715.996 374.002L717.208 373.338L715.996 372.675L715.332 371.463Z" fill="white"/>
<path d="M749.798 364.35L749.135 365.562L747.922 366.225L749.135 366.888L749.798 368.1L750.461 366.888L751.673 366.225L750.461 365.562L749.798 364.35Z" fill="white"/>
<path d="M671.717 368.489L671.053 369.701L669.841 370.365L671.053 371.028L671.717 372.24L672.38 371.028L673.592 370.365L672.38 369.701L671.717 368.489Z" fill="white"/>
<path d="M911.34 366.226L910.677 367.438L909.465 368.101L910.677 368.764L911.34 369.976L912.004 368.764L913.216 368.101L912.004 367.438L911.34 366.226Z" fill="white"/>
<path d="M723.782 331.781L723.119 332.433L721.907 332.788L723.119 333.142L723.782 333.794L724.445 333.142L725.658 332.788L724.445 332.433L723.782 331.781Z" fill="white"/>
<path d="M789.767 266.508L789.321 267.331L788.498 267.777L789.321 268.223L789.767 269.047L790.213 268.223L791.037 267.777L790.213 267.331L789.767 266.508Z" fill="white"/>
<path d="M772.19 253.552L771.938 254.009L771.481 254.261L771.938 254.501L772.19 254.958L772.43 254.501L772.888 254.261L772.43 254.009L772.19 253.552Z" fill="white"/>
<path d="M802.05 269.607L801.787 270.065L801.33 270.316L801.787 270.568L802.05 271.025L802.29 270.568L802.748 270.316L802.29 270.065L802.05 269.607Z" fill="white"/>
<path d="M810.638 254.82L810.386 255.278L809.929 255.518L810.386 255.769L810.638 256.227L810.889 255.769L811.347 255.518L810.889 255.278L810.638 254.82Z" fill="white"/>
<path d="M823.744 270.876L823.493 271.333L823.035 271.585L823.493 271.837L823.744 272.294L823.996 271.837L824.453 271.585L823.996 271.333L823.744 270.876Z" fill="white"/>
<path d="M795.347 298.447L795.095 298.905L794.638 299.156L795.095 299.408L795.347 299.865L795.598 299.408L796.056 299.156L795.598 298.905L795.347 298.447Z" fill="white"/>
<path d="M825.629 320.415L825.377 320.872L824.92 321.124L825.377 321.364L825.629 321.822L825.881 321.364L826.338 321.124L825.881 320.872L825.629 320.415Z" fill="white"/>
<path d="M812.136 329.803L811.885 330.26L811.427 330.512L811.885 330.763L812.136 331.221L812.388 330.763L812.845 330.512L812.388 330.26L812.136 329.803Z" fill="white"/>
<path d="M846.26 345.676L846.008 346.133L845.551 346.385L846.008 346.625L846.26 347.082L846.511 346.625L846.969 346.385L846.511 346.133L846.26 345.676Z" fill="white"/>
<path d="M919.447 346.374L919.196 346.843L918.738 347.083L919.196 347.335L919.447 347.792L919.699 347.335L920.156 347.083L919.699 346.843L919.447 346.374Z" fill="white"/>
<path d="M954.096 351.474L953.844 351.931L953.387 352.183L953.844 352.434L954.096 352.892L954.347 352.434L954.805 352.183L954.347 351.931L954.096 351.474Z" fill="white"/>
<path d="M928.471 361.857L928.219 362.315L927.762 362.566L928.219 362.807L928.471 363.275L928.722 362.807L929.18 362.566L928.722 362.315L928.471 361.857Z" fill="white"/>
<path d="M874.038 352.183L873.787 352.64L873.329 352.892L873.787 353.143L874.038 353.601L874.29 353.143L874.747 352.892L874.29 352.64L874.038 352.183Z" fill="white"/>
<path d="M863.413 361.148L863.162 361.606L862.704 361.857L863.162 362.098L863.413 362.566L863.665 362.098L864.122 361.857L863.665 361.606L863.413 361.148Z" fill="white"/>
<path d="M693.663 352.892L693.411 353.349L692.954 353.601L693.411 353.852L693.663 354.31L693.914 353.852L694.372 353.601L693.914 353.349L693.663 352.892Z" fill="white"/>
<path d="M781.133 346.374L780.882 346.843L780.424 347.083L780.882 347.335L781.133 347.792L781.385 347.335L781.842 347.083L781.385 346.843L781.133 346.374Z" fill="white"/>
<path d="M700.877 321.123L700.625 321.58L700.168 321.821L700.625 322.072L700.877 322.53L701.129 322.072L701.586 321.821L701.129 321.58L700.877 321.123Z" fill="white"/>
<path d="M647.862 361.147L647.611 361.605L647.153 361.856L647.611 362.097L647.862 362.565L648.114 362.097L648.571 361.856L648.114 361.605L647.862 361.147Z" fill="white"/>
<path d="M663.289 377.397L663.049 377.855L662.591 378.095L663.049 378.347L663.289 378.815L663.552 378.347L663.998 378.095L663.552 377.855L663.289 377.397Z" fill="white"/>
<path d="M700.169 353.601L699.917 354.058L699.46 354.31L699.917 354.561L700.169 355.019L700.421 354.561L700.878 354.31L700.421 354.058L700.169 353.601Z" fill="white"/>
<path d="M725.66 354.31L725.408 354.767L724.951 355.019L725.408 355.27L725.66 355.728L725.911 355.27L726.369 355.019L725.911 354.767L725.66 354.31Z" fill="white"/>
<path d="M721.233 303.718L720.981 304.175L720.524 304.427L720.981 304.678L721.233 305.136L721.485 304.678L721.942 304.427L721.485 304.175L721.233 303.718Z" fill="white"/>
<path d="M931.946 303.01L931.695 303.467L931.237 303.719L931.695 303.97L931.946 304.428L932.198 303.97L932.655 303.719L932.198 303.467L931.946 303.01Z" fill="white"/>
<path d="M885.609 278.721L885.358 279.178L884.9 279.43L885.358 279.681L885.609 280.139L885.861 279.681L886.318 279.43L885.861 279.178L885.609 278.721Z" fill="white"/>
<path d="M864.121 269.607L863.87 270.065L863.412 270.316L863.87 270.568L864.121 271.025L864.373 270.568L864.83 270.316L864.373 270.065L864.121 269.607Z" fill="white"/>
<path d="M905.336 252.842L905.084 253.299L904.627 253.551L905.084 253.791L905.336 254.26L905.588 253.791L906.045 253.551L905.588 253.299L905.336 252.842Z" fill="white"/>
<path d="M841.536 310.512L841.285 310.969L840.827 311.221L841.285 311.472L841.536 311.93L841.788 311.472L842.245 311.221L841.788 310.969L841.536 310.512Z" fill="white"/>
<path d="M916.236 306.052L915.996 306.509L915.538 306.761L915.996 307.012L916.236 307.47L916.487 307.012L916.945 306.761L916.487 306.509L916.236 306.052Z" fill="white"/>
<path d="M740.16 229.102L739.908 229.559L739.451 229.811L739.908 230.062L740.16 230.52L740.411 230.062L740.869 229.811L740.411 229.559L740.16 229.102Z" fill="white"/>
<path d="M647.154 232.853L646.903 233.31L646.445 233.562L646.903 233.813L647.154 234.271L647.406 233.813L647.863 233.562L647.406 233.31L647.154 232.853Z" fill="white"/>
<path d="M671.716 288.063L671.465 288.521L671.007 288.772L671.465 289.024L671.716 289.481L671.968 289.024L672.425 288.772L671.968 288.521L671.716 288.063Z" fill="white"/>
<path d="M707.108 214.281L706.857 214.739L706.399 214.99L706.857 215.242L707.108 215.699L707.36 215.242L707.817 214.99L707.36 214.739L707.108 214.281Z" fill="white"/>
<path d="M653.227 268.897L652.975 269.355L652.518 269.606L652.975 269.858L653.227 270.315L653.479 269.858L653.936 269.606L653.479 269.355L653.227 268.897Z" fill="white"/>
<path d="M915.536 262.312L915.285 262.769L914.827 263.021L915.285 263.272L915.536 263.73L915.776 263.272L916.234 263.021L915.776 262.769L915.536 262.312Z" fill="white"/>
<path d="M846.968 327.219L846.716 327.688L846.259 327.928L846.716 328.179L846.968 328.637L847.219 328.179L847.677 327.928L847.219 327.688L846.968 327.219Z" fill="white"/>
<path d="M764.916 333.085L764.664 333.542L764.207 333.794L764.664 334.046L764.916 334.503L765.168 334.046L765.625 333.794L765.168 333.542L764.916 333.085Z" fill="white"/>
<path d="M748.151 306.761L747.9 307.218L747.442 307.47L747.9 307.721L748.151 308.179L748.403 307.721L748.86 307.47L748.403 307.218L748.151 306.761Z" fill="white"/>
<path d="M741.862 339.409L741.61 339.867L741.153 340.118L741.61 340.358L741.862 340.816L742.113 340.358L742.571 340.118L742.113 339.867L741.862 339.409Z" fill="white"/>
<path d="M657.766 361.857L657.514 362.315L657.057 362.566L657.514 362.807L657.766 363.275L658.017 362.807L658.475 362.566L658.017 362.315L657.766 361.857Z" fill="white"/>
<path d="M789.232 231.023L788.774 231.847L787.962 232.293L788.774 232.739L789.232 233.562L789.678 232.739L790.49 232.293L789.678 231.847L789.232 231.023Z" fill="white"/>
<path d="M763.042 269.046L762.596 269.869L761.772 270.315L762.596 270.761L763.042 271.585L763.499 270.761L764.311 270.315L763.499 269.869L763.042 269.046Z" fill="white"/>
<path d="M748.803 163.53L747.477 165.955L745.052 167.281L747.477 168.608L748.803 171.021L750.118 168.608L752.543 167.281L750.118 165.955L748.803 163.53Z" fill="white"/>
<path d="M708.551 174.52L708.105 175.331L707.282 175.789L708.105 176.235L708.551 177.047L708.997 176.235L709.82 175.789L708.997 175.331L708.551 174.52Z" fill="white"/>
<path d="M690.974 161.552L690.722 162.009L690.265 162.261L690.722 162.512L690.974 162.97L691.214 162.512L691.671 162.261L691.214 162.009L690.974 161.552Z" fill="white"/>
<path d="M720.834 177.607L720.582 178.065L720.113 178.316L720.582 178.568L720.834 179.025L721.074 178.568L721.531 178.316L721.074 178.065L720.834 177.607Z" fill="white"/>
<path d="M729.421 162.821L729.169 163.279L728.712 163.53L729.169 163.782L729.421 164.239L729.672 163.782L730.13 163.53L729.672 163.279L729.421 162.821Z" fill="white"/>
<path d="M742.527 178.876L742.276 179.333L741.818 179.585L742.276 179.837L742.527 180.294L742.779 179.837L743.236 179.585L742.779 179.333L742.527 178.876Z" fill="white"/>
<path d="M708.013 139.035L707.555 139.847L706.743 140.305L707.555 140.75L708.013 141.574L708.458 140.75L709.27 140.305L708.458 139.847L708.013 139.035Z" fill="white"/>
<path d="M681.824 177.047L681.378 177.87L680.566 178.316L681.378 178.774L681.824 179.586L682.282 178.774L683.094 178.316L682.282 177.87L681.824 177.047Z" fill="white"/>
<path d="M797.292 199.587L796.835 200.41L796.023 200.856L796.835 201.302L797.292 202.126L797.738 201.302L798.562 200.856L797.738 200.41L797.292 199.587Z" fill="white"/>
<path d="M779.704 186.619L779.452 187.077L778.995 187.328L779.452 187.58L779.704 188.037L779.955 187.58L780.413 187.328L779.955 187.077L779.704 186.619Z" fill="white"/>
<path d="M809.563 202.686L809.312 203.143L808.854 203.395L809.312 203.635L809.563 204.104L809.815 203.635L810.272 203.395L809.815 203.143L809.563 202.686Z" fill="white"/>
<path d="M796.743 164.103L796.297 164.926L795.474 165.372L796.297 165.818L796.743 166.641L797.189 165.818L798.012 165.372L797.189 164.926L796.743 164.103Z" fill="white"/>
<path d="M770.566 202.125L770.109 202.937L769.297 203.394L770.109 203.84L770.566 204.652L771.012 203.84L771.836 203.394L771.012 202.937L770.566 202.125Z" fill="white"/>
<path d="M848.339 224.002L847.882 224.825L847.059 225.271L847.882 225.717L848.339 226.541L848.785 225.717L849.597 225.271L848.785 224.825L848.339 224.002Z" fill="white"/>
<path d="M830.753 211.034L830.501 211.492L830.044 211.743L830.501 211.995L830.753 212.452L831.005 211.995L831.462 211.743L831.005 211.492L830.753 211.034Z" fill="white"/>
<path d="M860.61 227.102L860.359 227.559L859.901 227.811L860.359 228.062L860.61 228.52L860.862 228.062L861.319 227.811L860.862 227.559L860.61 227.102Z" fill="white"/>
<path d="M847.792 188.518L847.346 189.341L846.522 189.787L847.346 190.233L847.792 191.056L848.238 190.233L849.061 189.787L848.238 189.341L847.792 188.518Z" fill="white"/>
<path d="M821.615 226.54L821.158 227.352L820.346 227.809L821.158 228.255L821.615 229.079L822.061 228.255L822.884 227.809L822.061 227.352L821.615 226.54Z" fill="white"/>
<path d="M707.11 233.001L706.664 233.824L705.841 234.27L706.664 234.716L707.11 235.54L707.556 234.716L708.38 234.27L707.556 233.824L707.11 233.001Z" fill="white"/>
<path d="M652.517 254.957L652.071 255.78L651.248 256.226L652.071 256.684L652.517 257.496L652.963 256.684L653.786 256.226L652.963 255.78L652.517 254.957Z" fill="white"/>
<path d="M691.683 301.74L691.237 302.564L690.414 303.01L691.237 303.456L691.683 304.279L692.141 303.456L692.953 303.01L692.141 302.564L691.683 301.74Z" fill="white"/>
<path d="M805.985 318.848L805.539 319.66L804.716 320.117L805.539 320.563L805.985 321.386L806.431 320.563L807.255 320.117L806.431 319.66L805.985 318.848Z" fill="white"/>
<path d="M880.394 241.762L879.948 242.585L879.125 243.031L879.948 243.488L880.394 244.3L880.852 243.488L881.664 243.031L880.852 242.585L880.394 241.762Z" fill="white"/>
<path d="M842.806 273.335L842.36 274.158L841.537 274.604L842.36 275.05L842.806 275.874L843.252 275.05L844.076 274.604L843.252 274.158L842.806 273.335Z" fill="white"/>
<path d="M826.9 309.951L826.454 310.775L825.63 311.221L826.454 311.667L826.9 312.49L827.346 311.667L828.169 311.221L827.346 310.775L826.9 309.951Z" fill="white"/>
<path d="M816.849 298.596L816.392 299.419L815.58 299.865L816.392 300.311L816.849 301.134L817.295 300.311L818.118 299.865L817.295 299.419L816.849 298.596Z" fill="white"/>
<path d="M890.22 330.513L889.774 331.336L888.95 331.782L889.774 332.228L890.22 333.051L890.666 332.228L891.489 331.782L890.666 331.336L890.22 330.513Z" fill="white"/>
<path d="M735.882 267.776L735.436 268.6L734.613 269.046L735.436 269.492L735.882 270.315L736.328 269.492L737.151 269.046L736.328 268.6L735.882 267.776Z" fill="white"/>
<path d="M783.764 292.26L783.318 293.083L782.495 293.529L783.318 293.975L783.764 294.798L784.21 293.975L785.033 293.529L784.21 293.083L783.764 292.26Z" fill="white"/>
</g>
<g opacity="0.3">
<path d="M1184.51 125.781L1185.99 128.514L1188.73 130.001L1185.99 131.499L1184.51 134.232L1183.01 131.499L1180.28 130.001L1183.01 128.514L1184.51 125.781Z" fill="white"/>
<path d="M1124.68 71.4746L1126.17 74.2077L1128.91 75.6943L1126.17 77.1924L1124.68 79.9255L1123.19 77.1924L1120.46 75.6943L1123.19 74.2077L1124.68 71.4746Z" fill="white"/>
<path d="M1090.47 112.185L1091.96 114.918L1094.69 116.416L1091.96 117.902L1090.47 120.635L1088.98 117.902L1086.24 116.416L1088.98 114.918L1090.47 112.185Z" fill="white"/>
<path d="M1013.74 42.5078L1015.24 45.2409L1017.97 46.7275L1015.24 48.2256L1013.74 50.9587L1012.26 48.2256L1009.52 46.7275L1012.26 45.2409L1013.74 42.5078Z" fill="white"/>
<path d="M1200.14 114.3L1200.88 115.661L1202.24 116.415L1200.88 117.159L1200.14 118.52L1199.4 117.159L1198.02 116.415L1199.4 115.661L1200.14 114.3Z" fill="white"/>
<path d="M1294.06 88.2617L1294.8 89.6226L1296.18 90.3659L1294.8 91.1206L1294.06 92.4814L1293.32 91.1206L1291.95 90.3659L1293.32 89.6226L1294.06 88.2617Z" fill="white"/>
<path d="M1336.02 165.475L1336.77 166.835L1338.13 167.59L1336.77 168.333L1336.02 169.694L1335.27 168.333L1333.91 167.59L1335.27 166.835L1336.02 165.475Z" fill="white"/>
<path d="M1253.9 202.113L1254.64 203.474L1256 204.229L1254.64 204.972L1253.9 206.333L1253.15 204.972L1251.78 204.229L1253.15 203.474L1253.9 202.113Z" fill="white"/>
<path d="M1215.06 194.098L1215.81 195.47L1217.18 196.213L1215.81 196.957L1215.06 198.329L1214.32 196.957L1212.95 196.213L1214.32 195.47L1215.06 194.098Z" fill="white"/>
<path d="M1303.05 198.764L1303.79 200.125L1305.16 200.879L1303.79 201.623L1303.05 202.983L1302.31 201.623L1300.93 200.879L1302.31 200.125L1303.05 198.764Z" fill="white"/>
<path d="M1033.05 196.213L1033.79 197.574L1035.15 198.328L1033.79 199.072L1033.05 200.433L1032.29 199.072L1030.93 198.328L1032.29 197.574L1033.05 196.213Z" fill="white"/>
<path d="M1244.37 157.401L1245.12 158.133L1246.49 158.533L1245.12 158.934L1244.37 159.666L1243.63 158.934L1242.27 158.533L1243.63 158.133L1244.37 157.401Z" fill="white"/>
<path d="M1170.03 83.8477L1170.53 84.774L1171.46 85.2771L1170.53 85.7917L1170.03 86.7065L1169.53 85.7917L1168.6 85.2771L1169.53 84.774L1170.03 83.8477Z" fill="white"/>
<path d="M1189.84 69.2441L1190.12 69.7587L1190.64 70.0446L1190.12 70.3305L1189.84 70.8451L1189.56 70.3305L1189.05 70.0446L1189.56 69.7587L1189.84 69.2441Z" fill="white"/>
<path d="M1156.19 87.3467L1156.48 87.8613L1156.99 88.1357L1156.48 88.4216L1156.19 88.9362L1155.92 88.4216L1155.4 88.1357L1155.92 87.8613L1156.19 87.3467Z" fill="white"/>
<path d="M1146.52 70.6738L1146.8 71.1884L1147.32 71.4743L1146.8 71.7602L1146.52 72.2748L1146.23 71.7602L1145.72 71.4743L1146.23 71.1884L1146.52 70.6738Z" fill="white"/>
<path d="M1131.76 88.7764L1132.03 89.291L1132.54 89.5654L1132.03 89.8513L1131.76 90.3659L1131.47 89.8513L1130.95 89.5654L1131.47 89.291L1131.76 88.7764Z" fill="white"/>
<path d="M1163.74 119.835L1164.03 120.35L1164.54 120.635L1164.03 120.921L1163.74 121.436L1163.47 120.921L1162.94 120.635L1163.47 120.35L1163.74 119.835Z" fill="white"/>
<path d="M1129.62 144.581L1129.9 145.107L1130.42 145.382L1129.9 145.667L1129.62 146.182L1129.34 145.667L1128.82 145.382L1129.34 145.107L1129.62 144.581Z" fill="white"/>
<path d="M1144.83 155.171L1145.11 155.685L1145.63 155.971L1145.11 156.246L1144.83 156.772L1144.54 156.246L1144.03 155.971L1144.54 155.685L1144.83 155.171Z" fill="white"/>
<path d="M1106.38 173.056L1106.67 173.57L1107.18 173.845L1106.67 174.131L1106.38 174.645L1106.1 174.131L1105.58 173.845L1106.1 173.57L1106.38 173.056Z" fill="white"/>
<path d="M1023.91 173.846L1024.2 174.36L1024.71 174.646L1024.2 174.932L1023.91 175.447L1023.62 174.932L1023.11 174.646L1023.62 174.36L1023.91 173.846Z" fill="white"/>
<path d="M984.868 179.586L985.142 180.101L985.668 180.386L985.142 180.672L984.868 181.187L984.582 180.672L984.067 180.386L984.582 180.101L984.868 179.586Z" fill="white"/>
<path d="M1013.74 191.284L1014.03 191.799L1014.54 192.085L1014.03 192.371L1013.74 192.885L1013.47 192.371L1012.94 192.085L1013.47 191.799L1013.74 191.284Z" fill="white"/>
<path d="M1075.08 180.386L1075.36 180.9L1075.87 181.186L1075.36 181.472L1075.08 181.987L1074.8 181.472L1074.28 181.186L1074.8 180.9L1075.08 180.386Z" fill="white"/>
<path d="M1087.04 190.483L1087.33 190.998L1087.84 191.284L1087.33 191.57L1087.04 192.084L1086.77 191.57L1086.24 191.284L1086.77 190.998L1087.04 190.483Z" fill="white"/>
<path d="M1278.31 181.187L1278.6 181.701L1279.11 181.987L1278.6 182.261L1278.31 182.787L1278.03 182.261L1277.51 181.987L1278.03 181.701L1278.31 181.187Z" fill="white"/>
<path d="M1179.76 173.846L1180.05 174.36L1180.56 174.646L1180.05 174.932L1179.76 175.447L1179.48 174.932L1178.96 174.646L1179.48 174.36L1179.76 173.846Z" fill="white"/>
<path d="M1270.18 145.382L1270.47 145.896L1270.98 146.182L1270.47 146.468L1270.18 146.983L1269.91 146.468L1269.39 146.182L1269.91 145.896L1270.18 145.382Z" fill="white"/>
<path d="M1329.92 190.484L1330.21 190.999L1330.72 191.285L1330.21 191.571L1329.92 192.085L1329.64 191.571L1329.12 191.285L1329.64 190.999L1329.92 190.484Z" fill="white"/>
<path d="M1312.54 208.792L1312.81 209.307L1313.33 209.592L1312.81 209.878L1312.54 210.393L1312.25 209.878L1311.74 209.592L1312.25 209.307L1312.54 208.792Z" fill="white"/>
<path d="M1270.98 181.987L1271.27 182.502L1271.78 182.788L1271.27 183.062L1270.98 183.577L1270.7 183.062L1270.18 182.788L1270.7 182.502L1270.98 181.987Z" fill="white"/>
<path d="M1242.27 182.788L1242.54 183.303L1243.06 183.577L1242.54 183.863L1242.27 184.378L1241.98 183.863L1241.47 183.577L1241.98 183.303L1242.27 182.788Z" fill="white"/>
<path d="M1247.25 125.781L1247.53 126.296L1248.04 126.582L1247.53 126.856L1247.25 127.382L1246.97 126.856L1246.45 126.582L1246.97 126.296L1247.25 125.781Z" fill="white"/>
<path d="M1009.83 124.981L1010.11 125.496L1010.62 125.782L1010.11 126.068L1009.83 126.582L1009.55 126.068L1009.03 125.782L1009.55 125.496L1009.83 124.981Z" fill="white"/>
<path d="M1062.04 97.6045L1062.32 98.1191L1062.84 98.405L1062.32 98.6909L1062.04 99.2055L1061.75 98.6909L1061.24 98.405L1061.75 98.1191L1062.04 97.6045Z" fill="white"/>
<path d="M1086.24 87.3467L1086.53 87.8613L1087.05 88.1357L1086.53 88.4216L1086.24 88.9362L1085.97 88.4216L1085.46 88.1357L1085.97 87.8613L1086.24 87.3467Z" fill="white"/>
<path d="M1039.82 68.4443L1040.1 68.9589L1040.62 69.2448L1040.1 69.5307L1039.82 70.0453L1039.53 69.5307L1039.02 69.2448L1039.53 68.9589L1039.82 68.4443Z" fill="white"/>
<path d="M1111.7 133.432L1111.99 133.946L1112.5 134.232L1111.99 134.507L1111.7 135.021L1111.41 134.507L1110.9 134.232L1111.41 133.946L1111.7 133.432Z" fill="white"/>
<path d="M1027.52 128.411L1027.81 128.926L1028.32 129.212L1027.81 129.486L1027.52 130.001L1027.25 129.486L1026.72 129.212L1027.25 128.926L1027.52 128.411Z" fill="white"/>
<path d="M1225.93 41.707L1226.21 42.2216L1226.73 42.5075L1226.21 42.782L1225.93 43.308L1225.64 42.782L1225.13 42.5075L1225.64 42.2216L1225.93 41.707Z" fill="white"/>
<path d="M1330.72 45.9268L1331.01 46.4414L1331.53 46.7273L1331.01 47.0131L1330.72 47.5277L1330.44 47.0131L1329.92 46.7273L1330.44 46.4414L1330.72 45.9268Z" fill="white"/>
<path d="M1303.05 108.137L1303.34 108.651L1303.85 108.937L1303.34 109.223L1303.05 109.738L1302.76 109.223L1302.25 108.937L1302.76 108.651L1303.05 108.137Z" fill="white"/>
<path d="M1263.16 25L1263.45 25.526L1263.96 25.8005L1263.45 26.0864L1263.16 26.601L1262.87 26.0864L1262.36 25.8005L1262.87 25.526L1263.16 25Z" fill="white"/>
<path d="M1323.89 86.5459L1324.17 87.0605L1324.69 87.3464L1324.17 87.6208L1323.89 88.1354L1323.61 87.6208L1323.08 87.3464L1323.61 87.0605L1323.89 86.5459Z" fill="white"/>
<path d="M1028.32 79.125L1028.61 79.6396L1029.12 79.9255L1028.61 80.1999L1028.32 80.7145L1028.04 80.1999L1027.52 79.9255L1028.04 79.6396L1028.32 79.125Z" fill="white"/>
<path d="M1105.58 152.267L1105.87 152.781L1106.38 153.067L1105.87 153.342L1105.58 153.868L1105.29 153.342L1104.78 153.067L1105.29 152.781L1105.58 152.267Z" fill="white"/>
<path d="M1198.03 158.864L1198.31 159.379L1198.83 159.665L1198.31 159.951L1198.03 160.465L1197.75 159.951L1197.22 159.665L1197.75 159.379L1198.03 158.864Z" fill="white"/>
<path d="M1216.92 129.212L1217.2 129.727L1217.72 130.001L1217.2 130.287L1216.92 130.801L1216.63 130.287L1216.12 130.001L1216.63 129.727L1216.92 129.212Z" fill="white"/>
<path d="M1224.01 165.989L1224.29 166.504L1224.81 166.79L1224.29 167.064L1224.01 167.59L1223.73 167.064L1223.22 166.79L1223.73 166.504L1224.01 165.989Z" fill="white"/>
<path d="M1318.76 191.284L1319.05 191.799L1319.56 192.085L1319.05 192.371L1318.76 192.885L1318.49 192.371L1317.96 192.085L1318.49 191.799L1318.76 191.284Z" fill="white"/>
<path d="M1170.64 43.8691L1171.15 44.7954L1172.08 45.2986L1171.15 45.8017L1170.64 46.728L1170.13 45.8017L1169.21 45.2986L1170.13 44.7954L1170.64 43.8691Z" fill="white"/>
<path d="M1200.14 86.7061L1200.64 87.6323L1201.57 88.1355L1200.64 88.6501L1200.14 89.5649L1199.64 88.6501L1198.71 88.1355L1199.64 87.6323L1200.14 86.7061Z" fill="white"/>
<path d="M1263.16 46.0986L1263.66 47.0249L1264.59 47.5281L1263.66 48.0312L1263.16 48.9575L1262.66 48.0312L1261.73 47.5281L1262.66 47.0249L1263.16 46.0986Z" fill="white"/>
<path d="M1324.68 70.8447L1325.19 71.771L1326.11 72.2742L1325.19 72.7773L1324.68 73.7036L1324.18 72.7773L1323.25 72.2742L1324.18 71.771L1324.68 70.8447Z" fill="white"/>
<path d="M1280.54 123.551L1281.05 124.477L1281.97 124.98L1281.05 125.483L1280.54 126.41L1280.04 125.483L1279.11 124.98L1280.04 124.477L1280.54 123.551Z" fill="white"/>
<path d="M1151.76 142.82L1152.26 143.747L1153.19 144.25L1152.26 144.753L1151.76 145.679L1151.25 144.753L1150.33 144.25L1151.25 143.747L1151.76 142.82Z" fill="white"/>
<path d="M1067.91 55.9678L1068.42 56.8941L1069.34 57.3972L1068.42 57.9004L1067.91 58.8267L1067.4 57.9004L1066.48 57.3972L1067.4 56.8941L1067.91 55.9678Z" fill="white"/>
<path d="M1110.27 91.543L1110.77 92.4692L1111.7 92.9724L1110.77 93.4756L1110.27 94.4019L1109.77 93.4756L1108.84 92.9724L1109.77 92.4692L1110.27 91.543Z" fill="white"/>
<path d="M1128.19 132.803L1128.7 133.729L1129.62 134.232L1128.7 134.735L1128.19 135.662L1127.69 134.735L1126.76 134.232L1127.69 133.729L1128.19 132.803Z" fill="white"/>
<path d="M1139.52 120.007L1140.03 120.933L1140.95 121.436L1140.03 121.939L1139.52 122.866L1139.02 121.939L1138.09 121.436L1139.02 120.933L1139.52 120.007Z" fill="white"/>
<path d="M1056.84 155.972L1057.35 156.898L1058.27 157.401L1057.35 157.904L1056.84 158.831L1056.34 157.904L1055.41 157.401L1056.34 156.898L1056.84 155.972Z" fill="white"/>
<path d="M1230.74 85.2764L1231.26 86.2027L1232.17 86.7058L1231.26 87.2204L1230.74 88.1353L1230.24 87.2204L1229.31 86.7058L1230.24 86.2027L1230.74 85.2764Z" fill="white"/>
<path d="M1176.79 112.871L1177.29 113.797L1178.22 114.301L1177.29 114.804L1176.79 115.73L1176.29 114.804L1175.36 114.301L1176.29 113.797L1176.79 112.871Z" fill="white"/>
<path d="M1130.99 303.719L1129.66 306.143L1127.24 307.47L1129.66 308.796L1130.99 311.22L1132.32 308.796L1134.74 307.47L1132.32 306.143L1130.99 303.719Z" fill="white"/>
<path d="M1184.08 255.518L1182.76 257.942L1180.34 259.268L1182.76 260.595L1184.08 263.019L1185.4 260.595L1187.83 259.268L1185.4 257.942L1184.08 255.518Z" fill="white"/>
<path d="M1214.44 291.654L1213.11 294.079L1210.7 295.405L1213.11 296.732L1214.44 299.156L1215.76 296.732L1218.19 295.405L1215.76 294.079L1214.44 291.654Z" fill="white"/>
<path d="M1282.53 229.811L1281.21 232.235L1278.78 233.561L1281.21 234.888L1282.53 237.312L1283.86 234.888L1286.28 233.561L1283.86 232.235L1282.53 229.811Z" fill="white"/>
<path d="M1117.11 293.529L1116.45 294.741L1115.25 295.405L1116.45 296.068L1117.11 297.28L1117.77 296.068L1118.99 295.405L1117.77 294.741L1117.11 293.529Z" fill="white"/>
<path d="M1033.77 270.418L1033.1 271.63L1031.89 272.293L1033.1 272.957L1033.77 274.169L1034.42 272.957L1035.64 272.293L1034.42 271.63L1033.77 270.418Z" fill="white"/>
<path d="M996.521 338.951L995.858 340.152L994.646 340.815L995.858 341.478L996.521 342.691L997.184 341.478L998.396 340.815L997.184 340.152L996.521 338.951Z" fill="white"/>
<path d="M1069.4 371.463L1068.74 372.675L1067.54 373.338L1068.74 374.002L1069.4 375.214L1070.06 374.002L1071.28 373.338L1070.06 372.675L1069.4 371.463Z" fill="white"/>
<path d="M1103.87 364.35L1103.2 365.562L1101.99 366.225L1103.2 366.888L1103.87 368.1L1104.53 366.888L1105.74 366.225L1104.53 365.562L1103.87 364.35Z" fill="white"/>
<path d="M1025.78 368.489L1025.12 369.701L1023.91 370.365L1025.12 371.028L1025.78 372.24L1026.45 371.028L1027.66 370.365L1026.45 369.701L1025.78 368.489Z" fill="white"/>
<path d="M1265.41 366.226L1264.74 367.438L1263.53 368.101L1264.74 368.764L1265.41 369.976L1266.07 368.764L1267.28 368.101L1266.07 367.438L1265.41 366.226Z" fill="white"/>
<path d="M1077.85 331.781L1077.19 332.433L1075.97 332.788L1077.19 333.142L1077.85 333.794L1078.51 333.142L1079.72 332.788L1078.51 332.433L1077.85 331.781Z" fill="white"/>
<path d="M1143.83 266.508L1143.39 267.331L1142.56 267.777L1143.39 268.223L1143.83 269.047L1144.28 268.223L1145.1 267.777L1144.28 267.331L1143.83 266.508Z" fill="white"/>
<path d="M1126.26 253.551L1126 254.008L1125.55 254.26L1126 254.5L1126.26 254.957L1126.5 254.5L1126.95 254.26L1126.5 254.008L1126.26 253.551Z" fill="white"/>
<path d="M1156.12 269.606L1155.85 270.064L1155.4 270.315L1155.85 270.567L1156.12 271.024L1156.36 270.567L1156.81 270.315L1156.36 270.064L1156.12 269.606Z" fill="white"/>
<path d="M1164.7 254.82L1164.45 255.278L1163.99 255.518L1164.45 255.769L1164.7 256.227L1164.96 255.769L1165.41 255.518L1164.96 255.278L1164.7 254.82Z" fill="white"/>
<path d="M1177.81 270.876L1177.56 271.333L1177.1 271.585L1177.56 271.837L1177.81 272.294L1178.06 271.837L1178.52 271.585L1178.06 271.333L1177.81 270.876Z" fill="white"/>
<path d="M1149.41 298.446L1149.16 298.904L1148.7 299.155L1149.16 299.407L1149.41 299.864L1149.66 299.407L1150.12 299.155L1149.66 298.904L1149.41 298.446Z" fill="white"/>
<path d="M1179.69 320.414L1179.44 320.871L1178.99 321.123L1179.44 321.363L1179.69 321.821L1179.95 321.363L1180.4 321.123L1179.95 320.871L1179.69 320.414Z" fill="white"/>
<path d="M1166.2 329.803L1165.95 330.26L1165.49 330.512L1165.95 330.763L1166.2 331.221L1166.45 330.763L1166.91 330.512L1166.45 330.26L1166.2 329.803Z" fill="white"/>
<path d="M1200.33 345.675L1200.07 346.132L1199.62 346.384L1200.07 346.624L1200.33 347.081L1200.58 346.624L1201.03 346.384L1200.58 346.132L1200.33 345.675Z" fill="white"/>
<path d="M1273.51 346.373L1273.26 346.842L1272.8 347.082L1273.26 347.334L1273.51 347.791L1273.76 347.334L1274.22 347.082L1273.76 346.842L1273.51 346.373Z" fill="white"/>
<path d="M1308.16 351.474L1307.91 351.931L1307.45 352.183L1307.91 352.434L1308.16 352.892L1308.41 352.434L1308.87 352.183L1308.41 351.931L1308.16 351.474Z" fill="white"/>
<path d="M1282.54 361.857L1282.29 362.315L1281.83 362.566L1282.29 362.807L1282.54 363.275L1282.79 362.807L1283.25 362.566L1282.79 362.315L1282.54 361.857Z" fill="white"/>
<path d="M1228.1 352.183L1227.85 352.64L1227.39 352.892L1227.85 353.143L1228.1 353.601L1228.36 353.143L1228.81 352.892L1228.36 352.64L1228.1 352.183Z" fill="white"/>
<path d="M1217.48 361.147L1217.23 361.605L1216.77 361.856L1217.23 362.097L1217.48 362.565L1217.73 362.097L1218.19 361.856L1217.73 361.605L1217.48 361.147Z" fill="white"/>
<path d="M1047.73 352.892L1047.48 353.349L1047.02 353.601L1047.48 353.852L1047.73 354.31L1047.98 353.852L1048.44 353.601L1047.98 353.349L1047.73 352.892Z" fill="white"/>
<path d="M1135.2 346.373L1134.95 346.842L1134.49 347.082L1134.95 347.334L1135.2 347.791L1135.45 347.334L1135.91 347.082L1135.45 346.842L1135.2 346.373Z" fill="white"/>
<path d="M1054.94 321.123L1054.69 321.58L1054.24 321.821L1054.69 322.072L1054.94 322.53L1055.2 322.072L1055.65 321.821L1055.2 321.58L1054.94 321.123Z" fill="white"/>
<path d="M1001.93 361.147L1001.68 361.605L1001.22 361.856L1001.68 362.097L1001.93 362.565L1002.18 362.097L1002.64 361.856L1002.18 361.605L1001.93 361.147Z" fill="white"/>
<path d="M1017.36 377.397L1017.12 377.855L1016.66 378.095L1017.12 378.347L1017.36 378.815L1017.62 378.347L1018.07 378.095L1017.62 377.855L1017.36 377.397Z" fill="white"/>
<path d="M1054.24 353.601L1053.98 354.058L1053.53 354.31L1053.98 354.561L1054.24 355.019L1054.49 354.561L1054.95 354.31L1054.49 354.058L1054.24 353.601Z" fill="white"/>
<path d="M1079.73 354.31L1079.48 354.767L1079.02 355.019L1079.48 355.27L1079.73 355.728L1079.98 355.27L1080.44 355.019L1079.98 354.767L1079.73 354.31Z" fill="white"/>
<path d="M1075.3 303.718L1075.05 304.175L1074.59 304.427L1075.05 304.678L1075.3 305.136L1075.55 304.678L1076.01 304.427L1075.55 304.175L1075.3 303.718Z" fill="white"/>
<path d="M1286.01 303.01L1285.76 303.467L1285.3 303.719L1285.76 303.97L1286.01 304.428L1286.26 303.97L1286.72 303.719L1286.26 303.467L1286.01 303.01Z" fill="white"/>
<path d="M1239.68 278.721L1239.42 279.178L1238.97 279.43L1239.42 279.681L1239.68 280.139L1239.93 279.681L1240.38 279.43L1239.93 279.178L1239.68 278.721Z" fill="white"/>
<path d="M1218.19 269.606L1217.94 270.064L1217.48 270.315L1217.94 270.567L1218.19 271.024L1218.44 270.567L1218.9 270.315L1218.44 270.064L1218.19 269.606Z" fill="white"/>
<path d="M1259.4 252.842L1259.15 253.299L1258.69 253.551L1259.15 253.791L1259.4 254.26L1259.65 253.791L1260.11 253.551L1259.65 253.299L1259.4 252.842Z" fill="white"/>
<path d="M1195.6 310.511L1195.35 310.968L1194.89 311.22L1195.35 311.471L1195.6 311.929L1195.85 311.471L1196.31 311.22L1195.85 310.968L1195.6 310.511Z" fill="white"/>
<path d="M1270.3 306.052L1270.06 306.509L1269.6 306.761L1270.06 307.012L1270.3 307.47L1270.55 307.012L1271.01 306.761L1270.55 306.509L1270.3 306.052Z" fill="white"/>
<path d="M1094.23 229.102L1093.98 229.559L1093.52 229.811L1093.98 230.062L1094.23 230.52L1094.48 230.062L1094.94 229.811L1094.48 229.559L1094.23 229.102Z" fill="white"/>
<path d="M1001.22 232.853L1000.97 233.31L1000.51 233.562L1000.97 233.813L1001.22 234.271L1001.47 233.813L1001.93 233.562L1001.47 233.31L1001.22 232.853Z" fill="white"/>
<path d="M1025.78 288.063L1025.53 288.521L1025.07 288.772L1025.53 289.024L1025.78 289.481L1026.04 289.024L1026.49 288.772L1026.04 288.521L1025.78 288.063Z" fill="white"/>
<path d="M1061.18 214.281L1060.92 214.739L1060.47 214.99L1060.92 215.242L1061.18 215.699L1061.43 215.242L1061.88 214.99L1061.43 214.739L1061.18 214.281Z" fill="white"/>
<path d="M1007.29 268.897L1007.04 269.355L1006.59 269.606L1007.04 269.858L1007.29 270.315L1007.55 269.858L1008 269.606L1007.55 269.355L1007.29 268.897Z" fill="white"/>
<path d="M1269.6 262.311L1269.35 262.768L1268.89 263.02L1269.35 263.271L1269.6 263.729L1269.84 263.271L1270.3 263.02L1269.84 262.768L1269.6 262.311Z" fill="white"/>
<path d="M1201.03 327.219L1200.78 327.688L1200.32 327.928L1200.78 328.179L1201.03 328.637L1201.29 328.179L1201.74 327.928L1201.29 327.688L1201.03 327.219Z" fill="white"/>
<path d="M1118.98 333.085L1118.73 333.542L1118.27 333.794L1118.73 334.046L1118.98 334.503L1119.24 334.046L1119.69 333.794L1119.24 333.542L1118.98 333.085Z" fill="white"/>
<path d="M1102.22 306.761L1101.97 307.218L1101.51 307.47L1101.97 307.721L1102.22 308.179L1102.47 307.721L1102.93 307.47L1102.47 307.218L1102.22 306.761Z" fill="white"/>
<path d="M1095.93 339.409L1095.68 339.867L1095.22 340.118L1095.68 340.358L1095.93 340.816L1096.18 340.358L1096.64 340.118L1096.18 339.867L1095.93 339.409Z" fill="white"/>
<path d="M1011.83 361.857L1011.58 362.315L1011.12 362.566L1011.58 362.807L1011.83 363.275L1012.09 362.807L1012.54 362.566L1012.09 362.315L1011.83 361.857Z" fill="white"/>
<path d="M1143.3 231.022L1142.84 231.846L1142.03 232.292L1142.84 232.738L1143.3 233.561L1143.74 232.738L1144.56 232.292L1143.74 231.846L1143.3 231.022Z" fill="white"/>
<path d="M1117.11 269.046L1116.66 269.869L1115.84 270.315L1116.66 270.761L1117.11 271.585L1117.57 270.761L1118.38 270.315L1117.57 269.869L1117.11 269.046Z" fill="white"/>
<path d="M1102.87 163.53L1101.54 165.955L1099.12 167.281L1101.54 168.608L1102.87 171.021L1104.19 168.608L1106.61 167.281L1104.19 165.955L1102.87 163.53Z" fill="white"/>
<path d="M1062.62 174.52L1062.17 175.331L1061.35 175.789L1062.17 176.235L1062.62 177.047L1063.06 176.235L1063.89 175.789L1063.06 175.331L1062.62 174.52Z" fill="white"/>
<path d="M1045.04 161.552L1044.79 162.009L1044.33 162.261L1044.79 162.512L1045.04 162.97L1045.28 162.512L1045.74 162.261L1045.28 162.009L1045.04 161.552Z" fill="white"/>
<path d="M1074.9 177.607L1074.65 178.065L1074.18 178.316L1074.65 178.568L1074.9 179.025L1075.14 178.568L1075.6 178.316L1075.14 178.065L1074.9 177.607Z" fill="white"/>
<path d="M1083.49 162.821L1083.24 163.279L1082.78 163.53L1083.24 163.782L1083.49 164.239L1083.74 163.782L1084.2 163.53L1083.74 163.279L1083.49 162.821Z" fill="white"/>
<path d="M1096.59 178.876L1096.34 179.333L1095.89 179.585L1096.34 179.837L1096.59 180.294L1096.85 179.837L1097.3 179.585L1096.85 179.333L1096.59 178.876Z" fill="white"/>
<path d="M1062.08 139.035L1061.62 139.847L1060.81 140.305L1061.62 140.75L1062.08 141.574L1062.53 140.75L1063.34 140.305L1062.53 139.847L1062.08 139.035Z" fill="white"/>
<path d="M1035.89 177.047L1035.45 177.87L1034.63 178.316L1035.45 178.774L1035.89 179.586L1036.35 178.774L1037.16 178.316L1036.35 177.87L1035.89 177.047Z" fill="white"/>
<path d="M1151.36 199.586L1150.9 200.409L1150.09 200.855L1150.9 201.301L1151.36 202.125L1151.8 201.301L1152.63 200.855L1151.8 200.409L1151.36 199.586Z" fill="white"/>
<path d="M1133.77 186.618L1133.52 187.076L1133.06 187.327L1133.52 187.579L1133.77 188.036L1134.02 187.579L1134.48 187.327L1134.02 187.076L1133.77 186.618Z" fill="white"/>
<path d="M1163.63 202.686L1163.38 203.143L1162.92 203.395L1163.38 203.635L1163.63 204.104L1163.88 203.635L1164.34 203.395L1163.88 203.143L1163.63 202.686Z" fill="white"/>
<path d="M1150.81 164.102L1150.36 164.925L1149.54 165.371L1150.36 165.817L1150.81 166.64L1151.25 165.817L1152.08 165.371L1151.25 164.925L1150.81 164.102Z" fill="white"/>
<path d="M1124.63 202.125L1124.17 202.937L1123.36 203.394L1124.17 203.84L1124.63 204.652L1125.08 203.84L1125.9 203.394L1125.08 202.937L1124.63 202.125Z" fill="white"/>
<path d="M1202.4 224.002L1201.95 224.825L1201.12 225.271L1201.95 225.717L1202.4 226.541L1202.85 225.717L1203.66 225.271L1202.85 224.825L1202.4 224.002Z" fill="white"/>
<path d="M1184.82 211.033L1184.57 211.491L1184.11 211.742L1184.57 211.994L1184.82 212.451L1185.07 211.994L1185.53 211.742L1185.07 211.491L1184.82 211.033Z" fill="white"/>
<path d="M1214.68 227.101L1214.42 227.558L1213.97 227.81L1214.42 228.061L1214.68 228.519L1214.93 228.061L1215.38 227.81L1214.93 227.558L1214.68 227.101Z" fill="white"/>
<path d="M1201.86 188.517L1201.41 189.34L1200.59 189.786L1201.41 190.232L1201.86 191.055L1202.3 190.232L1203.13 189.786L1202.3 189.34L1201.86 188.517Z" fill="white"/>
<path d="M1175.68 226.54L1175.22 227.352L1174.41 227.809L1175.22 228.255L1175.68 229.079L1176.13 228.255L1176.95 227.809L1176.13 227.352L1175.68 226.54Z" fill="white"/>
<path d="M1061.18 233.001L1060.73 233.824L1059.91 234.27L1060.73 234.716L1061.18 235.54L1061.62 234.716L1062.45 234.27L1061.62 233.824L1061.18 233.001Z" fill="white"/>
<path d="M1006.58 254.957L1006.14 255.78L1005.31 256.226L1006.14 256.684L1006.58 257.496L1007.03 256.684L1007.85 256.226L1007.03 255.78L1006.58 254.957Z" fill="white"/>
<path d="M1045.75 301.74L1045.31 302.564L1044.48 303.01L1045.31 303.456L1045.75 304.279L1046.21 303.456L1047.02 303.01L1046.21 302.564L1045.75 301.74Z" fill="white"/>
<path d="M1160.05 318.848L1159.6 319.66L1158.78 320.117L1159.6 320.563L1160.05 321.386L1160.5 320.563L1161.32 320.117L1160.5 319.66L1160.05 318.848Z" fill="white"/>
<path d="M1234.46 241.761L1234.01 242.584L1233.19 243.03L1234.01 243.487L1234.46 244.299L1234.92 243.487L1235.73 243.03L1234.92 242.584L1234.46 241.761Z" fill="white"/>
<path d="M1196.87 273.334L1196.43 274.157L1195.6 274.603L1196.43 275.049L1196.87 275.873L1197.32 275.049L1198.14 274.603L1197.32 274.157L1196.87 273.334Z" fill="white"/>
<path d="M1180.97 309.951L1180.52 310.775L1179.7 311.221L1180.52 311.667L1180.97 312.49L1181.41 311.667L1182.23 311.221L1181.41 310.775L1180.97 309.951Z" fill="white"/>
<path d="M1170.91 298.595L1170.46 299.418L1169.65 299.864L1170.46 300.31L1170.91 301.133L1171.36 300.31L1172.18 299.864L1171.36 299.418L1170.91 298.595Z" fill="white"/>
<path d="M1244.29 330.512L1243.84 331.335L1243.02 331.781L1243.84 332.227L1244.29 333.05L1244.73 332.227L1245.55 331.781L1244.73 331.335L1244.29 330.512Z" fill="white"/>
<path d="M1089.95 267.776L1089.5 268.6L1088.68 269.046L1089.5 269.492L1089.95 270.315L1090.4 269.492L1091.22 269.046L1090.4 268.6L1089.95 267.776Z" fill="white"/>
<path d="M1137.83 292.26L1137.38 293.083L1136.56 293.529L1137.38 293.975L1137.83 294.798L1138.28 293.975L1139.1 293.529L1138.28 293.083L1137.83 292.26Z" fill="white"/>
</g>
<defs>
<linearGradient id="paint0_linear_2644_5014" x1="-295.5" y1="461" x2="1468.5" y2="104.837" gradientUnits="userSpaceOnUse">
<stop stop-color="#013572"/>
<stop offset="0.59375" stop-color="#01244F"/>
<stop offset="1" stop-color="#002551"/>
</linearGradient>
</defs>
</svg>
