<svg width="24" height="25" viewBox="0 0 24 25" fill="none" xmlns="http://www.w3.org/2000/svg">
<path d="M3.36035 11.9496C3.36035 11.1076 4.04298 10.4249 4.88505 10.4249C5.72713 10.4249 6.40976 11.1076 6.40976 11.9496C6.40976 12.7917 5.72713 13.4744 4.88505 13.4744C4.04298 13.4744 3.36035 12.7917 3.36035 11.9496Z" stroke="#183F6E" stroke-width="1.44" stroke-linecap="round"/>
<path d="M10.4751 11.9496C10.4751 11.1076 11.1578 10.4249 11.9999 10.4249C12.8419 10.4249 13.5245 11.1076 13.5245 11.9496C13.5245 12.7917 12.8419 13.4744 11.9999 13.4744C11.1578 13.4744 10.4751 12.7917 10.4751 11.9496Z" stroke="#183F6E" stroke-width="1.44" stroke-linecap="round"/>
<path d="M17.5903 11.9496C17.5903 11.1076 18.273 10.4249 19.1151 10.4249C19.9571 10.4249 20.6398 11.1076 20.6398 11.9496C20.6398 12.7917 19.9571 13.4744 19.1151 13.4744C18.273 13.4744 17.5903 12.7917 17.5903 11.9496Z" stroke="#183F6E" stroke-width="1.44" stroke-linecap="round"/>
<path d="M13.5244 11.95H17.5903" stroke="#183F6E" stroke-width="1.44" stroke-linecap="round"/>
<path d="M6.40967 11.95H10.4756" stroke="#183F6E" stroke-width="1.44" stroke-linecap="round"/>
<path d="M12.438 18.4871C12.438 17.9569 12.8678 17.5271 13.398 17.5271H17.718C18.2481 17.5271 18.678 17.9569 18.678 18.4871V19.6391C18.678 20.1692 18.2481 20.5991 17.718 20.5991H13.398C12.8678 20.5991 12.438 20.1692 12.438 19.6391V18.4871Z" stroke="#183F6E" stroke-width="1.44" stroke-linecap="round"/>
<path d="M15.5576 11.9496V13.4744" stroke="#183F6E" stroke-width="1.44" stroke-linecap="round"/>
<path d="M15.5576 15.6072V17.5272" stroke="#183F6E" stroke-width="1.44" stroke-linecap="round"/>
<path d="M8.44238 10.4252V11.9499" stroke="#183F6E" stroke-width="1.44" stroke-linecap="round"/>
<path d="M5.32227 5.5119C5.32227 6.0421 5.75207 6.4719 6.28227 6.4719H10.6022C11.1324 6.4719 11.5622 6.0421 11.5622 5.5119V4.3599C11.5622 3.82971 11.1324 3.3999 10.6022 3.3999H6.28227C5.75207 3.3999 5.32227 3.82971 5.32227 4.3599V5.5119Z" stroke="#183F6E" stroke-width="1.44" stroke-linecap="round"/>
<path d="M8.44238 8.39217V6.47217" stroke="#183F6E" stroke-width="1.44" stroke-linecap="round"/>
</svg>
