<svg width="24" height="25" viewBox="0 0 24 25" fill="none" xmlns="http://www.w3.org/2000/svg">
<path fill-rule="evenodd" clip-rule="evenodd" d="M11.324 13.4738C14.923 17.0719 15.993 12.6553 18.2846 14.9451C20.4944 17.1538 21.7641 17.5965 18.9656 20.3949C18.6143 20.6766 16.3867 24.0674 8.55757 16.2402C0.728438 8.41297 4.11553 6.18254 4.39716 5.83215C7.20311 3.0262 7.63827 4.30343 9.84798 6.51126C12.1387 8.80292 7.72492 9.87576 11.324 13.4738Z" stroke="#183F6E" stroke-width="1.5" stroke-linecap="round" stroke-linejoin="round"/>
<path d="M16.0801 9.89844V9.94177" stroke="#183F6E" stroke-width="1.5" stroke-linecap="round" stroke-linejoin="round"/>
<path d="M16.0788 7.80161C16.0703 7.13663 16.675 6.855 17.1243 6.5988C17.6725 6.29645 18.0446 5.81513 18.0446 5.14732C18.0446 4.15832 17.244 3.36523 16.2615 3.36523C15.2725 3.36523 14.4785 4.15832 14.4785 5.14732" stroke="#183F6E" stroke-width="1.5" stroke-linecap="round" stroke-linejoin="round"/>
</svg>
