<svg width="574" height="542" viewBox="0 0 574 542" fill="none" xmlns="http://www.w3.org/2000/svg">
<path d="M514.752 313.695C530.398 284.677 531.816 245.355 509.328 221.234C490.813 201.384 461.515 196.421 434.41 195.168C407.305 193.915 378.996 195.003 354.447 183.446C315.207 164.964 295.901 119.294 259.563 95.6017C232.821 78.1583 197.455 74.5311 167.91 86.5997C138.365 98.6849 115.58 126.317 109.826 157.709C104.072 189.117 115.761 223.246 139.866 244.168C156.27 258.413 177.423 266.475 193.416 281.182C223.373 308.732 230.595 354.929 261.014 381.968C328.018 441.52 476.287 384.92 514.719 313.678L514.752 313.695Z" fill="#FAFAFA"/>
<path d="M49.4141 209.166C58.1853 209.858 68.3084 171.839 72.0345 124.273C75.7606 76.7073 71.6553 37.5831 62.8841 36.8906" stroke="#0DA74B" stroke-miterlimit="10"/>
<path d="M405.871 504.816L441.697 491.428C439.538 486.845 437.064 483.432 437.064 483.432L399.605 492.73C403.546 503.513 405.871 504.832 405.871 504.832V504.816Z" fill="#EBEBEB"/>
<path d="M437.066 483.43C436.703 485.689 419.16 496.801 404.355 494.13C402.723 493.834 401.123 493.372 399.607 492.729C398.898 490.767 398.024 488.146 396.936 484.947C395.93 481.963 394.776 478.451 393.424 474.478C391.973 470.158 390.308 465.261 388.395 459.87C385.147 450.621 378.107 441.058 373.441 429.154L392.138 411.414C397.183 432.501 399.903 439.723 405.163 448.659C410.703 458.073 424.024 469.119 432.565 478.022C434.757 480.314 436.406 482.21 437.066 483.43Z" fill="#0DA74B"/>
<path d="M405.163 448.643C399.112 451.248 393.177 455.436 388.395 459.854C385.147 450.605 378.107 441.042 373.441 429.139L392.138 411.398C397.183 432.486 399.903 439.707 405.163 448.643Z" fill="#A86751"/>
<path d="M396.97 485.096C395.931 482.03 394.744 478.419 393.359 474.33C396.327 476.028 399.278 481.172 396.97 485.096Z" fill="#EBEBEB"/>
<path d="M437.066 483.431C435.731 488.789 418.502 499.44 404.355 494.131C411.659 481.156 428.839 473.011 437.066 483.431Z" fill="#EBEBEB"/>
<path d="M412.418 443.334C411.445 442.394 410.011 442.394 408.758 443.12C406.038 444.686 404.669 448.907 404.109 451.858C403.548 454.792 403.647 457.678 404.372 460.365C402.971 458.931 401.322 457.793 399.443 457.051C396.722 455.98 393.375 455.534 390.375 456.491C387.671 457.348 384.885 460.398 385.94 463.498C386.995 466.581 390.935 466.944 393.656 467.009C396.838 467.075 400.531 466.416 403.631 464.734C401.817 466.119 400.135 467.718 398.585 469.45C398.338 469.73 398.668 470.06 398.932 469.812C400.811 468.048 402.839 466.515 404.949 465.13C405.988 464.454 407.06 463.811 408.148 463.25C409.187 462.723 410.423 462.36 411.38 461.668C411.841 461.338 411.709 460.481 411.132 460.563C410.176 460.695 409.17 461.272 408.247 461.783C411.891 457.925 414.083 452.023 413.704 446.961C413.605 445.642 413.276 444.191 412.369 443.334H412.418ZM396.195 465.476C393.606 465.756 390.144 465.855 388.083 464.174C387.061 463.333 386.715 461.964 387.358 460.546C388.034 459.063 389.419 458.189 390.82 457.793C393.458 457.051 396.327 457.48 398.717 458.37C401.059 459.244 403.119 460.744 404.785 462.657C404.768 462.657 404.752 462.657 404.735 462.657C401.883 463.943 399.212 465.13 396.195 465.46V465.476ZM412.501 447.802C412.501 450.407 411.907 453.094 410.819 455.551C409.714 458.024 408.099 460.2 406.268 462.129C406.268 462.08 406.268 462.047 406.252 461.997C405.279 459.475 404.949 456.59 405.23 453.737C405.494 451.05 406.367 447.934 408 445.675C408.84 444.504 410.423 443.433 411.544 444.471C412.352 445.246 412.517 446.631 412.517 447.802H412.501Z" fill="#EBEBEB"/>
<path d="M412.288 464.982C407.787 466.961 403.78 470.67 400.911 474.973C400.681 475.32 401.175 475.699 401.422 475.369C402.906 473.374 404.621 471.544 406.484 469.961C408.38 468.362 410.392 467.159 412.535 466.054C412.733 465.955 412.964 465.724 412.947 465.46C412.947 465.361 412.947 465.279 412.881 465.18C412.782 464.982 412.518 464.867 412.288 464.966V464.982Z" fill="#EBEBEB"/>
<path d="M416.458 469.532C411.776 471.015 407.209 473.851 403.318 477.215C402.856 477.61 403.236 478.385 403.73 478.006C405.709 476.456 407.803 475.055 409.962 473.835C412.172 472.582 414.43 471.642 416.739 470.719C417.464 470.422 417.217 469.284 416.475 469.515L416.458 469.532Z" fill="#EBEBEB"/>
<path d="M419.953 473.686C419.953 473.686 419.854 473.62 419.821 473.588C419.656 473.472 419.442 473.538 419.277 473.637C418.139 474.263 416.936 474.742 415.798 475.385C414.66 476.028 413.556 476.72 412.451 477.462C410.308 478.929 408.296 480.595 406.417 482.458C406.054 482.82 406.516 483.48 406.895 483.134C408.824 481.435 410.852 479.836 412.962 478.418C413.984 477.742 415.023 477.099 416.078 476.506C417.232 475.863 418.436 475.137 419.656 474.692C419.854 474.626 420.002 474.445 420.068 474.231C420.068 474.181 420.101 474.132 420.118 474.082C420.167 473.901 420.085 473.769 419.969 473.686H419.953Z" fill="#EBEBEB"/>
<path d="M444.731 403.534C444.006 397.516 429.184 369.356 429.184 369.356L452.678 352.489L469.297 409.716L444.731 403.534Z" fill="#A86751"/>
<path d="M441.582 441.093L441.78 450.194L524.645 437.021L521.759 430.129L441.582 441.093Z" fill="#EBEBEB"/>
<path d="M442.67 401.688C443.313 411.828 442.472 437.35 441.582 441.109C441.582 441.109 466.84 438.949 489.708 435.965C502.997 434.218 514.307 432.569 520.589 430.508C512.658 429.255 505.19 427.145 497.276 424.803C476.881 418.786 468.967 413.46 468.489 397.583L442.687 401.688H442.67Z" fill="#0DA74B"/>
<path d="M453.833 402.957C455.499 405.612 458.466 407.59 461.203 409.008C462.572 409.717 464.022 410.278 465.506 410.706C466.677 411.053 468.012 411.415 469.282 411.465C468.639 411.861 468.012 412.273 467.402 412.701C466.413 413.394 465.44 414.136 464.517 414.911C464.022 415.323 463.198 416.213 464.006 416.79C464.665 417.268 465.341 416.609 465.836 416.197C467.666 414.614 469.645 413.18 471.738 411.943C472.134 411.712 472.365 411.3 472.167 410.855C472.151 410.805 472.101 410.756 472.068 410.723C472.068 410.69 472.068 410.673 472.068 410.64C474.805 409.124 477.394 407.294 479.619 405.084C480.708 404.013 481.713 402.859 482.653 401.638C483.527 400.501 484.401 399.149 484.384 397.682C484.384 395.011 481.499 393.758 479.207 394.549C477.806 395.044 476.701 396.148 475.811 397.286C474.822 398.539 473.931 399.891 473.123 401.259C472.332 402.628 471.623 404.046 471.013 405.513C470.7 406.288 470.419 407.063 470.189 407.854C470.123 408.068 470.09 408.299 470.057 408.53C468.375 405.876 466.43 403.419 464.22 401.177C463.033 399.973 461.797 398.77 460.445 397.764C459.225 396.857 457.79 396.231 456.24 396.396C454.839 396.56 453.603 397.467 453.19 398.836C452.762 400.254 453.124 401.721 453.899 402.957H453.833ZM470.931 409.173C471.095 408.794 471.26 408.431 471.392 408.052C471.673 407.327 471.936 406.585 472.233 405.859C472.81 404.458 473.47 403.106 474.228 401.787C474.888 400.649 475.596 399.561 476.404 398.522C477.212 397.484 478.119 396.428 479.356 395.901C480.312 395.489 481.581 395.489 482.389 396.214C483.461 397.154 482.851 398.654 482.191 399.644C480.773 401.787 478.746 403.633 476.784 405.266C474.97 406.766 473.008 408.068 470.931 409.173ZM454.559 398.654C455.35 397.335 457.18 397.484 458.384 398.061C459.67 398.687 460.758 399.726 461.797 400.682C462.918 401.721 463.989 402.826 464.995 403.963C466.578 405.76 467.996 407.689 469.298 409.684C468.144 409.486 466.957 409.42 465.82 409.124C464.402 408.761 463.033 408.233 461.714 407.59C459.307 406.42 456.801 404.689 455.185 402.529C454.361 401.441 453.8 399.891 454.559 398.621V398.654Z" fill="#EBEBEB"/>
<path d="M467.448 420.252C467.762 419.939 468.141 419.658 468.471 419.362C469.146 418.801 469.806 418.224 470.482 417.663C471.834 416.509 473.219 415.388 474.604 414.267C475.247 413.739 476.022 414.712 475.412 415.273C474.109 416.46 472.823 417.647 471.504 418.801C470.861 419.362 470.235 419.922 469.592 420.483C469.015 420.994 468.24 421.983 467.382 421.802C467.184 421.752 466.97 421.62 466.937 421.39C466.888 420.878 467.086 420.598 467.432 420.252H467.448Z" fill="#EBEBEB"/>
<path d="M470.811 426.798C472.08 425.33 473.399 423.912 474.702 422.478C476.152 420.895 477.62 419.247 479.269 417.878C479.664 417.548 480.159 418.076 479.895 418.472C478.856 420.087 477.57 421.555 476.35 423.039C475.147 424.489 473.91 425.94 472.641 427.358C472.146 427.902 471.404 429.073 470.53 428.776C469.574 428.463 470.464 427.21 470.827 426.798H470.811Z" fill="#EBEBEB"/>
<path d="M479.945 428.447C480.802 427.277 481.66 426.106 482.517 424.935C483.473 423.633 484.446 422.347 485.435 421.061C485.848 420.517 486.622 421.11 486.276 421.671C484.792 424.144 483.243 426.551 481.693 428.975C481.314 429.568 480.918 430.459 480.06 430.31C479.714 430.244 479.533 429.964 479.483 429.634C479.401 429.156 479.681 428.793 479.945 428.447Z" fill="#EBEBEB"/>
<path d="M489.707 435.965C502.353 436.674 515.839 433.854 521.758 430.128C513.811 428.892 505.189 427.144 497.275 424.803C494.62 427.144 492.427 429.963 490.894 433.129C490.449 434.036 490.053 434.992 489.724 435.965H489.707Z" fill="#EBEBEB"/>
<path d="M455.084 426.436C453.221 427.623 450.682 427.607 448.802 426.452C443.971 423.501 445.257 415.571 451.308 415.703C456.732 415.818 460.31 423.106 455.084 426.436Z" fill="#EBEBEB"/>
<path d="M304.493 310.414C304.493 310.414 393.87 318.212 396.558 321.048C399.262 323.9 433.769 393.823 433.769 393.823C459.292 398.109 472.119 382.793 472.119 382.793C472.119 382.793 443.266 312.953 433.209 292.179C433.209 292.146 433.176 292.113 433.159 292.08C432.665 291.041 432.022 290.019 431.296 289.046C429.598 286.788 427.339 284.71 424.603 282.814C423.415 281.973 422.113 281.182 420.744 280.391C399.872 268.553 359.692 263.227 327.179 255.891L304.477 310.414H304.493Z" fill="#263238"/>
<path d="M316.525 296.35C340.283 298.526 364.074 300.57 387.651 304.214C392.613 304.972 397.642 305.962 401.698 309.127C405.77 312.293 408.276 317.107 410.865 321.443C416.652 331.121 422.175 340.981 427.434 350.939C432.661 360.831 437.327 370.938 441.861 381.143C442.306 381.127 442.751 381.111 443.18 381.078C445.636 380.913 448.06 380.599 450.484 380.171C455.397 379.28 460.244 377.797 464.877 375.966C465.734 375.62 466.229 376.972 465.372 377.318C460.739 379.198 455.974 380.599 451.11 381.671C448.703 382.199 446.279 382.644 443.856 383.007C443.493 383.056 443.114 383.089 442.751 383.138C443.097 383.913 443.444 384.705 443.79 385.48C444.004 385.974 443.213 386.255 442.998 385.776C442.619 384.936 442.207 384.095 441.811 383.254C441.201 383.336 440.575 383.419 439.965 383.485C438.761 383.6 437.409 383.996 436.222 383.732C435.101 383.485 434.705 381.671 436.008 381.325C437.228 380.995 438.514 381.275 439.767 381.226C440.13 381.226 440.492 381.193 440.839 381.176C436.832 372.735 432.529 364.409 428.193 356.149C423.032 346.289 417.707 336.43 411.788 326.999C409.035 322.597 406.463 317.898 403.165 313.876C399.637 309.589 395.021 307.528 389.646 306.473C384.188 305.401 378.55 305.203 373.027 304.593C367.24 303.934 361.436 303.291 355.649 302.532C342.542 300.834 329.385 299.317 316.245 297.867C315.239 297.751 315.503 296.234 316.508 296.317L316.525 296.35Z" fill="#38474F"/>
<path d="M400.645 435.139C396.573 441.899 374.76 451.231 374.76 451.231C374.76 451.231 341.341 388.448 339.544 385.365C337.73 382.265 282.102 331.056 243.621 288.799L284.724 244.02C284.724 244.02 350.772 318.558 372.897 355.605C379.064 365.943 400.645 435.139 400.645 435.139Z" fill="#263238"/>
<path d="M412.715 298.988C419.821 297.669 426.729 295.328 433.175 292.08C432.681 291.042 432.038 290.019 431.312 289.047C429.614 286.788 427.355 284.71 424.619 282.814C421.024 288.47 417.034 293.861 412.715 298.988Z" fill="#38474F"/>
<path d="M347.242 371.449C351.644 374.45 357.613 374.961 362.46 372.768C367.307 370.575 370.868 365.745 371.528 360.469C363.466 363.799 355.304 368.119 347.242 371.449Z" fill="#38474F"/>
<path d="M298.111 248.405C298.111 248.405 318.572 253.813 348.282 261.199L302.678 325.862C285.4 328.269 243.621 288.799 243.621 288.799L298.111 248.405Z" fill="#263238"/>
<path d="M302.629 256.022C304.624 255.857 306.685 256.022 308.68 256.055C310.625 256.088 312.571 256.105 314.5 256.138C318.457 256.187 322.43 256.237 326.387 256.303C327.673 256.319 327.871 258.314 326.568 258.314L314.467 258.248L308.416 258.215C306.47 258.215 304.492 258.314 302.563 258.133C301.376 258.017 301.475 256.154 302.645 256.055L302.629 256.022Z" fill="#38474F"/>
<path d="M273.757 282.204C280.534 292.475 282.809 305.78 279.396 317.668C296.526 330.775 313.722 343.932 328.495 359.71C335.815 367.525 342.476 375.983 348.082 385.1C353.572 394.053 357.892 403.648 362.492 413.079C366.399 421.075 370.521 429.006 375.78 436.161C376.044 436.062 376.324 435.963 376.588 435.848C378.616 435.007 380.595 434.1 382.573 433.144C386.431 431.248 390.157 429.072 393.735 426.681C395.301 425.626 397.016 428.017 395.45 429.072C391.773 431.561 387.931 433.82 383.958 435.815C381.996 436.804 380.018 437.711 377.99 438.552C377.907 438.585 377.808 438.634 377.726 438.667C378.863 440.085 380.018 441.487 381.271 442.839C382.425 444.092 380.265 445.608 379.111 444.372C377.709 442.872 376.407 441.322 375.154 439.739C374 440.201 372.846 440.613 371.659 440.91C369.828 441.371 368.856 438.898 370.636 438.123C371.461 437.761 372.302 437.447 373.159 437.134C362.739 422.906 356.836 405.874 348.148 390.558C337.48 371.762 322.329 356.215 306.221 342.019C297.351 334.204 288.101 326.818 278.802 319.498C278.737 319.679 278.687 319.877 278.621 320.058C277.929 321.971 275.109 320.652 275.769 318.772C279.825 306.984 278.819 293.959 272.323 283.209C271.729 282.237 273.131 281.214 273.774 282.171L273.757 282.204Z" fill="#38474F"/>
<path d="M285.828 269.871C290.131 272.625 294.434 275.378 298.754 278.098C300.914 279.467 303.09 280.819 305.25 282.171C306.338 282.847 307.409 283.523 308.498 284.215C309.602 284.908 310.773 285.847 312.059 286.194C312.669 286.358 312.982 286.325 313.51 286.078C313.576 286.029 313.592 285.963 313.642 285.897C313.576 285.897 313.493 285.847 313.411 285.715C312.389 284.957 311.202 284.364 310.13 283.688C307.954 282.319 305.81 280.918 303.65 279.533C299.248 276.713 294.929 273.746 290.609 270.811C289.142 269.822 290.724 267.217 292.258 268.14C297.666 271.454 303.073 274.784 308.399 278.23C309.833 279.154 311.268 280.077 312.702 281.017C313.872 281.792 315.439 282.517 316.428 283.506C318.126 285.221 316.923 287.892 315.126 288.947C312.85 290.282 310.394 289.046 308.415 287.76C305.761 286.029 303.139 284.232 300.518 282.451C295.143 278.84 289.735 275.263 284.311 271.701C282.992 270.844 284.542 268.981 285.844 269.805L285.828 269.871Z" fill="#38474F"/>
<path d="M95.45 137.296L96.2249 137.989C98.4013 139.967 101.765 139.786 103.743 137.61C105.722 135.433 105.54 132.07 103.364 130.091L102.589 129.399C100.413 127.42 97.0493 127.602 95.0708 129.778C93.0924 131.954 93.2737 135.318 95.45 137.296Z" fill="#263238"/>
<path d="M82.3906 129.646C91.2113 136.802 95.498 172.233 113.486 189.281C114.491 190.237 115.579 191.028 116.701 191.671C126.395 197.162 139.486 191.078 140.904 179.174L127.862 164.072L98.4986 130.075L82.3906 129.646Z" fill="#A86751"/>
<path d="M98.5028 130.075L101.075 139.391C84.3403 145.326 73.9368 136.637 67.0781 134.774L78.5532 117.149L98.5028 130.092V130.075Z" fill="#A86751"/>
<path d="M71.8383 124.898C72.1681 125.162 72.4484 125.492 72.6627 125.871C72.7122 125.97 72.7616 126.085 72.8111 126.184C73.2892 127.289 73.1243 128.559 72.4319 129.482C72.1681 129.845 71.8383 130.158 71.4426 130.389L68.9366 131.889L65.3918 133.999C64.8807 134.296 64.3367 134.444 63.7926 134.461C63.0177 134.477 62.2757 134.23 61.6657 133.735C61.336 133.472 61.0722 133.142 60.8578 132.746C60.0829 131.328 60.4786 129.581 61.7317 128.624C61.7317 128.624 61.8801 128.526 61.946 128.476L67.8814 124.651C67.8814 124.651 67.9968 124.585 68.0628 124.552C69.2993 123.86 70.7996 124.025 71.8383 124.882V124.898Z" fill="#A86751"/>
<path d="M51.1833 113.934C51.1008 112.302 52.4528 110.95 54.085 111.016L68.2146 111.659L81.4868 117.265L77.7607 128.806L63.6641 118.089L53.5409 116.556C52.222 116.358 51.2327 115.27 51.1833 113.934Z" fill="#A86751"/>
<path d="M81.4884 117.265L78.768 116.111L67.8864 116.721L65.7266 119.64L78.4052 128.905L81.4884 117.265Z" fill="#263238"/>
<path d="M62.92 138.814C63.4806 139.819 64.5687 140.495 65.8217 140.495L72.8783 140.38C74.6919 140.347 76.1757 138.88 76.1922 137.066C76.1922 136.538 76.0768 136.044 75.879 135.599C75.846 135.516 75.7965 135.434 75.7635 135.368C75.7306 135.302 75.6976 135.236 75.6481 135.186C75.0216 134.214 73.9005 133.587 72.6639 133.653L65.6239 133.983C64.6182 134.049 63.7279 134.543 63.1673 135.302C63.0849 135.417 63.0189 135.533 62.9365 135.648C62.6727 136.077 62.5243 136.588 62.5078 137.116C62.5078 137.726 62.6397 138.303 62.92 138.797V138.814Z" fill="#A86751"/>
<path d="M63.1523 135.318C63.581 135.763 64.1581 136.077 64.834 136.209L71.7587 137.577C73.4898 137.923 75.7321 137.049 75.9959 134.692C75.3694 133.719 73.902 133.587 72.6655 133.653L65.6254 133.983C64.6197 134.049 63.7294 134.543 63.1688 135.302L63.1523 135.318Z" fill="#263238"/>
<path d="M65.8569 132.268C66.2361 133.092 66.978 133.768 67.9178 134.032L72.6166 135.252C74.3643 135.747 76.1943 134.757 76.7384 133.026C76.9692 132.251 76.9363 131.493 76.656 130.8C76.656 130.735 76.6065 130.652 76.5736 130.603C76.1614 129.696 75.37 129.003 74.3313 128.74L69.5665 127.717C68.7586 127.52 67.9178 127.651 67.2418 128.031C66.5328 128.41 65.9723 129.053 65.7085 129.877C65.4447 130.702 65.5106 131.526 65.8569 132.268Z" fill="#263238"/>
<path d="M75.2347 131.229C75.2347 131.229 75.3007 131.361 75.3336 131.427C75.3666 131.509 75.3996 131.592 75.4326 131.674C75.6634 132.284 75.7293 132.96 75.5809 133.636C75.1853 135.4 73.4376 136.538 71.6405 136.175L64.7159 134.823C64.3861 134.757 64.0729 134.642 63.7761 134.477C63.232 134.18 62.8033 133.735 62.5066 133.224C62.1109 132.515 61.979 131.691 62.1768 130.85C62.2922 130.372 62.5066 129.959 62.7869 129.597C63.0012 129.316 63.2815 129.086 63.5782 128.904C64.2212 128.475 65.0456 128.278 65.87 128.41L72.4154 129.481L72.8441 129.547C73.8992 129.729 74.7401 130.355 75.2182 131.229H75.2347Z" fill="#A86751"/>
<path d="M72.3868 129.448L72.8155 129.514C73.8707 129.696 74.7115 130.322 75.1897 131.196C75.2226 131.262 75.2556 131.328 75.2886 131.394C75.3216 131.476 75.3545 131.559 75.3875 131.641C74.5302 132.845 72.9474 133.356 71.513 132.828L68.8916 131.872L63.2199 129.778C63.0551 129.729 62.9067 129.646 62.7748 129.564C62.3296 129.333 61.9834 129.003 61.7031 128.608C61.7031 128.608 61.8515 128.509 61.9175 128.459L67.8529 124.634C67.8529 124.634 67.9683 124.568 68.0342 124.535L72.7661 126.151C73.2442 127.256 73.0793 128.525 72.3868 129.448Z" fill="#263238"/>
<path d="M72.8121 120.051C73.2572 120.413 73.62 120.908 73.8343 121.485C74.4773 123.2 73.62 125.096 71.9383 125.788L69.8279 126.646L65.3928 128.426C64.7333 128.69 64.0244 128.723 63.3814 128.558C62.9197 128.459 62.4911 128.228 62.1119 127.932C61.6667 127.569 61.304 127.074 61.1062 126.481C60.5456 124.882 61.304 123.117 62.8373 122.425L64.9312 121.502L67.1405 120.512L69.2838 119.556C70.4874 119.012 71.8393 119.243 72.7791 120.018L72.8121 120.051Z" fill="#A86751"/>
<path d="M66.1724 126.828C66.4197 127.701 67.0462 128.476 67.9366 128.888L72.4046 130.817C74.0533 131.576 76.0153 130.867 76.8067 129.251C77.1529 128.526 77.2354 127.767 77.0705 127.042C77.0705 126.976 77.0375 126.894 77.021 126.828C76.7407 125.871 76.0648 125.047 75.092 124.635L70.5415 122.904C69.7666 122.59 68.9258 122.59 68.2004 122.854C67.4419 123.118 66.7825 123.679 66.4032 124.437C66.0076 125.195 65.9581 126.036 66.1724 126.811V126.828Z" fill="#263238"/>
<path d="M62.6913 127.207C63.0045 128.064 63.697 128.789 64.6203 129.119L71.2646 131.526C72.9793 132.153 74.8753 131.295 75.5348 129.63C75.8151 128.888 75.8481 128.113 75.6173 127.404C75.6173 127.338 75.5843 127.256 75.5513 127.19C75.2051 126.25 74.4632 125.492 73.4574 125.162L66.7471 122.953C65.9557 122.689 65.1149 122.755 64.4059 123.085C63.664 123.398 63.054 124.008 62.7242 124.799C62.3945 125.591 62.3945 126.432 62.6913 127.19V127.207Z" fill="#A86751"/>
<path d="M94.3695 131.279L79.9102 120.479L68.9297 121.337L72.0623 127.157L76.4314 128.113C76.4314 128.113 81.5094 141.962 94.353 131.279H94.3695Z" fill="#263238"/>
<path d="M68.9442 121.337L65.5972 126.778C64.8718 127.965 65.218 129.515 66.3886 130.257C67.4273 130.916 68.7958 130.735 69.6201 129.828L72.0767 127.157L68.9442 121.337Z" fill="#263238"/>
<path d="M98.505 130.075L81.4902 117.265L68.5312 118.237L72.2079 125.113L77.3684 126.267C77.3684 126.267 83.3038 142.638 98.505 130.075Z" fill="#A86751"/>
<path d="M67.1606 120.529L70.8208 125.08L69.848 126.646L68.562 128.707C68.4961 128.822 68.4137 128.921 68.3477 129.02C67.5233 130.026 66.1384 130.405 64.9019 129.894C64.2424 129.63 63.7313 129.152 63.418 128.575C62.9894 127.817 62.8904 126.893 63.2367 126.036L64.9678 121.535L67.1771 120.546L67.1606 120.529Z" fill="#263238"/>
<path d="M68.5299 118.237L64.5565 124.651C63.6992 126.036 64.1113 127.866 65.4798 128.756C66.6998 129.548 68.3156 129.333 69.3048 128.262L72.2066 125.112L68.5299 118.237Z" fill="#A86751"/>
<path d="M98.8821 129.729L88.2148 142.21L90.589 147.124L103.334 134.23L98.8821 129.729Z" fill="#263238"/>
<path d="M216.352 192.315C216.352 192.315 168.77 192.694 139.423 183.956L134.477 217.326L221.463 239.073L216.336 192.315H216.352Z" fill="#263238"/>
<path d="M134.49 217.342C107.319 200.113 89.8594 157.411 89.8594 157.411L104.566 136.818L160.672 198.744L134.49 217.325V217.342Z" fill="#263238"/>
<mask id="mask0_1621_9093" style="mask-type:luminance" maskUnits="userSpaceOnUse" x="89" y="136" width="133" height="104">
<path d="M104.549 136.819L149.56 186.495C178.544 192.612 216.349 192.315 216.349 192.315L221.477 239.073L134.49 217.326C107.319 200.097 89.8594 157.395 89.8594 157.395L104.566 136.803L104.549 136.819Z" fill="white"/>
</mask>
<g mask="url(#mask0_1621_9093)">
<path d="M154.624 235.099C155.514 230.302 156.965 225.57 158.053 220.805C159.191 215.908 160.246 210.995 161.235 206.065C163.181 196.338 164.862 186.544 166.313 176.735C166.527 175.251 168.803 175.498 168.638 176.998C167.517 186.973 166.066 196.898 164.302 206.774C163.444 211.589 162.505 216.386 161.499 221.184C160.477 226.097 159.603 231.159 158.103 235.94C157.493 237.869 154.261 237.094 154.64 235.083L154.624 235.099Z" fill="#38474F"/>
<path d="M138.777 227.202C139.255 222.685 140.476 218.233 141.613 213.831C142.8 209.231 144.119 204.648 145.587 200.13C148.488 191.178 151.918 182.407 155.924 173.899C156.617 172.432 158.958 173.306 158.298 174.823C154.605 183.346 151.341 192.052 148.62 200.938C147.268 205.357 146.048 209.808 144.977 214.309C143.888 218.843 143.13 223.476 141.91 227.977C141.415 229.791 138.596 228.983 138.794 227.202H138.777Z" fill="#38474F"/>
<path d="M112.033 216.007C112.577 213.929 114.457 211.984 115.677 210.253C117.045 208.307 118.43 206.362 119.815 204.433C122.618 200.575 125.47 196.766 128.389 192.991C134.225 185.456 140.309 178.136 146.64 170.997C147.827 169.661 150.053 171.293 148.866 172.662C142.65 179.883 136.649 187.27 130.862 194.837C128.042 198.53 125.273 202.256 122.569 206.032C121.184 207.961 119.815 209.923 118.447 211.868C117.161 213.715 115.99 216.254 114.177 217.606C112.99 218.48 111.687 217.276 112.017 215.99L112.033 216.007Z" fill="#38474F"/>
<path d="M99.1944 199.685C105.229 193.205 111.923 187.369 118.649 181.615C125.459 175.795 132.416 170.206 139.638 164.897C140.94 163.941 142.44 165.853 141.187 166.892C134.362 172.497 127.602 178.185 120.991 184.038C114.379 189.891 108.098 196.091 101.47 201.927C100.118 203.114 97.9249 201.02 99.1779 199.668L99.1944 199.685Z" fill="#38474F"/>
<path d="M85.7882 192.661C86.662 190.518 88.7394 189.001 90.3881 187.451C92.1852 185.736 93.9659 184.005 95.73 182.274C99.2253 178.828 102.655 175.316 106.018 171.755C112.745 164.616 119.241 157.23 125.489 149.662C126.924 147.931 129.71 149.992 128.292 151.756C122.126 159.538 115.663 167.073 108.92 174.36C105.672 177.872 102.358 181.334 98.9945 184.747C97.2468 186.511 95.4827 188.275 93.7185 190.007C92.0204 191.672 90.2233 193.947 87.9315 194.738C86.6785 195.167 85.2441 194.029 85.8047 192.661H85.7882Z" fill="#38474F"/>
<path d="M80.8745 177.262C82.2264 175.383 84.04 173.833 85.6393 172.168C87.1726 170.568 88.6894 168.952 90.1733 167.32C93.2399 163.973 96.2406 160.544 99.1423 157.065C104.962 150.091 110.436 142.837 115.58 135.352C116.817 133.571 119.471 135.582 118.268 137.363C113.124 144.997 107.633 152.383 101.83 159.522C98.961 163.05 96.0263 166.496 92.9926 169.892C91.4428 171.623 89.8765 173.338 88.2773 175.053C86.7439 176.685 85.2601 178.499 83.4465 179.834C81.7813 181.071 79.6215 178.977 80.858 177.279L80.8745 177.262Z" fill="#38474F"/>
</g>
<path d="M279.203 140.116L302.516 101.981L322.136 130.043L293.662 174.855L279.203 140.116Z" fill="#263238"/>
<path d="M302.516 101.981L316.761 58.4551L341.129 70.5732C341.129 70.5732 330.808 105.064 322.135 130.043L302.516 101.981Z" fill="#263238"/>
<mask id="mask1_1621_9093" style="mask-type:luminance" maskUnits="userSpaceOnUse" x="279" y="58" width="63" height="117">
<path d="M302.516 101.981L316.761 58.4551L341.129 70.5732C341.129 70.5732 330.808 105.064 322.136 130.043L293.662 174.855L279.203 140.116L302.516 101.981Z" fill="white"/>
</mask>
<g mask="url(#mask1_1621_9093)">
<path d="M264.942 121.798C279.847 132.828 294.108 144.748 307.858 157.213C309.359 158.581 306.935 160.626 305.451 159.274C291.899 147.007 277.753 135.45 263.211 124.37C261.628 123.167 263.343 120.611 264.942 121.798Z" fill="#38474F"/>
<path d="M265.025 111.808C275.263 118.271 284.908 125.789 294.735 132.862C304.594 139.951 314.388 147.123 324.247 154.196C325.714 155.251 324.148 157.576 322.664 156.521C312.788 149.481 302.83 142.523 292.938 135.5C283.078 128.476 272.84 121.782 263.409 114.182C261.991 113.044 263.442 110.818 265.008 111.808H265.025Z" fill="#38474F"/>
<path d="M273.384 107.817C294.57 119.144 315.476 130.965 336.464 142.671C338.014 143.529 336.464 145.771 334.93 144.947C313.744 133.587 292.492 122.326 271.521 110.587C269.625 109.532 271.521 106.828 273.384 107.817Z" fill="#38474F"/>
<path d="M280.44 95.2376C283.342 95.8642 286.095 97.5953 288.749 98.8813C291.371 100.151 293.976 101.42 296.597 102.706C301.939 105.311 307.298 107.916 312.639 110.521C323.34 115.731 333.974 121.057 344.658 126.3C345.878 126.893 345.202 128.921 343.949 128.327C333.1 123.183 322.218 118.138 311.386 112.961C306.028 110.406 300.67 107.834 295.295 105.278C292.558 103.976 289.821 102.657 287.084 101.354C284.545 100.134 281.594 99.0792 279.401 97.2821C278.362 96.4247 279.154 94.9738 280.423 95.2541L280.44 95.2376Z" fill="#38474F"/>
<path d="M287.199 74.8763C289.969 75.9974 292.475 77.811 294.965 79.4597C297.388 81.059 299.779 82.6747 302.186 84.307C307.281 87.7693 312.326 91.2976 317.305 94.9083C327.197 102.047 336.892 109.45 346.389 117.1C347.576 118.056 346.257 120.035 345.053 119.079C335.474 111.527 325.714 104.24 315.755 97.2165C310.826 93.7377 305.846 90.3248 300.818 86.9779C298.312 85.3127 295.773 83.6475 293.25 82.0153C290.744 80.383 288.09 78.8662 285.88 76.8218C284.99 75.9974 286.144 74.4476 287.199 74.8763Z" fill="#38474F"/>
<path d="M293.022 66.0052C298.149 68.3959 303.03 71.4295 307.943 74.2159C313.004 77.0682 318.049 79.9205 323.111 82.7563C333.218 88.4608 343.341 94.1489 353.447 99.8535C354.651 100.529 353.447 102.261 352.26 101.618C342.154 96.1274 332.064 90.6207 321.973 85.1304C316.978 82.41 311.982 79.6896 307.003 76.9692C301.925 74.2159 296.632 71.6439 291.785 68.4948C290.483 67.654 291.571 65.3128 293.038 66.0052H293.022Z" fill="#38474F"/>
<path d="M298.71 60.0373C301.166 60.5649 303.376 62.0652 305.585 63.2193C307.943 64.4394 310.317 65.6265 312.707 66.8135C317.373 69.1053 322.072 71.3145 326.821 73.4579C336.301 77.7281 345.946 81.6355 355.64 85.3946C356.926 85.8893 356.25 87.8677 354.931 87.4226C344.874 83.9602 334.998 79.9868 325.287 75.6837C320.423 73.5403 315.609 71.2981 310.828 68.9734C308.652 67.9182 306.492 66.8465 304.332 65.7584C302.007 64.5878 299.468 63.582 297.572 61.752C296.715 60.9276 297.836 59.8724 298.726 60.0538L298.71 60.0373Z" fill="#38474F"/>
</g>
<path d="M182.356 205.323C182.356 205.323 187.237 217.672 196.997 235.132C197.277 235.626 197.558 236.138 197.854 236.649C209.231 256.763 226.905 283.159 250.861 305.285C254.208 308.401 257.703 311.402 261.281 314.303L319.81 253.993C318.293 252.74 316.793 251.504 315.326 250.267C299.185 236.467 288.419 223.228 281.263 211.357C263.605 182.01 268.007 161.055 268.007 161.055L257.373 166.199L239.963 174.624L228.817 180.015C228.817 180.015 223.294 182.224 215.018 186.313C214.704 186.478 214.358 186.626 214.028 186.808C212.528 187.55 210.945 188.358 209.313 189.215C201.35 193.353 191.804 198.827 182.34 205.356L182.356 205.323Z" fill="#EBEBEB"/>
<path d="M162.258 230.714L197.87 236.649L208.142 238.347L228.141 241.694L220.853 205.538L220.326 202.867L217.078 186.627L214.061 186.792L209.378 187.039L172.43 189.084L162.258 230.714Z" fill="#EBEBEB"/>
<path d="M209.378 187.039C209.329 187.748 209.312 188.49 209.345 189.182C209.56 194.788 212.346 199.899 216.699 203.18C217.952 204.136 219.37 204.927 220.87 205.521C222.09 206.015 223.392 206.378 224.728 206.609C234.769 208.291 244.298 201.514 245.98 191.457C247.068 184.945 244.611 178.663 239.995 174.591L228.85 179.982C228.85 179.982 223.326 182.191 215.05 186.28C214.737 186.445 214.39 186.594 214.061 186.775L209.378 187.039Z" fill="#0DA74B"/>
<path d="M246.477 178.053L276.961 217.656L303.539 178.911L309.557 170.139L279.204 140.116C279.204 140.116 275.956 144.452 269.855 151.806C264.332 158.434 256.435 167.534 246.477 178.053Z" fill="#EBEBEB"/>
<path d="M269.852 151.807L303.535 178.912L309.553 170.14L279.2 140.117C279.2 140.117 275.952 144.453 269.852 151.807Z" fill="#0DA74B"/>
<path d="M205.746 173.916L210.346 181.549L215.622 190.337L218.276 195.003C221.211 200.147 227.641 202.125 232.95 199.52C238.308 196.882 240.666 190.518 238.308 185.028L225.762 155.846L205.746 173.916Z" fill="#A86751"/>
<path d="M209.391 180.016L214.667 188.771C225.137 186.429 226.769 173.685 223.9 163.727C218.905 164.947 210.628 178.252 209.375 180.016H209.391Z" fill="#263238"/>
<path d="M188.731 167.881C190.231 173.685 193.957 179.109 199.365 181.665C206.867 185.209 216.05 182.588 222.579 177.477C226.305 174.559 229.339 170.717 231.383 166.447C235.868 157.214 235.687 146.036 227.855 138.188C222.497 132.813 211.599 129.516 203.091 131.362C199.761 132.088 196.777 133.588 194.65 136.094C187.907 144.041 186.159 158.071 188.714 167.881H188.731Z" fill="#A86751"/>
<path d="M194.948 154.757C194.651 155.993 195.195 157.213 196.168 157.51C197.157 157.807 198.196 157.048 198.493 155.812C198.806 154.575 198.246 153.355 197.273 153.058C196.284 152.762 195.245 153.52 194.948 154.757Z" fill="#263238"/>
<path d="M210.034 157.395C209.737 158.632 210.281 159.852 211.254 160.149C212.243 160.445 213.282 159.687 213.579 158.45C213.892 157.214 213.332 155.994 212.359 155.697C211.37 155.4 210.331 156.159 210.034 157.395Z" fill="#263238"/>
<path d="M198.246 160.232C199.648 157.346 201.198 154.544 202.78 151.757C202.929 151.493 203.374 151.658 203.226 151.955C202.121 154.329 201.016 156.67 199.813 158.995C199.236 160.116 198.444 161.32 198.312 162.606C198.197 163.677 198.856 164.535 199.598 165.211C199.796 165.392 199.714 165.755 199.434 165.771C198.444 165.837 197.636 164.93 197.439 164.024C197.158 162.721 197.669 161.402 198.23 160.248L198.246 160.232Z" fill="#263238"/>
<path d="M227.229 167.782L232.802 161.187L232.043 160.264C231.07 158.945 229.999 157.609 228.828 156.307C225.926 161.517 227.229 167.782 227.229 167.782Z" fill="#263238"/>
<path d="M194.672 136.11C201.794 123.926 225.074 120.316 235.379 128.889C245.667 137.446 245.832 151.559 241.1 159.374L194.672 136.127V136.11Z" fill="#0DA74B"/>
<path d="M239.069 167.436C245.153 167.782 248.384 160.94 241.789 153.175C237.14 147.701 221.015 132.912 197.587 133.588C185.106 133.951 184.331 144.486 189.212 146.86L191.042 141.897C204.973 142.722 222.483 151.031 231.897 160.808L239.069 167.436Z" fill="#0DA74B"/>
<path d="M235.838 159.506C238.509 158.549 241.84 158.912 243.703 161.055C245.253 162.836 245.483 165.441 245.137 167.782C244.709 170.799 243.423 173.751 241.263 175.894C239.086 178.037 235.97 179.29 232.937 178.911C229.903 178.532 227.084 176.405 226.193 173.487C224.479 167.881 231.024 161.237 235.838 159.506Z" fill="#A86751"/>
<path d="M230.825 169.958C231.831 168.722 233.15 167.716 234.65 167.172C235.342 166.924 236.035 166.727 236.76 166.644C237.486 166.562 238.228 166.611 238.953 166.595C239.431 166.595 239.547 167.37 239.052 167.436C238.722 167.485 238.425 167.551 238.129 167.683C237.832 167.815 237.535 167.98 237.238 168.128C236.942 168.276 236.645 168.441 236.348 168.606C236.2 168.689 236.068 168.771 235.936 168.853C235.804 168.936 235.59 169.035 235.491 169.167C235.524 169.15 235.557 169.117 235.59 169.101C235.54 169.134 235.491 169.167 235.458 169.216C235.342 169.315 235.227 169.398 235.112 169.48C235.046 169.529 234.963 169.579 234.897 169.645C234.617 169.81 234.353 170.106 234.122 170.321C233.628 170.799 233.15 171.294 232.737 171.838C232.54 172.085 232.094 172.233 231.781 172.233C231.468 172.233 231.072 172.085 230.858 171.854C230.33 171.277 230.38 170.552 230.858 169.975L230.825 169.958Z" fill="#263238"/>
<path d="M192.361 141.386C188.536 145.59 201.462 146.876 201.066 143.117C200.769 140.298 193.96 139.622 192.361 141.386Z" fill="#263238"/>
<path d="M221.74 149.696C222.169 147.173 216.168 145.525 214.453 146.118C209.639 147.783 220.916 154.576 221.74 149.696Z" fill="#263238"/>
<path d="M199.336 132.714C202.139 132.681 204.876 132.631 207.662 132.977C210.481 133.324 213.268 133.901 215.988 134.692C218.725 135.484 221.363 136.39 223.951 137.61C225.188 138.204 226.375 138.847 227.546 139.539C228.733 140.232 230.315 140.974 231.222 142.029C231.948 142.87 231.338 144.65 230.035 144.172C228.782 143.727 227.678 142.787 226.54 142.111C225.369 141.419 224.166 140.776 222.962 140.149C220.555 138.913 218.032 137.709 215.477 136.802C212.921 135.879 210.267 135.17 207.613 134.626C204.909 134.082 202.106 133.555 199.352 133.456C198.891 133.439 198.874 132.73 199.352 132.73L199.336 132.714Z" fill="#097535"/>
<path d="M212.031 166.711C211.668 165.886 204.216 167.238 203.606 168.293C203.227 168.969 205.37 171.756 208.552 171.096C211.174 170.552 212.443 167.65 212.031 166.694V166.711Z" fill="#EBEBEB"/>
<path d="M172.43 189.1L162.258 230.697L175.035 232.84L179.916 189.627L172.43 189.1Z" fill="#0DA74B"/>
<path d="M330.773 52.2725C332.043 48.5794 338.621 44.4741 340.765 44.9522C342.892 45.4468 342.001 49.074 339.99 51.3822L330.773 52.2725Z" fill="#A86751"/>
<path d="M236.264 20.2871L228.828 46.6502L521.031 124.915L525.78 108.065L236.264 20.2871Z" fill="#0DA74B"/>
<path d="M521.031 124.899L552.011 132.747C554.88 133.489 557.798 132.549 559.71 130.505C560.551 129.614 561.178 128.51 561.54 127.257C561.573 127.125 561.606 127.009 561.623 126.894C562.035 125.212 561.837 123.514 561.194 122.03C561.112 121.816 560.996 121.585 560.881 121.371C559.941 119.607 558.325 118.238 556.297 117.595L525.78 108.099L524.79 111.643L523.537 116.045L521.031 124.932V124.899Z" fill="#263238"/>
<path d="M523.524 116.013L561.61 126.878C562.022 125.196 561.824 123.498 561.181 122.014L524.761 111.627L523.508 116.029L523.524 116.013Z" fill="#38474F"/>
<path d="M221.906 44.6563L228.847 46.6182L243.059 37.5668L236.267 20.2882L229.342 18.3262L232.062 34.2528L221.906 44.6563Z" fill="#DBDBDB"/>
<path d="M221.906 44.6563L224.874 45.4971L237.371 35.8026L232.31 19.167L229.342 18.3262L232.062 34.2528L221.906 44.6563Z" fill="#EBEBEB"/>
<path d="M358.289 54.1023C363.564 53.789 364.785 61.8348 364.982 66.2369C365.048 67.5229 364.026 68.5945 362.74 68.611C361.668 68.611 360.745 67.9021 360.498 66.8469L360.168 65.4125L358.684 65.3301C357.25 65.2641 356.013 64.3079 355.568 62.9394L351.875 51.3654C351.875 51.3654 355.552 49.8816 358.289 54.0858V54.1023Z" fill="#A86751"/>
<path d="M351.114 50.6075C351.972 51.0196 352.565 51.844 352.747 52.7838L354.297 60.5987C354.709 62.0166 353.752 63.484 352.285 63.6818C351.18 63.8302 350.125 63.2202 349.697 62.1815L346.597 53.5587L341.008 51.168C341.008 51.168 346.119 48.2498 351.098 50.6075H351.114Z" fill="#A86751"/>
<path d="M253.033 180.527C258.424 185.127 263.519 190.04 268.218 195.349C270.575 198.004 272.834 200.757 275.01 203.56C276.099 204.961 277.17 206.379 278.209 207.814C279.264 209.265 280.484 210.748 280.913 212.513C281.193 213.716 279.907 214.969 278.786 214.029C277.451 212.908 276.659 211.358 275.785 209.891C274.912 208.457 274.038 207.022 273.098 205.621C271.119 202.67 269.042 199.817 266.833 197.048C262.398 191.491 257.551 186.265 252.275 181.484C251.698 180.956 252.439 180.016 253.05 180.527H253.033Z" fill="#DBDBDB"/>
<path d="M261.526 167.436C266.01 169.695 270.396 172.152 274.666 174.79C278.985 177.444 283.47 180.214 287.361 183.462C288.482 184.402 287.097 186.084 285.927 185.226C281.937 182.291 278.128 179.159 274.006 176.406C269.802 173.603 265.449 171.031 260.965 168.673C260.19 168.277 260.734 167.041 261.526 167.436Z" fill="#DBDBDB"/>
<path d="M231.932 250.829C236.053 249.444 240.175 248.208 244.215 246.576C248.419 244.877 252.524 242.965 256.514 240.821C264.214 236.683 271.567 231.721 278.195 226.032C278.772 225.538 279.448 226.494 278.887 227.005C272.16 232.974 264.955 238.249 257.124 242.652C249.523 246.922 241.214 250.879 232.739 253.055C231.289 253.418 230.448 251.324 231.932 250.829Z" fill="#DBDBDB"/>
<path d="M258.558 263.87C261.295 261.446 264.213 259.303 266.802 256.681C269.407 254.043 271.83 251.257 274.023 248.273C278.425 242.337 282.019 235.808 284.674 228.917C285.07 227.894 286.57 228.603 286.224 229.609C283.718 236.798 280.288 243.574 275.936 249.839C273.776 252.955 271.418 255.939 268.879 258.742C266.373 261.512 263.636 264.529 260.602 266.755C258.723 268.123 256.876 265.353 258.558 263.87Z" fill="#DBDBDB"/>
<path d="M198.728 233.204C205.388 224.12 209.279 213.782 208.191 202.389C208.109 201.615 209.296 201.516 209.395 202.274C210.549 211.161 209.444 220.839 205.636 229.132C205.834 229.132 206.015 229.247 206.097 229.478C215.248 253.005 230.499 273.779 249.706 290.398C255.147 295.097 260.901 299.367 266.869 303.407C268.502 304.511 266.573 306.754 264.957 305.715C243.21 291.899 225.965 271.85 213.846 249.51C210.467 243.278 207.614 236.798 205.141 230.17C204.185 232.099 203.08 233.962 201.811 235.694C200.31 237.771 197.211 235.248 198.728 233.188V233.204Z" fill="#DBDBDB"/>
<path d="M250.875 305.285C254.222 308.385 257.701 311.402 261.295 314.304L319.841 253.994C318.308 252.741 316.807 251.504 315.357 250.268L250.875 305.302V305.285Z" fill="#0DA74B"/>
<path d="M156.354 89.7152L150.682 73.2939L149.512 91.1166L133.75 96.6728L148.127 96.8872L145.687 116.243L155.233 99.7559L169.478 111.099L159.833 95.2879L171.127 86.7145L156.354 89.7152Z" fill="#0DA74B"/>
<path d="M366.351 206.165L350.227 199.685L362.905 212.249L356.772 227.78L366.351 217.08L379.36 231.621L373.177 213.601L391.098 210.287L372.831 207.187L373.77 193.058L366.351 206.165Z" fill="#38474F"/>
<path d="M112.843 282.979L96.7188 276.483L109.397 289.047L103.248 304.594L112.843 293.877L125.835 308.436L119.669 290.415L137.574 287.085L119.306 284.002L120.263 269.855L112.843 282.979Z" fill="#EBEBEB"/>
<path d="M61.8158 62.4616C66.3004 60.8129 71.1806 59.8896 75.863 60.8294C80.5453 61.7692 84.9804 64.8028 86.7115 69.2544C89.3165 75.9482 85.2112 83.6148 79.5231 87.9839C73.835 92.353 66.7785 94.4963 60.3979 97.7773C54.0174 101.058 47.8347 106.235 46.6311 113.308C45.7078 118.749 47.9336 124.239 50.588 129.07C53.3414 134.082 56.6224 138.83 58.8481 144.09C61.0739 149.366 62.1456 155.4 60.299 160.808C58.436 166.216 53.0281 170.634 47.3401 169.975C42.3774 169.398 38.5194 165.375 33.7546 163.809C24.9669 160.923 14.4316 166.76 6.5012 162.028C1.45611 159.011 -0.571821 152.465 0.13713 146.629C0.846081 140.792 3.78081 135.5 6.78148 130.422C15.3548 115.897 25.2637 102.509 34.8757 88.6763C42.5588 77.6299 48.3293 67.4573 61.8323 62.4616H61.8158Z" fill="#EBEBEB"/>
<mask id="mask2_1621_9093" style="mask-type:luminance" maskUnits="userSpaceOnUse" x="0" y="60" width="88" height="111">
<path d="M61.8158 62.4616C66.3004 60.8129 71.1806 59.8896 75.863 60.8294C80.5453 61.7692 84.9804 64.8028 86.7115 69.2544C89.3165 75.9482 85.2112 83.6148 79.5231 87.9839C73.835 92.353 66.7785 94.4963 60.3979 97.7773C54.0174 101.058 47.8347 106.235 46.6311 113.308C45.7078 118.749 47.9336 124.239 50.588 129.07C53.3414 134.082 56.6224 138.83 58.8481 144.09C61.0739 149.366 62.1456 155.4 60.299 160.808C58.436 166.216 53.0281 170.634 47.3401 169.975C42.3774 169.398 38.5194 165.375 33.7546 163.809C24.9669 160.923 14.4316 166.76 6.5012 162.028C1.45611 159.011 -0.571821 152.465 0.13713 146.629C0.846081 140.792 3.78081 135.5 6.78148 130.422C15.3548 115.897 25.2637 102.509 34.8757 88.6763C42.5588 77.6299 48.3293 67.4573 61.8323 62.4616H61.8158Z" fill="white"/>
</mask>
<g mask="url(#mask2_1621_9093)">
<path d="M6.87954 78.0098C7.1928 77.4822 7.9677 78.0098 7.65444 78.5374C5.16487 82.7581 4.357 87.5724 4.75269 92.3372C5.70895 90.0784 7.62147 88.1989 9.48453 86.6986C12.8149 84.0111 16.7224 82.1151 20.7783 80.7796C29.7144 77.8284 39.1615 77.6306 48.4109 76.427C57.3964 75.2729 66.4809 72.9317 73.1747 66.4522C76.0105 63.6989 78.2363 60.3025 79.1925 56.4445C80.1818 52.4876 79.6047 48.2998 77.923 44.6232C74.1474 36.4125 65.8379 31.8456 57.0502 31.2026C47.3722 30.4936 38.1228 34.2032 30.11 39.3472C28.1481 40.6003 26.252 41.9522 24.356 43.3207C23.3338 44.0626 22.0313 42.5952 23.0535 41.8038C30.4563 36.0333 39.1121 31.1366 48.4933 29.6033C57.314 28.1524 67.0249 29.7352 73.8507 35.8355C79.918 41.2598 83.2813 49.6518 81.0391 57.681C78.8628 65.4795 72.103 71.3325 64.9146 74.531C55.8961 78.5374 45.7894 78.8177 36.1279 79.8893C27.604 80.8291 18.5525 82.5108 11.5125 87.7373C9.94617 88.8914 8.29745 90.2103 7.25875 91.892C6.51682 93.0626 5.82436 94.7773 6.25303 96.1952C6.94549 98.4539 10.1275 97.3328 11.7268 97.0031C14.2164 96.4755 16.7224 95.9644 19.212 95.4203C29.2692 93.2605 39.3264 90.9688 49.0868 87.7043C66.2665 81.9667 83.067 73.0471 94.8224 58.9341C96.1908 57.2853 97.4769 55.5872 98.6969 53.823C99.0266 53.3449 99.7521 53.8395 99.4388 54.3176C89.596 69.288 74.1639 79.609 57.8086 86.3029C48.4274 90.1444 38.6339 93.0132 28.7746 95.3544C23.6965 96.5579 18.5855 97.6626 13.4744 98.7342C11.2981 99.1959 8.62719 100.185 6.45088 99.2289C6.30249 99.1629 6.18708 99.064 6.05518 98.9815C6.69818 101.009 7.52255 102.971 8.52827 104.818C13.0293 113.111 20.4485 119.376 27.7689 125.097C35.353 131.016 43.3493 136.721 49.2682 144.42C54.4122 151.098 58.2208 159.523 57.3469 168.129C56.5061 176.389 51.2137 184.864 42.8712 187.122C41.9314 187.37 41.4203 185.803 42.3436 185.49C49.6969 183.066 54.4782 176.191 55.4509 168.64C56.572 159.984 52.5986 151.477 47.3062 144.866C35.6168 130.241 16.7389 122.641 7.57201 105.774C3.00505 97.3493 1.71904 86.5172 6.84657 78.0428L6.87954 78.0098Z" fill="white"/>
<path d="M-7.18439 163.908C-1.85901 166.513 3.97746 168.31 9.96233 167.453C14.925 166.744 19.7392 164.255 22.7399 160.182C25.8395 155.978 26.5814 150.603 25.7076 145.542C24.7843 140.216 22.1794 135.435 18.7665 131.313C14.7436 126.449 9.76448 122.509 4.8348 118.601C4.25775 118.14 4.88426 117.184 5.4778 117.645C14.5952 124.619 24.5041 132.401 27.0925 144.223C28.2467 149.499 27.785 155.236 24.9327 159.918C22.1629 164.452 17.3156 167.47 12.2046 168.673C5.4778 170.239 -1.94145 168.624 -7.76144 165.046C-8.37147 164.667 -7.84388 163.595 -7.20087 163.908H-7.18439Z" fill="white"/>
</g>
<path d="M96.555 100.184C97.1486 103.514 95.4504 107.175 92.4497 108.757C89.4491 110.34 85.3767 109.582 83.2499 106.96C79.8865 102.806 82.1452 96.9691 86.267 94.3476C90.7021 91.4953 95.7142 95.4522 96.555 100.201V100.184Z" fill="#EBEBEB"/>
<path d="M96.7831 82.3294C97.014 83.6154 96.4534 85.0498 95.3488 85.7752C94.1946 86.5336 92.5294 86.4347 91.4907 85.5279C90.4356 84.6211 90.1058 82.9889 90.6994 81.7358C92.0678 78.8506 96.2061 79.0155 96.7831 82.3294Z" fill="#EBEBEB"/>
<path d="M5.4618 176.422C5.36288 173.998 7.68758 172.217 9.88038 171.212C16.6237 168.129 24.6859 168.112 31.4457 171.146C32.6657 171.69 33.9352 172.448 34.3309 173.718C34.7266 174.938 34.1331 176.323 33.1933 177.197C32.2535 178.07 31.017 178.548 29.7969 178.961C25.7576 180.296 5.84101 185.424 5.44531 176.422H5.4618Z" fill="#EBEBEB"/>
<path d="M59.6713 188.308C57.3961 188.77 54.6922 188.605 53.2578 186.791C52.3015 185.588 52.1696 183.89 52.5488 182.389C52.928 180.905 53.7854 179.57 54.6757 178.317C57.4455 174.409 64.3537 168.87 68.4755 174.492C72.9105 180.543 65.1121 187.204 59.6878 188.308H59.6713Z" fill="#EBEBEB"/>
<path d="M62.8868 36.8902C54.1156 36.1977 43.9924 74.2173 40.2663 121.783C36.5402 169.349 40.6455 208.473 49.4167 209.165" stroke="#0DA74B" stroke-miterlimit="10"/>
<path d="M346.502 519.555C332.092 513.389 325.81 493.307 334.169 480.035C342.512 466.763 363.335 463.713 375.123 474.05C384.488 482.244 387.225 495.747 395.205 505.293C403.564 515.285 417.776 519.984 430.438 516.933C443.1 513.883 453.619 503.233 456.504 490.537C457.889 484.421 457.757 477.677 461.335 472.517C466.71 464.784 477.806 464.141 487.138 465.328C496.469 466.516 506.576 468.642 514.803 464.059C523.426 459.261 526.822 448.891 531.736 440.334C536.649 431.777 546.805 423.781 555.609 428.216C562.319 431.596 564.133 440.861 561.577 447.918C559.022 454.974 553.268 460.316 547.728 465.378C554.95 465.51 562.072 465.84 569.293 465.955C534.951 483.036 513.121 519.703 477.46 533.833C448.788 545.193 416.671 541.813 386.038 538.268C352.173 534.344 315.868 529.348 290.824 506.217C309.554 510.289 328.234 513.702 346.502 519.555Z" fill="#EBEBEB"/>
<mask id="mask3_1621_9093" style="mask-type:luminance" maskUnits="userSpaceOnUse" x="290" y="426" width="280" height="116">
<path d="M346.502 519.555C332.092 513.389 325.81 493.307 334.169 480.035C342.512 466.763 363.335 463.713 375.123 474.05C384.488 482.244 387.225 495.747 395.205 505.293C403.564 515.285 417.776 519.984 430.438 516.933C443.1 513.883 453.619 503.233 456.504 490.537C457.889 484.421 457.757 477.677 461.335 472.517C466.71 464.784 477.806 464.141 487.138 465.328C496.469 466.516 506.576 468.642 514.803 464.059C523.426 459.261 526.822 448.891 531.736 440.334C536.649 431.777 546.805 423.781 555.609 428.216C562.319 431.596 564.133 440.861 561.577 447.918C559.022 454.974 553.268 460.316 547.728 465.378C554.95 465.51 562.072 465.84 569.293 465.955C534.951 483.036 513.121 519.703 477.46 533.833C448.788 545.193 416.671 541.813 386.038 538.268C352.173 534.344 315.868 529.348 290.824 506.217C309.554 510.289 328.234 513.702 346.502 519.555Z" fill="white"/>
</mask>
<g mask="url(#mask3_1621_9093)">
<path d="M455.881 548.441C456.128 558.152 458.634 567.78 463.349 576.288C463.959 577.392 465.443 576.865 465.789 575.875C466.3 574.359 466.861 572.875 467.455 571.391C472.186 559.619 479.128 548.886 486.349 538.532C493.686 528.013 501.418 517.725 507.832 506.596C514.113 495.698 519.29 483.794 520.923 471.231C521.862 463.993 521.549 456.541 519.884 449.418C530.716 449.385 541.383 446.072 550.616 440.285C562.207 433.03 571.341 422.396 578.282 410.739C578.826 409.816 577.375 409.091 576.814 409.981C572.874 416.279 568.29 422.198 563.031 427.441C553.798 436.657 542.274 443.829 529.298 446.17C525.984 446.764 522.604 447.028 519.208 446.978C518.713 445.231 518.169 443.5 517.51 441.818C515.729 437.284 513.339 432.948 510.255 429.172C507.106 425.314 503.38 422.346 499.094 419.857C497.824 419.115 496.769 421.143 498.038 421.885C499.044 422.462 500.017 423.154 500.94 423.863C508.491 429.617 513.635 437.811 516.339 446.846C509.002 446.302 501.814 444.159 495.631 440.202C494.543 439.262 493.372 438.405 492.07 437.696C490.817 437.004 489.481 438.867 490.619 439.773C491.724 440.664 492.894 441.455 494.081 442.213C500.709 448.099 502.49 458.041 500.511 466.4C497.857 477.562 489.861 486.432 482.095 494.462C474.478 502.326 466.63 510.124 461.832 520.132C457.628 528.92 455.617 538.746 455.864 548.474L455.881 548.441ZM467.158 515.845C473.242 506.085 482.194 498.616 489.712 490.059C496.884 481.898 503.463 472.022 503.858 460.811C504.04 455.469 502.754 449.929 499.967 445.346C503.595 446.962 507.453 448.099 511.393 448.742C513.256 449.039 515.136 449.237 517.015 449.319C519.257 458.404 519.142 467.884 517.081 477.002C514.278 489.301 508.442 500.661 501.781 511.278C495.087 521.929 487.454 531.921 480.447 542.357C474.099 551.788 468.312 561.63 464.289 572.281C464.174 572.05 464.042 571.82 463.926 571.589C459.772 562.818 458.057 552.925 458.601 543.247C459.145 533.586 462.047 524.056 467.174 515.845H467.158Z" fill="white"/>
<path d="M321.211 438.471C325.646 453.755 334.714 467.555 346.849 477.843C359.824 488.84 376.097 495.435 393.046 496.754C402.938 497.529 413.061 496.589 422.591 493.769C423.283 493.572 423.613 494.627 422.921 494.841C405.692 500.397 386.847 500.133 369.782 494.033C353.905 488.362 340.27 477.744 330.543 464.01C326.668 458.553 323.47 452.617 321.03 446.385C321.425 459.558 326.289 472.435 333.659 483.284C343.32 497.528 357.4 508.179 372.519 516.077C380.285 520.132 388.413 523.644 396.706 526.447C404.785 529.184 413.259 531.212 421.849 531.08C429.878 530.965 437.627 528.739 444.338 524.287C450.636 520.099 455.796 514.296 459.737 507.866C464.205 500.546 467.041 492.434 468.805 484.058C470.849 474.331 471.377 464.455 471.855 454.546C471.97 452.073 472.168 449.584 472.234 447.111C472.283 445.544 474.724 445.445 474.674 447.028C474.526 452.222 474.526 457.399 474.212 462.576C473.899 467.637 473.454 472.699 472.712 477.711C471.36 486.911 468.986 496.061 464.782 504.404C461.237 511.46 456.439 518.006 450.388 523.133C444.107 528.459 436.671 532.02 428.51 533.289C419.871 534.625 410.984 533.405 402.592 531.113C393.87 528.739 385.379 525.326 377.202 521.468C361.028 513.851 345.76 503.497 334.648 489.301C324.723 476.623 318.177 460.745 318.227 444.489C318.227 442.511 318.359 440.532 318.557 438.554C318.688 437.136 320.865 437.218 321.211 438.455V438.471Z" fill="white"/>
</g>
<path d="M329.023 471.412C326.649 474.973 321.966 477.413 317.976 475.83C313.756 474.165 312.14 468.988 312.156 464.471C312.156 460.299 313.179 455.996 315.8 452.732C318.405 449.467 322.791 447.472 326.863 448.429C337.085 450.852 333.046 465.41 329.039 471.412H329.023Z" fill="#EBEBEB"/>
<path d="M562.021 493.587C563.637 496.422 563.175 500.248 561.065 502.754C558.971 505.26 555.443 506.397 552.228 505.82C549.59 505.342 547.15 503.743 545.814 501.435C539.978 491.361 556.828 484.519 562.021 493.603V493.587Z" fill="#EBEBEB"/>
<path d="M573.595 403.484C575.162 407.639 571.93 412.354 567.825 414.085C563.736 415.817 559.103 415.421 554.652 415.174C550.216 414.926 545.468 414.959 541.726 417.366C540.027 418.455 538.626 419.988 536.944 421.109C535.263 422.23 533.07 422.923 531.207 422.115C529.063 421.175 528.14 418.422 528.684 416.13C529.212 413.838 530.86 411.975 532.641 410.442C538.956 405.05 568.732 390.657 573.579 403.484H573.595Z" fill="#EBEBEB"/>
<path d="M285.961 495.896C285.318 498.369 283.752 500.627 281.543 501.913C279.333 503.199 276.481 503.414 274.189 502.276C271.898 501.139 270.315 498.6 270.513 496.06C270.661 493.95 271.98 492.021 273.728 490.834C278.789 487.438 288.253 487.141 285.961 495.896Z" fill="#EBEBEB"/>
<path d="M263.357 487.602C255.839 490.009 256.663 480.595 262.45 478.732C269.325 476.506 269.358 485.673 263.357 487.602Z" fill="#EBEBEB"/>
<path d="M217.454 378.11L111.408 369.817C109.809 366.767 113.502 362.084 116.898 361.491C120.295 360.897 123.658 362.447 126.791 363.881C129.923 365.332 133.385 366.75 136.732 365.909C141.019 364.854 143.542 360.584 145.718 356.742C148.653 351.516 152.032 346.141 157.325 343.355C162.617 340.552 170.366 341.508 173.087 346.85C174.686 349.966 174.241 353.676 174.356 357.171C174.472 360.666 175.593 364.656 178.808 366.058C182.699 367.739 186.837 364.656 190.794 363.139C200.01 359.578 215.822 368.366 217.454 378.126V378.11Z" fill="#EBEBEB"/>
<path d="M573.082 271.356L442.42 261.133C441.316 257.193 446.509 254.093 450.614 254.11C454.72 254.143 459.105 255.495 462.733 253.566C467.91 250.812 467.959 243.558 470.481 238.266C472.872 233.221 478.115 229.659 483.688 229.264C489.26 228.884 494.932 231.687 497.999 236.353C502.022 242.486 502.219 251.752 508.814 254.967C516.003 258.463 525.302 251.604 532.309 255.445C536.397 257.688 538.195 262.914 542.333 265.057C545.68 266.789 549.719 266.096 553.346 265.057C556.957 264.019 560.667 262.683 564.376 263.227C568.102 263.771 573.757 267.646 573.082 271.356Z" fill="#EBEBEB"/>
<path d="M444.319 146.926L332.684 138.204C331.629 134.231 336.097 130.043 340.136 129.351C344.176 128.642 348.611 129.202 352.156 127.125C359.509 122.805 358.503 110.061 366.269 106.549C370.72 104.538 376.079 106.813 379.541 110.275C382.987 113.737 385.18 118.238 388.164 122.129C391.148 126.02 395.451 129.466 400.331 129.285C404.882 129.12 409.086 125.839 413.587 126.499C419.061 127.306 422.21 133.456 427.42 135.303C430.75 136.473 434.476 135.748 437.889 136.671C441.302 137.611 446.611 144.255 444.336 146.943L444.319 146.926Z" fill="#EBEBEB"/>
<path d="M134.11 15.1768C133.088 23.8326 126.641 30.8726 118.117 32.6697C126.773 33.6919 133.813 40.1384 135.61 48.6623C136.632 40.0065 143.079 32.9665 151.603 31.1694C142.947 30.1472 135.907 23.7007 134.11 15.1768Z" fill="#EBEBEB"/>
<path d="M119.702 0.931641C120.065 5.7624 117.312 10.2964 112.844 12.1924C117.675 11.8297 122.208 14.5831 124.105 19.0511C123.742 14.2203 126.495 9.68636 130.963 7.79033C126.132 8.15305 121.598 5.39968 119.702 0.931641Z" fill="#EBEBEB"/>
<path d="M385.577 28.2344C384.654 34.2522 380.021 39.0005 374.02 40.0722C380.037 40.9955 384.786 45.6284 385.857 51.6297C386.781 45.6119 391.414 40.8636 397.415 39.7919C391.397 38.8686 386.649 34.2357 385.577 28.2344Z" fill="#EBEBEB"/>
<path d="M505.406 136.309C505.819 141.139 503.115 145.706 498.68 147.652C503.51 147.24 508.077 149.944 510.023 154.379C509.611 149.548 512.315 144.981 516.75 143.035C511.919 143.448 507.352 140.744 505.406 136.309Z" fill="#EBEBEB"/>
<path d="M220.26 36.8739L210.516 15.9517L214.489 5.03711L227.712 33.3951L220.26 36.8739Z" fill="#DBDBDB"/>
<path d="M199.352 46.6176L203.308 35.7195L224.214 25.9756L227.693 33.4113L199.352 46.6176Z" fill="#DBDBDB"/>
<path d="M187.248 12.4893L196.992 33.4115L193.019 44.3096L179.812 15.9516L187.248 12.4893Z" fill="#DBDBDB"/>
<path d="M208.17 2.74512L204.196 13.6432L183.29 23.3871L179.828 15.9514L208.17 2.74512Z" fill="#DBDBDB"/>
<path d="M215.606 14.5177L214.633 13.1987L214.551 6.78516L223.108 25.1354L215.606 14.5177Z" fill="#EBEBEB"/>
</svg>
