<svg width="24" height="24" viewBox="0 0 24 24" fill="none" xmlns="http://www.w3.org/2000/svg">
<path fill-rule="evenodd" clip-rule="evenodd" d="M6.31305 7.33492C6.4532 7.47508 6.63848 7.54516 6.82184 7.54516C7.00712 7.54516 7.19049 7.47508 7.3316 7.33492C7.61289 7.05268 7.61289 6.59668 7.3316 6.3154L6.39944 5.38516C6.11816 5.10388 5.66216 5.10484 5.38088 5.38516C5.0996 5.6674 5.0996 6.12244 5.38088 6.40372L6.31305 7.33492Z" fill="white"/>
<path fill-rule="evenodd" clip-rule="evenodd" d="M11.9998 5.39521C12.3972 5.39521 12.7198 5.07265 12.7198 4.67521V3.36001C12.7198 2.96257 12.3972 2.64001 11.9998 2.64001C11.6023 2.64001 11.2798 2.96257 11.2798 3.36001V4.67521C11.2798 5.07265 11.6023 5.39521 11.9998 5.39521Z" fill="white"/>
<path fill-rule="evenodd" clip-rule="evenodd" d="M5.39726 11.9999C5.39726 11.6025 5.0747 11.2799 4.67726 11.2799H3.36014C2.9627 11.2799 2.64014 11.6025 2.64014 11.9999C2.64014 12.3973 2.9627 12.7199 3.36014 12.7199H4.67726C5.0747 12.7199 5.39726 12.3973 5.39726 11.9999Z" fill="white"/>
<path fill-rule="evenodd" clip-rule="evenodd" d="M17.1778 7.5454C17.3611 7.5454 17.5464 7.47532 17.6866 7.33516L18.6187 6.40396C18.9 6.12269 18.9 5.66668 18.6187 5.3854C18.3374 5.10508 17.8814 5.10412 17.6002 5.3854L16.669 6.31565C16.3877 6.59693 16.3877 7.05292 16.669 7.3342C16.8091 7.47532 16.9934 7.5454 17.1778 7.5454Z" fill="white"/>
<path fill-rule="evenodd" clip-rule="evenodd" d="M17.687 16.665C17.4048 16.3846 16.9488 16.3846 16.6685 16.665C16.3872 16.9472 16.3872 17.4032 16.6685 17.6845L17.6006 18.6147C17.7418 18.7549 17.9261 18.825 18.1094 18.825C18.2947 18.825 18.4781 18.7549 18.6192 18.6147C18.9005 18.3325 18.9005 17.8774 18.6192 17.5962L17.687 16.665Z" fill="white"/>
<path fill-rule="evenodd" clip-rule="evenodd" d="M6.31305 16.665L5.38088 17.5962C5.0996 17.8774 5.0996 18.3325 5.38088 18.6147C5.522 18.7549 5.70536 18.825 5.89065 18.825C6.074 18.825 6.25832 18.7549 6.39944 18.6147L7.3316 17.6845C7.61289 17.4032 7.61289 16.9472 7.3316 16.665C7.05129 16.3846 6.59529 16.3846 6.31305 16.665Z" fill="white"/>
<path fill-rule="evenodd" clip-rule="evenodd" d="M20.6401 11.2799H19.323C18.9256 11.2799 18.603 11.6025 18.603 11.9999C18.603 12.3973 18.9256 12.7199 19.323 12.7199H20.6401C21.0376 12.7199 21.3601 12.3973 21.3601 11.9999C21.3601 11.6025 21.0376 11.2799 20.6401 11.2799Z" fill="white"/>
<path fill-rule="evenodd" clip-rule="evenodd" d="M11.9998 18.6046C11.6023 18.6046 11.2798 18.9272 11.2798 19.3246V20.6398C11.2798 21.0373 11.6023 21.3598 11.9998 21.3598C12.3972 21.3598 12.7198 21.0373 12.7198 20.6398V19.3246C12.7198 18.9272 12.3972 18.6046 11.9998 18.6046Z" fill="white"/>
<path fill-rule="evenodd" clip-rule="evenodd" d="M11.9999 7.48767C9.51444 7.48767 7.49268 9.51135 7.49268 11.9997C7.49268 14.488 9.51444 16.5117 11.9999 16.5117C14.4863 16.5117 16.508 14.488 16.508 11.9997C16.508 9.51135 14.4863 7.48767 11.9999 7.48767Z" fill="white"/>
</svg>
