<svg width="1440" height="555" viewBox="0 0 1440 555" fill="none" xmlns="http://www.w3.org/2000/svg">
<g clip-path="url(#clip0_2566_5014)">
<rect width="1440" height="461" fill="url(#paint0_linear_2566_5014)"/>
<path fill-rule="evenodd" clip-rule="evenodd" d="M0 393.243L60 396.699C120 400.156 240 419.592 360 412.679C480 405.766 600 372.503 720 386.33C840 400.156 960 448.548 1080 458.917C1200 469.287 1320 441.635 1380 427.808L1440 413.982V517.679H1380C1320 517.679 1200 517.679 1080 517.679C960 517.679 840 517.679 720 517.679C600 517.679 480 517.679 360 517.679C240 517.679 120 517.679 60 517.679H0V393.243Z" fill="white"/>
<path d="M225.943 114.647C236.814 130.562 251.361 143.907 268.381 153.004C270.588 154.188 272.492 151.711 272.003 149.689C271.221 146.611 270.557 143.535 269.948 140.423C265.153 115.711 265.159 90.3499 266.04 65.3188C266.936 39.8886 268.74 14.4169 267.44 -11.0353C266.169 -35.9608 261.974 -61.3723 251.162 -84.0648C244.932 -97.1377 236.384 -109.218 225.937 -119.293C243.952 -131.015 258.157 -148.026 267.309 -167.614C278.809 -192.186 282.575 -219.744 281.586 -246.644C281.498 -248.768 278.299 -248.414 278.324 -246.327C278.542 -231.588 277.279 -216.789 274.163 -202.387C268.705 -177.085 257.226 -152.722 238.126 -134.845C233.243 -130.287 227.896 -126.207 222.183 -122.631C219.476 -125.01 216.705 -127.309 213.795 -129.401C205.944 -135.038 197.29 -139.688 188.086 -142.659C178.683 -145.696 169.278 -146.628 159.454 -146.159C156.539 -146.028 156.965 -141.512 159.88 -141.643C162.177 -141.765 164.544 -141.659 166.846 -141.472C185.626 -140.017 203.023 -131.904 217.26 -119.761C204.449 -112.765 190.162 -108.594 175.598 -108.528C172.772 -108.922 169.898 -109.09 166.964 -108.868C164.131 -108.672 163.912 -104.13 166.784 -103.844C169.584 -103.55 172.387 -103.492 175.182 -103.507C192.566 -100.838 206.241 -86.1896 211.948 -70.1298C219.547 -48.6715 215.776 -25.2784 211.485 -3.53501C207.263 17.7739 202.585 39.2215 205.37 61.0652C207.829 80.2366 215.061 98.777 225.951 114.72L225.943 114.647ZM209.626 48.1863C209.251 25.3696 216.124 3.2817 219.436 -19.0745C222.596 -40.3984 222.921 -63.9403 211.504 -83.0481C206.053 -92.1447 197.943 -99.9905 188.364 -104.627C196.148 -105.841 203.802 -108.101 211.061 -111.274C214.485 -112.786 217.83 -114.481 221.051 -116.368C234.572 -103.645 244.59 -87.724 250.976 -70.3117C259.554 -46.7979 262.063 -21.5826 262.401 3.28426C262.718 28.2416 260.76 53.1123 260.325 78.0499C259.905 100.601 260.864 123.236 265.632 145.316C265.191 145.056 264.723 144.813 264.282 144.553C247.911 134.413 234.399 119.776 224.882 103.063C215.382 86.3777 209.953 67.3729 209.654 48.1686L209.626 48.1863Z" fill="#003777"/>
<path d="M-116.904 76.4518C-93.0523 97.1423 -63.0786 110.37 -31.7774 114.443C1.68851 118.792 35.9076 112.254 65.5705 96.1967C82.8889 86.833 98.7451 74.3635 111.588 59.4015C112.529 58.326 114.215 59.7291 113.292 60.8321C90.5668 88.6477 58.881 108.506 23.8759 116.72C-8.68935 124.371 -42.8457 121.364 -73.8473 108.956C-86.1814 104.036 -97.9041 97.5907 -108.683 89.8341C-93.8346 111.359 -71.8609 127.577 -47.8956 137.716C-16.4534 151.046 18.4802 153.629 52.1791 150.504C69.4874 148.898 86.814 145.995 103.652 141.733C120.061 137.592 136.367 131.844 150.538 122.372C163.793 113.531 174.308 101.476 180.695 86.8309C186.679 73.0692 189.027 57.8404 188.668 42.8818C188.228 25.8713 184.217 9.30021 178.135 -6.55619C171.064 -24.9673 161.307 -41.9918 151.431 -59.0181C148.959 -63.2634 146.607 -67.6249 144.053 -71.8168C142.449 -74.4801 146.408 -77.2731 148.031 -74.5824C153.377 -65.7686 158.953 -57.1421 164.007 -48.1782C168.937 -39.4066 173.647 -30.4929 177.809 -21.342C185.466 -4.55588 191.365 13.2488 193.345 31.6785C195.039 47.2549 194.094 63.3293 189.535 78.3907C184.803 94.0303 176.249 107.973 164.017 118.879C151.059 130.41 134.937 137.948 118.485 143.168C101.395 148.606 83.5703 152.065 65.7883 154.444C30.6331 159.172 -5.95903 158.363 -39.7656 146.678C-69.9603 136.242 -97.9681 116.835 -115.395 89.6936C-117.526 86.3968 -119.437 82.958 -121.239 79.4482C-122.546 76.9434 -118.831 74.7367 -116.922 76.4243L-116.904 76.4518Z" fill="#003777"/>
<path d="M1275.69 262.387C1255.67 262.897 1235.81 268.064 1218.27 277.787C1215.99 279.044 1217.08 282.104 1219.12 282.817C1222.25 283.871 1225.31 285.027 1228.37 286.251C1252.64 296.007 1274.77 310.318 1296.12 325.207C1317.81 340.335 1339.02 356.278 1361.96 369.501C1384.43 382.453 1408.98 393.127 1434.88 396.492C1449.8 398.43 1465.17 397.784 1479.85 394.35C1479.92 416.684 1486.75 438.678 1498.69 457.714C1513.64 481.612 1535.57 500.444 1559.6 514.755C1561.51 515.877 1563 512.886 1561.17 511.73C1548.18 503.606 1535.98 494.155 1525.17 483.311C1506.16 464.275 1491.38 440.514 1486.55 413.761C1485.33 406.928 1484.78 399.959 1484.88 392.957C1488.49 391.937 1492.06 390.815 1495.52 389.455C1504.87 385.784 1513.81 380.855 1521.6 374.498C1529.55 368.005 1535.67 360.323 1540.8 351.485C1542.33 348.867 1538.15 346.691 1536.62 349.309C1535.43 351.382 1534 353.388 1532.54 355.292C1520.68 370.861 1503.78 381.467 1485.16 387.042C1486.28 371.915 1490.7 357.093 1498.86 344.346C1500.79 342.102 1502.56 339.689 1504.02 337.003C1505.45 334.42 1501.61 331.666 1499.74 334.012C1497.9 336.289 1496.27 338.703 1494.71 341.15C1482.57 354.816 1462.07 358.487 1444.84 354.408C1421.83 348.935 1403.54 332.448 1386.98 316.437C1370.77 300.732 1354.69 284.551 1334.05 274.659C1315.94 265.991 1295.68 261.844 1275.62 262.353L1275.69 262.387ZM1342.89 285.639C1363.02 298.183 1378.42 316.641 1396.06 332.142C1412.89 346.929 1433.25 360.493 1456.36 361.309C1467.38 361.683 1478.8 359.031 1488.25 353.286C1484.92 360.765 1482.57 368.719 1481.25 376.844C1480.63 380.685 1480.23 384.56 1480.06 388.435C1461.33 393.059 1441.78 392.821 1422.98 388.571C1397.62 382.793 1374.2 370.759 1352.31 357.025C1330.35 343.224 1309.75 327.485 1288.23 313.038C1268.79 299.95 1248.49 288.018 1226.53 279.724C1227.01 279.486 1227.48 279.214 1227.96 278.976C1246.05 270.41 1266.44 266.875 1286.4 267.996C1306.32 269.118 1325.96 275.101 1342.89 285.673L1342.89 285.639Z" fill="#003777"/>
<path d="M1502.42 -15.2714C1470.91 -6.12714 1442.46 12.5693 1421.25 37.5886C1398.57 64.3415 1384.97 97.8931 1382.25 132.838C1380.66 153.235 1382.59 174.107 1388.41 193.755C1388.82 195.183 1386.64 195.862 1386.2 194.435C1374.74 158.911 1375.29 120.057 1387.86 84.8736C1399.56 52.1378 1421.45 24.0251 1449.77 3.96895C1461.02 -4.01953 1473.26 -10.6143 1486.1 -15.6453C1458.94 -14.8295 1432.4 -4.80139 1410.03 10.3937C1380.66 30.3139 1358.7 59.3444 1342.41 90.5165C1334.05 106.527 1326.81 123.286 1321.03 140.385C1315.39 157.042 1311.21 174.515 1311.48 192.225C1311.72 208.78 1316.31 224.757 1325.49 238.592C1334.12 251.578 1346.09 262.218 1359.34 270.342C1374.44 279.555 1391.16 285.402 1408.43 289.039C1428.49 293.254 1448.85 294.342 1469.28 295.328C1474.38 295.566 1479.51 295.973 1484.61 296.109C1487.84 296.211 1488.04 301.243 1484.78 301.141C1474.07 300.835 1463.4 300.835 1452.72 300.189C1442.29 299.543 1431.85 298.625 1421.52 297.095C1402.55 294.308 1383.68 289.413 1366.48 280.744C1351.93 273.436 1338.44 263.544 1327.86 251.068C1316.88 238.116 1309.54 222.785 1306.92 205.959C1304.17 188.146 1306.69 169.823 1311.41 152.521C1316.31 134.538 1323.34 117.031 1331.3 100.171C1347 66.823 1368.35 35.345 1397.62 12.4333C1423.76 -8.0308 1456.5 -21.5262 1490.01 -21.4242C1494.09 -21.4242 1498.17 -21.1523 1502.25 -20.7444C1505.18 -20.4724 1505.01 -15.9853 1502.46 -15.2714L1502.42 -15.2714Z" fill="#003777"/>
<mask id="mask0_2566_5014" style="mask-type:luminance" maskUnits="userSpaceOnUse" x="710" y="-7" width="628" height="501">
<path d="M1337 -6.71094H710.004V493.289H1337V-6.71094Z" fill="white"/>
</mask>
<g mask="url(#mask0_2566_5014)">
<path d="M982.47 176.719L983.77 179.109L986.16 180.409L983.77 181.719L982.47 184.109L981.16 181.719L978.77 180.409L981.16 179.109L982.47 176.719Z" fill="#1F2075"/>
<path d="M930.151 129.229L931.461 131.619L933.851 132.919L931.461 134.229L930.151 136.619L928.851 134.229L926.461 132.919L928.851 131.619L930.151 129.229Z" fill="#1F2075"/>
<path d="M900.239 164.829L901.539 167.219L903.929 168.529L901.539 169.829L900.239 172.219L898.929 169.829L896.539 168.529L898.929 167.219L900.239 164.829Z" fill="#1F2075"/>
<path d="M833.143 103.898L834.453 106.288L836.843 107.588L834.453 108.898L833.143 111.288L831.843 108.898L829.453 107.588L831.843 106.288L833.143 103.898Z" fill="#1F2075"/>
<path d="M996.139 166.679L996.789 167.869L997.979 168.529L996.789 169.179L996.139 170.369L995.489 169.179L994.289 168.529L995.489 167.869L996.139 166.679Z" fill="#1F2075"/>
<path d="M1078.27 143.909L1078.92 145.099L1080.12 145.749L1078.92 146.409L1078.27 147.599L1077.62 146.409L1076.42 145.749L1077.62 145.099L1078.27 143.909Z" fill="#1F2075"/>
<path d="M1114.96 211.429L1115.62 212.619L1116.81 213.279L1115.62 213.929L1114.96 215.119L1114.31 213.929L1113.12 213.279L1114.31 212.619L1114.96 211.429Z" fill="#1F2075"/>
<path d="M1043.15 243.469L1043.8 244.659L1044.99 245.319L1043.8 245.969L1043.15 247.159L1042.5 245.969L1041.3 245.319L1042.5 244.659L1043.15 243.469Z" fill="#1F2075"/>
<path d="M1009.19 236.459L1009.84 237.659L1011.04 238.309L1009.84 238.959L1009.19 240.159L1008.54 238.959L1007.34 238.309L1008.54 237.659L1009.19 236.459Z" fill="#1F2075"/>
<path d="M1086.13 240.539L1086.78 241.729L1087.98 242.389L1086.78 243.039L1086.13 244.229L1085.48 243.039L1084.28 242.389L1085.48 241.729L1086.13 240.539Z" fill="#1F2075"/>
<path d="M850.022 238.309L850.672 239.499L851.862 240.159L850.672 240.809L850.022 241.999L849.362 240.809L848.172 240.159L849.362 239.499L850.022 238.309Z" fill="#1F2075"/>
<path d="M1034.82 204.369L1035.47 205.009L1036.67 205.359L1035.47 205.709L1034.82 206.349L1034.17 205.709L1032.98 205.359L1034.17 205.009L1034.82 204.369Z" fill="#1F2075"/>
<path d="M969.812 140.049L970.253 140.859L971.062 141.299L970.253 141.749L969.812 142.549L969.372 141.749L968.562 141.299L969.372 140.859L969.812 140.049Z" fill="#1F2075"/>
<path d="M987.131 127.279L987.381 127.729L987.831 127.979L987.381 128.229L987.131 128.679L986.891 128.229L986.441 127.979L986.891 127.729L987.131 127.279Z" fill="#1F2075"/>
<path d="M957.71 143.108L957.96 143.558L958.41 143.798L957.96 144.048L957.71 144.498L957.47 144.048L957.02 143.798L957.47 143.558L957.71 143.108Z" fill="#1F2075"/>
<path d="M949.251 128.529L949.501 128.979L949.951 129.229L949.501 129.479L949.251 129.929L949.001 129.479L948.551 129.229L949.001 128.979L949.251 128.529Z" fill="#1F2075"/>
<path d="M936.341 144.359L936.581 144.809L937.031 145.049L936.581 145.299L936.341 145.749L936.091 145.299L935.641 145.049L936.091 144.809L936.341 144.359Z" fill="#1F2075"/>
<path d="M964.313 171.519L964.563 171.969L965.013 172.219L964.563 172.469L964.313 172.919L964.073 172.469L963.613 172.219L964.073 171.969L964.313 171.519Z" fill="#1F2075"/>
<path d="M934.47 193.159L934.72 193.619L935.17 193.859L934.72 194.109L934.47 194.559L934.23 194.109L933.77 193.859L934.23 193.619L934.47 193.159Z" fill="#1F2075"/>
<path d="M947.77 202.419L948.02 202.869L948.47 203.119L948.02 203.359L947.77 203.819L947.52 203.359L947.07 203.119L947.52 202.869L947.77 202.419Z" fill="#1F2075"/>
<path d="M914.153 218.059L914.403 218.509L914.853 218.749L914.403 218.999L914.153 219.449L913.903 218.999L913.453 218.749L913.903 218.509L914.153 218.059Z" fill="#1F2075"/>
<path d="M842.032 218.749L842.282 219.199L842.732 219.449L842.282 219.699L842.032 220.149L841.782 219.699L841.332 219.449L841.782 219.199L842.032 218.749Z" fill="#1F2075"/>
<path d="M807.891 223.769L808.131 224.219L808.591 224.469L808.131 224.719L807.891 225.169L807.641 224.719L807.191 224.469L807.641 224.219L807.891 223.769Z" fill="#1F2075"/>
<path d="M833.141 233.999L833.391 234.449L833.841 234.699L833.391 234.949L833.141 235.399L832.901 234.949L832.441 234.699L832.901 234.449L833.141 233.999Z" fill="#1F2075"/>
<path d="M886.782 224.469L887.022 224.919L887.472 225.169L887.022 225.419L886.782 225.869L886.532 225.419L886.082 225.169L886.532 224.919L886.782 224.469Z" fill="#1F2075"/>
<path d="M897.239 233.299L897.489 233.749L897.939 233.999L897.489 234.249L897.239 234.699L896.999 234.249L896.539 233.999L896.999 233.749L897.239 233.299Z" fill="#1F2075"/>
<path d="M1064.5 225.169L1064.75 225.619L1065.2 225.869L1064.75 226.109L1064.5 226.569L1064.25 226.109L1063.8 225.869L1064.25 225.619L1064.5 225.169Z" fill="#1F2075"/>
<path d="M978.321 218.749L978.571 219.199L979.021 219.449L978.571 219.699L978.321 220.149L978.071 219.699L977.621 219.449L978.071 219.199L978.321 218.749Z" fill="#1F2075"/>
<path d="M1057.39 193.859L1057.64 194.309L1058.09 194.559L1057.64 194.809L1057.39 195.259L1057.15 194.809L1056.7 194.559L1057.15 194.309L1057.39 193.859Z" fill="#1F2075"/>
<path d="M1109.63 233.299L1109.88 233.749L1110.33 233.999L1109.88 234.249L1109.63 234.699L1109.38 234.249L1108.93 233.999L1109.38 233.749L1109.63 233.299Z" fill="#1F2075"/>
<path d="M1094.43 249.309L1094.67 249.759L1095.12 250.009L1094.67 250.259L1094.43 250.709L1094.18 250.259L1093.73 250.009L1094.18 249.759L1094.43 249.309Z" fill="#1F2075"/>
<path d="M1058.09 225.869L1058.34 226.319L1058.79 226.569L1058.34 226.809L1058.09 227.259L1057.84 226.809L1057.39 226.569L1057.84 226.319L1058.09 225.869Z" fill="#1F2075"/>
<path d="M1032.98 226.569L1033.22 227.019L1033.67 227.259L1033.22 227.509L1032.98 227.959L1032.73 227.509L1032.28 227.259L1032.73 227.019L1032.98 226.569Z" fill="#1F2075"/>
<path d="M1037.34 176.719L1037.58 177.169L1038.03 177.419L1037.58 177.659L1037.34 178.119L1037.09 177.659L1036.64 177.419L1037.09 177.169L1037.34 176.719Z" fill="#1F2075"/>
<path d="M829.72 176.019L829.96 176.469L830.41 176.719L829.96 176.969L829.72 177.419L829.47 176.969L829.02 176.719L829.47 176.469L829.72 176.019Z" fill="#1F2075"/>
<path d="M875.372 152.079L875.622 152.529L876.072 152.779L875.622 153.029L875.372 153.479L875.122 153.029L874.672 152.779L875.122 152.529L875.372 152.079Z" fill="#1F2075"/>
<path d="M896.542 143.108L896.792 143.558L897.242 143.798L896.792 144.048L896.542 144.498L896.302 144.048L895.852 143.798L896.302 143.558L896.542 143.108Z" fill="#1F2075"/>
<path d="M855.942 126.579L856.192 127.029L856.642 127.279L856.192 127.529L855.942 127.979L855.692 127.529L855.242 127.279L855.692 127.029L855.942 126.579Z" fill="#1F2075"/>
<path d="M918.802 183.409L919.052 183.859L919.502 184.109L919.052 184.349L918.802 184.799L918.552 184.349L918.102 184.109L918.552 183.859L918.802 183.409Z" fill="#1F2075"/>
<path d="M845.192 179.019L845.442 179.469L845.892 179.719L845.442 179.959L845.192 180.409L844.952 179.959L844.492 179.719L844.952 179.469L845.192 179.019Z" fill="#1F2075"/>
<path d="M1018.69 103.199L1018.94 103.649L1019.39 103.899L1018.94 104.139L1018.69 104.599L1018.44 104.139L1017.99 103.899L1018.44 103.649L1018.69 103.199Z" fill="#1F2075"/>
<path d="M1110.33 106.889L1110.58 107.339L1111.03 107.589L1110.58 107.839L1110.33 108.289L1110.08 107.839L1109.63 107.589L1110.08 107.339L1110.33 106.889Z" fill="#1F2075"/>
<path d="M1086.13 161.289L1086.38 161.739L1086.83 161.989L1086.38 162.239L1086.13 162.689L1085.88 162.239L1085.43 161.989L1085.88 161.739L1086.13 161.289Z" fill="#1F2075"/>
<path d="M1051.25 88.5889L1051.5 89.0489L1051.95 89.2889L1051.5 89.5389L1051.25 89.9889L1051 89.5389L1050.55 89.2889L1051 89.0489L1051.25 88.5889Z" fill="#1F2075"/>
<path d="M1104.35 142.409L1104.6 142.859L1105.05 143.109L1104.6 143.349L1104.35 143.799L1104.11 143.349L1103.65 143.109L1104.11 142.859L1104.35 142.409Z" fill="#1F2075"/>
<path d="M845.891 135.919L846.141 136.369L846.591 136.619L846.141 136.859L845.891 137.309L845.641 136.859L845.191 136.619L845.641 136.369L845.891 135.919Z" fill="#1F2075"/>
<path d="M913.45 199.879L913.7 200.329L914.15 200.579L913.7 200.819L913.45 201.279L913.2 200.819L912.75 200.579L913.2 200.329L913.45 199.879Z" fill="#1F2075"/>
<path d="M994.294 205.648L994.544 206.098L994.994 206.348L994.544 206.598L994.294 207.048L994.054 206.598L993.594 206.348L994.054 206.098L994.294 205.648Z" fill="#1F2075"/>
<path d="M1010.81 179.719L1011.06 180.169L1011.51 180.409L1011.06 180.659L1010.81 181.109L1010.56 180.659L1010.11 180.409L1010.56 180.169L1010.81 179.719Z" fill="#1F2075"/>
<path d="M1017.01 211.879L1017.26 212.329L1017.71 212.579L1017.26 212.819L1017.01 213.279L1016.77 212.819L1016.32 212.579L1016.77 212.329L1017.01 211.879Z" fill="#1F2075"/>
<path d="M1099.87 233.999L1100.12 234.449L1100.57 234.699L1100.12 234.949L1099.87 235.399L1099.63 234.949L1099.17 234.699L1099.63 234.449L1099.87 233.999Z" fill="#1F2075"/>
<path d="M970.344 105.089L970.794 105.899L971.604 106.339L970.794 106.779L970.344 107.589L969.904 106.779L969.094 106.339L969.904 105.899L970.344 105.089Z" fill="#1F2075"/>
<path d="M996.141 142.549L996.581 143.359L997.391 143.799L996.581 144.249L996.141 145.049L995.701 144.249L994.891 143.799L995.701 143.359L996.141 142.549Z" fill="#1F2075"/>
<path d="M1051.25 107.039L1051.69 107.849L1052.5 108.289L1051.69 108.729L1051.25 109.539L1050.81 108.729L1050 108.289L1050.81 107.849L1051.25 107.039Z" fill="#1F2075"/>
<path d="M1105.05 128.679L1105.49 129.489L1106.3 129.929L1105.49 130.369L1105.05 131.179L1104.61 130.369L1103.8 129.929L1104.61 129.489L1105.05 128.679Z" fill="#1F2075"/>
<path d="M1066.45 174.769L1066.89 175.579L1067.7 176.019L1066.89 176.459L1066.45 177.269L1066.01 176.459L1065.2 176.019L1066.01 175.579L1066.45 174.769Z" fill="#1F2075"/>
<path d="M953.832 191.619L954.272 192.429L955.082 192.869L954.272 193.309L953.832 194.119L953.392 193.309L952.582 192.869L953.392 192.429L953.832 191.619Z" fill="#1F2075"/>
<path d="M880.512 115.669L880.952 116.479L881.762 116.919L880.952 117.359L880.512 118.169L880.062 117.359L879.262 116.919L880.062 116.479L880.512 115.669Z" fill="#1F2075"/>
<path d="M917.551 146.779L917.991 147.589L918.801 148.029L917.991 148.469L917.551 149.279L917.111 148.469L916.301 148.029L917.111 147.589L917.551 146.779Z" fill="#1F2075"/>
<path d="M933.219 182.859L933.669 183.669L934.469 184.109L933.669 184.549L933.219 185.359L932.779 184.549L931.969 184.109L932.779 183.669L933.219 182.859Z" fill="#1F2075"/>
<path d="M943.133 171.669L943.573 172.479L944.383 172.919L943.573 173.359L943.133 174.169L942.693 173.359L941.883 172.919L942.693 172.479L943.133 171.669Z" fill="#1F2075"/>
<path d="M870.832 203.119L871.272 203.929L872.082 204.369L871.272 204.809L870.832 205.619L870.392 204.809L869.582 204.369L870.392 203.929L870.832 203.119Z" fill="#1F2075"/>
<path d="M1022.9 141.299L1023.35 142.109L1024.15 142.549L1023.35 142.999L1022.9 143.799L1022.46 142.999L1021.65 142.549L1022.46 142.109L1022.9 141.299Z" fill="#1F2075"/>
<path d="M975.719 165.429L976.159 166.239L976.969 166.679L976.159 167.119L975.719 167.929L975.279 167.119L974.469 166.679L975.279 166.239L975.719 165.429Z" fill="#1F2075"/>
<path d="M935.671 332.318L934.511 334.438L932.391 335.598L934.511 336.758L935.671 338.878L936.831 336.758L938.951 335.598L936.831 334.438L935.671 332.318Z" fill="#1F2075"/>
<path d="M982.09 290.169L980.94 292.289L978.82 293.449L980.94 294.609L982.09 296.729L983.25 294.609L985.37 293.449L983.25 292.289L982.09 290.169Z" fill="#1F2075"/>
<path d="M1008.64 321.769L1007.48 323.889L1005.37 325.049L1007.48 326.209L1008.64 328.329L1009.8 326.209L1011.92 325.049L1009.8 323.889L1008.64 321.769Z" fill="#1F2075"/>
<path d="M1068.19 267.688L1067.03 269.808L1064.91 270.968L1067.03 272.128L1068.19 274.248L1069.35 272.128L1071.47 270.968L1069.35 269.808L1068.19 267.688Z" fill="#1F2075"/>
<path d="M923.532 323.408L922.952 324.468L921.902 325.048L922.952 325.628L923.532 326.688L924.112 325.628L925.172 325.048L924.112 324.468L923.532 323.408Z" fill="#1F2075"/>
<path d="M850.652 303.198L850.072 304.258L849.012 304.838L850.072 305.418L850.652 306.478L851.222 305.418L852.292 304.838L851.222 304.258L850.652 303.198Z" fill="#1F2075"/>
<path d="M818.081 363.129L817.501 364.179L816.441 364.759L817.501 365.339L818.081 366.399L818.661 365.339L819.721 364.759L818.661 364.179L818.081 363.129Z" fill="#1F2075"/>
<path d="M881.81 391.559L881.23 392.619L880.18 393.199L881.23 393.779L881.81 394.839L882.39 393.779L883.45 393.199L882.39 392.619L881.81 391.559Z" fill="#1F2075"/>
<path d="M911.953 385.338L911.372 386.398L910.312 386.978L911.372 387.558L911.953 388.618L912.533 387.558L913.592 386.978L912.533 386.398L911.953 385.338Z" fill="#1F2075"/>
<path d="M843.671 388.959L843.091 390.019L842.031 390.599L843.091 391.179L843.671 392.239L844.251 391.179L845.311 390.599L844.251 390.019L843.671 388.959Z" fill="#1F2075"/>
<path d="M1053.21 386.979L1052.63 388.039L1051.57 388.618L1052.63 389.199L1053.21 390.259L1053.79 389.199L1054.85 388.618L1053.79 388.039L1053.21 386.979Z" fill="#1F2075"/>
<path d="M889.203 356.859L888.622 357.429L887.562 357.739L888.622 358.049L889.203 358.619L889.783 358.049L890.842 357.739L889.783 357.429L889.203 356.859Z" fill="#1F2075"/>
<path d="M946.899 299.779L946.509 300.499L945.789 300.889L946.509 301.279L946.899 301.999L947.289 301.279L948.009 300.889L947.289 300.499L946.899 299.779Z" fill="#1F2075"/>
<path d="M931.534 288.448L931.314 288.848L930.914 289.068L931.314 289.278L931.534 289.678L931.744 289.278L932.144 289.068L931.744 288.848L931.534 288.448Z" fill="#1F2075"/>
<path d="M957.642 302.488L957.412 302.888L957.012 303.108L957.412 303.328L957.642 303.728L957.852 303.328L958.252 303.108L957.852 302.888L957.642 302.488Z" fill="#1F2075"/>
<path d="M965.151 289.559L964.931 289.959L964.531 290.169L964.931 290.389L965.151 290.789L965.371 290.389L965.771 290.169L965.371 289.959L965.151 289.559Z" fill="#1F2075"/>
<path d="M976.612 303.599L976.392 303.999L975.992 304.219L976.392 304.439L976.612 304.839L976.832 304.439L977.232 304.219L976.832 303.999L976.612 303.599Z" fill="#1F2075"/>
<path d="M951.784 327.709L951.564 328.109L951.164 328.329L951.564 328.549L951.784 328.949L952.004 328.549L952.404 328.329L952.004 328.109L951.784 327.709Z" fill="#1F2075"/>
<path d="M978.261 346.919L978.041 347.319L977.641 347.539L978.041 347.749L978.261 348.149L978.481 347.749L978.881 347.539L978.481 347.319L978.261 346.919Z" fill="#1F2075"/>
<path d="M966.464 355.129L966.244 355.529L965.844 355.749L966.244 355.969L966.464 356.369L966.684 355.969L967.084 355.749L966.684 355.529L966.464 355.129Z" fill="#1F2075"/>
<path d="M996.3 369.008L996.08 369.408L995.68 369.628L996.08 369.838L996.3 370.238L996.52 369.838L996.92 369.628L996.52 369.408L996.3 369.008Z" fill="#1F2075"/>
<path d="M1060.3 369.618L1060.08 370.028L1059.68 370.238L1060.08 370.458L1060.3 370.858L1060.52 370.458L1060.92 370.238L1060.52 370.028L1060.3 369.618Z" fill="#1F2075"/>
<path d="M1090.6 374.078L1090.38 374.478L1089.98 374.698L1090.38 374.918L1090.6 375.318L1090.82 374.918L1091.22 374.698L1090.82 374.478L1090.6 374.078Z" fill="#1F2075"/>
<path d="M1068.19 383.158L1067.97 383.558L1067.57 383.778L1067.97 383.988L1068.19 384.398L1068.41 383.988L1068.81 383.778L1068.41 383.558L1068.19 383.158Z" fill="#1F2075"/>
<path d="M1020.59 374.698L1020.37 375.098L1019.97 375.318L1020.37 375.538L1020.59 375.938L1020.81 375.538L1021.21 375.318L1020.81 375.098L1020.59 374.698Z" fill="#1F2075"/>
<path d="M1011.3 382.539L1011.08 382.939L1010.68 383.159L1011.08 383.369L1011.3 383.779L1011.52 383.369L1011.92 383.159L1011.52 382.939L1011.3 382.539Z" fill="#1F2075"/>
<path d="M862.862 375.318L862.642 375.718L862.242 375.938L862.642 376.158L862.862 376.558L863.082 376.158L863.482 375.938L863.082 375.718L862.862 375.318Z" fill="#1F2075"/>
<path d="M939.35 369.618L939.13 370.028L938.73 370.238L939.13 370.458L939.35 370.858L939.57 370.458L939.97 370.238L939.57 370.028L939.35 369.618Z" fill="#1F2075"/>
<path d="M869.171 347.539L868.951 347.939L868.551 348.149L868.951 348.369L869.171 348.769L869.391 348.369L869.791 348.149L869.391 347.939L869.171 347.539Z" fill="#1F2075"/>
<path d="M822.811 382.539L822.591 382.939L822.191 383.159L822.591 383.369L822.811 383.779L823.031 383.369L823.431 383.159L823.031 382.939L822.811 382.539Z" fill="#1F2075"/>
<path d="M836.301 396.749L836.091 397.149L835.691 397.359L836.091 397.579L836.301 397.989L836.531 397.579L836.921 397.359L836.531 397.149L836.301 396.749Z" fill="#1F2075"/>
<path d="M868.55 375.938L868.33 376.338L867.93 376.558L868.33 376.778L868.55 377.178L868.77 376.778L869.17 376.558L868.77 376.338L868.55 375.938Z" fill="#1F2075"/>
<path d="M890.839 376.559L890.619 376.959L890.219 377.179L890.619 377.399L890.839 377.799L891.059 377.399L891.459 377.179L891.059 376.959L890.839 376.559Z" fill="#1F2075"/>
<path d="M886.972 332.318L886.752 332.718L886.352 332.938L886.752 333.158L886.972 333.558L887.192 333.158L887.592 332.938L887.192 332.718L886.972 332.318Z" fill="#1F2075"/>
<path d="M1071.23 331.698L1071.01 332.098L1070.61 332.318L1071.01 332.538L1071.23 332.938L1071.45 332.538L1071.85 332.318L1071.45 332.098L1071.23 331.698Z" fill="#1F2075"/>
<path d="M1030.71 310.459L1030.49 310.859L1030.09 311.079L1030.49 311.299L1030.71 311.699L1030.93 311.299L1031.33 311.079L1030.93 310.859L1030.71 310.459Z" fill="#1F2075"/>
<path d="M1011.92 302.488L1011.7 302.888L1011.3 303.108L1011.7 303.328L1011.92 303.728L1012.14 303.328L1012.54 303.108L1012.14 302.888L1011.92 302.488Z" fill="#1F2075"/>
<path d="M1047.96 287.828L1047.74 288.228L1047.34 288.448L1047.74 288.658L1047.96 289.068L1048.18 288.658L1048.58 288.448L1048.18 288.228L1047.96 287.828Z" fill="#1F2075"/>
<path d="M992.171 338.258L991.951 338.658L991.551 338.878L991.951 339.098L992.171 339.498L992.391 339.098L992.791 338.878L992.391 338.658L992.171 338.258Z" fill="#1F2075"/>
<path d="M1057.49 334.359L1057.28 334.759L1056.88 334.979L1057.28 335.199L1057.49 335.599L1057.71 335.199L1058.11 334.979L1057.71 334.759L1057.49 334.359Z" fill="#1F2075"/>
<path d="M903.522 267.068L903.302 267.468L902.902 267.688L903.302 267.908L903.522 268.308L903.742 267.908L904.142 267.688L903.742 267.468L903.522 267.068Z" fill="#1F2075"/>
<path d="M822.19 270.349L821.97 270.749L821.57 270.969L821.97 271.189L822.19 271.589L822.41 271.189L822.81 270.969L822.41 270.749L822.19 270.349Z" fill="#1F2075"/>
<path d="M843.671 318.629L843.451 319.029L843.051 319.249L843.451 319.469L843.671 319.869L843.891 319.469L844.291 319.249L843.891 319.029L843.671 318.629Z" fill="#1F2075"/>
<path d="M874.62 254.109L874.4 254.509L874 254.729L874.4 254.949L874.62 255.349L874.84 254.949L875.24 254.729L874.84 254.509L874.62 254.109Z" fill="#1F2075"/>
<path d="M827.503 301.868L827.283 302.268L826.883 302.488L827.283 302.708L827.503 303.108L827.723 302.708L828.123 302.488L827.723 302.268L827.503 301.868Z" fill="#1F2075"/>
<path d="M1056.88 296.109L1056.66 296.509L1056.26 296.729L1056.66 296.949L1056.88 297.349L1057.09 296.949L1057.49 296.729L1057.09 296.509L1056.88 296.109Z" fill="#1F2075"/>
<path d="M996.921 352.868L996.701 353.278L996.301 353.488L996.701 353.708L996.921 354.108L997.141 353.708L997.541 353.488L997.141 353.278L996.921 352.868Z" fill="#1F2075"/>
<path d="M925.171 357.998L924.951 358.398L924.551 358.618L924.951 358.838L925.171 359.238L925.391 358.838L925.791 358.618L925.391 358.398L925.171 357.998Z" fill="#1F2075"/>
<path d="M910.511 334.979L910.291 335.379L909.891 335.599L910.291 335.819L910.511 336.219L910.731 335.819L911.131 335.599L910.731 335.379L910.511 334.979Z" fill="#1F2075"/>
<path d="M905.011 363.529L904.791 363.929L904.391 364.149L904.791 364.359L905.011 364.759L905.231 364.359L905.631 364.149L905.231 363.929L905.011 363.529Z" fill="#1F2075"/>
<path d="M831.472 383.158L831.252 383.558L830.852 383.778L831.252 383.988L831.472 384.398L831.692 383.988L832.092 383.778L831.692 383.558L831.472 383.158Z" fill="#1F2075"/>
<path d="M946.43 268.748L946.03 269.468L945.32 269.858L946.03 270.248L946.43 270.968L946.82 270.248L947.53 269.858L946.82 269.468L946.43 268.748Z" fill="#1F2075"/>
<path d="M923.532 301.998L923.142 302.718L922.422 303.108L923.142 303.498L923.532 304.218L923.932 303.498L924.642 303.108L923.932 302.718L923.532 301.998Z" fill="#1F2075"/>
<path d="M911.081 209.729L909.921 211.849L907.801 213.009L909.921 214.169L911.081 216.279L912.231 214.169L914.351 213.009L912.231 211.849L911.081 209.729Z" fill="#1F2075"/>
<path d="M875.88 219.339L875.49 220.049L874.77 220.449L875.49 220.839L875.88 221.549L876.27 220.839L876.99 220.449L876.27 220.049L875.88 219.339Z" fill="#1F2075"/>
<path d="M860.511 207.998L860.291 208.398L859.891 208.618L860.291 208.838L860.511 209.238L860.721 208.838L861.121 208.618L860.721 208.398L860.511 207.998Z" fill="#1F2075"/>
<path d="M886.622 222.039L886.402 222.439L885.992 222.659L886.402 222.879L886.622 223.279L886.832 222.879L887.232 222.659L886.832 222.439L886.622 222.039Z" fill="#1F2075"/>
<path d="M894.132 209.109L893.912 209.509L893.512 209.729L893.912 209.949L894.132 210.349L894.352 209.949L894.752 209.729L894.352 209.509L894.132 209.109Z" fill="#1F2075"/>
<path d="M905.589 223.148L905.369 223.548L904.969 223.768L905.369 223.988L905.589 224.388L905.809 223.988L906.209 223.768L905.809 223.548L905.589 223.148Z" fill="#1F2075"/>
<path d="M875.411 188.309L875.011 189.019L874.301 189.419L875.011 189.809L875.411 190.529L875.801 189.809L876.511 189.419L875.801 189.019L875.411 188.309Z" fill="#1F2075"/>
<path d="M852.514 221.549L852.124 222.269L851.414 222.659L852.124 223.059L852.514 223.769L852.914 223.059L853.624 222.659L852.914 222.269L852.514 221.549Z" fill="#1F2075"/>
<path d="M953.481 241.258L953.081 241.978L952.371 242.368L953.081 242.758L953.481 243.478L953.871 242.758L954.591 242.368L953.871 241.978L953.481 241.258Z" fill="#1F2075"/>
<path d="M938.1 229.919L937.88 230.319L937.48 230.539L937.88 230.759L938.1 231.159L938.32 230.759L938.72 230.539L938.32 230.319L938.1 229.919Z" fill="#1F2075"/>
<path d="M964.214 243.969L963.994 244.369L963.594 244.589L963.994 244.799L964.214 245.209L964.434 244.799L964.834 244.589L964.434 244.369L964.214 243.969Z" fill="#1F2075"/>
<path d="M953.001 210.229L952.611 210.949L951.891 211.339L952.611 211.729L953.001 212.449L953.391 211.729L954.111 211.339L953.391 210.949L953.001 210.229Z" fill="#1F2075"/>
<path d="M930.11 243.479L929.71 244.189L929 244.589L929.71 244.979L930.11 245.689L930.5 244.979L931.22 244.589L930.5 244.189L930.11 243.479Z" fill="#1F2075"/>
<path d="M998.12 262.609L997.72 263.329L997 263.719L997.72 264.109L998.12 264.829L998.51 264.109L999.22 263.719L998.51 263.329L998.12 262.609Z" fill="#1F2075"/>
<path d="M982.741 251.269L982.521 251.669L982.121 251.889L982.521 252.109L982.741 252.509L982.961 252.109L983.361 251.889L982.961 251.669L982.741 251.269Z" fill="#1F2075"/>
<path d="M1008.85 265.318L1008.63 265.718L1008.23 265.938L1008.63 266.158L1008.85 266.558L1009.07 266.158L1009.47 265.938L1009.07 265.718L1008.85 265.318Z" fill="#1F2075"/>
<path d="M997.641 231.578L997.251 232.298L996.531 232.688L997.251 233.078L997.641 233.798L998.031 233.078L998.751 232.688L998.031 232.298L997.641 231.578Z" fill="#1F2075"/>
<path d="M974.751 264.828L974.351 265.538L973.641 265.938L974.351 266.328L974.751 267.048L975.141 266.328L975.861 265.938L975.141 265.538L974.751 264.828Z" fill="#1F2075"/>
<path d="M874.622 270.479L874.232 271.199L873.512 271.589L874.232 271.979L874.622 272.699L875.012 271.979L875.732 271.589L875.012 271.199L874.622 270.479Z" fill="#1F2075"/>
<path d="M826.88 289.679L826.49 290.399L825.77 290.789L826.49 291.189L826.88 291.899L827.27 291.189L827.99 290.789L827.27 290.399L826.88 289.679Z" fill="#1F2075"/>
<path d="M861.13 330.589L860.74 331.309L860.02 331.699L860.74 332.089L861.13 332.809L861.53 332.089L862.24 331.699L861.53 331.309L861.13 330.589Z" fill="#1F2075"/>
<path d="M961.079 345.549L960.689 346.259L959.969 346.659L960.689 347.049L961.079 347.769L961.469 347.049L962.189 346.659L961.469 346.259L961.079 345.549Z" fill="#1F2075"/>
<path d="M1026.15 278.139L1025.76 278.859L1025.04 279.249L1025.76 279.649L1026.15 280.359L1026.55 279.649L1027.26 279.249L1026.55 278.859L1026.15 278.139Z" fill="#1F2075"/>
<path d="M993.282 305.748L992.892 306.468L992.172 306.858L992.892 307.248L993.282 307.968L993.672 307.248L994.392 306.858L993.672 306.468L993.282 305.748Z" fill="#1F2075"/>
<path d="M979.372 337.769L978.982 338.489L978.262 338.879L978.982 339.269L979.372 339.989L979.762 339.269L980.482 338.879L979.762 338.489L979.372 337.769Z" fill="#1F2075"/>
<path d="M970.579 327.838L970.179 328.558L969.469 328.948L970.179 329.338L970.579 330.058L970.969 329.338L971.689 328.948L970.969 328.558L970.579 327.838Z" fill="#1F2075"/>
<path d="M1034.74 355.748L1034.35 356.468L1033.63 356.858L1034.35 357.248L1034.74 357.968L1035.13 357.248L1035.85 356.858L1035.13 356.468L1034.74 355.748Z" fill="#1F2075"/>
<path d="M899.782 300.889L899.392 301.609L898.672 301.999L899.392 302.389L899.782 303.109L900.172 302.389L900.892 301.999L900.172 301.609L899.782 300.889Z" fill="#1F2075"/>
<path d="M941.649 322.299L941.259 323.019L940.539 323.409L941.259 323.799L941.649 324.519L942.039 323.799L942.759 323.409L942.039 323.019L941.649 322.299Z" fill="#1F2075"/>
</g>
<path d="M505.551 286.378C508.493 291.585 507.776 298.096 503.784 302.545C508.991 299.603 515.502 300.32 519.951 304.312C517.009 299.105 517.726 292.594 521.718 288.145C516.511 291.087 510 290.37 505.551 286.378Z" fill="#EBEBEB"/>
<path d="M1378.99 66.2891C1377.97 74.9449 1371.52 81.9849 1363 83.782C1371.66 84.8042 1378.7 91.2507 1380.49 99.7746C1381.52 91.1188 1387.96 84.0788 1396.49 82.2817C1387.83 81.2595 1380.79 74.813 1378.99 66.2891Z" fill="#EBEBEB"/>
<path d="M491.798 284.329C493.956 286.857 494.269 290.483 492.563 293.344C495.091 291.186 498.717 290.873 501.578 292.579C499.42 290.051 499.107 286.424 500.813 283.564C498.285 285.722 494.658 286.035 491.798 284.329Z" fill="#EBEBEB"/>
<path d="M69.512 307.935C66.4114 310.461 62.0404 310.737 58.6464 308.606C61.1731 311.707 61.4491 316.078 59.3181 319.472C62.4188 316.945 66.7898 316.669 70.1837 318.8C67.657 315.699 67.381 311.328 69.512 307.935Z" fill="#EBEBEB"/>
<path d="M72.5423 41.2891C72.7825 44.4883 70.9591 47.4911 68 48.7468C71.1993 48.5065 74.202 50.33 75.4577 53.2891C75.2175 50.0898 77.0409 47.0871 80 45.8314C76.8007 46.0716 73.798 44.2481 72.5423 41.2891Z" fill="#EBEBEB"/>
<path d="M1319.53 361.854C1322.93 365.308 1323.75 370.548 1321.57 374.881C1325.02 371.484 1330.26 370.658 1334.59 372.845C1331.2 369.391 1330.37 364.151 1332.56 359.818C1329.1 363.215 1323.86 364.041 1319.53 361.854Z" fill="#EBEBEB"/>
<g opacity="0.3">
<path d="M830.442 151.07L831.929 153.803L834.662 155.29L831.929 156.788L830.442 159.521L828.944 156.788L826.211 155.29L828.944 153.803L830.442 151.07Z" fill="white"/>
<path d="M770.61 96.7637L772.108 99.4968L774.842 100.983L772.108 102.481L770.61 105.215L769.124 102.481L766.391 100.983L769.124 99.4968L770.61 96.7637Z" fill="white"/>
<path d="M736.407 137.474L737.894 140.207L740.627 141.705L737.894 143.191L736.407 145.925L734.909 143.191L732.176 141.705L734.909 140.207L736.407 137.474Z" fill="white"/>
<path d="M659.677 67.7969L661.175 70.53L663.908 72.0166L661.175 73.5147L659.677 76.2477L658.19 73.5147L655.457 72.0166L658.19 70.53L659.677 67.7969Z" fill="white"/>
<path d="M846.073 139.589L846.816 140.95L848.177 141.704L846.816 142.448L846.073 143.809L845.329 142.448L843.957 141.704L845.329 140.95L846.073 139.589Z" fill="white"/>
<path d="M939.994 113.551L940.738 114.912L942.11 115.655L940.738 116.41L939.994 117.771L939.251 116.41L937.879 115.655L939.251 114.912L939.994 113.551Z" fill="white"/>
<path d="M981.952 190.764L982.707 192.125L984.067 192.879L982.707 193.623L981.952 194.983L981.208 193.623L979.848 192.879L981.208 192.125L981.952 190.764Z" fill="white"/>
<path d="M899.834 227.402L900.578 228.763L901.938 229.518L900.578 230.261L899.834 231.622L899.091 230.261L897.719 229.518L899.091 228.763L899.834 227.402Z" fill="white"/>
<path d="M860.998 219.387L861.742 220.759L863.114 221.502L861.742 222.246L860.998 223.618L860.255 222.246L858.883 221.502L860.255 220.759L860.998 219.387Z" fill="white"/>
<path d="M948.983 224.053L949.726 225.414L951.098 226.168L949.726 226.912L948.983 228.272L948.239 226.912L946.867 226.168L948.239 225.414L948.983 224.053Z" fill="white"/>
<path d="M678.979 221.502L679.722 222.863L681.083 223.618L679.722 224.361L678.979 225.722L678.224 224.361L676.863 223.618L678.224 222.863L678.979 221.502Z" fill="white"/>
<path d="M890.307 182.69L891.051 183.422L892.423 183.823L891.051 184.223L890.307 184.955L889.564 184.223L888.203 183.823L889.564 183.422L890.307 182.69Z" fill="white"/>
<path d="M815.965 109.137L816.468 110.063L817.394 110.566L816.468 111.081L815.965 111.996L815.461 111.081L814.535 110.566L815.461 110.063L815.965 109.137Z" fill="white"/>
<path d="M835.77 94.5332L836.055 95.0478L836.57 95.3337L836.055 95.6196L835.77 96.1342L835.495 95.6196L834.98 95.3337L835.495 95.0478L835.77 94.5332Z" fill="white"/>
<path d="M802.129 112.636L802.415 113.15L802.929 113.425L802.415 113.711L802.129 114.225L801.854 113.711L801.34 113.425L801.854 113.15L802.129 112.636Z" fill="white"/>
<path d="M792.453 95.9629L792.739 96.4775L793.253 96.7634L792.739 97.0493L792.453 97.5639L792.167 97.0493L791.652 96.7634L792.167 96.4775L792.453 95.9629Z" fill="white"/>
<path d="M777.691 114.065L777.966 114.58L778.48 114.854L777.966 115.14L777.691 115.655L777.405 115.14L776.891 114.854L777.405 114.58L777.691 114.065Z" fill="white"/>
<path d="M809.676 145.124L809.961 145.639L810.476 145.925L809.961 146.21L809.676 146.725L809.401 146.21L808.875 145.925L809.401 145.639L809.676 145.124Z" fill="white"/>
<path d="M775.551 169.87L775.836 170.396L776.351 170.671L775.836 170.957L775.551 171.471L775.276 170.957L774.75 170.671L775.276 170.396L775.551 169.87Z" fill="white"/>
<path d="M790.761 180.46L791.047 180.975L791.562 181.26L791.047 181.535L790.761 182.061L790.476 181.535L789.961 181.26L790.476 180.975L790.761 180.46Z" fill="white"/>
<path d="M752.316 198.345L752.602 198.859L753.117 199.134L752.602 199.42L752.316 199.934L752.03 199.42L751.516 199.134L752.03 198.859L752.316 198.345Z" fill="white"/>
<path d="M669.843 199.135L670.129 199.649L670.644 199.935L670.129 200.221L669.843 200.736L669.558 200.221L669.043 199.935L669.558 199.649L669.843 199.135Z" fill="white"/>
<path d="M630.8 204.875L631.075 205.39L631.601 205.675L631.075 205.961L630.8 206.476L630.515 205.961L630 205.675L630.515 205.39L630.8 204.875Z" fill="white"/>
<path d="M659.675 216.573L659.961 217.088L660.476 217.374L659.961 217.66L659.675 218.174L659.401 217.66L658.875 217.374L659.401 217.088L659.675 216.573Z" fill="white"/>
<path d="M721.015 205.675L721.29 206.189L721.804 206.475L721.29 206.761L721.015 207.276L720.729 206.761L720.215 206.475L720.729 206.189L721.015 205.675Z" fill="white"/>
<path d="M732.976 215.772L733.262 216.287L733.777 216.573L733.262 216.859L732.976 217.373L732.702 216.859L732.176 216.573L732.702 216.287L732.976 215.772Z" fill="white"/>
<path d="M924.246 206.476L924.532 206.99L925.046 207.276L924.532 207.551L924.246 208.077L923.96 207.551L923.445 207.276L923.96 206.99L924.246 206.476Z" fill="white"/>
<path d="M825.695 199.135L825.981 199.649L826.496 199.935L825.981 200.221L825.695 200.736L825.409 200.221L824.895 199.935L825.409 199.649L825.695 199.135Z" fill="white"/>
<path d="M916.117 170.671L916.403 171.185L916.918 171.471L916.403 171.757L916.117 172.272L915.843 171.757L915.328 171.471L915.843 171.185L916.117 170.671Z" fill="white"/>
<path d="M975.855 215.772L976.141 216.287L976.656 216.573L976.141 216.859L975.855 217.373L975.569 216.859L975.055 216.573L975.569 216.287L975.855 215.772Z" fill="white"/>
<path d="M958.472 234.081L958.747 234.596L959.261 234.882L958.747 235.167L958.472 235.682L958.186 235.167L957.672 234.882L958.186 234.596L958.472 234.081Z" fill="white"/>
<path d="M916.918 207.276L917.204 207.791L917.718 208.077L917.204 208.351L916.918 208.866L916.632 208.351L916.117 208.077L916.632 207.791L916.918 207.276Z" fill="white"/>
<path d="M888.203 208.077L888.477 208.592L888.992 208.866L888.477 209.152L888.203 209.667L887.917 209.152L887.402 208.866L887.917 208.592L888.203 208.077Z" fill="white"/>
<path d="M893.187 151.07L893.462 151.585L893.976 151.871L893.462 152.145L893.187 152.671L892.901 152.145L892.387 151.871L892.901 151.585L893.187 151.07Z" fill="white"/>
<path d="M655.765 150.271L656.04 150.785L656.554 151.071L656.04 151.357L655.765 151.871L655.479 151.357L654.965 151.071L655.479 150.785L655.765 150.271Z" fill="white"/>
<path d="M707.968 122.894L708.254 123.408L708.769 123.694L708.254 123.98L707.968 124.495L707.683 123.98L707.168 123.694L707.683 123.408L707.968 122.894Z" fill="white"/>
<path d="M732.176 112.636L732.462 113.15L732.976 113.425L732.462 113.711L732.176 114.225L731.901 113.711L731.387 113.425L731.901 113.15L732.176 112.636Z" fill="white"/>
<path d="M685.75 93.7334L686.036 94.248L686.55 94.5339L686.036 94.8198L685.75 95.3344L685.464 94.8198L684.949 94.5339L685.464 94.248L685.75 93.7334Z" fill="white"/>
<path d="M757.632 158.721L757.918 159.235L758.433 159.521L757.918 159.796L757.632 160.31L757.347 159.796L756.832 159.521L757.347 159.235L757.632 158.721Z" fill="white"/>
<path d="M673.457 153.7L673.743 154.215L674.257 154.501L673.743 154.775L673.457 155.29L673.182 154.775L672.656 154.501L673.182 154.215L673.457 153.7Z" fill="white"/>
<path d="M871.863 66.9961L872.149 67.5107L872.664 67.7966L872.149 68.071L871.863 68.5971L871.577 68.071L871.062 67.7966L871.577 67.5107L871.863 66.9961Z" fill="white"/>
<path d="M976.66 71.2158L976.946 71.7304L977.46 72.0163L976.946 72.3022L976.66 72.8168L976.374 72.3022L975.859 72.0163L976.374 71.7304L976.66 71.2158Z" fill="white"/>
<path d="M948.984 133.426L949.27 133.94L949.785 134.226L949.27 134.512L948.984 135.027L948.698 134.512L948.184 134.226L948.698 133.94L948.984 133.426Z" fill="white"/>
<path d="M909.097 50.2891L909.383 50.8151L909.898 51.0895L909.383 51.3754L909.097 51.89L908.811 51.3754L908.297 51.0895L908.811 50.8151L909.097 50.2891Z" fill="white"/>
<path d="M969.82 111.835L970.106 112.35L970.62 112.635L970.106 112.91L969.82 113.425L969.546 112.91L969.02 112.635L969.546 112.35L969.82 111.835Z" fill="white"/>
<path d="M674.258 104.414L674.543 104.929L675.058 105.215L674.543 105.489L674.258 106.004L673.972 105.489L673.457 105.215L673.972 104.929L674.258 104.414Z" fill="white"/>
<path d="M751.511 177.556L751.797 178.07L752.312 178.356L751.797 178.631L751.511 179.157L751.226 178.631L750.711 178.356L751.226 178.07L751.511 177.556Z" fill="white"/>
<path d="M843.961 184.153L844.247 184.668L844.761 184.954L844.247 185.24L843.961 185.754L843.686 185.24L843.16 184.954L843.686 184.668L843.961 184.153Z" fill="white"/>
<path d="M862.851 154.501L863.137 155.016L863.652 155.29L863.137 155.576L862.851 156.091L862.565 155.576L862.051 155.29L862.565 155.016L862.851 154.501Z" fill="white"/>
<path d="M869.941 191.278L870.227 191.793L870.742 192.079L870.227 192.353L869.941 192.879L869.667 192.353L869.152 192.079L869.667 191.793L869.941 191.278Z" fill="white"/>
<path d="M964.695 216.573L964.981 217.088L965.496 217.374L964.981 217.66L964.695 218.174L964.421 217.66L963.895 217.374L964.421 217.088L964.695 216.573Z" fill="white"/>
<path d="M816.57 69.1582L817.085 70.0845L818.011 70.5876L817.085 71.0908L816.57 72.0171L816.067 71.0908L815.141 70.5876L816.067 70.0845L816.57 69.1582Z" fill="white"/>
<path d="M846.074 111.995L846.577 112.921L847.503 113.425L846.577 113.939L846.074 114.854L845.571 113.939L844.645 113.425L845.571 112.921L846.074 111.995Z" fill="white"/>
<path d="M909.094 71.3877L909.597 72.314L910.523 72.8171L909.597 73.3203L909.094 74.2466L908.59 73.3203L907.664 72.8171L908.59 72.314L909.094 71.3877Z" fill="white"/>
<path d="M970.617 96.1338L971.12 97.0601L972.046 97.5632L971.12 98.0664L970.617 98.9927L970.114 98.0664L969.188 97.5632L970.114 97.0601L970.617 96.1338Z" fill="white"/>
<path d="M926.476 148.84L926.979 149.766L927.906 150.269L926.979 150.772L926.476 151.699L925.973 150.772L925.047 150.269L925.973 149.766L926.476 148.84Z" fill="white"/>
<path d="M797.691 168.11L798.194 169.037L799.121 169.54L798.194 170.043L797.691 170.969L797.188 170.043L796.262 169.54L797.188 169.037L797.691 168.11Z" fill="white"/>
<path d="M713.847 81.2568L714.351 82.1831L715.277 82.6863L714.351 83.1894L713.847 84.1157L713.333 83.1894L712.418 82.6863L713.333 82.1831L713.847 81.2568Z" fill="white"/>
<path d="M756.203 116.832L756.706 117.758L757.632 118.261L756.706 118.765L756.203 119.691L755.7 118.765L754.773 118.261L755.7 117.758L756.203 116.832Z" fill="white"/>
<path d="M774.125 158.092L774.639 159.018L775.554 159.521L774.639 160.024L774.125 160.951L773.622 160.024L772.695 159.521L773.622 159.018L774.125 158.092Z" fill="white"/>
<path d="M785.457 145.296L785.96 146.222L786.886 146.725L785.96 147.229L785.457 148.155L784.954 147.229L784.027 146.725L784.954 146.222L785.457 145.296Z" fill="white"/>
<path d="M702.777 181.261L703.28 182.187L704.207 182.69L703.28 183.193L702.777 184.12L702.274 183.193L701.348 182.69L702.274 182.187L702.777 181.261Z" fill="white"/>
<path d="M876.676 110.565L877.19 111.492L878.105 111.995L877.19 112.509L876.676 113.424L876.172 112.509L875.246 111.995L876.172 111.492L876.676 110.565Z" fill="white"/>
<path d="M822.726 138.16L823.229 139.086L824.156 139.59L823.229 140.093L822.726 141.019L822.223 140.093L821.297 139.59L822.223 139.086L822.726 138.16Z" fill="white"/>
<path d="M776.927 329.008L775.6 331.432L773.176 332.759L775.6 334.085L776.927 336.51L778.253 334.085L780.678 332.759L778.253 331.432L776.927 329.008Z" fill="white"/>
<path d="M830.009 280.807L828.694 283.231L826.27 284.558L828.694 285.884L830.009 288.308L831.335 285.884L833.76 284.558L831.335 283.231L830.009 280.807Z" fill="white"/>
<path d="M860.372 316.943L859.046 319.368L856.633 320.694L859.046 322.021L860.372 324.445L861.699 322.021L864.123 320.694L861.699 319.368L860.372 316.943Z" fill="white"/>
<path d="M928.47 255.1L927.143 257.524L924.719 258.85L927.143 260.177L928.47 262.601L929.796 260.177L932.22 258.85L929.796 257.524L928.47 255.1Z" fill="white"/>
<path d="M763.044 318.818L762.38 320.031L761.18 320.694L762.38 321.357L763.044 322.569L763.707 321.357L764.919 320.694L763.707 320.031L763.044 318.818Z" fill="white"/>
<path d="M679.7 295.707L679.036 296.919L677.824 297.582L679.036 298.246L679.7 299.458L680.351 298.246L681.575 297.582L680.351 296.919L679.7 295.707Z" fill="white"/>
<path d="M642.454 364.24L641.79 365.441L640.578 366.104L641.79 366.767L642.454 367.98L643.117 366.767L644.329 366.104L643.117 365.441L642.454 364.24Z" fill="white"/>
<path d="M715.333 396.752L714.67 397.964L713.469 398.627L714.67 399.291L715.333 400.503L715.996 399.291L717.208 398.627L715.996 397.964L715.333 396.752Z" fill="white"/>
<path d="M749.797 389.639L749.134 390.851L747.922 391.514L749.134 392.177L749.797 393.39L750.461 392.177L751.673 391.514L750.461 390.851L749.797 389.639Z" fill="white"/>
<path d="M671.715 393.778L671.052 394.99L669.84 395.654L671.052 396.317L671.715 397.529L672.379 396.317L673.591 395.654L672.379 394.99L671.715 393.778Z" fill="white"/>
<path d="M911.34 391.515L910.677 392.727L909.465 393.39L910.677 394.053L911.34 395.266L912.004 394.053L913.216 393.39L912.004 392.727L911.34 391.515Z" fill="white"/>
<path d="M723.782 357.07L723.118 357.722L721.906 358.077L723.118 358.431L723.782 359.083L724.445 358.431L725.657 358.077L724.445 357.722L723.782 357.07Z" fill="white"/>
<path d="M789.765 291.797L789.319 292.62L788.496 293.066L789.319 293.512L789.765 294.336L790.211 293.512L791.035 293.066L790.211 292.62L789.765 291.797Z" fill="white"/>
<path d="M772.189 278.841L771.938 279.298L771.48 279.55L771.938 279.79L772.189 280.247L772.43 279.79L772.887 279.55L772.43 279.298L772.189 278.841Z" fill="white"/>
<path d="M802.049 294.896L801.786 295.353L801.328 295.605L801.786 295.856L802.049 296.314L802.289 295.856L802.746 295.605L802.289 295.353L802.049 294.896Z" fill="white"/>
<path d="M810.639 280.109L810.387 280.567L809.93 280.807L810.387 281.059L810.639 281.516L810.89 281.059L811.348 280.807L810.89 280.567L810.639 280.109Z" fill="white"/>
<path d="M823.744 296.165L823.493 296.622L823.035 296.874L823.493 297.126L823.744 297.583L823.996 297.126L824.453 296.874L823.996 296.622L823.744 296.165Z" fill="white"/>
<path d="M795.346 323.736L795.094 324.194L794.637 324.445L795.094 324.697L795.346 325.154L795.597 324.697L796.055 324.445L795.597 324.194L795.346 323.736Z" fill="white"/>
<path d="M825.627 345.704L825.375 346.162L824.918 346.413L825.375 346.653L825.627 347.111L825.879 346.653L826.336 346.413L825.879 346.162L825.627 345.704Z" fill="white"/>
<path d="M812.135 355.092L811.883 355.549L811.426 355.801L811.883 356.052L812.135 356.51L812.386 356.052L812.844 355.801L812.386 355.549L812.135 355.092Z" fill="white"/>
<path d="M846.26 370.965L846.008 371.422L845.551 371.674L846.008 371.914L846.26 372.371L846.511 371.914L846.969 371.674L846.511 371.422L846.26 370.965Z" fill="white"/>
<path d="M919.447 371.663L919.196 372.132L918.738 372.372L919.196 372.624L919.447 373.081L919.699 372.624L920.156 372.372L919.699 372.132L919.447 371.663Z" fill="white"/>
<path d="M954.096 376.763L953.844 377.22L953.387 377.472L953.844 377.723L954.096 378.181L954.347 377.723L954.805 377.472L954.347 377.22L954.096 376.763Z" fill="white"/>
<path d="M928.471 387.146L928.219 387.604L927.762 387.855L928.219 388.096L928.471 388.564L928.722 388.096L929.18 387.855L928.722 387.604L928.471 387.146Z" fill="white"/>
<path d="M874.037 377.472L873.786 377.929L873.328 378.181L873.786 378.432L874.037 378.89L874.289 378.432L874.746 378.181L874.289 377.929L874.037 377.472Z" fill="white"/>
<path d="M863.412 386.438L863.161 386.895L862.703 387.146L863.161 387.387L863.412 387.855L863.664 387.387L864.121 387.146L863.664 386.895L863.412 386.438Z" fill="white"/>
<path d="M693.662 378.181L693.411 378.638L692.953 378.89L693.411 379.141L693.662 379.599L693.914 379.141L694.371 378.89L693.914 378.638L693.662 378.181Z" fill="white"/>
<path d="M781.135 371.663L780.883 372.132L780.426 372.372L780.883 372.624L781.135 373.081L781.386 372.624L781.844 372.372L781.386 372.132L781.135 371.663Z" fill="white"/>
<path d="M700.877 346.412L700.625 346.87L700.168 347.11L700.625 347.361L700.877 347.819L701.129 347.361L701.586 347.11L701.129 346.87L700.877 346.412Z" fill="white"/>
<path d="M647.861 386.437L647.61 386.894L647.152 387.146L647.61 387.386L647.861 387.855L648.113 387.386L648.57 387.146L648.113 386.894L647.861 386.437Z" fill="white"/>
<path d="M663.287 402.687L663.047 403.144L662.59 403.384L663.047 403.636L663.287 404.105L663.55 403.636L663.996 403.384L663.55 403.144L663.287 402.687Z" fill="white"/>
<path d="M700.17 378.89L699.918 379.347L699.461 379.599L699.918 379.85L700.17 380.308L700.422 379.85L700.879 379.599L700.422 379.347L700.17 378.89Z" fill="white"/>
<path d="M725.658 379.599L725.407 380.056L724.949 380.308L725.407 380.559L725.658 381.017L725.91 380.559L726.367 380.308L725.91 380.056L725.658 379.599Z" fill="white"/>
<path d="M721.232 329.007L720.981 329.464L720.523 329.716L720.981 329.967L721.232 330.425L721.484 329.967L721.941 329.716L721.484 329.464L721.232 329.007Z" fill="white"/>
<path d="M931.947 328.299L931.696 328.756L931.238 329.008L931.696 329.259L931.947 329.717L932.199 329.259L932.656 329.008L932.199 328.756L931.947 328.299Z" fill="white"/>
<path d="M885.607 304.01L885.356 304.467L884.898 304.719L885.356 304.97L885.607 305.428L885.859 304.97L886.316 304.719L885.859 304.467L885.607 304.01Z" fill="white"/>
<path d="M864.119 294.896L863.868 295.353L863.41 295.605L863.868 295.856L864.119 296.314L864.371 295.856L864.828 295.605L864.371 295.353L864.119 294.896Z" fill="white"/>
<path d="M905.334 278.131L905.082 278.588L904.625 278.84L905.082 279.08L905.334 279.549L905.586 279.08L906.043 278.84L905.586 278.588L905.334 278.131Z" fill="white"/>
<path d="M841.537 335.801L841.286 336.258L840.828 336.51L841.286 336.761L841.537 337.219L841.789 336.761L842.246 336.51L841.789 336.258L841.537 335.801Z" fill="white"/>
<path d="M916.237 331.341L915.996 331.798L915.539 332.05L915.996 332.301L916.237 332.759L916.488 332.301L916.946 332.05L916.488 331.798L916.237 331.341Z" fill="white"/>
<path d="M740.158 254.391L739.907 254.848L739.449 255.1L739.907 255.351L740.158 255.809L740.41 255.351L740.867 255.1L740.41 254.848L740.158 254.391Z" fill="white"/>
<path d="M647.154 258.142L646.903 258.599L646.445 258.851L646.903 259.102L647.154 259.56L647.406 259.102L647.863 258.851L647.406 258.599L647.154 258.142Z" fill="white"/>
<path d="M671.717 313.353L671.465 313.81L671.008 314.062L671.465 314.313L671.717 314.771L671.968 314.313L672.426 314.062L671.968 313.81L671.717 313.353Z" fill="white"/>
<path d="M707.107 239.57L706.856 240.028L706.398 240.279L706.856 240.531L707.107 240.988L707.359 240.531L707.816 240.279L707.359 240.028L707.107 239.57Z" fill="white"/>
<path d="M653.229 294.187L652.977 294.644L652.52 294.896L652.977 295.147L653.229 295.605L653.48 295.147L653.938 294.896L653.48 294.644L653.229 294.187Z" fill="white"/>
<path d="M915.537 287.601L915.286 288.058L914.828 288.31L915.286 288.561L915.537 289.019L915.777 288.561L916.235 288.31L915.777 288.058L915.537 287.601Z" fill="white"/>
<path d="M846.967 352.508L846.715 352.977L846.258 353.217L846.715 353.468L846.967 353.926L847.218 353.468L847.676 353.217L847.218 352.977L846.967 352.508Z" fill="white"/>
<path d="M764.916 358.374L764.664 358.831L764.207 359.083L764.664 359.335L764.916 359.792L765.168 359.335L765.625 359.083L765.168 358.831L764.916 358.374Z" fill="white"/>
<path d="M748.15 332.05L747.899 332.507L747.441 332.759L747.899 333.01L748.15 333.468L748.402 333.01L748.859 332.759L748.402 332.507L748.15 332.05Z" fill="white"/>
<path d="M741.861 364.698L741.61 365.156L741.152 365.407L741.61 365.647L741.861 366.105L742.113 365.647L742.57 365.407L742.113 365.156L741.861 364.698Z" fill="white"/>
<path d="M657.768 387.146L657.516 387.604L657.059 387.855L657.516 388.096L657.768 388.564L658.019 388.096L658.477 387.855L658.019 387.604L657.768 387.146Z" fill="white"/>
<path d="M789.23 256.312L788.773 257.136L787.961 257.582L788.773 258.028L789.23 258.851L789.676 258.028L790.488 257.582L789.676 257.136L789.23 256.312Z" fill="white"/>
<path d="M763.043 294.335L762.597 295.158L761.773 295.604L762.597 296.05L763.043 296.874L763.5 296.05L764.312 295.604L763.5 295.158L763.043 294.335Z" fill="white"/>
<path d="M748.802 188.819L747.475 191.244L745.051 192.57L747.475 193.897L748.802 196.31L750.117 193.897L752.541 192.57L750.117 191.244L748.802 188.819Z" fill="white"/>
<path d="M708.551 199.809L708.105 200.621L707.281 201.078L708.105 201.524L708.551 202.336L708.997 201.524L709.82 201.078L708.997 200.621L708.551 199.809Z" fill="white"/>
<path d="M690.975 186.841L690.723 187.298L690.266 187.55L690.723 187.801L690.975 188.259L691.215 187.801L691.672 187.55L691.215 187.298L690.975 186.841Z" fill="white"/>
<path d="M720.834 202.896L720.582 203.354L720.113 203.605L720.582 203.857L720.834 204.314L721.074 203.857L721.531 203.605L721.074 203.354L720.834 202.896Z" fill="white"/>
<path d="M729.42 188.11L729.168 188.568L728.711 188.819L729.168 189.071L729.42 189.528L729.672 189.071L730.129 188.819L729.672 188.568L729.42 188.11Z" fill="white"/>
<path d="M742.525 204.165L742.274 204.622L741.816 204.874L742.274 205.126L742.525 205.583L742.777 205.126L743.234 204.874L742.777 204.622L742.525 204.165Z" fill="white"/>
<path d="M708.012 164.324L707.554 165.136L706.742 165.594L707.554 166.04L708.012 166.863L708.458 166.04L709.269 165.594L708.458 165.136L708.012 164.324Z" fill="white"/>
<path d="M681.824 202.336L681.378 203.159L680.566 203.605L681.378 204.063L681.824 204.875L682.282 204.063L683.094 203.605L682.282 203.159L681.824 202.336Z" fill="white"/>
<path d="M797.293 224.876L796.835 225.699L796.023 226.145L796.835 226.591L797.293 227.415L797.739 226.591L798.562 226.145L797.739 225.699L797.293 224.876Z" fill="white"/>
<path d="M779.705 211.908L779.454 212.366L778.996 212.617L779.454 212.869L779.705 213.326L779.957 212.869L780.414 212.617L779.957 212.366L779.705 211.908Z" fill="white"/>
<path d="M809.564 227.975L809.313 228.432L808.855 228.684L809.313 228.924L809.564 229.393L809.816 228.924L810.273 228.684L809.816 228.432L809.564 227.975Z" fill="white"/>
<path d="M796.742 189.392L796.296 190.215L795.473 190.661L796.296 191.107L796.742 191.93L797.188 191.107L798.011 190.661L797.188 190.215L796.742 189.392Z" fill="white"/>
<path d="M770.566 227.414L770.109 228.226L769.297 228.683L770.109 229.129L770.566 229.941L771.012 229.129L771.836 228.683L771.012 228.226L770.566 227.414Z" fill="white"/>
<path d="M848.339 249.291L847.882 250.114L847.059 250.56L847.882 251.006L848.339 251.83L848.785 251.006L849.597 250.56L848.785 250.114L848.339 249.291Z" fill="white"/>
<path d="M830.752 236.323L830.5 236.781L830.043 237.032L830.5 237.284L830.752 237.741L831.004 237.284L831.461 237.032L831.004 236.781L830.752 236.323Z" fill="white"/>
<path d="M860.611 252.39L860.36 252.847L859.902 253.099L860.36 253.35L860.611 253.808L860.863 253.35L861.32 253.099L860.863 252.847L860.611 252.39Z" fill="white"/>
<path d="M847.793 213.807L847.347 214.63L846.523 215.076L847.347 215.522L847.793 216.345L848.239 215.522L849.062 215.076L848.239 214.63L847.793 213.807Z" fill="white"/>
<path d="M821.613 251.829L821.156 252.641L820.344 253.098L821.156 253.544L821.613 254.368L822.059 253.544L822.882 253.098L822.059 252.641L821.613 251.829Z" fill="white"/>
<path d="M707.109 258.29L706.663 259.113L705.84 259.559L706.663 260.005L707.109 260.829L707.555 260.005L708.379 259.559L707.555 259.113L707.109 258.29Z" fill="white"/>
<path d="M652.515 280.246L652.069 281.069L651.246 281.515L652.069 281.973L652.515 282.785L652.961 281.973L653.785 281.515L652.961 281.069L652.515 280.246Z" fill="white"/>
<path d="M691.683 327.029L691.237 327.853L690.414 328.299L691.237 328.745L691.683 329.568L692.141 328.745L692.953 328.299L692.141 327.853L691.683 327.029Z" fill="white"/>
<path d="M805.984 344.137L805.538 344.949L804.715 345.406L805.538 345.852L805.984 346.675L806.43 345.852L807.254 345.406L806.43 344.949L805.984 344.137Z" fill="white"/>
<path d="M880.394 267.05L879.948 267.873L879.125 268.319L879.948 268.777L880.394 269.588L880.852 268.777L881.664 268.319L880.852 267.873L880.394 267.05Z" fill="white"/>
<path d="M842.804 298.624L842.359 299.447L841.535 299.893L842.359 300.339L842.804 301.163L843.25 300.339L844.074 299.893L843.25 299.447L842.804 298.624Z" fill="white"/>
<path d="M826.898 335.24L826.452 336.064L825.629 336.51L826.452 336.956L826.898 337.779L827.344 336.956L828.168 336.51L827.344 336.064L826.898 335.24Z" fill="white"/>
<path d="M816.847 323.885L816.39 324.708L815.578 325.154L816.39 325.6L816.847 326.423L817.293 325.6L818.117 325.154L817.293 324.708L816.847 323.885Z" fill="white"/>
<path d="M890.219 355.802L889.773 356.625L888.949 357.071L889.773 357.517L890.219 358.34L890.665 357.517L891.488 357.071L890.665 356.625L890.219 355.802Z" fill="white"/>
<path d="M735.883 293.065L735.437 293.889L734.613 294.335L735.437 294.781L735.883 295.604L736.329 294.781L737.152 294.335L736.329 293.889L735.883 293.065Z" fill="white"/>
<path d="M783.765 317.549L783.319 318.372L782.496 318.818L783.319 319.264L783.765 320.088L784.211 319.264L785.035 318.818L784.211 318.372L783.765 317.549Z" fill="white"/>
</g>
<g opacity="0.3">
<path d="M1184.51 151.07L1186 153.803L1188.73 155.29L1186 156.788L1184.51 159.521L1183.01 156.788L1180.28 155.29L1183.01 153.803L1184.51 151.07Z" fill="white"/>
<path d="M1124.68 96.7637L1126.17 99.4968L1128.91 100.983L1126.17 102.481L1124.68 105.215L1123.19 102.481L1120.46 100.983L1123.19 99.4968L1124.68 96.7637Z" fill="white"/>
<path d="M1090.47 137.474L1091.96 140.207L1094.69 141.705L1091.96 143.191L1090.47 145.925L1088.98 143.191L1086.24 141.705L1088.98 140.207L1090.47 137.474Z" fill="white"/>
<path d="M1013.74 67.7969L1015.24 70.53L1017.97 72.0166L1015.24 73.5147L1013.74 76.2477L1012.26 73.5147L1009.52 72.0166L1012.26 70.53L1013.74 67.7969Z" fill="white"/>
<path d="M1200.14 139.589L1200.88 140.95L1202.24 141.704L1200.88 142.448L1200.14 143.809L1199.4 142.448L1198.02 141.704L1199.4 140.95L1200.14 139.589Z" fill="white"/>
<path d="M1294.06 113.551L1294.8 114.912L1296.18 115.655L1294.8 116.41L1294.06 117.771L1293.32 116.41L1291.95 115.655L1293.32 114.912L1294.06 113.551Z" fill="white"/>
<path d="M1336.02 190.764L1336.77 192.125L1338.13 192.879L1336.77 193.623L1336.02 194.983L1335.27 193.623L1333.91 192.879L1335.27 192.125L1336.02 190.764Z" fill="white"/>
<path d="M1253.9 227.402L1254.64 228.763L1256 229.518L1254.64 230.261L1253.9 231.622L1253.15 230.261L1251.78 229.518L1253.15 228.763L1253.9 227.402Z" fill="white"/>
<path d="M1215.06 219.387L1215.81 220.759L1217.18 221.502L1215.81 222.246L1215.06 223.618L1214.32 222.246L1212.95 221.502L1214.32 220.759L1215.06 219.387Z" fill="white"/>
<path d="M1303.05 224.053L1303.79 225.414L1305.16 226.168L1303.79 226.912L1303.05 228.272L1302.31 226.912L1300.93 226.168L1302.31 225.414L1303.05 224.053Z" fill="white"/>
<path d="M1033.05 221.502L1033.79 222.863L1035.15 223.618L1033.79 224.361L1033.05 225.722L1032.29 224.361L1030.93 223.618L1032.29 222.863L1033.05 221.502Z" fill="white"/>
<path d="M1244.37 182.69L1245.11 183.422L1246.49 183.823L1245.11 184.223L1244.37 184.955L1243.63 184.223L1242.27 183.823L1243.63 183.422L1244.37 182.69Z" fill="white"/>
<path d="M1170.03 109.137L1170.53 110.063L1171.46 110.566L1170.53 111.081L1170.03 111.996L1169.52 111.081L1168.6 110.566L1169.52 110.063L1170.03 109.137Z" fill="white"/>
<path d="M1189.84 94.5332L1190.12 95.0478L1190.64 95.3337L1190.12 95.6196L1189.84 96.1342L1189.56 95.6196L1189.05 95.3337L1189.56 95.0478L1189.84 94.5332Z" fill="white"/>
<path d="M1156.19 112.636L1156.48 113.15L1156.99 113.425L1156.48 113.711L1156.19 114.225L1155.92 113.711L1155.4 113.425L1155.92 113.15L1156.19 112.636Z" fill="white"/>
<path d="M1146.52 95.9629L1146.81 96.4775L1147.32 96.7634L1146.81 97.0493L1146.52 97.5639L1146.23 97.0493L1145.72 96.7634L1146.23 96.4775L1146.52 95.9629Z" fill="white"/>
<path d="M1131.75 114.065L1132.03 114.58L1132.54 114.854L1132.03 115.14L1131.75 115.655L1131.47 115.14L1130.95 114.854L1131.47 114.58L1131.75 114.065Z" fill="white"/>
<path d="M1163.74 145.124L1164.03 145.639L1164.54 145.925L1164.03 146.21L1163.74 146.725L1163.47 146.21L1162.94 145.925L1163.47 145.639L1163.74 145.124Z" fill="white"/>
<path d="M1129.62 169.87L1129.9 170.396L1130.42 170.671L1129.9 170.957L1129.62 171.471L1129.34 170.957L1128.82 170.671L1129.34 170.396L1129.62 169.87Z" fill="white"/>
<path d="M1144.83 180.46L1145.11 180.975L1145.63 181.26L1145.11 181.535L1144.83 182.061L1144.54 181.535L1144.03 181.26L1144.54 180.975L1144.83 180.46Z" fill="white"/>
<path d="M1106.38 198.345L1106.67 198.859L1107.18 199.134L1106.67 199.42L1106.38 199.934L1106.1 199.42L1105.58 199.134L1106.1 198.859L1106.38 198.345Z" fill="white"/>
<path d="M1023.91 199.135L1024.2 199.649L1024.71 199.935L1024.2 200.221L1023.91 200.736L1023.62 200.221L1023.11 199.935L1023.62 199.649L1023.91 199.135Z" fill="white"/>
<path d="M984.867 204.875L985.141 205.39L985.667 205.675L985.141 205.961L984.867 206.476L984.581 205.961L984.066 205.675L984.581 205.39L984.867 204.875Z" fill="white"/>
<path d="M1013.74 216.573L1014.03 217.088L1014.54 217.374L1014.03 217.66L1013.74 218.174L1013.47 217.66L1012.94 217.374L1013.47 217.088L1013.74 216.573Z" fill="white"/>
<path d="M1075.08 205.675L1075.36 206.189L1075.87 206.475L1075.36 206.761L1075.08 207.276L1074.8 206.761L1074.28 206.475L1074.8 206.189L1075.08 205.675Z" fill="white"/>
<path d="M1087.04 215.772L1087.33 216.287L1087.84 216.573L1087.33 216.859L1087.04 217.373L1086.77 216.859L1086.24 216.573L1086.77 216.287L1087.04 215.772Z" fill="white"/>
<path d="M1278.31 206.476L1278.6 206.99L1279.11 207.276L1278.6 207.551L1278.31 208.077L1278.03 207.551L1277.51 207.276L1278.03 206.99L1278.31 206.476Z" fill="white"/>
<path d="M1179.76 199.135L1180.05 199.649L1180.56 199.935L1180.05 200.221L1179.76 200.736L1179.48 200.221L1178.96 199.935L1179.48 199.649L1179.76 199.135Z" fill="white"/>
<path d="M1270.18 170.671L1270.47 171.185L1270.98 171.471L1270.47 171.757L1270.18 172.272L1269.91 171.757L1269.39 171.471L1269.91 171.185L1270.18 170.671Z" fill="white"/>
<path d="M1329.92 215.773L1330.21 216.288L1330.72 216.574L1330.21 216.86L1329.92 217.374L1329.64 216.86L1329.12 216.574L1329.64 216.288L1329.92 215.773Z" fill="white"/>
<path d="M1312.54 234.081L1312.81 234.596L1313.33 234.882L1312.81 235.167L1312.54 235.682L1312.25 235.167L1311.74 234.882L1312.25 234.596L1312.54 234.081Z" fill="white"/>
<path d="M1270.98 207.276L1271.27 207.791L1271.78 208.077L1271.27 208.351L1270.98 208.866L1270.69 208.351L1270.18 208.077L1270.69 207.791L1270.98 207.276Z" fill="white"/>
<path d="M1242.27 208.077L1242.54 208.592L1243.06 208.866L1242.54 209.152L1242.27 209.667L1241.98 209.152L1241.47 208.866L1241.98 208.592L1242.27 208.077Z" fill="white"/>
<path d="M1247.25 151.07L1247.53 151.585L1248.04 151.871L1247.53 152.145L1247.25 152.671L1246.97 152.145L1246.45 151.871L1246.97 151.585L1247.25 151.07Z" fill="white"/>
<path d="M1009.83 150.271L1010.11 150.785L1010.62 151.071L1010.11 151.357L1009.83 151.871L1009.55 151.357L1009.03 151.071L1009.55 150.785L1009.83 150.271Z" fill="white"/>
<path d="M1062.03 122.894L1062.32 123.408L1062.84 123.694L1062.32 123.98L1062.03 124.495L1061.75 123.98L1061.23 123.694L1061.75 123.408L1062.03 122.894Z" fill="white"/>
<path d="M1086.24 112.636L1086.53 113.15L1087.04 113.425L1086.53 113.711L1086.24 114.225L1085.97 113.711L1085.45 113.425L1085.97 113.15L1086.24 112.636Z" fill="white"/>
<path d="M1039.82 93.7334L1040.1 94.248L1040.62 94.5339L1040.1 94.8198L1039.82 95.3344L1039.53 94.8198L1039.02 94.5339L1039.53 94.248L1039.82 93.7334Z" fill="white"/>
<path d="M1111.7 158.721L1111.98 159.235L1112.5 159.521L1111.98 159.796L1111.7 160.31L1111.41 159.796L1110.9 159.521L1111.41 159.235L1111.7 158.721Z" fill="white"/>
<path d="M1027.52 153.7L1027.81 154.215L1028.32 154.501L1027.81 154.775L1027.52 155.29L1027.25 154.775L1026.72 154.501L1027.25 154.215L1027.52 153.7Z" fill="white"/>
<path d="M1225.93 66.9961L1226.22 67.5107L1226.73 67.7966L1226.22 68.071L1225.93 68.5971L1225.64 68.071L1225.13 67.7966L1225.64 67.5107L1225.93 66.9961Z" fill="white"/>
<path d="M1330.72 71.2158L1331.01 71.7304L1331.52 72.0163L1331.01 72.3022L1330.72 72.8168L1330.44 72.3022L1329.92 72.0163L1330.44 71.7304L1330.72 71.2158Z" fill="white"/>
<path d="M1303.05 133.426L1303.34 133.94L1303.85 134.226L1303.34 134.512L1303.05 135.027L1302.76 134.512L1302.25 134.226L1302.76 133.94L1303.05 133.426Z" fill="white"/>
<path d="M1263.16 50.2891L1263.45 50.8151L1263.96 51.0895L1263.45 51.3754L1263.16 51.89L1262.87 51.3754L1262.36 51.0895L1262.87 50.8151L1263.16 50.2891Z" fill="white"/>
<path d="M1323.89 111.835L1324.17 112.35L1324.69 112.635L1324.17 112.91L1323.89 113.425L1323.61 112.91L1323.09 112.635L1323.61 112.35L1323.89 111.835Z" fill="white"/>
<path d="M1028.32 104.414L1028.61 104.929L1029.12 105.215L1028.61 105.489L1028.32 106.004L1028.04 105.489L1027.52 105.215L1028.04 104.929L1028.32 104.414Z" fill="white"/>
<path d="M1105.58 177.556L1105.86 178.07L1106.38 178.356L1105.86 178.631L1105.58 179.157L1105.29 178.631L1104.78 178.356L1105.29 178.07L1105.58 177.556Z" fill="white"/>
<path d="M1198.02 184.153L1198.31 184.668L1198.82 184.954L1198.31 185.24L1198.02 185.754L1197.75 185.24L1197.22 184.954L1197.75 184.668L1198.02 184.153Z" fill="white"/>
<path d="M1216.91 154.501L1217.2 155.016L1217.71 155.29L1217.2 155.576L1216.91 156.091L1216.63 155.576L1216.11 155.29L1216.63 155.016L1216.91 154.501Z" fill="white"/>
<path d="M1224.01 191.278L1224.29 191.793L1224.81 192.079L1224.29 192.353L1224.01 192.879L1223.73 192.353L1223.22 192.079L1223.73 191.793L1224.01 191.278Z" fill="white"/>
<path d="M1318.76 216.573L1319.05 217.088L1319.56 217.374L1319.05 217.66L1318.76 218.174L1318.49 217.66L1317.96 217.374L1318.49 217.088L1318.76 216.573Z" fill="white"/>
<path d="M1170.64 69.1582L1171.15 70.0845L1172.08 70.5876L1171.15 71.0908L1170.64 72.0171L1170.13 71.0908L1169.21 70.5876L1170.13 70.0845L1170.64 69.1582Z" fill="white"/>
<path d="M1200.14 111.995L1200.64 112.921L1201.57 113.425L1200.64 113.939L1200.14 114.854L1199.64 113.939L1198.71 113.425L1199.64 112.921L1200.14 111.995Z" fill="white"/>
<path d="M1263.16 71.3877L1263.66 72.314L1264.59 72.8171L1263.66 73.3203L1263.16 74.2466L1262.66 73.3203L1261.73 72.8171L1262.66 72.314L1263.16 71.3877Z" fill="white"/>
<path d="M1324.68 96.1338L1325.19 97.0601L1326.11 97.5632L1325.19 98.0664L1324.68 98.9927L1324.18 98.0664L1323.25 97.5632L1324.18 97.0601L1324.68 96.1338Z" fill="white"/>
<path d="M1280.54 148.84L1281.05 149.766L1281.97 150.269L1281.05 150.772L1280.54 151.699L1280.04 150.772L1279.11 150.269L1280.04 149.766L1280.54 148.84Z" fill="white"/>
<path d="M1151.76 168.109L1152.26 169.036L1153.19 169.539L1152.26 170.042L1151.76 170.968L1151.25 170.042L1150.33 169.539L1151.25 169.036L1151.76 168.109Z" fill="white"/>
<path d="M1067.91 81.2568L1068.42 82.1831L1069.34 82.6863L1068.42 83.1894L1067.91 84.1157L1067.4 83.1894L1066.48 82.6863L1067.4 82.1831L1067.91 81.2568Z" fill="white"/>
<path d="M1110.27 116.832L1110.77 117.758L1111.7 118.261L1110.77 118.765L1110.27 119.691L1109.77 118.765L1108.84 118.261L1109.77 117.758L1110.27 116.832Z" fill="white"/>
<path d="M1128.19 158.092L1128.7 159.018L1129.62 159.521L1128.7 160.024L1128.19 160.951L1127.68 160.024L1126.76 159.521L1127.68 159.018L1128.19 158.092Z" fill="white"/>
<path d="M1139.52 145.296L1140.03 146.222L1140.95 146.725L1140.03 147.229L1139.52 148.155L1139.02 147.229L1138.09 146.725L1139.02 146.222L1139.52 145.296Z" fill="white"/>
<path d="M1056.84 181.261L1057.35 182.187L1058.27 182.69L1057.35 183.193L1056.84 184.12L1056.34 183.193L1055.41 182.69L1056.34 182.187L1056.84 181.261Z" fill="white"/>
<path d="M1230.74 110.565L1231.26 111.492L1232.17 111.995L1231.26 112.509L1230.74 113.424L1230.24 112.509L1229.31 111.995L1230.24 111.492L1230.74 110.565Z" fill="white"/>
<path d="M1176.79 138.16L1177.29 139.086L1178.22 139.59L1177.29 140.093L1176.79 141.019L1176.29 140.093L1175.36 139.59L1176.29 139.086L1176.79 138.16Z" fill="white"/>
<path d="M1130.99 329.008L1129.66 331.432L1127.24 332.759L1129.66 334.085L1130.99 336.51L1132.32 334.085L1134.74 332.759L1132.32 331.432L1130.99 329.008Z" fill="white"/>
<path d="M1184.08 280.807L1182.76 283.231L1180.34 284.558L1182.76 285.884L1184.08 288.308L1185.4 285.884L1187.83 284.558L1185.4 283.231L1184.08 280.807Z" fill="white"/>
<path d="M1214.43 316.943L1213.11 319.368L1210.7 320.694L1213.11 322.021L1214.43 324.445L1215.76 322.021L1218.19 320.694L1215.76 319.368L1214.43 316.943Z" fill="white"/>
<path d="M1282.53 255.1L1281.21 257.524L1278.78 258.85L1281.21 260.177L1282.53 262.601L1283.86 260.177L1286.28 258.85L1283.86 257.524L1282.53 255.1Z" fill="white"/>
<path d="M1117.11 318.818L1116.45 320.031L1115.25 320.694L1116.45 321.357L1117.11 322.569L1117.77 321.357L1118.99 320.694L1117.77 320.031L1117.11 318.818Z" fill="white"/>
<path d="M1033.77 295.707L1033.1 296.919L1031.89 297.582L1033.1 298.246L1033.77 299.458L1034.42 298.246L1035.64 297.582L1034.42 296.919L1033.77 295.707Z" fill="white"/>
<path d="M996.52 364.24L995.857 365.441L994.645 366.104L995.857 366.767L996.52 367.98L997.183 366.767L998.395 366.104L997.183 365.441L996.52 364.24Z" fill="white"/>
<path d="M1069.4 396.752L1068.74 397.964L1067.54 398.627L1068.74 399.291L1069.4 400.503L1070.06 399.291L1071.27 398.627L1070.06 397.964L1069.4 396.752Z" fill="white"/>
<path d="M1103.86 389.639L1103.2 390.851L1101.99 391.514L1103.2 392.177L1103.86 393.39L1104.53 392.177L1105.74 391.514L1104.53 390.851L1103.86 389.639Z" fill="white"/>
<path d="M1025.78 393.778L1025.12 394.99L1023.91 395.654L1025.12 396.317L1025.78 397.529L1026.44 396.317L1027.66 395.654L1026.44 394.99L1025.78 393.778Z" fill="white"/>
<path d="M1265.41 391.515L1264.74 392.727L1263.53 393.39L1264.74 394.053L1265.41 395.266L1266.07 394.053L1267.28 393.39L1266.07 392.727L1265.41 391.515Z" fill="white"/>
<path d="M1077.85 357.07L1077.18 357.722L1075.97 358.077L1077.18 358.431L1077.85 359.083L1078.51 358.431L1079.72 358.077L1078.51 357.722L1077.85 357.07Z" fill="white"/>
<path d="M1143.83 291.797L1143.39 292.62L1142.56 293.066L1143.39 293.512L1143.83 294.336L1144.28 293.512L1145.1 293.066L1144.28 292.62L1143.83 291.797Z" fill="white"/>
<path d="M1126.26 278.84L1126 279.297L1125.55 279.549L1126 279.789L1126.26 280.246L1126.5 279.789L1126.95 279.549L1126.5 279.297L1126.26 278.84Z" fill="white"/>
<path d="M1156.11 294.896L1155.85 295.353L1155.39 295.605L1155.85 295.856L1156.11 296.314L1156.36 295.856L1156.81 295.605L1156.36 295.353L1156.11 294.896Z" fill="white"/>
<path d="M1164.7 280.109L1164.45 280.567L1163.99 280.807L1164.45 281.059L1164.7 281.516L1164.95 281.059L1165.41 280.807L1164.95 280.567L1164.7 280.109Z" fill="white"/>
<path d="M1177.81 296.165L1177.56 296.622L1177.1 296.874L1177.56 297.126L1177.81 297.583L1178.06 297.126L1178.52 296.874L1178.06 296.622L1177.81 296.165Z" fill="white"/>
<path d="M1149.41 323.735L1149.16 324.193L1148.7 324.444L1149.16 324.696L1149.41 325.153L1149.66 324.696L1150.12 324.444L1149.66 324.193L1149.41 323.735Z" fill="white"/>
<path d="M1179.69 345.703L1179.44 346.161L1178.98 346.412L1179.44 346.652L1179.69 347.11L1179.94 346.652L1180.4 346.412L1179.94 346.161L1179.69 345.703Z" fill="white"/>
<path d="M1166.2 355.092L1165.95 355.549L1165.49 355.801L1165.95 356.052L1166.2 356.51L1166.45 356.052L1166.91 355.801L1166.45 355.549L1166.2 355.092Z" fill="white"/>
<path d="M1200.33 370.964L1200.07 371.421L1199.62 371.673L1200.07 371.913L1200.33 372.37L1200.58 371.913L1201.04 371.673L1200.58 371.421L1200.33 370.964Z" fill="white"/>
<path d="M1273.51 371.662L1273.26 372.131L1272.8 372.371L1273.26 372.623L1273.51 373.08L1273.77 372.623L1274.22 372.371L1273.77 372.131L1273.51 371.662Z" fill="white"/>
<path d="M1308.16 376.763L1307.91 377.22L1307.45 377.472L1307.91 377.723L1308.16 378.181L1308.41 377.723L1308.87 377.472L1308.41 377.22L1308.16 376.763Z" fill="white"/>
<path d="M1282.54 387.146L1282.29 387.604L1281.83 387.855L1282.29 388.096L1282.54 388.564L1282.79 388.096L1283.25 387.855L1282.79 387.604L1282.54 387.146Z" fill="white"/>
<path d="M1228.1 377.472L1227.85 377.929L1227.39 378.181L1227.85 378.432L1228.1 378.89L1228.36 378.432L1228.81 378.181L1228.36 377.929L1228.1 377.472Z" fill="white"/>
<path d="M1217.48 386.437L1217.23 386.894L1216.77 387.146L1217.23 387.386L1217.48 387.855L1217.73 387.386L1218.19 387.146L1217.73 386.894L1217.48 386.437Z" fill="white"/>
<path d="M1047.73 378.181L1047.48 378.638L1047.02 378.89L1047.48 379.141L1047.73 379.599L1047.98 379.141L1048.44 378.89L1047.98 378.638L1047.73 378.181Z" fill="white"/>
<path d="M1135.2 371.662L1134.95 372.131L1134.49 372.371L1134.95 372.623L1135.2 373.08L1135.45 372.623L1135.91 372.371L1135.45 372.131L1135.2 371.662Z" fill="white"/>
<path d="M1054.94 346.412L1054.69 346.87L1054.23 347.11L1054.69 347.361L1054.94 347.819L1055.19 347.361L1055.65 347.11L1055.19 346.87L1054.94 346.412Z" fill="white"/>
<path d="M1001.93 386.437L1001.68 386.894L1001.22 387.146L1001.68 387.386L1001.93 387.855L1002.18 387.386L1002.64 387.146L1002.18 386.894L1001.93 386.437Z" fill="white"/>
<path d="M1017.35 402.687L1017.11 403.144L1016.66 403.384L1017.11 403.636L1017.35 404.105L1017.62 403.636L1018.06 403.384L1017.62 403.144L1017.35 402.687Z" fill="white"/>
<path d="M1054.24 378.89L1053.98 379.347L1053.53 379.599L1053.98 379.85L1054.24 380.308L1054.49 379.85L1054.95 379.599L1054.49 379.347L1054.24 378.89Z" fill="white"/>
<path d="M1079.72 379.599L1079.47 380.056L1079.02 380.308L1079.47 380.559L1079.72 381.017L1079.98 380.559L1080.43 380.308L1079.98 380.056L1079.72 379.599Z" fill="white"/>
<path d="M1075.3 329.007L1075.05 329.464L1074.59 329.716L1075.05 329.967L1075.3 330.425L1075.55 329.967L1076.01 329.716L1075.55 329.464L1075.3 329.007Z" fill="white"/>
<path d="M1286.01 328.299L1285.76 328.756L1285.3 329.008L1285.76 329.259L1286.01 329.717L1286.26 329.259L1286.72 329.008L1286.26 328.756L1286.01 328.299Z" fill="white"/>
<path d="M1239.67 304.01L1239.42 304.467L1238.96 304.719L1239.42 304.97L1239.67 305.428L1239.93 304.97L1240.38 304.719L1239.93 304.467L1239.67 304.01Z" fill="white"/>
<path d="M1218.19 294.896L1217.93 295.353L1217.48 295.605L1217.93 295.856L1218.19 296.314L1218.44 295.856L1218.89 295.605L1218.44 295.353L1218.19 294.896Z" fill="white"/>
<path d="M1259.4 278.131L1259.15 278.588L1258.69 278.84L1259.15 279.08L1259.4 279.549L1259.65 279.08L1260.11 278.84L1259.65 278.588L1259.4 278.131Z" fill="white"/>
<path d="M1195.6 335.8L1195.35 336.257L1194.89 336.509L1195.35 336.76L1195.6 337.218L1195.85 336.76L1196.31 336.509L1195.85 336.257L1195.6 335.8Z" fill="white"/>
<path d="M1270.3 331.341L1270.06 331.798L1269.6 332.05L1270.06 332.301L1270.3 332.759L1270.55 332.301L1271.01 332.05L1270.55 331.798L1270.3 331.341Z" fill="white"/>
<path d="M1094.22 254.391L1093.97 254.848L1093.52 255.1L1093.97 255.351L1094.22 255.809L1094.48 255.351L1094.93 255.1L1094.48 254.848L1094.22 254.391Z" fill="white"/>
<path d="M1001.22 258.142L1000.97 258.599L1000.51 258.851L1000.97 259.102L1001.22 259.56L1001.47 259.102L1001.93 258.851L1001.47 258.599L1001.22 258.142Z" fill="white"/>
<path d="M1025.78 313.353L1025.53 313.81L1025.07 314.062L1025.53 314.313L1025.78 314.771L1026.03 314.313L1026.49 314.062L1026.03 313.81L1025.78 313.353Z" fill="white"/>
<path d="M1061.17 239.57L1060.92 240.028L1060.46 240.279L1060.92 240.531L1061.17 240.988L1061.43 240.531L1061.88 240.279L1061.43 240.028L1061.17 239.57Z" fill="white"/>
<path d="M1007.29 294.187L1007.04 294.644L1006.59 294.896L1007.04 295.147L1007.29 295.605L1007.55 295.147L1008 294.896L1007.55 294.644L1007.29 294.187Z" fill="white"/>
<path d="M1269.6 287.6L1269.35 288.057L1268.89 288.309L1269.35 288.56L1269.6 289.018L1269.84 288.56L1270.3 288.309L1269.84 288.057L1269.6 287.6Z" fill="white"/>
<path d="M1201.03 352.508L1200.78 352.977L1200.32 353.217L1200.78 353.468L1201.03 353.926L1201.28 353.468L1201.74 353.217L1201.28 352.977L1201.03 352.508Z" fill="white"/>
<path d="M1118.98 358.374L1118.73 358.831L1118.27 359.083L1118.73 359.335L1118.98 359.792L1119.23 359.335L1119.69 359.083L1119.23 358.831L1118.98 358.374Z" fill="white"/>
<path d="M1102.22 332.05L1101.97 332.507L1101.51 332.759L1101.97 333.01L1102.22 333.468L1102.47 333.01L1102.93 332.759L1102.47 332.507L1102.22 332.05Z" fill="white"/>
<path d="M1095.93 364.698L1095.68 365.156L1095.22 365.407L1095.68 365.647L1095.93 366.105L1096.18 365.647L1096.64 365.407L1096.18 365.156L1095.93 364.698Z" fill="white"/>
<path d="M1011.83 387.146L1011.58 387.604L1011.12 387.855L1011.58 388.096L1011.83 388.564L1012.09 388.096L1012.54 387.855L1012.09 387.604L1011.83 387.146Z" fill="white"/>
<path d="M1143.3 256.312L1142.84 257.135L1142.03 257.581L1142.84 258.027L1143.3 258.85L1143.74 258.027L1144.55 257.581L1143.74 257.135L1143.3 256.312Z" fill="white"/>
<path d="M1117.11 294.335L1116.66 295.158L1115.84 295.604L1116.66 296.05L1117.11 296.874L1117.57 296.05L1118.38 295.604L1117.57 295.158L1117.11 294.335Z" fill="white"/>
<path d="M1102.87 188.819L1101.54 191.244L1099.12 192.57L1101.54 193.897L1102.87 196.31L1104.18 193.897L1106.61 192.57L1104.18 191.244L1102.87 188.819Z" fill="white"/>
<path d="M1062.62 199.809L1062.17 200.621L1061.35 201.078L1062.17 201.524L1062.62 202.336L1063.06 201.524L1063.89 201.078L1063.06 200.621L1062.62 199.809Z" fill="white"/>
<path d="M1045.04 186.841L1044.79 187.298L1044.33 187.55L1044.79 187.801L1045.04 188.259L1045.28 187.801L1045.74 187.55L1045.28 187.298L1045.04 186.841Z" fill="white"/>
<path d="M1074.9 202.896L1074.65 203.354L1074.18 203.605L1074.65 203.857L1074.9 204.314L1075.14 203.857L1075.6 203.605L1075.14 203.354L1074.9 202.896Z" fill="white"/>
<path d="M1083.49 188.11L1083.23 188.568L1082.78 188.819L1083.23 189.071L1083.49 189.528L1083.74 189.071L1084.2 188.819L1083.74 188.568L1083.49 188.11Z" fill="white"/>
<path d="M1096.6 204.165L1096.34 204.622L1095.89 204.874L1096.34 205.126L1096.6 205.583L1096.85 205.126L1097.3 204.874L1096.85 204.622L1096.6 204.165Z" fill="white"/>
<path d="M1062.08 164.324L1061.62 165.136L1060.81 165.594L1061.62 166.04L1062.08 166.863L1062.52 166.04L1063.34 165.594L1062.52 165.136L1062.08 164.324Z" fill="white"/>
<path d="M1035.89 202.336L1035.44 203.159L1034.63 203.605L1035.44 204.063L1035.89 204.875L1036.35 204.063L1037.16 203.605L1036.35 203.159L1035.89 202.336Z" fill="white"/>
<path d="M1151.36 224.875L1150.9 225.698L1150.09 226.144L1150.9 226.59L1151.36 227.414L1151.8 226.59L1152.62 226.144L1151.8 225.698L1151.36 224.875Z" fill="white"/>
<path d="M1133.77 211.907L1133.52 212.365L1133.06 212.616L1133.52 212.868L1133.77 213.325L1134.02 212.868L1134.48 212.616L1134.02 212.365L1133.77 211.907Z" fill="white"/>
<path d="M1163.63 227.975L1163.38 228.432L1162.92 228.684L1163.38 228.924L1163.63 229.393L1163.88 228.924L1164.34 228.684L1163.88 228.432L1163.63 227.975Z" fill="white"/>
<path d="M1150.81 189.391L1150.36 190.214L1149.54 190.66L1150.36 191.106L1150.81 191.929L1151.25 191.106L1152.08 190.66L1151.25 190.214L1150.81 189.391Z" fill="white"/>
<path d="M1124.63 227.414L1124.18 228.226L1123.36 228.683L1124.18 229.129L1124.63 229.941L1125.08 229.129L1125.9 228.683L1125.08 228.226L1124.63 227.414Z" fill="white"/>
<path d="M1202.41 249.291L1201.95 250.114L1201.12 250.56L1201.95 251.006L1202.41 251.83L1202.85 251.006L1203.66 250.56L1202.85 250.114L1202.41 249.291Z" fill="white"/>
<path d="M1184.82 236.322L1184.57 236.78L1184.11 237.031L1184.57 237.283L1184.82 237.74L1185.07 237.283L1185.53 237.031L1185.07 236.78L1184.82 236.322Z" fill="white"/>
<path d="M1214.67 252.39L1214.42 252.847L1213.96 253.099L1214.42 253.35L1214.67 253.808L1214.93 253.35L1215.38 253.099L1214.93 252.847L1214.67 252.39Z" fill="white"/>
<path d="M1201.86 213.806L1201.41 214.629L1200.59 215.075L1201.41 215.521L1201.86 216.344L1202.3 215.521L1203.12 215.075L1202.3 214.629L1201.86 213.806Z" fill="white"/>
<path d="M1175.68 251.829L1175.22 252.641L1174.41 253.098L1175.22 253.544L1175.68 254.368L1176.13 253.544L1176.95 253.098L1176.13 252.641L1175.68 251.829Z" fill="white"/>
<path d="M1061.18 258.29L1060.73 259.113L1059.91 259.559L1060.73 260.005L1061.18 260.829L1061.62 260.005L1062.44 259.559L1061.62 259.113L1061.18 258.29Z" fill="white"/>
<path d="M1006.58 280.246L1006.14 281.069L1005.31 281.515L1006.14 281.973L1006.58 282.785L1007.03 281.973L1007.85 281.515L1007.03 281.069L1006.58 280.246Z" fill="white"/>
<path d="M1045.75 327.029L1045.3 327.853L1044.48 328.299L1045.3 328.745L1045.75 329.568L1046.21 328.745L1047.02 328.299L1046.21 327.853L1045.75 327.029Z" fill="white"/>
<path d="M1160.05 344.137L1159.6 344.949L1158.78 345.406L1159.6 345.852L1160.05 346.675L1160.5 345.852L1161.32 345.406L1160.5 344.949L1160.05 344.137Z" fill="white"/>
<path d="M1234.46 267.05L1234.01 267.873L1233.19 268.319L1234.01 268.777L1234.46 269.588L1234.92 268.777L1235.73 268.319L1234.92 267.873L1234.46 267.05Z" fill="white"/>
<path d="M1196.87 298.623L1196.42 299.446L1195.6 299.892L1196.42 300.338L1196.87 301.162L1197.32 300.338L1198.14 299.892L1197.32 299.446L1196.87 298.623Z" fill="white"/>
<path d="M1180.96 335.24L1180.52 336.064L1179.7 336.51L1180.52 336.956L1180.96 337.779L1181.41 336.956L1182.23 336.51L1181.41 336.064L1180.96 335.24Z" fill="white"/>
<path d="M1170.91 323.884L1170.46 324.707L1169.64 325.153L1170.46 325.599L1170.91 326.422L1171.36 325.599L1172.18 325.153L1171.36 324.707L1170.91 323.884Z" fill="white"/>
<path d="M1244.28 355.801L1243.84 356.624L1243.02 357.07L1243.84 357.516L1244.28 358.339L1244.73 357.516L1245.55 357.07L1244.73 356.624L1244.28 355.801Z" fill="white"/>
<path d="M1089.95 293.065L1089.5 293.889L1088.68 294.335L1089.5 294.781L1089.95 295.604L1090.4 294.781L1091.22 294.335L1090.4 293.889L1089.95 293.065Z" fill="white"/>
<path d="M1137.83 317.549L1137.38 318.372L1136.56 318.818L1137.38 319.264L1137.83 320.088L1138.27 319.264L1139.1 318.818L1138.27 318.372L1137.83 317.549Z" fill="white"/>
</g>
</g>
<defs>
<linearGradient id="paint0_linear_2566_5014" x1="-295.5" y1="461" x2="1468.5" y2="104.837" gradientUnits="userSpaceOnUse">
<stop stop-color="#013572"/>
<stop offset="0.59375" stop-color="#01244F"/>
<stop offset="1" stop-color="#002551"/>
</linearGradient>
<clipPath id="clip0_2566_5014">
<rect width="1440" height="555" fill="white"/>
</clipPath>
</defs>
</svg>
