<svg width="1441" height="516" viewBox="0 0 1441 516" fill="none" xmlns="http://www.w3.org/2000/svg">
<g clip-path="url(#clip0_353_4394)">
<rect x="0.680664" y="0.0996094" width="1440" height="461" fill="url(#paint0_linear_353_4394)"/>
<path fill-rule="evenodd" clip-rule="evenodd" d="M0.680664 393.342L60.6807 396.799C120.681 400.256 240.681 419.691 360.681 412.778C480.681 405.865 600.681 372.603 720.681 386.429C840.681 400.256 960.681 448.647 1080.68 459.017C1200.68 469.387 1320.68 441.734 1380.68 427.908L1440.68 414.082V517.778H1380.68C1320.68 517.778 1200.68 517.778 1080.68 517.778C960.681 517.778 840.681 517.778 720.681 517.778C600.681 517.778 480.681 517.778 360.681 517.778C240.681 517.778 120.681 517.778 60.6807 517.778H0.680664V393.342Z" fill="white"/>
<path d="M226.62 114.747C237.492 130.662 252.039 144.007 269.059 153.104C271.265 154.288 273.17 151.81 272.681 149.789C271.899 146.711 271.235 143.635 270.626 140.523C265.831 115.811 265.837 90.4495 266.718 65.4184C267.614 39.9882 269.417 14.5165 268.118 -10.9356C266.847 -35.8611 262.652 -61.2727 251.84 -83.9652C245.61 -97.0381 237.061 -109.118 226.615 -119.193C244.629 -130.915 258.835 -147.927 267.987 -167.514C279.487 -192.086 283.253 -219.645 282.264 -246.544C282.176 -248.669 278.977 -248.315 279.002 -246.227C279.219 -231.489 277.957 -216.689 274.84 -202.288C269.382 -176.986 257.903 -152.622 238.804 -134.745C233.921 -130.187 228.573 -126.107 222.861 -122.531C220.154 -124.911 217.383 -127.209 214.473 -129.301C206.622 -134.938 197.968 -139.589 188.764 -142.559C179.361 -145.596 169.956 -146.528 160.131 -146.059C157.217 -145.928 157.643 -141.412 160.557 -141.544C162.855 -141.665 165.221 -141.559 167.524 -141.372C186.304 -139.917 203.701 -131.804 217.938 -119.661C205.127 -112.665 190.84 -108.494 176.276 -108.428C173.45 -108.822 170.576 -108.99 167.642 -108.769C164.808 -108.573 164.59 -104.03 167.462 -103.744C170.262 -103.45 173.065 -103.393 175.86 -103.407C193.243 -100.738 206.919 -86.09 212.625 -70.0302C220.224 -48.5719 216.454 -25.1788 212.162 -3.4354C207.94 17.8735 203.263 39.3211 206.047 61.1648C208.507 80.3363 215.739 98.8766 226.628 114.819L226.62 114.747ZM210.304 48.2859C209.929 25.4692 216.802 3.3813 220.113 -18.9749C223.274 -40.2988 223.598 -63.8407 212.182 -82.9485C206.731 -92.0451 198.621 -99.8909 189.042 -104.527C196.826 -105.742 204.48 -108.001 211.738 -111.174C215.163 -112.686 218.508 -114.381 221.728 -116.268C235.249 -103.546 245.268 -87.6244 251.654 -70.212C260.231 -46.6983 262.741 -21.483 263.078 3.38387C263.396 28.3412 261.437 53.2119 261.002 78.1495C260.583 100.701 261.541 123.335 266.31 145.416C265.869 145.156 265.401 144.913 264.96 144.653C248.589 134.512 235.077 119.875 225.56 103.163C216.06 86.4773 210.631 67.4725 210.331 48.2682L210.304 48.2859Z" fill="#003777"/>
<path d="M-116.225 76.5509C-92.3726 97.2414 -62.3989 110.469 -31.0977 114.543C2.3682 118.891 36.5873 112.353 66.2501 96.2958C83.5686 86.9321 99.4248 74.4627 112.268 59.5006C113.208 58.4251 114.894 59.8282 113.971 60.9312C91.2465 88.7468 59.5607 108.605 24.5556 116.819C-8.00966 124.47 -42.166 121.463 -73.1676 109.055C-85.5017 104.135 -97.2244 97.6898 -108.003 89.9332C-93.1549 111.458 -71.1812 127.676 -47.2159 137.815C-15.7738 151.145 19.1599 153.728 52.8588 150.603C70.1671 148.997 87.4937 146.094 104.332 141.832C120.741 137.691 137.046 131.943 151.218 122.471C164.473 113.631 174.988 101.575 181.375 86.9301C187.359 73.1683 189.707 57.9396 189.347 42.9809C188.908 25.9704 184.896 9.39933 178.815 -6.45707C171.744 -24.8681 161.986 -41.8927 152.11 -58.919C149.639 -63.1642 147.287 -67.5257 144.733 -71.7177C143.129 -74.3809 147.088 -77.174 148.71 -74.4833C154.057 -65.6695 159.633 -57.043 164.687 -48.079C169.617 -39.3074 174.327 -30.3938 178.489 -21.2429C186.145 -4.45676 192.045 13.3479 194.025 31.7776C195.719 47.354 194.774 63.4285 190.214 78.4898C185.483 94.1294 176.928 108.072 164.697 118.978C151.739 130.509 135.617 138.047 119.165 143.268C102.075 148.705 84.25 152.164 66.468 154.543C31.3128 159.272 -5.27935 158.462 -39.0859 146.777C-69.2806 136.341 -97.2885 116.934 -114.716 89.7927C-116.847 86.496 -118.758 83.0571 -120.559 79.5473C-121.866 77.0425 -118.151 74.8358 -116.242 76.5234L-116.225 76.5509Z" fill="#003777"/>
<path d="M1276.37 262.487C1256.35 262.996 1236.49 268.163 1218.95 277.886C1216.67 279.143 1217.76 282.203 1219.8 282.917C1222.93 283.97 1225.99 285.126 1229.05 286.35C1253.32 296.106 1275.45 310.417 1296.8 325.307C1318.49 340.434 1339.7 356.377 1362.64 369.6C1385.11 382.552 1409.66 393.226 1435.56 396.591C1450.48 398.529 1465.85 397.883 1480.53 394.449C1480.6 416.783 1487.43 438.777 1499.36 457.813C1514.32 481.711 1536.25 500.543 1560.28 514.855C1562.19 515.976 1563.68 512.985 1561.85 511.829C1548.86 503.705 1536.66 494.255 1525.85 483.411C1506.84 464.374 1492.06 440.613 1487.23 413.86C1486.01 407.027 1485.46 400.058 1485.56 393.056C1489.17 392.036 1492.74 390.914 1496.2 389.554C1505.55 385.883 1514.49 380.954 1522.28 374.597C1530.23 368.104 1536.35 360.422 1541.48 351.584C1543.01 348.966 1538.83 346.79 1537.3 349.408C1536.11 351.482 1534.68 353.487 1533.22 355.391C1521.36 370.96 1504.46 381.566 1485.84 387.141C1486.96 372.014 1491.38 357.193 1499.53 344.445C1501.47 342.201 1503.24 339.788 1504.7 337.102C1506.13 334.519 1502.29 331.765 1500.42 334.111C1498.58 336.388 1496.95 338.802 1495.39 341.25C1483.25 354.915 1462.75 358.586 1445.52 354.507C1422.51 349.034 1404.22 332.547 1387.66 316.536C1371.45 300.831 1355.37 284.65 1334.73 274.758C1316.62 266.09 1296.36 261.943 1276.3 262.453L1276.37 262.487ZM1343.57 285.738C1363.7 298.282 1379.1 316.74 1396.74 332.241C1413.57 347.028 1433.93 360.592 1457.04 361.408C1468.06 361.782 1479.48 359.13 1488.93 353.385C1485.6 360.864 1483.25 368.818 1481.93 376.943C1481.31 380.784 1480.91 384.659 1480.74 388.535C1462.01 393.158 1442.46 392.92 1423.66 388.671C1398.3 382.892 1374.88 370.858 1352.99 357.125C1331.03 343.323 1310.43 327.584 1288.91 313.137C1269.47 300.049 1249.17 288.118 1227.21 279.823C1227.69 279.585 1228.16 279.313 1228.64 279.075C1246.72 270.509 1267.12 266.974 1287.08 268.095C1307 269.217 1326.64 275.2 1343.57 285.772L1343.57 285.738Z" fill="#003777"/>
<path d="M1503.1 -15.1723C1471.59 -6.02802 1443.14 12.6684 1421.93 37.6877C1399.25 64.4406 1385.66 97.9922 1382.94 132.938C1381.34 153.334 1383.28 174.206 1389.09 193.854C1389.5 195.282 1387.32 195.962 1386.88 194.534C1375.42 159.011 1375.97 120.156 1388.55 84.9727C1400.24 52.2369 1422.13 24.1243 1450.45 4.06807C1461.7 -3.92041 1473.94 -10.5152 1486.79 -15.5462C1459.63 -14.7304 1433.08 -4.70226 1410.71 10.4929C1381.34 30.4131 1359.38 59.4435 1343.1 90.6156C1334.73 106.627 1327.49 123.385 1321.71 140.484C1316.07 157.141 1311.89 174.614 1312.16 192.324C1312.4 208.879 1316.99 224.856 1326.17 238.692C1334.8 251.677 1346.77 262.317 1360.02 270.442C1375.12 279.654 1391.84 285.501 1409.11 289.138C1429.17 293.353 1449.53 294.441 1469.96 295.427C1475.06 295.665 1480.19 296.073 1485.29 296.209C1488.52 296.311 1488.72 301.342 1485.46 301.24C1474.75 300.934 1464.08 300.934 1453.4 300.288C1442.97 299.642 1432.53 298.724 1422.2 297.194C1403.23 294.407 1384.36 289.512 1367.16 280.844C1352.61 273.535 1339.12 263.643 1328.55 251.167C1317.57 238.216 1310.22 222.885 1307.61 206.058C1304.85 188.245 1307.37 169.923 1312.09 152.62C1316.99 134.637 1324.03 117.131 1331.98 100.27C1347.68 66.9221 1369.03 35.4441 1398.3 12.5324C1424.44 -7.93168 1457.18 -21.4271 1490.7 -21.3251C1494.78 -21.3251 1498.85 -21.0532 1502.93 -20.6452C1505.86 -20.3733 1505.69 -15.8862 1503.14 -15.1723L1503.1 -15.1723Z" fill="#003777"/>
<mask id="mask0_353_4394" style="mask-type:luminance" maskUnits="userSpaceOnUse" x="710" y="-7" width="628" height="501">
<path d="M1337.68 -6.61182H710.683V493.388H1337.68V-6.61182Z" fill="white"/>
</mask>
<g mask="url(#mask0_353_4394)">
<path d="M983.152 176.818L984.452 179.208L986.842 180.508L984.452 181.818L983.152 184.208L981.842 181.818L979.452 180.508L981.842 179.208L983.152 176.818Z" fill="#1F2075"/>
<path d="M930.832 129.328L932.142 131.718L934.532 133.018L932.142 134.328L930.832 136.718L929.532 134.328L927.142 133.018L929.532 131.718L930.832 129.328Z" fill="#1F2075"/>
<path d="M900.922 164.928L902.222 167.318L904.612 168.628L902.222 169.928L900.922 172.318L899.612 169.928L897.222 168.628L899.612 167.318L900.922 164.928Z" fill="#1F2075"/>
<path d="M833.822 103.998L835.132 106.388L837.522 107.688L835.132 108.998L833.822 111.388L832.522 108.998L830.132 107.688L832.522 106.388L833.822 103.998Z" fill="#1F2075"/>
<path d="M996.822 166.778L997.472 167.968L998.662 168.628L997.472 169.278L996.822 170.468L996.172 169.278L994.972 168.628L996.172 167.968L996.822 166.778Z" fill="#1F2075"/>
<path d="M1078.95 144.008L1079.6 145.198L1080.8 145.848L1079.6 146.508L1078.95 147.698L1078.3 146.508L1077.1 145.848L1078.3 145.198L1078.95 144.008Z" fill="#1F2075"/>
<path d="M1115.64 211.528L1116.3 212.718L1117.49 213.378L1116.3 214.028L1115.64 215.218L1114.99 214.028L1113.8 213.378L1114.99 212.718L1115.64 211.528Z" fill="#1F2075"/>
<path d="M1043.83 243.568L1044.48 244.758L1045.67 245.418L1044.48 246.068L1043.83 247.258L1043.18 246.068L1041.98 245.418L1043.18 244.758L1043.83 243.568Z" fill="#1F2075"/>
<path d="M1009.87 236.558L1010.52 237.758L1011.72 238.408L1010.52 239.058L1009.87 240.258L1009.22 239.058L1008.02 238.408L1009.22 237.758L1009.87 236.558Z" fill="#1F2075"/>
<path d="M1086.81 240.638L1087.46 241.828L1088.66 242.488L1087.46 243.138L1086.81 244.328L1086.16 243.138L1084.96 242.488L1086.16 241.828L1086.81 240.638Z" fill="#1F2075"/>
<path d="M850.703 238.408L851.353 239.598L852.543 240.258L851.353 240.908L850.703 242.098L850.043 240.908L848.853 240.258L850.043 239.598L850.703 238.408Z" fill="#1F2075"/>
<path d="M1035.5 204.468L1036.15 205.108L1037.35 205.458L1036.15 205.808L1035.5 206.448L1034.85 205.808L1033.66 205.458L1034.85 205.108L1035.5 204.468Z" fill="#1F2075"/>
<path d="M970.491 140.148L970.931 140.958L971.741 141.398L970.931 141.848L970.491 142.648L970.051 141.848L969.241 141.398L970.051 140.958L970.491 140.148Z" fill="#1F2075"/>
<path d="M987.812 127.378L988.062 127.828L988.512 128.078L988.062 128.328L987.812 128.778L987.572 128.328L987.122 128.078L987.572 127.828L987.812 127.378Z" fill="#1F2075"/>
<path d="M958.392 143.208L958.642 143.658L959.092 143.898L958.642 144.148L958.392 144.598L958.152 144.148L957.702 143.898L958.152 143.658L958.392 143.208Z" fill="#1F2075"/>
<path d="M949.931 128.628L950.181 129.078L950.631 129.328L950.181 129.578L949.931 130.028L949.681 129.578L949.231 129.328L949.681 129.078L949.931 128.628Z" fill="#1F2075"/>
<path d="M937.021 144.458L937.261 144.908L937.711 145.148L937.261 145.398L937.021 145.848L936.771 145.398L936.321 145.148L936.771 144.908L937.021 144.458Z" fill="#1F2075"/>
<path d="M964.992 171.618L965.242 172.068L965.692 172.318L965.242 172.568L964.992 173.018L964.752 172.568L964.292 172.318L964.752 172.068L964.992 171.618Z" fill="#1F2075"/>
<path d="M935.152 193.258L935.402 193.718L935.852 193.958L935.402 194.208L935.152 194.658L934.912 194.208L934.452 193.958L934.912 193.718L935.152 193.258Z" fill="#1F2075"/>
<path d="M948.453 202.518L948.703 202.968L949.153 203.218L948.703 203.458L948.453 203.918L948.203 203.458L947.753 203.218L948.203 202.968L948.453 202.518Z" fill="#1F2075"/>
<path d="M914.832 218.158L915.082 218.608L915.532 218.848L915.082 219.098L914.832 219.548L914.582 219.098L914.132 218.848L914.582 218.608L914.832 218.158Z" fill="#1F2075"/>
<path d="M842.713 218.848L842.963 219.298L843.413 219.548L842.963 219.798L842.713 220.248L842.463 219.798L842.013 219.548L842.463 219.298L842.713 218.848Z" fill="#1F2075"/>
<path d="M808.572 223.868L808.812 224.318L809.272 224.568L808.812 224.818L808.572 225.268L808.322 224.818L807.872 224.568L808.322 224.318L808.572 223.868Z" fill="#1F2075"/>
<path d="M833.822 234.098L834.072 234.548L834.522 234.798L834.072 235.048L833.822 235.498L833.582 235.048L833.122 234.798L833.582 234.548L833.822 234.098Z" fill="#1F2075"/>
<path d="M887.463 224.568L887.703 225.018L888.153 225.268L887.703 225.518L887.463 225.968L887.213 225.518L886.763 225.268L887.213 225.018L887.463 224.568Z" fill="#1F2075"/>
<path d="M897.922 233.398L898.172 233.848L898.622 234.098L898.172 234.348L897.922 234.798L897.682 234.348L897.222 234.098L897.682 233.848L897.922 233.398Z" fill="#1F2075"/>
<path d="M1065.18 225.268L1065.43 225.718L1065.88 225.968L1065.43 226.208L1065.18 226.668L1064.93 226.208L1064.48 225.968L1064.93 225.718L1065.18 225.268Z" fill="#1F2075"/>
<path d="M979.002 218.848L979.252 219.298L979.702 219.548L979.252 219.798L979.002 220.248L978.752 219.798L978.302 219.548L978.752 219.298L979.002 218.848Z" fill="#1F2075"/>
<path d="M1058.07 193.958L1058.32 194.408L1058.77 194.658L1058.32 194.908L1058.07 195.358L1057.83 194.908L1057.38 194.658L1057.83 194.408L1058.07 193.958Z" fill="#1F2075"/>
<path d="M1110.31 233.398L1110.56 233.848L1111.01 234.098L1110.56 234.348L1110.31 234.798L1110.06 234.348L1109.61 234.098L1110.06 233.848L1110.31 233.398Z" fill="#1F2075"/>
<path d="M1095.11 249.408L1095.35 249.858L1095.8 250.108L1095.35 250.358L1095.11 250.808L1094.86 250.358L1094.41 250.108L1094.86 249.858L1095.11 249.408Z" fill="#1F2075"/>
<path d="M1058.77 225.968L1059.02 226.418L1059.47 226.668L1059.02 226.908L1058.77 227.358L1058.52 226.908L1058.07 226.668L1058.52 226.418L1058.77 225.968Z" fill="#1F2075"/>
<path d="M1033.66 226.668L1033.9 227.118L1034.35 227.358L1033.9 227.608L1033.66 228.058L1033.41 227.608L1032.96 227.358L1033.41 227.118L1033.66 226.668Z" fill="#1F2075"/>
<path d="M1038.02 176.818L1038.26 177.268L1038.71 177.518L1038.26 177.758L1038.02 178.218L1037.77 177.758L1037.32 177.518L1037.77 177.268L1038.02 176.818Z" fill="#1F2075"/>
<path d="M830.402 176.118L830.642 176.568L831.092 176.818L830.642 177.068L830.402 177.518L830.152 177.068L829.702 176.818L830.152 176.568L830.402 176.118Z" fill="#1F2075"/>
<path d="M876.053 152.178L876.303 152.628L876.753 152.878L876.303 153.128L876.053 153.578L875.803 153.128L875.353 152.878L875.803 152.628L876.053 152.178Z" fill="#1F2075"/>
<path d="M897.222 143.208L897.472 143.658L897.922 143.898L897.472 144.148L897.222 144.598L896.982 144.148L896.532 143.898L896.982 143.658L897.222 143.208Z" fill="#1F2075"/>
<path d="M856.623 126.678L856.873 127.128L857.323 127.378L856.873 127.628L856.623 128.078L856.373 127.628L855.923 127.378L856.373 127.128L856.623 126.678Z" fill="#1F2075"/>
<path d="M919.482 183.508L919.732 183.958L920.182 184.208L919.732 184.448L919.482 184.898L919.232 184.448L918.782 184.208L919.232 183.958L919.482 183.508Z" fill="#1F2075"/>
<path d="M845.873 179.118L846.123 179.568L846.573 179.818L846.123 180.058L845.873 180.508L845.633 180.058L845.173 179.818L845.633 179.568L845.873 179.118Z" fill="#1F2075"/>
<path d="M1019.37 103.298L1019.62 103.748L1020.07 103.998L1019.62 104.238L1019.37 104.698L1019.12 104.238L1018.67 103.998L1019.12 103.748L1019.37 103.298Z" fill="#1F2075"/>
<path d="M1111.01 106.988L1111.26 107.438L1111.71 107.688L1111.26 107.938L1111.01 108.388L1110.76 107.938L1110.31 107.688L1110.76 107.438L1111.01 106.988Z" fill="#1F2075"/>
<path d="M1086.81 161.388L1087.06 161.838L1087.51 162.088L1087.06 162.338L1086.81 162.788L1086.56 162.338L1086.11 162.088L1086.56 161.838L1086.81 161.388Z" fill="#1F2075"/>
<path d="M1051.93 88.688L1052.18 89.148L1052.63 89.388L1052.18 89.638L1051.93 90.088L1051.68 89.638L1051.23 89.388L1051.68 89.148L1051.93 88.688Z" fill="#1F2075"/>
<path d="M1105.03 142.508L1105.28 142.958L1105.73 143.208L1105.28 143.448L1105.03 143.898L1104.79 143.448L1104.33 143.208L1104.79 142.958L1105.03 142.508Z" fill="#1F2075"/>
<path d="M846.572 136.018L846.822 136.468L847.272 136.718L846.822 136.958L846.572 137.408L846.322 136.958L845.872 136.718L846.322 136.468L846.572 136.018Z" fill="#1F2075"/>
<path d="M914.133 199.978L914.383 200.428L914.833 200.678L914.383 200.918L914.133 201.378L913.883 200.918L913.433 200.678L913.883 200.428L914.133 199.978Z" fill="#1F2075"/>
<path d="M994.972 205.748L995.222 206.198L995.672 206.448L995.222 206.698L994.972 207.148L994.732 206.698L994.272 206.448L994.732 206.198L994.972 205.748Z" fill="#1F2075"/>
<path d="M1011.49 179.818L1011.74 180.268L1012.19 180.508L1011.74 180.758L1011.49 181.208L1011.24 180.758L1010.79 180.508L1011.24 180.268L1011.49 179.818Z" fill="#1F2075"/>
<path d="M1017.69 211.978L1017.94 212.428L1018.39 212.678L1017.94 212.918L1017.69 213.378L1017.45 212.918L1017 212.678L1017.45 212.428L1017.69 211.978Z" fill="#1F2075"/>
<path d="M1100.55 234.098L1100.8 234.548L1101.25 234.798L1100.8 235.048L1100.55 235.498L1100.31 235.048L1099.85 234.798L1100.31 234.548L1100.55 234.098Z" fill="#1F2075"/>
<path d="M971.022 105.188L971.472 105.998L972.282 106.438L971.472 106.878L971.022 107.688L970.582 106.878L969.772 106.438L970.582 105.998L971.022 105.188Z" fill="#1F2075"/>
<path d="M996.821 142.648L997.261 143.458L998.071 143.898L997.261 144.348L996.821 145.148L996.381 144.348L995.571 143.898L996.381 143.458L996.821 142.648Z" fill="#1F2075"/>
<path d="M1051.93 107.138L1052.37 107.948L1053.18 108.388L1052.37 108.828L1051.93 109.638L1051.49 108.828L1050.68 108.388L1051.49 107.948L1051.93 107.138Z" fill="#1F2075"/>
<path d="M1105.73 128.778L1106.17 129.588L1106.98 130.028L1106.17 130.468L1105.73 131.278L1105.29 130.468L1104.48 130.028L1105.29 129.588L1105.73 128.778Z" fill="#1F2075"/>
<path d="M1067.13 174.868L1067.57 175.678L1068.38 176.118L1067.57 176.558L1067.13 177.368L1066.69 176.558L1065.88 176.118L1066.69 175.678L1067.13 174.868Z" fill="#1F2075"/>
<path d="M954.513 191.718L954.953 192.528L955.763 192.968L954.953 193.408L954.513 194.218L954.073 193.408L953.263 192.968L954.073 192.528L954.513 191.718Z" fill="#1F2075"/>
<path d="M881.192 115.768L881.632 116.578L882.442 117.018L881.632 117.458L881.192 118.268L880.742 117.458L879.942 117.018L880.742 116.578L881.192 115.768Z" fill="#1F2075"/>
<path d="M918.231 146.878L918.671 147.688L919.481 148.128L918.671 148.568L918.231 149.378L917.791 148.568L916.981 148.128L917.791 147.688L918.231 146.878Z" fill="#1F2075"/>
<path d="M933.901 182.958L934.351 183.768L935.151 184.208L934.351 184.648L933.901 185.458L933.461 184.648L932.651 184.208L933.461 183.768L933.901 182.958Z" fill="#1F2075"/>
<path d="M943.812 171.768L944.252 172.578L945.062 173.018L944.252 173.458L943.812 174.268L943.372 173.458L942.562 173.018L943.372 172.578L943.812 171.768Z" fill="#1F2075"/>
<path d="M871.513 203.218L871.953 204.028L872.763 204.468L871.953 204.908L871.513 205.718L871.073 204.908L870.263 204.468L871.073 204.028L871.513 203.218Z" fill="#1F2075"/>
<path d="M1023.58 141.398L1024.03 142.208L1024.83 142.648L1024.03 143.098L1023.58 143.898L1023.14 143.098L1022.33 142.648L1023.14 142.208L1023.58 141.398Z" fill="#1F2075"/>
<path d="M976.401 165.528L976.841 166.338L977.651 166.778L976.841 167.218L976.401 168.028L975.961 167.218L975.151 166.778L975.961 166.338L976.401 165.528Z" fill="#1F2075"/>
<path d="M936.351 332.418L935.191 334.538L933.071 335.698L935.191 336.858L936.351 338.978L937.511 336.858L939.631 335.698L937.511 334.538L936.351 332.418Z" fill="#1F2075"/>
<path d="M982.773 290.268L981.623 292.388L979.503 293.548L981.623 294.708L982.773 296.828L983.933 294.708L986.053 293.548L983.933 292.388L982.773 290.268Z" fill="#1F2075"/>
<path d="M1009.32 321.868L1008.16 323.988L1006.05 325.148L1008.16 326.308L1009.32 328.428L1010.48 326.308L1012.6 325.148L1010.48 323.988L1009.32 321.868Z" fill="#1F2075"/>
<path d="M1068.87 267.788L1067.71 269.908L1065.59 271.068L1067.71 272.228L1068.87 274.348L1070.03 272.228L1072.15 271.068L1070.03 269.908L1068.87 267.788Z" fill="#1F2075"/>
<path d="M924.213 323.508L923.633 324.568L922.583 325.148L923.633 325.728L924.213 326.788L924.793 325.728L925.853 325.148L924.793 324.568L924.213 323.508Z" fill="#1F2075"/>
<path d="M851.332 303.298L850.752 304.358L849.692 304.938L850.752 305.518L851.332 306.578L851.902 305.518L852.972 304.938L851.902 304.358L851.332 303.298Z" fill="#1F2075"/>
<path d="M818.762 363.228L818.182 364.278L817.122 364.858L818.182 365.438L818.762 366.498L819.342 365.438L820.402 364.858L819.342 364.278L818.762 363.228Z" fill="#1F2075"/>
<path d="M882.492 391.658L881.912 392.718L880.862 393.298L881.912 393.878L882.492 394.938L883.072 393.878L884.132 393.298L883.072 392.718L882.492 391.658Z" fill="#1F2075"/>
<path d="M912.631 385.438L912.051 386.498L910.991 387.078L912.051 387.658L912.631 388.718L913.211 387.658L914.271 387.078L913.211 386.498L912.631 385.438Z" fill="#1F2075"/>
<path d="M844.352 389.058L843.772 390.118L842.712 390.698L843.772 391.278L844.352 392.338L844.932 391.278L845.992 390.698L844.932 390.118L844.352 389.058Z" fill="#1F2075"/>
<path d="M1053.89 387.078L1053.31 388.138L1052.25 388.718L1053.31 389.298L1053.89 390.358L1054.47 389.298L1055.53 388.718L1054.47 388.138L1053.89 387.078Z" fill="#1F2075"/>
<path d="M889.881 356.958L889.301 357.529L888.241 357.839L889.301 358.148L889.881 358.718L890.461 358.148L891.521 357.839L890.461 357.529L889.881 356.958Z" fill="#1F2075"/>
<path d="M947.582 299.878L947.192 300.598L946.472 300.988L947.192 301.378L947.582 302.098L947.972 301.378L948.692 300.988L947.972 300.598L947.582 299.878Z" fill="#1F2075"/>
<path d="M932.213 288.548L931.993 288.948L931.593 289.168L931.993 289.378L932.213 289.778L932.423 289.378L932.823 289.168L932.423 288.948L932.213 288.548Z" fill="#1F2075"/>
<path d="M958.322 302.588L958.092 302.988L957.692 303.208L958.092 303.428L958.322 303.828L958.532 303.428L958.932 303.208L958.532 302.988L958.322 302.588Z" fill="#1F2075"/>
<path d="M965.832 289.658L965.612 290.058L965.212 290.268L965.612 290.488L965.832 290.888L966.052 290.488L966.452 290.268L966.052 290.058L965.832 289.658Z" fill="#1F2075"/>
<path d="M977.293 303.698L977.073 304.098L976.673 304.318L977.073 304.538L977.293 304.938L977.513 304.538L977.913 304.318L977.513 304.098L977.293 303.698Z" fill="#1F2075"/>
<path d="M952.463 327.808L952.243 328.208L951.843 328.428L952.243 328.648L952.463 329.048L952.683 328.648L953.083 328.428L952.683 328.208L952.463 327.808Z" fill="#1F2075"/>
<path d="M978.941 347.018L978.721 347.418L978.321 347.638L978.721 347.848L978.941 348.248L979.161 347.848L979.561 347.638L979.161 347.418L978.941 347.018Z" fill="#1F2075"/>
<path d="M967.142 355.228L966.922 355.628L966.522 355.848L966.922 356.068L967.142 356.468L967.362 356.068L967.762 355.848L967.362 355.628L967.142 355.228Z" fill="#1F2075"/>
<path d="M996.982 369.108L996.762 369.508L996.362 369.728L996.762 369.938L996.982 370.338L997.202 369.938L997.602 369.728L997.202 369.508L996.982 369.108Z" fill="#1F2075"/>
<path d="M1060.98 369.718L1060.76 370.128L1060.36 370.338L1060.76 370.558L1060.98 370.958L1061.2 370.558L1061.6 370.338L1061.2 370.128L1060.98 369.718Z" fill="#1F2075"/>
<path d="M1091.28 374.178L1091.06 374.578L1090.66 374.798L1091.06 375.018L1091.28 375.418L1091.5 375.018L1091.9 374.798L1091.5 374.578L1091.28 374.178Z" fill="#1F2075"/>
<path d="M1068.87 383.258L1068.65 383.658L1068.25 383.878L1068.65 384.088L1068.87 384.498L1069.09 384.088L1069.49 383.878L1069.09 383.658L1068.87 383.258Z" fill="#1F2075"/>
<path d="M1021.27 374.798L1021.05 375.198L1020.65 375.418L1021.05 375.638L1021.27 376.038L1021.49 375.638L1021.89 375.418L1021.49 375.198L1021.27 374.798Z" fill="#1F2075"/>
<path d="M1011.98 382.638L1011.76 383.038L1011.36 383.258L1011.76 383.468L1011.98 383.878L1012.2 383.468L1012.6 383.258L1012.2 383.038L1011.98 382.638Z" fill="#1F2075"/>
<path d="M863.543 375.418L863.323 375.818L862.923 376.038L863.323 376.258L863.543 376.658L863.763 376.258L864.163 376.038L863.763 375.818L863.543 375.418Z" fill="#1F2075"/>
<path d="M940.031 369.718L939.811 370.128L939.411 370.338L939.811 370.558L940.031 370.958L940.251 370.558L940.651 370.338L940.251 370.128L940.031 369.718Z" fill="#1F2075"/>
<path d="M869.851 347.638L869.631 348.038L869.231 348.248L869.631 348.468L869.851 348.868L870.071 348.468L870.471 348.248L870.071 348.038L869.851 347.638Z" fill="#1F2075"/>
<path d="M823.492 382.638L823.272 383.038L822.872 383.258L823.272 383.468L823.492 383.878L823.712 383.468L824.112 383.258L823.712 383.038L823.492 382.638Z" fill="#1F2075"/>
<path d="M836.982 396.848L836.772 397.248L836.372 397.458L836.772 397.678L836.982 398.088L837.212 397.678L837.602 397.458L837.212 397.248L836.982 396.848Z" fill="#1F2075"/>
<path d="M869.232 376.038L869.012 376.438L868.612 376.658L869.012 376.878L869.232 377.278L869.452 376.878L869.852 376.658L869.452 376.438L869.232 376.038Z" fill="#1F2075"/>
<path d="M891.521 376.658L891.301 377.058L890.901 377.278L891.301 377.498L891.521 377.898L891.741 377.498L892.141 377.278L891.741 377.058L891.521 376.658Z" fill="#1F2075"/>
<path d="M887.652 332.418L887.432 332.818L887.032 333.038L887.432 333.258L887.652 333.658L887.872 333.258L888.272 333.038L887.872 332.818L887.652 332.418Z" fill="#1F2075"/>
<path d="M1071.91 331.798L1071.69 332.198L1071.29 332.418L1071.69 332.638L1071.91 333.038L1072.13 332.638L1072.53 332.418L1072.13 332.198L1071.91 331.798Z" fill="#1F2075"/>
<path d="M1031.39 310.558L1031.17 310.958L1030.77 311.178L1031.17 311.398L1031.39 311.798L1031.61 311.398L1032.01 311.178L1031.61 310.958L1031.39 310.558Z" fill="#1F2075"/>
<path d="M1012.6 302.588L1012.38 302.988L1011.98 303.208L1012.38 303.428L1012.6 303.828L1012.82 303.428L1013.22 303.208L1012.82 302.988L1012.6 302.588Z" fill="#1F2075"/>
<path d="M1048.64 287.928L1048.42 288.328L1048.02 288.548L1048.42 288.758L1048.64 289.168L1048.86 288.758L1049.26 288.548L1048.86 288.328L1048.64 287.928Z" fill="#1F2075"/>
<path d="M992.851 338.358L992.631 338.758L992.231 338.978L992.631 339.198L992.851 339.598L993.071 339.198L993.471 338.978L993.071 338.758L992.851 338.358Z" fill="#1F2075"/>
<path d="M1058.17 334.458L1057.96 334.858L1057.56 335.078L1057.96 335.298L1058.17 335.698L1058.39 335.298L1058.79 335.078L1058.39 334.858L1058.17 334.458Z" fill="#1F2075"/>
<path d="M904.203 267.168L903.983 267.568L903.583 267.788L903.983 268.008L904.203 268.408L904.423 268.008L904.823 267.788L904.423 267.568L904.203 267.168Z" fill="#1F2075"/>
<path d="M822.873 270.448L822.653 270.848L822.253 271.068L822.653 271.288L822.873 271.688L823.093 271.288L823.493 271.068L823.093 270.848L822.873 270.448Z" fill="#1F2075"/>
<path d="M844.351 318.728L844.131 319.128L843.731 319.348L844.131 319.568L844.351 319.968L844.571 319.568L844.971 319.348L844.571 319.128L844.351 318.728Z" fill="#1F2075"/>
<path d="M875.303 254.208L875.083 254.608L874.683 254.828L875.083 255.048L875.303 255.448L875.523 255.048L875.923 254.828L875.523 254.608L875.303 254.208Z" fill="#1F2075"/>
<path d="M828.182 301.968L827.962 302.368L827.562 302.588L827.962 302.808L828.182 303.208L828.402 302.808L828.802 302.588L828.402 302.368L828.182 301.968Z" fill="#1F2075"/>
<path d="M1057.56 296.208L1057.34 296.608L1056.94 296.828L1057.34 297.048L1057.56 297.448L1057.77 297.048L1058.17 296.828L1057.77 296.608L1057.56 296.208Z" fill="#1F2075"/>
<path d="M997.601 352.968L997.381 353.378L996.981 353.588L997.381 353.808L997.601 354.208L997.821 353.808L998.221 353.588L997.821 353.378L997.601 352.968Z" fill="#1F2075"/>
<path d="M925.851 358.098L925.631 358.498L925.231 358.718L925.631 358.938L925.851 359.338L926.071 358.938L926.471 358.718L926.071 358.498L925.851 358.098Z" fill="#1F2075"/>
<path d="M911.191 335.078L910.971 335.478L910.571 335.698L910.971 335.918L911.191 336.318L911.411 335.918L911.811 335.698L911.411 335.478L911.191 335.078Z" fill="#1F2075"/>
<path d="M905.691 363.628L905.471 364.028L905.071 364.248L905.471 364.458L905.691 364.858L905.911 364.458L906.311 364.248L905.911 364.028L905.691 363.628Z" fill="#1F2075"/>
<path d="M832.152 383.258L831.932 383.658L831.532 383.878L831.932 384.088L832.152 384.498L832.372 384.088L832.772 383.878L832.372 383.658L832.152 383.258Z" fill="#1F2075"/>
<path d="M947.113 268.848L946.713 269.568L946.003 269.958L946.713 270.348L947.113 271.068L947.503 270.348L948.213 269.958L947.503 269.568L947.113 268.848Z" fill="#1F2075"/>
<path d="M924.213 302.098L923.823 302.818L923.103 303.208L923.823 303.598L924.213 304.318L924.613 303.598L925.323 303.208L924.613 302.818L924.213 302.098Z" fill="#1F2075"/>
<path d="M911.761 209.828L910.601 211.948L908.481 213.108L910.601 214.268L911.761 216.378L912.911 214.268L915.031 213.108L912.911 211.948L911.761 209.828Z" fill="#1F2075"/>
<path d="M876.562 219.438L876.172 220.148L875.452 220.548L876.172 220.938L876.562 221.648L876.952 220.938L877.672 220.548L876.952 220.148L876.562 219.438Z" fill="#1F2075"/>
<path d="M861.191 208.098L860.971 208.498L860.571 208.718L860.971 208.938L861.191 209.338L861.401 208.938L861.801 208.718L861.401 208.498L861.191 208.098Z" fill="#1F2075"/>
<path d="M887.303 222.138L887.083 222.538L886.673 222.758L887.083 222.978L887.303 223.378L887.513 222.978L887.913 222.758L887.513 222.538L887.303 222.138Z" fill="#1F2075"/>
<path d="M894.812 209.208L894.592 209.608L894.192 209.828L894.592 210.048L894.812 210.448L895.032 210.048L895.432 209.828L895.032 209.608L894.812 209.208Z" fill="#1F2075"/>
<path d="M906.271 223.248L906.051 223.648L905.651 223.868L906.051 224.088L906.271 224.488L906.491 224.088L906.891 223.868L906.491 223.648L906.271 223.248Z" fill="#1F2075"/>
<path d="M876.091 188.408L875.691 189.118L874.981 189.518L875.691 189.908L876.091 190.628L876.481 189.908L877.191 189.518L876.481 189.118L876.091 188.408Z" fill="#1F2075"/>
<path d="M853.193 221.648L852.803 222.368L852.093 222.758L852.803 223.158L853.193 223.868L853.593 223.158L854.303 222.758L853.593 222.368L853.193 221.648Z" fill="#1F2075"/>
<path d="M954.162 241.358L953.762 242.078L953.052 242.468L953.762 242.858L954.162 243.578L954.552 242.858L955.272 242.468L954.552 242.078L954.162 241.358Z" fill="#1F2075"/>
<path d="M938.781 230.018L938.561 230.418L938.161 230.638L938.561 230.858L938.781 231.258L939.001 230.858L939.401 230.638L939.001 230.418L938.781 230.018Z" fill="#1F2075"/>
<path d="M964.892 244.068L964.672 244.468L964.272 244.688L964.672 244.898L964.892 245.308L965.112 244.898L965.512 244.688L965.112 244.468L964.892 244.068Z" fill="#1F2075"/>
<path d="M953.681 210.328L953.291 211.048L952.571 211.438L953.291 211.828L953.681 212.548L954.071 211.828L954.791 211.438L954.071 211.048L953.681 210.328Z" fill="#1F2075"/>
<path d="M930.793 243.578L930.393 244.288L929.683 244.688L930.393 245.078L930.793 245.788L931.183 245.078L931.903 244.688L931.183 244.288L930.793 243.578Z" fill="#1F2075"/>
<path d="M998.803 262.708L998.403 263.428L997.683 263.818L998.403 264.208L998.803 264.928L999.193 264.208L999.903 263.818L999.193 263.428L998.803 262.708Z" fill="#1F2075"/>
<path d="M983.422 251.368L983.202 251.768L982.802 251.988L983.202 252.208L983.422 252.608L983.642 252.208L984.042 251.988L983.642 251.768L983.422 251.368Z" fill="#1F2075"/>
<path d="M1009.53 265.418L1009.31 265.818L1008.91 266.038L1009.31 266.258L1009.53 266.658L1009.75 266.258L1010.15 266.038L1009.75 265.818L1009.53 265.418Z" fill="#1F2075"/>
<path d="M998.322 231.678L997.932 232.398L997.212 232.788L997.932 233.178L998.322 233.898L998.712 233.178L999.432 232.788L998.712 232.398L998.322 231.678Z" fill="#1F2075"/>
<path d="M975.431 264.928L975.031 265.638L974.321 266.038L975.031 266.428L975.431 267.148L975.821 266.428L976.541 266.038L975.821 265.638L975.431 264.928Z" fill="#1F2075"/>
<path d="M875.302 270.578L874.912 271.298L874.192 271.688L874.912 272.078L875.302 272.798L875.692 272.078L876.412 271.688L875.692 271.298L875.302 270.578Z" fill="#1F2075"/>
<path d="M827.562 289.778L827.172 290.498L826.452 290.888L827.172 291.288L827.562 291.998L827.952 291.288L828.672 290.888L827.952 290.498L827.562 289.778Z" fill="#1F2075"/>
<path d="M861.812 330.688L861.422 331.408L860.702 331.798L861.422 332.188L861.812 332.908L862.212 332.188L862.922 331.798L862.212 331.408L861.812 330.688Z" fill="#1F2075"/>
<path d="M961.761 345.648L961.371 346.358L960.651 346.758L961.371 347.148L961.761 347.868L962.151 347.148L962.871 346.758L962.151 346.358L961.761 345.648Z" fill="#1F2075"/>
<path d="M1026.83 278.238L1026.44 278.958L1025.72 279.348L1026.44 279.748L1026.83 280.458L1027.23 279.748L1027.94 279.348L1027.23 278.958L1026.83 278.238Z" fill="#1F2075"/>
<path d="M993.963 305.848L993.573 306.568L992.853 306.958L993.573 307.348L993.963 308.068L994.353 307.348L995.073 306.958L994.353 306.568L993.963 305.848Z" fill="#1F2075"/>
<path d="M980.052 337.868L979.662 338.588L978.942 338.978L979.662 339.368L980.052 340.088L980.442 339.368L981.162 338.978L980.442 338.588L980.052 337.868Z" fill="#1F2075"/>
<path d="M971.261 327.938L970.861 328.658L970.151 329.048L970.861 329.438L971.261 330.158L971.651 329.438L972.371 329.048L971.651 328.658L971.261 327.938Z" fill="#1F2075"/>
<path d="M1035.42 355.848L1035.03 356.568L1034.31 356.958L1035.03 357.348L1035.42 358.068L1035.81 357.348L1036.53 356.958L1035.81 356.568L1035.42 355.848Z" fill="#1F2075"/>
<path d="M900.463 300.988L900.073 301.708L899.353 302.098L900.073 302.488L900.463 303.208L900.853 302.488L901.573 302.098L900.853 301.708L900.463 300.988Z" fill="#1F2075"/>
<path d="M942.332 322.398L941.942 323.118L941.222 323.508L941.942 323.898L942.332 324.618L942.722 323.898L943.442 323.508L942.722 323.118L942.332 322.398Z" fill="#1F2075"/>
</g>
<path d="M506.231 286.477C509.172 291.684 508.455 298.195 504.464 302.644C509.671 299.703 516.181 300.419 520.631 304.411C517.689 299.204 518.406 292.693 522.398 288.244C517.191 291.186 510.68 290.469 506.231 286.477Z" fill="#EBEBEB"/>
<path d="M1379.67 66.3882C1378.65 75.044 1372.2 82.084 1363.68 83.8811C1372.34 84.9033 1379.38 91.3498 1381.17 99.8737C1382.2 91.2179 1388.64 84.1779 1397.17 82.3808C1388.51 81.3586 1381.47 74.9121 1379.67 66.3882Z" fill="#EBEBEB"/>
<path d="M492.479 284.428C494.637 286.956 494.95 290.583 493.244 293.443C495.772 291.285 499.398 290.972 502.259 292.678C500.1 290.15 499.788 286.523 501.493 283.663C498.965 285.821 495.339 286.134 492.479 284.428Z" fill="#EBEBEB"/>
<path d="M70.1917 308.034C67.0911 310.56 62.72 310.836 59.3261 308.705C61.8528 311.806 62.1288 316.177 59.9978 319.571C63.0985 317.044 67.4695 316.768 70.8634 318.899C68.3367 315.799 68.0607 311.428 70.1917 308.034Z" fill="#EBEBEB"/>
<path d="M73.222 41.3882C73.4622 44.5875 71.6387 47.5902 68.6797 48.8459C71.879 48.6057 74.8817 50.4291 76.1374 53.3882C75.8972 50.1889 77.7206 47.1862 80.6797 45.9305C77.4804 46.1707 74.4777 44.3472 73.222 41.3882Z" fill="#EBEBEB"/>
<path d="M1320.21 361.952C1323.6 365.406 1324.43 370.646 1322.24 374.979C1325.7 371.583 1330.94 370.757 1335.27 372.943C1331.87 369.489 1331.05 364.25 1333.24 359.916C1329.78 363.313 1324.54 364.139 1320.21 361.952Z" fill="#EBEBEB"/>
<g opacity="0.3">
<path d="M831.123 151.169L832.61 153.903L835.343 155.389L832.61 156.887L831.123 159.62L829.625 156.887L826.892 155.389L829.625 153.903L831.123 151.169Z" fill="white"/>
<path d="M771.291 96.8623L772.79 99.5954L775.523 101.082L772.79 102.58L771.291 105.313L769.805 102.58L767.072 101.082L769.805 99.5954L771.291 96.8623Z" fill="white"/>
<path d="M737.088 137.573L738.574 140.306L741.307 141.804L738.574 143.291L737.088 146.024L735.59 143.291L732.856 141.804L735.59 140.306L737.088 137.573Z" fill="white"/>
<path d="M660.355 67.896L661.854 70.6291L664.587 72.1157L661.854 73.6138L660.355 76.3469L658.869 73.6138L656.136 72.1157L658.869 70.6291L660.355 67.896Z" fill="white"/>
<path d="M846.755 139.688L847.499 141.049L848.859 141.804L847.499 142.547L846.755 143.908L846.012 142.547L844.64 141.804L846.012 141.049L846.755 139.688Z" fill="white"/>
<path d="M940.676 113.649L941.419 115.01L942.792 115.754L941.419 116.508L940.676 117.869L939.933 116.508L938.561 115.754L939.933 115.01L940.676 113.649Z" fill="white"/>
<path d="M982.632 190.862L983.387 192.223L984.748 192.978L983.387 193.721L982.632 195.082L981.889 193.721L980.528 192.978L981.889 192.223L982.632 190.862Z" fill="white"/>
<path d="M900.513 227.502L901.256 228.863L902.617 229.618L901.256 230.361L900.513 231.722L899.77 230.361L898.397 229.618L899.77 228.863L900.513 227.502Z" fill="white"/>
<path d="M861.679 219.486L862.422 220.858L863.795 221.601L862.422 222.345L861.679 223.717L860.936 222.345L859.563 221.601L860.936 220.858L861.679 219.486Z" fill="white"/>
<path d="M949.664 224.152L950.407 225.513L951.78 226.267L950.407 227.011L949.664 228.372L948.921 227.011L947.548 226.267L948.921 225.513L949.664 224.152Z" fill="white"/>
<path d="M679.659 221.601L680.403 222.962L681.764 223.717L680.403 224.46L679.659 225.821L678.905 224.46L677.544 223.717L678.905 222.962L679.659 221.601Z" fill="white"/>
<path d="M890.987 182.79L891.73 183.521L893.103 183.922L891.73 184.322L890.987 185.054L890.244 184.322L888.883 183.922L890.244 183.521L890.987 182.79Z" fill="white"/>
<path d="M816.645 109.235L817.148 110.162L818.074 110.665L817.148 111.179L816.645 112.094L816.142 111.179L815.215 110.665L816.142 110.162L816.645 109.235Z" fill="white"/>
<path d="M836.452 94.6323L836.738 95.1469L837.253 95.4328L836.738 95.7187L836.452 96.2333L836.178 95.7187L835.663 95.4328L836.178 95.1469L836.452 94.6323Z" fill="white"/>
<path d="M802.809 112.735L803.094 113.249L803.609 113.524L803.094 113.81L802.809 114.324L802.534 113.81L802.02 113.524L802.534 113.249L802.809 112.735Z" fill="white"/>
<path d="M793.134 96.0615L793.419 96.5761L793.934 96.862L793.419 97.1479L793.134 97.6625L792.848 97.1479L792.333 96.862L792.848 96.5761L793.134 96.0615Z" fill="white"/>
<path d="M778.37 114.164L778.644 114.679L779.159 114.953L778.644 115.239L778.37 115.754L778.084 115.239L777.569 114.953L778.084 114.679L778.37 114.164Z" fill="white"/>
<path d="M810.356 145.224L810.642 145.738L811.157 146.024L810.642 146.31L810.356 146.825L810.082 146.31L809.556 146.024L810.082 145.738L810.356 145.224Z" fill="white"/>
<path d="M776.233 169.97L776.519 170.496L777.033 170.77L776.519 171.056L776.233 171.571L775.958 171.056L775.432 170.77L775.958 170.496L776.233 169.97Z" fill="white"/>
<path d="M791.443 180.559L791.728 181.074L792.243 181.36L791.728 181.634L791.443 182.16L791.157 181.634L790.642 181.36L791.157 181.074L791.443 180.559Z" fill="white"/>
<path d="M752.995 198.444L753.281 198.958L753.796 199.233L753.281 199.519L752.995 200.033L752.709 199.519L752.195 199.233L752.709 198.958L752.995 198.444Z" fill="white"/>
<path d="M670.523 199.233L670.809 199.748L671.324 200.034L670.809 200.32L670.523 200.834L670.237 200.32L669.723 200.034L670.237 199.748L670.523 199.233Z" fill="white"/>
<path d="M631.481 204.974L631.756 205.489L632.282 205.775L631.756 206.06L631.481 206.575L631.195 206.06L630.681 205.775L631.195 205.489L631.481 204.974Z" fill="white"/>
<path d="M660.356 216.673L660.642 217.187L661.157 217.473L660.642 217.759L660.356 218.274L660.082 217.759L659.556 217.473L660.082 217.187L660.356 216.673Z" fill="white"/>
<path d="M721.697 205.774L721.971 206.289L722.486 206.575L721.971 206.861L721.697 207.375L721.411 206.861L720.896 206.575L721.411 206.289L721.697 205.774Z" fill="white"/>
<path d="M733.657 215.872L733.943 216.387L734.457 216.673L733.943 216.958L733.657 217.473L733.382 216.958L732.856 216.673L733.382 216.387L733.657 215.872Z" fill="white"/>
<path d="M924.928 206.575L925.214 207.09L925.729 207.376L925.214 207.65L924.928 208.176L924.643 207.65L924.128 207.376L924.643 207.09L924.928 206.575Z" fill="white"/>
<path d="M826.377 199.233L826.663 199.748L827.178 200.034L826.663 200.32L826.377 200.834L826.091 200.32L825.577 200.034L826.091 199.748L826.377 199.233Z" fill="white"/>
<path d="M916.798 170.771L917.084 171.285L917.598 171.571L917.084 171.857L916.798 172.371L916.523 171.857L916.009 171.571L916.523 171.285L916.798 170.771Z" fill="white"/>
<path d="M976.538 215.872L976.824 216.387L977.338 216.673L976.824 216.958L976.538 217.473L976.252 216.958L975.737 216.673L976.252 216.387L976.538 215.872Z" fill="white"/>
<path d="M959.154 234.18L959.429 234.695L959.944 234.981L959.429 235.267L959.154 235.781L958.869 235.267L958.354 234.981L958.869 234.695L959.154 234.18Z" fill="white"/>
<path d="M917.598 207.376L917.884 207.891L918.398 208.176L917.884 208.451L917.598 208.966L917.312 208.451L916.797 208.176L917.312 207.891L917.598 207.376Z" fill="white"/>
<path d="M888.884 208.176L889.158 208.69L889.673 208.965L889.158 209.251L888.884 209.765L888.598 209.251L888.083 208.965L888.598 208.69L888.884 208.176Z" fill="white"/>
<path d="M893.869 151.169L894.143 151.684L894.658 151.97L894.143 152.244L893.869 152.77L893.583 152.244L893.068 151.97L893.583 151.684L893.869 151.169Z" fill="white"/>
<path d="M656.445 150.37L656.719 150.884L657.234 151.17L656.719 151.456L656.445 151.971L656.159 151.456L655.645 151.17L656.159 150.884L656.445 150.37Z" fill="white"/>
<path d="M708.649 122.993L708.935 123.507L709.45 123.793L708.935 124.079L708.649 124.594L708.363 124.079L707.849 123.793L708.363 123.507L708.649 122.993Z" fill="white"/>
<path d="M732.857 112.735L733.143 113.249L733.658 113.524L733.143 113.81L732.857 114.324L732.583 113.81L732.068 113.524L732.583 113.249L732.857 112.735Z" fill="white"/>
<path d="M686.429 93.832L686.715 94.3466L687.23 94.6325L686.715 94.9184L686.429 95.433L686.144 94.9184L685.629 94.6325L686.144 94.3466L686.429 93.832Z" fill="white"/>
<path d="M758.313 158.82L758.599 159.334L759.114 159.62L758.599 159.895L758.313 160.409L758.027 159.895L757.513 159.62L758.027 159.334L758.313 158.82Z" fill="white"/>
<path d="M674.136 153.799L674.422 154.314L674.937 154.6L674.422 154.874L674.136 155.389L673.862 154.874L673.336 154.6L673.862 154.314L674.136 153.799Z" fill="white"/>
<path d="M872.544 67.0952L872.83 67.6098L873.344 67.8957L872.83 68.1702L872.544 68.6962L872.258 68.1702L871.743 67.8957L872.258 67.6098L872.544 67.0952Z" fill="white"/>
<path d="M977.34 71.3149L977.625 71.8295L978.14 72.1154L977.625 72.4013L977.34 72.9159L977.054 72.4013L976.539 72.1154L977.054 71.8295L977.34 71.3149Z" fill="white"/>
<path d="M949.664 133.525L949.95 134.039L950.465 134.325L949.95 134.611L949.664 135.126L949.378 134.611L948.864 134.325L949.378 134.039L949.664 133.525Z" fill="white"/>
<path d="M909.776 50.3882L910.062 50.9142L910.577 51.1887L910.062 51.4746L909.776 51.9892L909.49 51.4746L908.976 51.1887L909.49 50.9142L909.776 50.3882Z" fill="white"/>
<path d="M970.501 111.934L970.787 112.449L971.301 112.735L970.787 113.009L970.501 113.524L970.226 113.009L969.7 112.735L970.226 112.449L970.501 111.934Z" fill="white"/>
<path d="M674.936 104.513L675.222 105.027L675.737 105.313L675.222 105.588L674.936 106.102L674.65 105.588L674.136 105.313L674.65 105.027L674.936 104.513Z" fill="white"/>
<path d="M752.193 177.654L752.479 178.169L752.994 178.455L752.479 178.729L752.193 179.255L751.907 178.729L751.393 178.455L751.907 178.169L752.193 177.654Z" fill="white"/>
<path d="M844.64 184.253L844.926 184.768L845.441 185.053L844.926 185.339L844.64 185.854L844.366 185.339L843.84 185.053L844.366 184.768L844.64 184.253Z" fill="white"/>
<path d="M863.531 154.6L863.817 155.115L864.332 155.389L863.817 155.675L863.531 156.19L863.246 155.675L862.731 155.389L863.246 155.115L863.531 154.6Z" fill="white"/>
<path d="M870.623 191.377L870.908 191.892L871.423 192.177L870.908 192.452L870.623 192.978L870.348 192.452L869.833 192.177L870.348 191.892L870.623 191.377Z" fill="white"/>
<path d="M965.377 216.673L965.663 217.187L966.178 217.473L965.663 217.759L965.377 218.274L965.103 217.759L964.577 217.473L965.103 217.187L965.377 216.673Z" fill="white"/>
<path d="M817.252 69.2568L817.767 70.1831L818.693 70.6863L817.767 71.1894L817.252 72.1157L816.749 71.1894L815.823 70.6863L816.749 70.1831L817.252 69.2568Z" fill="white"/>
<path d="M846.755 112.094L847.258 113.021L848.184 113.524L847.258 114.038L846.755 114.953L846.251 114.038L845.325 113.524L846.251 113.021L846.755 112.094Z" fill="white"/>
<path d="M909.775 71.4868L910.278 72.4131L911.205 72.9163L910.278 73.4194L909.775 74.3457L909.272 73.4194L908.346 72.9163L909.272 72.4131L909.775 71.4868Z" fill="white"/>
<path d="M971.3 96.2329L971.803 97.1592L972.729 97.6624L971.803 98.1655L971.3 99.0918L970.796 98.1655L969.87 97.6624L970.796 97.1592L971.3 96.2329Z" fill="white"/>
<path d="M927.158 148.939L927.662 149.866L928.588 150.369L927.662 150.872L927.158 151.798L926.655 150.872L925.729 150.369L926.655 149.866L927.158 148.939Z" fill="white"/>
<path d="M798.372 168.209L798.875 169.135L799.802 169.638L798.875 170.142L798.372 171.068L797.869 170.142L796.943 169.638L797.869 169.135L798.372 168.209Z" fill="white"/>
<path d="M714.526 81.356L715.029 82.2822L715.956 82.7854L715.029 83.2886L714.526 84.2148L714.012 83.2886L713.097 82.7854L714.012 82.2822L714.526 81.356Z" fill="white"/>
<path d="M756.883 116.932L757.386 117.858L758.312 118.361L757.386 118.864L756.883 119.791L756.379 118.864L755.453 118.361L756.379 117.858L756.883 116.932Z" fill="white"/>
<path d="M774.804 158.191L775.319 159.118L776.234 159.621L775.319 160.124L774.804 161.05L774.301 160.124L773.375 159.621L774.301 159.118L774.804 158.191Z" fill="white"/>
<path d="M786.137 145.395L786.64 146.321L787.566 146.824L786.64 147.328L786.137 148.254L785.634 147.328L784.708 146.824L785.634 146.321L786.137 145.395Z" fill="white"/>
<path d="M703.457 181.36L703.96 182.286L704.886 182.789L703.96 183.292L703.457 184.219L702.954 183.292L702.027 182.789L702.954 182.286L703.457 181.36Z" fill="white"/>
<path d="M877.358 110.665L877.873 111.591L878.788 112.094L877.873 112.609L877.358 113.524L876.855 112.609L875.929 112.094L876.855 111.591L877.358 110.665Z" fill="white"/>
<path d="M823.406 138.259L823.909 139.185L824.835 139.688L823.909 140.191L823.406 141.118L822.902 140.191L821.976 139.688L822.902 139.185L823.406 138.259Z" fill="white"/>
<path d="M777.606 329.108L776.28 331.532L773.855 332.859L776.28 334.185L777.606 336.61L778.933 334.185L781.357 332.859L778.933 331.532L777.606 329.108Z" fill="white"/>
<path d="M830.693 280.907L829.377 283.331L826.953 284.658L829.377 285.984L830.693 288.408L832.019 285.984L834.443 284.658L832.019 283.331L830.693 280.907Z" fill="white"/>
<path d="M861.052 317.043L859.725 319.468L857.312 320.794L859.725 322.121L861.052 324.545L862.378 322.121L864.803 320.794L862.378 319.468L861.052 317.043Z" fill="white"/>
<path d="M929.15 255.2L927.824 257.624L925.399 258.951L927.824 260.277L929.15 262.701L930.477 260.277L932.901 258.951L930.477 257.624L929.15 255.2Z" fill="white"/>
<path d="M763.723 318.918L763.06 320.13L761.859 320.793L763.06 321.457L763.723 322.669L764.386 321.457L765.598 320.793L764.386 320.13L763.723 318.918Z" fill="white"/>
<path d="M680.38 295.807L679.717 297.019L678.505 297.683L679.717 298.346L680.38 299.558L681.032 298.346L682.256 297.683L681.032 297.019L680.38 295.807Z" fill="white"/>
<path d="M643.134 364.34L642.471 365.541L641.259 366.204L642.471 366.867L643.134 368.079L643.797 366.867L645.01 366.204L643.797 365.541L643.134 364.34Z" fill="white"/>
<path d="M716.013 396.852L715.35 398.064L714.149 398.727L715.35 399.39L716.013 400.602L716.677 399.39L717.889 398.727L716.677 398.064L716.013 396.852Z" fill="white"/>
<path d="M750.479 389.738L749.816 390.95L748.604 391.614L749.816 392.277L750.479 393.489L751.142 392.277L752.354 391.614L751.142 390.95L750.479 389.738Z" fill="white"/>
<path d="M672.397 393.878L671.734 395.09L670.521 395.753L671.734 396.417L672.397 397.629L673.06 396.417L674.272 395.753L673.06 395.09L672.397 393.878Z" fill="white"/>
<path d="M912.022 391.614L911.359 392.826L910.146 393.49L911.359 394.153L912.022 395.365L912.685 394.153L913.897 393.49L912.685 392.826L912.022 391.614Z" fill="white"/>
<path d="M724.462 357.17L723.799 357.822L722.587 358.177L723.799 358.531L724.462 359.183L725.126 358.531L726.338 358.177L725.126 357.822L724.462 357.17Z" fill="white"/>
<path d="M790.449 291.897L790.003 292.72L789.18 293.166L790.003 293.612L790.449 294.436L790.895 293.612L791.718 293.166L790.895 292.72L790.449 291.897Z" fill="white"/>
<path d="M772.871 278.94L772.62 279.398L772.162 279.649L772.62 279.89L772.871 280.347L773.111 279.89L773.569 279.649L773.111 279.398L772.871 278.94Z" fill="white"/>
<path d="M802.731 294.996L802.468 295.453L802.011 295.705L802.468 295.956L802.731 296.414L802.971 295.956L803.429 295.705L802.971 295.453L802.731 294.996Z" fill="white"/>
<path d="M811.319 280.209L811.068 280.667L810.61 280.907L811.068 281.159L811.319 281.616L811.571 281.159L812.028 280.907L811.571 280.667L811.319 280.209Z" fill="white"/>
<path d="M824.426 296.265L824.174 296.723L823.717 296.974L824.174 297.226L824.426 297.683L824.677 297.226L825.135 296.974L824.677 296.723L824.426 296.265Z" fill="white"/>
<path d="M796.028 323.836L795.777 324.293L795.319 324.545L795.777 324.797L796.028 325.254L796.28 324.797L796.737 324.545L796.28 324.293L796.028 323.836Z" fill="white"/>
<path d="M826.311 345.804L826.059 346.261L825.602 346.513L826.059 346.753L826.311 347.21L826.562 346.753L827.02 346.513L826.562 346.261L826.311 345.804Z" fill="white"/>
<path d="M812.817 355.192L812.566 355.649L812.108 355.901L812.566 356.152L812.817 356.61L813.069 356.152L813.526 355.901L813.069 355.649L812.817 355.192Z" fill="white"/>
<path d="M846.941 371.064L846.69 371.522L846.232 371.773L846.69 372.014L846.941 372.471L847.193 372.014L847.65 371.773L847.193 371.522L846.941 371.064Z" fill="white"/>
<path d="M920.129 371.763L919.877 372.232L919.42 372.472L919.877 372.723L920.129 373.181L920.381 372.723L920.838 372.472L920.381 372.232L920.129 371.763Z" fill="white"/>
<path d="M954.777 376.863L954.526 377.32L954.068 377.572L954.526 377.823L954.777 378.281L955.029 377.823L955.486 377.572L955.029 377.32L954.777 376.863Z" fill="white"/>
<path d="M929.152 387.246L928.901 387.704L928.443 387.955L928.901 388.195L929.152 388.664L929.404 388.195L929.861 387.955L929.404 387.704L929.152 387.246Z" fill="white"/>
<path d="M874.72 377.572L874.468 378.029L874.011 378.281L874.468 378.532L874.72 378.99L874.971 378.532L875.429 378.281L874.971 378.029L874.72 377.572Z" fill="white"/>
<path d="M864.095 386.537L863.843 386.995L863.386 387.246L863.843 387.486L864.095 387.955L864.346 387.486L864.804 387.246L864.346 386.995L864.095 386.537Z" fill="white"/>
<path d="M694.344 378.28L694.092 378.738L693.635 378.989L694.092 379.241L694.344 379.698L694.595 379.241L695.053 378.989L694.595 378.738L694.344 378.28Z" fill="white"/>
<path d="M781.814 371.763L781.563 372.232L781.105 372.472L781.563 372.723L781.814 373.181L782.066 372.723L782.523 372.472L782.066 372.232L781.814 371.763Z" fill="white"/>
<path d="M701.558 346.512L701.306 346.97L700.849 347.21L701.306 347.461L701.558 347.919L701.809 347.461L702.267 347.21L701.809 346.97L701.558 346.512Z" fill="white"/>
<path d="M648.543 386.537L648.291 386.994L647.834 387.246L648.291 387.486L648.543 387.955L648.795 387.486L649.252 387.246L648.795 386.994L648.543 386.537Z" fill="white"/>
<path d="M663.969 402.787L663.729 403.244L663.271 403.484L663.729 403.736L663.969 404.205L664.232 403.736L664.678 403.484L664.232 403.244L663.969 402.787Z" fill="white"/>
<path d="M700.85 378.989L700.598 379.446L700.141 379.698L700.598 379.949L700.85 380.407L701.101 379.949L701.559 379.698L701.101 379.446L700.85 378.989Z" fill="white"/>
<path d="M726.341 379.698L726.089 380.156L725.632 380.407L726.089 380.659L726.341 381.116L726.592 380.659L727.05 380.407L726.592 380.156L726.341 379.698Z" fill="white"/>
<path d="M721.914 329.107L721.662 329.564L721.205 329.816L721.662 330.068L721.914 330.525L722.166 330.068L722.623 329.816L722.166 329.564L721.914 329.107Z" fill="white"/>
<path d="M932.628 328.399L932.376 328.856L931.919 329.108L932.376 329.36L932.628 329.817L932.88 329.36L933.337 329.108L932.88 328.856L932.628 328.399Z" fill="white"/>
<path d="M886.291 304.109L886.039 304.567L885.582 304.818L886.039 305.07L886.291 305.527L886.543 305.07L887 304.818L886.543 304.567L886.291 304.109Z" fill="white"/>
<path d="M864.803 294.996L864.551 295.453L864.094 295.705L864.551 295.956L864.803 296.414L865.054 295.956L865.512 295.705L865.054 295.453L864.803 294.996Z" fill="white"/>
<path d="M906.018 278.231L905.766 278.688L905.309 278.94L905.766 279.18L906.018 279.649L906.269 279.18L906.727 278.94L906.269 278.688L906.018 278.231Z" fill="white"/>
<path d="M842.218 335.9L841.966 336.358L841.509 336.609L841.966 336.861L842.218 337.318L842.469 336.861L842.927 336.609L842.469 336.358L842.218 335.9Z" fill="white"/>
<path d="M916.917 331.441L916.677 331.898L916.22 332.15L916.677 332.402L916.917 332.859L917.169 332.402L917.626 332.15L917.169 331.898L916.917 331.441Z" fill="white"/>
<path d="M740.841 254.49L740.589 254.948L740.132 255.199L740.589 255.451L740.841 255.908L741.092 255.451L741.55 255.199L741.092 254.948L740.841 254.49Z" fill="white"/>
<path d="M647.835 258.241L647.583 258.699L647.126 258.95L647.583 259.202L647.835 259.659L648.087 259.202L648.544 258.95L648.087 258.699L647.835 258.241Z" fill="white"/>
<path d="M672.397 313.452L672.145 313.909L671.688 314.161L672.145 314.412L672.397 314.87L672.648 314.412L673.106 314.161L672.648 313.909L672.397 313.452Z" fill="white"/>
<path d="M707.789 239.67L707.537 240.127L707.08 240.379L707.537 240.631L707.789 241.088L708.041 240.631L708.498 240.379L708.041 240.127L707.789 239.67Z" fill="white"/>
<path d="M653.908 294.286L653.657 294.744L653.199 294.995L653.657 295.247L653.908 295.704L654.16 295.247L654.617 294.995L654.16 294.744L653.908 294.286Z" fill="white"/>
<path d="M916.218 287.7L915.966 288.158L915.509 288.409L915.966 288.661L916.218 289.118L916.458 288.661L916.915 288.409L916.458 288.158L916.218 287.7Z" fill="white"/>
<path d="M847.649 352.608L847.398 353.077L846.94 353.317L847.398 353.569L847.649 354.026L847.901 353.569L848.358 353.317L847.901 353.077L847.649 352.608Z" fill="white"/>
<path d="M765.597 358.474L765.345 358.931L764.888 359.183L765.345 359.434L765.597 359.892L765.848 359.434L766.306 359.183L765.848 358.931L765.597 358.474Z" fill="white"/>
<path d="M748.832 332.149L748.58 332.606L748.123 332.858L748.58 333.11L748.832 333.567L749.084 333.11L749.541 332.858L749.084 332.606L748.832 332.149Z" fill="white"/>
<path d="M742.542 364.798L742.29 365.255L741.833 365.507L742.29 365.747L742.542 366.204L742.794 365.747L743.251 365.507L742.794 365.255L742.542 364.798Z" fill="white"/>
<path d="M658.446 387.246L658.195 387.703L657.737 387.955L658.195 388.195L658.446 388.664L658.698 388.195L659.155 387.955L658.698 387.703L658.446 387.246Z" fill="white"/>
<path d="M789.913 256.412L789.455 257.235L788.644 257.681L789.455 258.127L789.913 258.951L790.359 258.127L791.171 257.681L790.359 257.235L789.913 256.412Z" fill="white"/>
<path d="M763.722 294.435L763.276 295.258L762.453 295.704L763.276 296.15L763.722 296.973L764.18 296.15L764.992 295.704L764.18 295.258L763.722 294.435Z" fill="white"/>
<path d="M749.484 188.918L748.158 191.343L745.733 192.669L748.158 193.996L749.484 196.409L750.799 193.996L753.224 192.669L750.799 191.343L749.484 188.918Z" fill="white"/>
<path d="M709.231 199.908L708.785 200.72L707.962 201.178L708.785 201.624L709.231 202.435L709.677 201.624L710.501 201.178L709.677 200.72L709.231 199.908Z" fill="white"/>
<path d="M691.654 186.94L691.403 187.398L690.945 187.649L691.403 187.901L691.654 188.358L691.894 187.901L692.352 187.649L691.894 187.398L691.654 186.94Z" fill="white"/>
<path d="M721.514 202.996L721.263 203.454L720.794 203.705L721.263 203.957L721.514 204.414L721.755 203.957L722.212 203.705L721.755 203.454L721.514 202.996Z" fill="white"/>
<path d="M730.102 188.21L729.85 188.667L729.393 188.919L729.85 189.171L730.102 189.628L730.353 189.171L730.811 188.919L730.353 188.667L730.102 188.21Z" fill="white"/>
<path d="M743.208 204.265L742.956 204.723L742.499 204.974L742.956 205.226L743.208 205.683L743.46 205.226L743.917 204.974L743.46 204.723L743.208 204.265Z" fill="white"/>
<path d="M708.693 164.424L708.236 165.236L707.424 165.693L708.236 166.139L708.693 166.963L709.139 166.139L709.951 165.693L709.139 165.236L708.693 164.424Z" fill="white"/>
<path d="M682.505 202.435L682.059 203.258L681.247 203.704L682.059 204.162L682.505 204.974L682.962 204.162L683.774 203.704L682.962 203.258L682.505 202.435Z" fill="white"/>
<path d="M797.973 224.976L797.516 225.799L796.704 226.245L797.516 226.691L797.973 227.514L798.419 226.691L799.243 226.245L798.419 225.799L797.973 224.976Z" fill="white"/>
<path d="M780.385 212.008L780.133 212.465L779.676 212.717L780.133 212.968L780.385 213.426L780.636 212.968L781.094 212.717L780.636 212.465L780.385 212.008Z" fill="white"/>
<path d="M810.245 228.075L809.994 228.532L809.536 228.784L809.994 229.024L810.245 229.493L810.497 229.024L810.954 228.784L810.497 228.532L810.245 228.075Z" fill="white"/>
<path d="M797.425 189.491L796.979 190.315L796.155 190.761L796.979 191.207L797.425 192.03L797.871 191.207L798.694 190.761L797.871 190.315L797.425 189.491Z" fill="white"/>
<path d="M771.248 227.514L770.79 228.326L769.979 228.784L770.79 229.229L771.248 230.041L771.694 229.229L772.517 228.784L771.694 228.326L771.248 227.514Z" fill="white"/>
<path d="M849.021 249.391L848.564 250.214L847.74 250.66L848.564 251.106L849.021 251.93L849.467 251.106L850.279 250.66L849.467 250.214L849.021 249.391Z" fill="white"/>
<path d="M831.435 236.423L831.183 236.88L830.726 237.132L831.183 237.383L831.435 237.841L831.686 237.383L832.144 237.132L831.686 236.88L831.435 236.423Z" fill="white"/>
<path d="M861.292 252.49L861.04 252.947L860.583 253.199L861.04 253.45L861.292 253.908L861.544 253.45L862.001 253.199L861.544 252.947L861.292 252.49Z" fill="white"/>
<path d="M848.473 213.906L848.027 214.73L847.204 215.176L848.027 215.622L848.473 216.445L848.919 215.622L849.743 215.176L848.919 214.73L848.473 213.906Z" fill="white"/>
<path d="M822.297 251.929L821.839 252.741L821.027 253.199L821.839 253.645L822.297 254.468L822.743 253.645L823.566 253.199L822.743 252.741L822.297 251.929Z" fill="white"/>
<path d="M707.791 258.39L707.345 259.213L706.521 259.659L707.345 260.105L707.791 260.928L708.237 260.105L709.06 259.659L708.237 259.213L707.791 258.39Z" fill="white"/>
<path d="M653.197 280.346L652.751 281.17L651.928 281.616L652.751 282.073L653.197 282.885L653.643 282.073L654.466 281.616L653.643 281.17L653.197 280.346Z" fill="white"/>
<path d="M692.364 327.128L691.918 327.952L691.095 328.398L691.918 328.844L692.364 329.667L692.822 328.844L693.633 328.398L692.822 327.952L692.364 327.128Z" fill="white"/>
<path d="M806.667 344.237L806.221 345.049L805.397 345.506L806.221 345.952L806.667 346.776L807.113 345.952L807.936 345.506L807.113 345.049L806.667 344.237Z" fill="white"/>
<path d="M881.076 267.15L880.63 267.973L879.807 268.419L880.63 268.877L881.076 269.689L881.533 268.877L882.345 268.419L881.533 267.973L881.076 267.15Z" fill="white"/>
<path d="M843.488 298.724L843.042 299.547L842.219 299.993L843.042 300.439L843.488 301.262L843.934 300.439L844.757 299.993L843.934 299.547L843.488 298.724Z" fill="white"/>
<path d="M827.581 335.34L827.135 336.164L826.312 336.61L827.135 337.056L827.581 337.879L828.027 337.056L828.85 336.61L828.027 336.164L827.581 335.34Z" fill="white"/>
<path d="M817.53 323.984L817.073 324.808L816.261 325.254L817.073 325.7L817.53 326.523L817.976 325.7L818.799 325.254L817.976 324.808L817.53 323.984Z" fill="white"/>
<path d="M890.901 355.901L890.455 356.725L889.632 357.171L890.455 357.617L890.901 358.44L891.347 357.617L892.171 357.171L891.347 356.725L890.901 355.901Z" fill="white"/>
<path d="M736.563 293.166L736.117 293.989L735.294 294.435L736.117 294.881L736.563 295.704L737.009 294.881L737.833 294.435L737.009 293.989L736.563 293.166Z" fill="white"/>
<path d="M784.445 317.649L783.999 318.472L783.176 318.918L783.999 319.364L784.445 320.188L784.891 319.364L785.714 318.918L784.891 318.472L784.445 317.649Z" fill="white"/>
</g>
<g opacity="0.3">
<path d="M1185.19 151.169L1186.67 153.903L1189.41 155.389L1186.67 156.887L1185.19 159.62L1183.69 156.887L1180.96 155.389L1183.69 153.903L1185.19 151.169Z" fill="white"/>
<path d="M1125.36 96.8623L1126.85 99.5954L1129.59 101.082L1126.85 102.58L1125.36 105.313L1123.87 102.58L1121.14 101.082L1123.87 99.5954L1125.36 96.8623Z" fill="white"/>
<path d="M1091.16 137.573L1092.64 140.306L1095.38 141.804L1092.64 143.291L1091.16 146.024L1089.66 143.291L1086.92 141.804L1089.66 140.306L1091.16 137.573Z" fill="white"/>
<path d="M1014.42 67.896L1015.92 70.6291L1018.65 72.1157L1015.92 73.6138L1014.42 76.3469L1012.94 73.6138L1010.2 72.1157L1012.94 70.6291L1014.42 67.896Z" fill="white"/>
<path d="M1200.82 139.688L1201.56 141.049L1202.92 141.804L1201.56 142.547L1200.82 143.908L1200.08 142.547L1198.7 141.804L1200.08 141.049L1200.82 139.688Z" fill="white"/>
<path d="M1294.74 113.649L1295.48 115.01L1296.86 115.754L1295.48 116.508L1294.74 117.869L1294 116.508L1292.63 115.754L1294 115.01L1294.74 113.649Z" fill="white"/>
<path d="M1336.7 190.862L1337.45 192.223L1338.81 192.978L1337.45 193.721L1336.7 195.082L1335.95 193.721L1334.59 192.978L1335.95 192.223L1336.7 190.862Z" fill="white"/>
<path d="M1254.58 227.502L1255.32 228.863L1256.68 229.618L1255.32 230.361L1254.58 231.722L1253.84 230.361L1252.46 229.618L1253.84 228.863L1254.58 227.502Z" fill="white"/>
<path d="M1215.74 219.486L1216.49 220.858L1217.86 221.601L1216.49 222.345L1215.74 223.717L1215 222.345L1213.63 221.601L1215 220.858L1215.74 219.486Z" fill="white"/>
<path d="M1303.73 224.152L1304.47 225.513L1305.84 226.267L1304.47 227.011L1303.73 228.372L1302.99 227.011L1301.61 226.267L1302.99 225.513L1303.73 224.152Z" fill="white"/>
<path d="M1033.73 221.601L1034.47 222.962L1035.83 223.717L1034.47 224.46L1033.73 225.821L1032.97 224.46L1031.61 223.717L1032.97 222.962L1033.73 221.601Z" fill="white"/>
<path d="M1245.05 182.79L1245.8 183.521L1247.17 183.922L1245.8 184.322L1245.05 185.054L1244.31 184.322L1242.95 183.922L1244.31 183.521L1245.05 182.79Z" fill="white"/>
<path d="M1170.71 109.235L1171.21 110.162L1172.14 110.665L1171.21 111.179L1170.71 112.094L1170.21 111.179L1169.28 110.665L1170.21 110.162L1170.71 109.235Z" fill="white"/>
<path d="M1190.52 94.6323L1190.8 95.1469L1191.32 95.4328L1190.8 95.7187L1190.52 96.2333L1190.24 95.7187L1189.73 95.4328L1190.24 95.1469L1190.52 94.6323Z" fill="white"/>
<path d="M1156.87 112.735L1157.16 113.249L1157.67 113.524L1157.16 113.81L1156.87 114.324L1156.6 113.81L1156.08 113.524L1156.6 113.249L1156.87 112.735Z" fill="white"/>
<path d="M1147.2 96.062L1147.48 96.5766L1148 96.8625L1147.48 97.1484L1147.2 97.663L1146.91 97.1484L1146.4 96.8625L1146.91 96.5766L1147.2 96.062Z" fill="white"/>
<path d="M1132.44 114.165L1132.71 114.679L1133.22 114.954L1132.71 115.239L1132.44 115.754L1132.15 115.239L1131.63 114.954L1132.15 114.679L1132.44 114.165Z" fill="white"/>
<path d="M1164.42 145.223L1164.71 145.738L1165.22 146.024L1164.71 146.31L1164.42 146.824L1164.15 146.31L1163.62 146.024L1164.15 145.738L1164.42 145.223Z" fill="white"/>
<path d="M1130.3 169.97L1130.58 170.496L1131.1 170.77L1130.58 171.056L1130.3 171.571L1130.02 171.056L1129.5 170.77L1130.02 170.496L1130.3 169.97Z" fill="white"/>
<path d="M1145.51 180.559L1145.79 181.074L1146.31 181.36L1145.79 181.634L1145.51 182.16L1145.22 181.634L1144.71 181.36L1145.22 181.074L1145.51 180.559Z" fill="white"/>
<path d="M1107.06 198.444L1107.35 198.958L1107.86 199.233L1107.35 199.519L1107.06 200.033L1106.78 199.519L1106.26 199.233L1106.78 198.958L1107.06 198.444Z" fill="white"/>
<path d="M1024.59 199.233L1024.88 199.748L1025.39 200.034L1024.88 200.32L1024.59 200.834L1024.3 200.32L1023.79 200.034L1024.3 199.748L1024.59 199.233Z" fill="white"/>
<path d="M985.549 204.974L985.823 205.489L986.349 205.775L985.823 206.06L985.549 206.575L985.263 206.06L984.748 205.775L985.263 205.489L985.549 204.974Z" fill="white"/>
<path d="M1014.42 216.673L1014.71 217.187L1015.22 217.473L1014.71 217.759L1014.42 218.274L1014.15 217.759L1013.62 217.473L1014.15 217.187L1014.42 216.673Z" fill="white"/>
<path d="M1075.76 205.774L1076.04 206.289L1076.55 206.575L1076.04 206.861L1075.76 207.375L1075.48 206.861L1074.96 206.575L1075.48 206.289L1075.76 205.774Z" fill="white"/>
<path d="M1087.72 215.872L1088.01 216.387L1088.53 216.673L1088.01 216.958L1087.72 217.473L1087.45 216.958L1086.92 216.673L1087.45 216.387L1087.72 215.872Z" fill="white"/>
<path d="M1278.99 206.575L1279.28 207.09L1279.79 207.376L1279.28 207.65L1278.99 208.176L1278.71 207.65L1278.19 207.376L1278.71 207.09L1278.99 206.575Z" fill="white"/>
<path d="M1180.44 199.233L1180.73 199.748L1181.24 200.034L1180.73 200.32L1180.44 200.834L1180.16 200.32L1179.64 200.034L1180.16 199.748L1180.44 199.233Z" fill="white"/>
<path d="M1270.86 170.77L1271.15 171.285L1271.66 171.571L1271.15 171.856L1270.86 172.371L1270.59 171.856L1270.07 171.571L1270.59 171.285L1270.86 170.77Z" fill="white"/>
<path d="M1330.6 215.872L1330.89 216.387L1331.4 216.673L1330.89 216.958L1330.6 217.473L1330.32 216.958L1329.8 216.673L1330.32 216.387L1330.6 215.872Z" fill="white"/>
<path d="M1313.22 234.18L1313.49 234.695L1314.01 234.981L1313.49 235.267L1313.22 235.781L1312.93 235.267L1312.42 234.981L1312.93 234.695L1313.22 234.18Z" fill="white"/>
<path d="M1271.66 207.375L1271.95 207.89L1272.46 208.176L1271.95 208.45L1271.66 208.965L1271.38 208.45L1270.86 208.176L1271.38 207.89L1271.66 207.375Z" fill="white"/>
<path d="M1242.95 208.176L1243.22 208.69L1243.74 208.965L1243.22 209.251L1242.95 209.765L1242.66 209.251L1242.15 208.965L1242.66 208.69L1242.95 208.176Z" fill="white"/>
<path d="M1247.93 151.169L1248.21 151.684L1248.72 151.97L1248.21 152.244L1247.93 152.77L1247.65 152.244L1247.13 151.97L1247.65 151.684L1247.93 151.169Z" fill="white"/>
<path d="M1010.51 150.37L1010.79 150.884L1011.3 151.17L1010.79 151.456L1010.51 151.971L1010.23 151.456L1009.71 151.17L1010.23 150.884L1010.51 150.37Z" fill="white"/>
<path d="M1062.72 122.993L1063 123.507L1063.52 123.793L1063 124.079L1062.72 124.594L1062.43 124.079L1061.92 123.793L1062.43 123.507L1062.72 122.993Z" fill="white"/>
<path d="M1086.93 112.735L1087.21 113.249L1087.73 113.524L1087.21 113.81L1086.93 114.324L1086.65 113.81L1086.14 113.524L1086.65 113.249L1086.93 112.735Z" fill="white"/>
<path d="M1040.5 93.832L1040.78 94.3466L1041.3 94.6325L1040.78 94.9184L1040.5 95.433L1040.21 94.9184L1039.7 94.6325L1040.21 94.3466L1040.5 93.832Z" fill="white"/>
<path d="M1112.38 158.82L1112.67 159.334L1113.18 159.62L1112.67 159.895L1112.38 160.409L1112.09 159.895L1111.58 159.62L1112.09 159.334L1112.38 158.82Z" fill="white"/>
<path d="M1028.2 153.799L1028.49 154.314L1029 154.6L1028.49 154.874L1028.2 155.389L1027.93 154.874L1027.4 154.6L1027.93 154.314L1028.2 153.799Z" fill="white"/>
<path d="M1226.61 67.0952L1226.89 67.6098L1227.41 67.8957L1226.89 68.1702L1226.61 68.6962L1226.32 68.1702L1225.81 67.8957L1226.32 67.6098L1226.61 67.0952Z" fill="white"/>
<path d="M1331.4 71.3149L1331.69 71.8295L1332.21 72.1154L1331.69 72.4013L1331.4 72.9159L1331.12 72.4013L1330.6 72.1154L1331.12 71.8295L1331.4 71.3149Z" fill="white"/>
<path d="M1303.73 133.525L1304.02 134.039L1304.53 134.325L1304.02 134.611L1303.73 135.126L1303.44 134.611L1302.93 134.325L1303.44 134.039L1303.73 133.525Z" fill="white"/>
<path d="M1263.84 50.3882L1264.13 50.9142L1264.64 51.1887L1264.13 51.4746L1263.84 51.9892L1263.55 51.4746L1263.04 51.1887L1263.55 50.9142L1263.84 50.3882Z" fill="white"/>
<path d="M1324.57 111.934L1324.85 112.449L1325.37 112.735L1324.85 113.009L1324.57 113.524L1324.29 113.009L1323.76 112.735L1324.29 112.449L1324.57 111.934Z" fill="white"/>
<path d="M1029 104.513L1029.29 105.027L1029.8 105.313L1029.29 105.588L1029 106.102L1028.72 105.588L1028.2 105.313L1028.72 105.027L1029 104.513Z" fill="white"/>
<path d="M1106.26 177.654L1106.55 178.169L1107.06 178.455L1106.55 178.729L1106.26 179.255L1105.98 178.729L1105.46 178.455L1105.98 178.169L1106.26 177.654Z" fill="white"/>
<path d="M1198.7 184.253L1198.99 184.768L1199.51 185.053L1198.99 185.339L1198.7 185.854L1198.43 185.339L1197.9 185.053L1198.43 184.768L1198.7 184.253Z" fill="white"/>
<path d="M1217.6 154.6L1217.88 155.115L1218.4 155.389L1217.88 155.675L1217.6 156.19L1217.31 155.675L1216.8 155.389L1217.31 155.115L1217.6 154.6Z" fill="white"/>
<path d="M1224.69 191.377L1224.97 191.892L1225.49 192.178L1224.97 192.452L1224.69 192.978L1224.41 192.452L1223.9 192.178L1224.41 191.892L1224.69 191.377Z" fill="white"/>
<path d="M1319.44 216.673L1319.73 217.187L1320.24 217.473L1319.73 217.759L1319.44 218.274L1319.17 217.759L1318.64 217.473L1319.17 217.187L1319.44 216.673Z" fill="white"/>
<path d="M1171.32 69.2568L1171.83 70.1831L1172.76 70.6863L1171.83 71.1894L1171.32 72.1157L1170.81 71.1894L1169.89 70.6863L1170.81 70.1831L1171.32 69.2568Z" fill="white"/>
<path d="M1200.82 112.094L1201.32 113.021L1202.25 113.524L1201.32 114.038L1200.82 114.953L1200.32 114.038L1199.39 113.524L1200.32 113.021L1200.82 112.094Z" fill="white"/>
<path d="M1263.84 71.4868L1264.34 72.4131L1265.27 72.9163L1264.34 73.4194L1263.84 74.3457L1263.34 73.4194L1262.41 72.9163L1263.34 72.4131L1263.84 71.4868Z" fill="white"/>
<path d="M1325.36 96.2329L1325.87 97.1592L1326.79 97.6624L1325.87 98.1655L1325.36 99.0918L1324.86 98.1655L1323.93 97.6624L1324.86 97.1592L1325.36 96.2329Z" fill="white"/>
<path d="M1281.22 148.939L1281.73 149.866L1282.65 150.369L1281.73 150.872L1281.22 151.798L1280.72 150.872L1279.79 150.369L1280.72 149.866L1281.22 148.939Z" fill="white"/>
<path d="M1152.44 168.209L1152.94 169.135L1153.87 169.638L1152.94 170.142L1152.44 171.068L1151.93 170.142L1151.01 169.638L1151.93 169.135L1152.44 168.209Z" fill="white"/>
<path d="M1068.59 81.356L1069.1 82.2822L1070.02 82.7854L1069.1 83.2886L1068.59 84.2148L1068.08 83.2886L1067.16 82.7854L1068.08 82.2822L1068.59 81.356Z" fill="white"/>
<path d="M1110.95 116.932L1111.45 117.858L1112.38 118.361L1111.45 118.864L1110.95 119.791L1110.45 118.864L1109.52 118.361L1110.45 117.858L1110.95 116.932Z" fill="white"/>
<path d="M1128.87 158.191L1129.38 159.117L1130.3 159.62L1129.38 160.124L1128.87 161.05L1128.37 160.124L1127.44 159.62L1128.37 159.117L1128.87 158.191Z" fill="white"/>
<path d="M1140.2 145.395L1140.71 146.321L1141.63 146.824L1140.71 147.328L1140.2 148.254L1139.7 147.328L1138.77 146.824L1139.7 146.321L1140.2 145.395Z" fill="white"/>
<path d="M1057.52 181.36L1058.03 182.286L1058.95 182.789L1058.03 183.292L1057.52 184.219L1057.02 183.292L1056.1 182.789L1057.02 182.286L1057.52 181.36Z" fill="white"/>
<path d="M1231.42 110.665L1231.94 111.591L1232.85 112.094L1231.94 112.609L1231.42 113.524L1230.92 112.609L1229.99 112.094L1230.92 111.591L1231.42 110.665Z" fill="white"/>
<path d="M1177.47 138.259L1177.97 139.185L1178.9 139.688L1177.97 140.191L1177.47 141.118L1176.97 140.191L1176.04 139.688L1176.97 139.185L1177.47 138.259Z" fill="white"/>
<path d="M1131.67 329.107L1130.34 331.532L1127.92 332.858L1130.34 334.185L1131.67 336.609L1133 334.185L1135.42 332.858L1133 331.532L1131.67 329.107Z" fill="white"/>
<path d="M1184.76 280.906L1183.44 283.331L1181.02 284.657L1183.44 285.984L1184.76 288.408L1186.08 285.984L1188.51 284.657L1186.08 283.331L1184.76 280.906Z" fill="white"/>
<path d="M1215.12 317.042L1213.79 319.467L1211.38 320.793L1213.79 322.12L1215.12 324.544L1216.44 322.12L1218.87 320.793L1216.44 319.467L1215.12 317.042Z" fill="white"/>
<path d="M1283.21 255.199L1281.89 257.624L1279.46 258.95L1281.89 260.277L1283.21 262.701L1284.54 260.277L1286.97 258.95L1284.54 257.624L1283.21 255.199Z" fill="white"/>
<path d="M1117.79 318.918L1117.13 320.131L1115.93 320.794L1117.13 321.457L1117.79 322.669L1118.45 321.457L1119.67 320.794L1118.45 320.131L1117.79 318.918Z" fill="white"/>
<path d="M1034.45 295.807L1033.78 297.019L1032.57 297.683L1033.78 298.346L1034.45 299.558L1035.1 298.346L1036.32 297.683L1035.1 297.019L1034.45 295.807Z" fill="white"/>
<path d="M997.202 364.34L996.538 365.541L995.326 366.204L996.538 366.867L997.202 368.079L997.865 366.867L999.077 366.204L997.865 365.541L997.202 364.34Z" fill="white"/>
<path d="M1070.08 396.852L1069.42 398.064L1068.22 398.727L1069.42 399.39L1070.08 400.602L1070.74 399.39L1071.96 398.727L1070.74 398.064L1070.08 396.852Z" fill="white"/>
<path d="M1104.55 389.738L1103.88 390.95L1102.67 391.614L1103.88 392.277L1104.55 393.489L1105.21 392.277L1106.42 391.614L1105.21 390.95L1104.55 389.738Z" fill="white"/>
<path d="M1026.46 393.878L1025.8 395.09L1024.59 395.753L1025.8 396.417L1026.46 397.629L1027.13 396.417L1028.34 395.753L1027.13 395.09L1026.46 393.878Z" fill="white"/>
<path d="M1266.09 391.614L1265.42 392.826L1264.21 393.489L1265.42 394.152L1266.09 395.365L1266.75 394.152L1267.96 393.489L1266.75 392.826L1266.09 391.614Z" fill="white"/>
<path d="M1078.53 357.17L1077.87 357.822L1076.65 358.177L1077.87 358.531L1078.53 359.183L1079.19 358.531L1080.41 358.177L1079.19 357.822L1078.53 357.17Z" fill="white"/>
<path d="M1144.51 291.896L1144.07 292.719L1143.24 293.165L1144.07 293.611L1144.51 294.435L1144.96 293.611L1145.78 293.165L1144.96 292.719L1144.51 291.896Z" fill="white"/>
<path d="M1126.94 278.939L1126.68 279.397L1126.23 279.648L1126.68 279.889L1126.94 280.346L1127.18 279.889L1127.63 279.648L1127.18 279.397L1126.94 278.939Z" fill="white"/>
<path d="M1156.8 294.995L1156.53 295.453L1156.08 295.704L1156.53 295.956L1156.8 296.413L1157.04 295.956L1157.49 295.704L1157.04 295.453L1156.8 294.995Z" fill="white"/>
<path d="M1165.38 280.209L1165.13 280.666L1164.68 280.907L1165.13 281.158L1165.38 281.616L1165.64 281.158L1166.09 280.907L1165.64 280.666L1165.38 280.209Z" fill="white"/>
<path d="M1178.49 296.264L1178.24 296.722L1177.78 296.973L1178.24 297.225L1178.49 297.682L1178.74 297.225L1179.2 296.973L1178.74 296.722L1178.49 296.264Z" fill="white"/>
<path d="M1150.09 323.835L1149.84 324.293L1149.38 324.544L1149.84 324.796L1150.09 325.253L1150.35 324.796L1150.8 324.544L1150.35 324.293L1150.09 323.835Z" fill="white"/>
<path d="M1180.38 345.803L1180.12 346.26L1179.67 346.512L1180.12 346.752L1180.38 347.209L1180.63 346.752L1181.08 346.512L1180.63 346.26L1180.38 345.803Z" fill="white"/>
<path d="M1166.88 355.191L1166.63 355.649L1166.17 355.9L1166.63 356.152L1166.88 356.609L1167.13 356.152L1167.59 355.9L1167.13 355.649L1166.88 355.191Z" fill="white"/>
<path d="M1201.01 371.064L1200.75 371.521L1200.3 371.773L1200.75 372.013L1201.01 372.471L1201.26 372.013L1201.72 371.773L1201.26 371.521L1201.01 371.064Z" fill="white"/>
<path d="M1274.19 371.762L1273.94 372.231L1273.48 372.471L1273.94 372.722L1274.19 373.18L1274.45 372.722L1274.9 372.471L1274.45 372.231L1274.19 371.762Z" fill="white"/>
<path d="M1308.84 376.862L1308.59 377.32L1308.13 377.571L1308.59 377.823L1308.84 378.28L1309.09 377.823L1309.55 377.571L1309.09 377.32L1308.84 376.862Z" fill="white"/>
<path d="M1283.22 387.246L1282.97 387.703L1282.51 387.955L1282.97 388.195L1283.22 388.664L1283.47 388.195L1283.93 387.955L1283.47 387.703L1283.22 387.246Z" fill="white"/>
<path d="M1228.78 377.571L1228.53 378.029L1228.08 378.28L1228.53 378.532L1228.78 378.989L1229.04 378.532L1229.49 378.28L1229.04 378.029L1228.78 377.571Z" fill="white"/>
<path d="M1218.16 386.537L1217.91 386.994L1217.45 387.246L1217.91 387.486L1218.16 387.955L1218.41 387.486L1218.87 387.246L1218.41 386.994L1218.16 386.537Z" fill="white"/>
<path d="M1048.41 378.28L1048.16 378.738L1047.7 378.989L1048.16 379.241L1048.41 379.698L1048.66 379.241L1049.12 378.989L1048.66 378.738L1048.41 378.28Z" fill="white"/>
<path d="M1135.88 371.762L1135.63 372.231L1135.17 372.471L1135.63 372.722L1135.88 373.18L1136.13 372.722L1136.59 372.471L1136.13 372.231L1135.88 371.762Z" fill="white"/>
<path d="M1055.63 346.512L1055.37 346.97L1054.92 347.21L1055.37 347.461L1055.63 347.919L1055.88 347.461L1056.33 347.21L1055.88 346.97L1055.63 346.512Z" fill="white"/>
<path d="M1002.61 386.537L1002.36 386.994L1001.9 387.246L1002.36 387.486L1002.61 387.955L1002.86 387.486L1003.32 387.246L1002.86 386.994L1002.61 386.537Z" fill="white"/>
<path d="M1018.04 402.787L1017.8 403.244L1017.34 403.484L1017.8 403.736L1018.04 404.205L1018.3 403.736L1018.75 403.484L1018.3 403.244L1018.04 402.787Z" fill="white"/>
<path d="M1054.92 378.989L1054.67 379.446L1054.21 379.698L1054.67 379.949L1054.92 380.407L1055.17 379.949L1055.63 379.698L1055.17 379.446L1054.92 378.989Z" fill="white"/>
<path d="M1080.41 379.698L1080.16 380.156L1079.7 380.407L1080.16 380.659L1080.41 381.116L1080.66 380.659L1081.12 380.407L1080.66 380.156L1080.41 379.698Z" fill="white"/>
<path d="M1075.98 329.107L1075.73 329.564L1075.27 329.816L1075.73 330.068L1075.98 330.525L1076.23 330.068L1076.69 329.816L1076.23 329.564L1075.98 329.107Z" fill="white"/>
<path d="M1286.69 328.398L1286.44 328.856L1285.98 329.107L1286.44 329.359L1286.69 329.816L1286.94 329.359L1287.4 329.107L1286.94 328.856L1286.69 328.398Z" fill="white"/>
<path d="M1240.36 304.109L1240.1 304.566L1239.65 304.818L1240.1 305.069L1240.36 305.527L1240.61 305.069L1241.07 304.818L1240.61 304.566L1240.36 304.109Z" fill="white"/>
<path d="M1218.87 294.995L1218.62 295.453L1218.16 295.704L1218.62 295.956L1218.87 296.413L1219.12 295.956L1219.58 295.704L1219.12 295.453L1218.87 294.995Z" fill="white"/>
<path d="M1260.08 278.23L1259.83 278.688L1259.37 278.939L1259.83 279.18L1260.08 279.648L1260.33 279.18L1260.79 278.939L1260.33 278.688L1260.08 278.23Z" fill="white"/>
<path d="M1196.28 335.899L1196.03 336.357L1195.57 336.608L1196.03 336.86L1196.28 337.317L1196.53 336.86L1196.99 336.608L1196.53 336.357L1196.28 335.899Z" fill="white"/>
<path d="M1270.98 331.44L1270.74 331.898L1270.28 332.149L1270.74 332.401L1270.98 332.858L1271.23 332.401L1271.69 332.149L1271.23 331.898L1270.98 331.44Z" fill="white"/>
<path d="M1094.91 254.491L1094.66 254.948L1094.2 255.2L1094.66 255.451L1094.91 255.909L1095.16 255.451L1095.62 255.2L1095.16 254.948L1094.91 254.491Z" fill="white"/>
<path d="M1001.9 258.241L1001.65 258.699L1001.19 258.95L1001.65 259.202L1001.9 259.659L1002.15 259.202L1002.61 258.95L1002.15 258.699L1001.9 258.241Z" fill="white"/>
<path d="M1026.46 313.452L1026.21 313.909L1025.76 314.161L1026.21 314.412L1026.46 314.87L1026.72 314.412L1027.17 314.161L1026.72 313.909L1026.46 313.452Z" fill="white"/>
<path d="M1061.86 239.67L1061.6 240.127L1061.15 240.379L1061.6 240.631L1061.86 241.088L1062.11 240.631L1062.57 240.379L1062.11 240.127L1061.86 239.67Z" fill="white"/>
<path d="M1007.98 294.286L1007.72 294.744L1007.27 294.995L1007.72 295.247L1007.98 295.704L1008.23 295.247L1008.68 294.995L1008.23 294.744L1007.98 294.286Z" fill="white"/>
<path d="M1270.28 287.699L1270.03 288.157L1269.57 288.408L1270.03 288.66L1270.28 289.117L1270.52 288.66L1270.98 288.408L1270.52 288.157L1270.28 287.699Z" fill="white"/>
<path d="M1201.71 352.607L1201.46 353.076L1201.01 353.316L1201.46 353.568L1201.71 354.025L1201.97 353.568L1202.42 353.316L1201.97 353.076L1201.71 352.607Z" fill="white"/>
<path d="M1119.66 358.474L1119.41 358.931L1118.96 359.183L1119.41 359.434L1119.66 359.892L1119.92 359.434L1120.37 359.183L1119.92 358.931L1119.66 358.474Z" fill="white"/>
<path d="M1102.9 332.149L1102.65 332.606L1102.19 332.858L1102.65 333.11L1102.9 333.567L1103.15 333.11L1103.61 332.858L1103.15 332.606L1102.9 332.149Z" fill="white"/>
<path d="M1096.61 364.798L1096.36 365.255L1095.9 365.507L1096.36 365.747L1096.61 366.204L1096.86 365.747L1097.32 365.507L1096.86 365.255L1096.61 364.798Z" fill="white"/>
<path d="M1012.51 387.246L1012.26 387.703L1011.81 387.955L1012.26 388.195L1012.51 388.664L1012.77 388.195L1013.22 387.955L1012.77 387.703L1012.51 387.246Z" fill="white"/>
<path d="M1143.98 256.411L1143.52 257.234L1142.71 257.68L1143.52 258.126L1143.98 258.95L1144.42 258.126L1145.24 257.68L1144.42 257.234L1143.98 256.411Z" fill="white"/>
<path d="M1117.79 294.435L1117.34 295.258L1116.52 295.704L1117.34 296.15L1117.79 296.973L1118.25 296.15L1119.06 295.704L1118.25 295.258L1117.79 294.435Z" fill="white"/>
<path d="M1103.55 188.918L1102.23 191.343L1099.8 192.669L1102.23 193.996L1103.55 196.409L1104.87 193.996L1107.29 192.669L1104.87 191.343L1103.55 188.918Z" fill="white"/>
<path d="M1063.3 199.908L1062.85 200.72L1062.03 201.178L1062.85 201.624L1063.3 202.435L1063.75 201.624L1064.57 201.178L1063.75 200.72L1063.3 199.908Z" fill="white"/>
<path d="M1045.72 186.94L1045.47 187.398L1045.01 187.649L1045.47 187.901L1045.72 188.358L1045.96 187.901L1046.42 187.649L1045.96 187.398L1045.72 186.94Z" fill="white"/>
<path d="M1075.58 202.996L1075.33 203.454L1074.86 203.705L1075.33 203.957L1075.58 204.414L1075.82 203.957L1076.28 203.705L1075.82 203.454L1075.58 202.996Z" fill="white"/>
<path d="M1084.17 188.21L1083.92 188.667L1083.46 188.919L1083.92 189.171L1084.17 189.628L1084.42 189.171L1084.88 188.919L1084.42 188.667L1084.17 188.21Z" fill="white"/>
<path d="M1097.28 204.265L1097.02 204.723L1096.57 204.974L1097.02 205.226L1097.28 205.683L1097.53 205.226L1097.98 204.974L1097.53 204.723L1097.28 204.265Z" fill="white"/>
<path d="M1062.76 164.424L1062.3 165.236L1061.49 165.693L1062.3 166.139L1062.76 166.963L1063.21 166.139L1064.02 165.693L1063.21 165.236L1062.76 164.424Z" fill="white"/>
<path d="M1036.57 202.435L1036.13 203.258L1035.31 203.704L1036.13 204.162L1036.57 204.974L1037.03 204.162L1037.84 203.704L1037.03 203.258L1036.57 202.435Z" fill="white"/>
<path d="M1152.04 224.975L1151.58 225.798L1150.77 226.244L1151.58 226.69L1152.04 227.513L1152.48 226.69L1153.31 226.244L1152.48 225.798L1152.04 224.975Z" fill="white"/>
<path d="M1134.45 212.007L1134.2 212.464L1133.74 212.716L1134.2 212.967L1134.45 213.425L1134.7 212.967L1135.16 212.716L1134.7 212.464L1134.45 212.007Z" fill="white"/>
<path d="M1164.31 228.074L1164.06 228.532L1163.6 228.783L1164.06 229.023L1164.31 229.492L1164.56 229.023L1165.02 228.783L1164.56 228.532L1164.31 228.074Z" fill="white"/>
<path d="M1151.49 189.49L1151.04 190.314L1150.22 190.76L1151.04 191.206L1151.49 192.029L1151.94 191.206L1152.76 190.76L1151.94 190.314L1151.49 189.49Z" fill="white"/>
<path d="M1125.31 227.514L1124.85 228.326L1124.04 228.783L1124.85 229.229L1125.31 230.041L1125.76 229.229L1126.58 228.783L1125.76 228.326L1125.31 227.514Z" fill="white"/>
<path d="M1203.09 249.39L1202.63 250.213L1201.8 250.659L1202.63 251.105L1203.09 251.929L1203.53 251.105L1204.34 250.659L1203.53 250.213L1203.09 249.39Z" fill="white"/>
<path d="M1185.5 236.422L1185.25 236.879L1184.79 237.131L1185.25 237.382L1185.5 237.84L1185.75 237.382L1186.21 237.131L1185.75 236.879L1185.5 236.422Z" fill="white"/>
<path d="M1215.36 252.489L1215.1 252.947L1214.65 253.198L1215.1 253.45L1215.36 253.907L1215.61 253.45L1216.07 253.198L1215.61 252.947L1215.36 252.489Z" fill="white"/>
<path d="M1202.54 213.905L1202.09 214.729L1201.27 215.175L1202.09 215.621L1202.54 216.444L1202.98 215.621L1203.81 215.175L1202.98 214.729L1202.54 213.905Z" fill="white"/>
<path d="M1176.36 251.929L1175.9 252.741L1175.09 253.198L1175.9 253.644L1176.36 254.467L1176.81 253.644L1177.63 253.198L1176.81 252.741L1176.36 251.929Z" fill="white"/>
<path d="M1061.86 258.39L1061.41 259.213L1060.59 259.659L1061.41 260.105L1061.86 260.928L1062.3 260.105L1063.13 259.659L1062.3 259.213L1061.86 258.39Z" fill="white"/>
<path d="M1007.26 280.346L1006.82 281.17L1006 281.616L1006.82 282.073L1007.26 282.885L1007.71 282.073L1008.53 281.616L1007.71 281.17L1007.26 280.346Z" fill="white"/>
<path d="M1046.43 327.128L1045.99 327.952L1045.16 328.398L1045.99 328.844L1046.43 329.667L1046.89 328.844L1047.7 328.398L1046.89 327.952L1046.43 327.128Z" fill="white"/>
<path d="M1160.73 344.236L1160.29 345.048L1159.46 345.506L1160.29 345.952L1160.73 346.775L1161.18 345.952L1162 345.506L1161.18 345.048L1160.73 344.236Z" fill="white"/>
<path d="M1235.14 267.149L1234.69 267.973L1233.87 268.419L1234.69 268.876L1235.14 269.688L1235.6 268.876L1236.41 268.419L1235.6 267.973L1235.14 267.149Z" fill="white"/>
<path d="M1197.55 298.723L1197.11 299.546L1196.28 299.992L1197.11 300.438L1197.55 301.261L1198 300.438L1198.82 299.992L1198 299.546L1197.55 298.723Z" fill="white"/>
<path d="M1181.65 335.339L1181.2 336.163L1180.38 336.609L1181.2 337.055L1181.65 337.878L1182.09 337.055L1182.92 336.609L1182.09 336.163L1181.65 335.339Z" fill="white"/>
<path d="M1171.6 323.984L1171.14 324.807L1170.33 325.253L1171.14 325.699L1171.6 326.523L1172.04 325.699L1172.86 325.253L1172.04 324.807L1171.6 323.984Z" fill="white"/>
<path d="M1244.97 355.9L1244.52 356.724L1243.7 357.17L1244.52 357.616L1244.97 358.439L1245.41 357.616L1246.24 357.17L1245.41 356.724L1244.97 355.9Z" fill="white"/>
<path d="M1090.63 293.166L1090.18 293.989L1089.36 294.435L1090.18 294.881L1090.63 295.704L1091.08 294.881L1091.9 294.435L1091.08 293.989L1090.63 293.166Z" fill="white"/>
<path d="M1138.51 317.648L1138.06 318.472L1137.24 318.918L1138.06 319.364L1138.51 320.187L1138.96 319.364L1139.78 318.918L1138.96 318.472L1138.51 317.648Z" fill="white"/>
</g>
</g>
<defs>
<linearGradient id="paint0_linear_353_4394" x1="-294.819" y1="461.1" x2="1469.18" y2="104.937" gradientUnits="userSpaceOnUse">
<stop stop-color="#013572"/>
<stop offset="0.59375" stop-color="#01244F"/>
<stop offset="1" stop-color="#002551"/>
</linearGradient>
<clipPath id="clip0_353_4394">
<rect width="1440" height="515.356" fill="white" transform="translate(0.680664 0.0996094)"/>
</clipPath>
</defs>
</svg>
