<svg width="29" height="29" viewBox="0 0 29 29" fill="none" xmlns="http://www.w3.org/2000/svg">
<path d="M25.4613 5.98882C22.6617 2.40484 18.4479 0.581365 14.2313 0.690144C11.3773 0.767434 8.52616 1.71496 6.1044 3.60713C3.68837 5.49359 2.06527 8.03558 1.31241 10.7923C0.994661 11.9259 0.825769 13.0995 0.808594 14.2789L7.45841 13.3428C7.73322 11.5995 8.64639 9.95065 10.1464 8.77699C13.2924 6.32088 17.8325 6.87909 20.2915 10.0222C22.7476 13.1682 22.1894 17.7083 19.0462 20.1673C17.5462 21.3381 15.7285 21.8276 13.9708 21.6701L11.4546 27.8906C15.3792 28.8152 19.6645 28.0108 23.0853 25.34C29.0882 20.6511 30.1531 11.986 25.4642 5.98595L25.4613 5.98882Z" fill="url(#paint0_linear_2475_5014)"/>
<path d="M10.7568 27.1323C8.20048 26.431 5.8417 24.9281 4.08693 22.6838C2.33215 20.4395 1.44761 17.7916 1.37891 15.138L9.75201 13.9615C12.7348 13.5435 15.0507 16.5092 13.9228 19.3002L10.7568 27.1323Z" fill="url(#paint1_linear_2475_5014)"/>
<defs>
<linearGradient id="paint0_linear_2475_5014" x1="17.5242" y1="-6.36041" x2="11.033" y2="39.8822" gradientUnits="userSpaceOnUse">
<stop stop-color="#8FFFAB"/>
<stop offset="1" stop-color="#2F4EFA"/>
</linearGradient>
<linearGradient id="paint1_linear_2475_5014" x1="17.3786" y1="11.6445" x2="-8.70428" y2="33.6138" gradientUnits="userSpaceOnUse">
<stop stop-color="#8FFFAB"/>
<stop offset="1" stop-color="#2F4EFA"/>
</linearGradient>
</defs>
</svg>
