<svg width="177" height="41" viewBox="0 0 177 41" fill="none" xmlns="http://www.w3.org/2000/svg">
<path d="M40.2883 4.5431V35.7452C40.2883 38.2589 38.2589 40.2883 35.7452 40.2883H10.2854C9.93946 40.2883 9.59354 40.2652 9.27068 40.2421C9.08619 40.2421 8.9017 40.196 8.71721 40.173C5.07351 39.5964 2.05247 37.1288 0.737968 33.7619C0.668784 33.6004 0.599596 33.439 0.553473 33.2776C0.184491 32.2398 0 31.1329 0 29.9798V4.5431C0 2.02941 2.02941 0 4.5431 0H35.7452C38.2589 0 40.2883 2.02941 40.2883 4.5431Z" fill="#183F6E"/>
<path d="M12.293 23.8916H23.9159L28.067 28.0427H12.293V23.8916Z" fill="white"/>
<path d="M12.293 12.2686L16.421 16.3965V28.0195H12.293V12.2686Z" fill="white"/>
<path d="M30.4654 13.9981H18.8194L14.6914 9.87012H30.4654V13.9981Z" fill="white"/>
<path d="M30.4639 25.6441L26.3359 21.4931V9.87012H30.4639V25.6441Z" fill="white"/>
<path d="M15.2208 33.6007L9.27099 40.2424C9.0865 40.2424 8.90201 40.1963 8.71752 40.1732C5.07382 39.5967 2.05278 37.1291 0.738281 33.7621L8.00262 25.6445V33.6007H15.2208Z" fill="white"/>
<path d="M68.5277 22.0947V40.2631H65.2687V28.6897L62.0867 31.1532L59.4435 33.2062L56.8004 31.1532L53.6184 28.6897V40.2631H50.3594V22.0947L53.6184 24.6096L59.4692 29.1003L65.32 24.6096L68.5791 22.0947H68.5277Z" fill="#0DA84B"/>
<path d="M74.3779 27.0222V28.7158H86.0539V31.9492H74.3779V35.3878C74.3779 36.3116 75.1221 37.0558 76.0459 37.0558H89.3129V40.2892H76.0459C73.3258 40.2892 71.1445 38.0823 71.1445 35.3878V27.0478C71.1445 24.3277 73.3258 22.1465 76.0459 22.1465H89.3129V25.3798H76.0459C75.1221 25.3798 74.3779 26.124 74.3779 27.0478V27.0222Z" fill="#0DA84B"/>
<path d="M110.075 22.0947V40.2631H106.816V28.6897L103.634 31.1532L100.99 33.2062L98.3473 31.1532L95.1653 28.6897V40.2631H91.9062V22.0947L95.1653 24.6096L101.016 29.1003L106.867 24.6096L110.126 22.0947H110.075Z" fill="#0DA84B"/>
<path d="M130.219 31.1789C130.219 36.1829 126.165 40.2631 121.135 40.2631C116.105 40.2631 112.051 36.2086 112.051 31.1789C112.051 26.1492 116.105 22.0947 121.135 22.0947C126.165 22.0947 130.219 26.1492 130.219 31.1789ZM126.986 31.1789C126.986 27.9455 124.368 25.3281 121.135 25.3281C117.902 25.3281 115.284 27.9455 115.284 31.1789C115.284 34.4123 117.902 37.0297 121.135 37.0297C124.368 37.0297 126.986 34.4123 126.986 31.1789Z" fill="#0DA84B"/>
<path d="M132.219 40.2631V22.0947H135.452V40.2631H132.219Z" fill="#0DA84B"/>
<path d="M156.239 37.0041V40.2374H142.176L138.096 40.2631L140.611 37.0041L145.076 31.2046L147.129 28.5614L149.618 25.3537H138.07V22.0947H152.133H156.213L153.698 25.3537L149.182 31.2046L147.154 33.8477L144.717 37.0041H156.264H156.239Z" fill="#0DA84B"/>
<path d="M162.065 27.0222V28.7158H173.741V31.9492H162.065V35.3878C162.065 36.3116 162.81 37.0558 163.733 37.0558H177V40.2892H163.733C161.013 40.2892 158.832 38.0823 158.832 35.3878V27.0478C158.832 24.3277 161.013 22.1465 163.733 22.1465H177V25.3798H163.733C162.81 25.3798 162.065 26.124 162.065 27.0478V27.0222Z" fill="#0DA84B"/>
<path d="M66.7058 4.92674C66.7058 6.90268 65.5253 8.622 63.8317 9.39185C63.3954 9.59714 62.9079 9.72545 62.4203 9.80243C62.369 9.80243 62.3176 9.80243 62.292 9.80243L53.5927 9.82809V18.1938H50.3594V0.0253906H61.8301C63.1901 0.0253906 64.3962 0.564286 65.2944 1.46244C66.1925 2.36059 66.7314 3.59234 66.7314 4.92674H66.7058ZM63.4724 4.92674C63.4724 4.33653 63.1645 3.92595 62.9848 3.72066C62.7796 3.51536 62.3946 3.23308 61.8301 3.23308H53.6184V6.56908H61.8301C62.061 6.56908 62.292 6.51776 62.4973 6.41511C63.1132 6.13284 63.4724 5.54262 63.4724 4.90108V4.92674Z" fill="#183F6E"/>
<path d="M84.0031 14.9604L85.6455 18.2194H82.0015L80.3336 14.9604L78.5886 11.5474L78.5116 11.3934C77.947 10.4696 76.9206 9.82809 75.7401 9.82809H72.5068V18.1938H69.2734V0.0253906H80.7441C82.1042 0.0253906 83.3359 0.564286 84.2084 1.46244C85.0809 2.36059 85.6455 3.59234 85.6455 4.92674C85.6455 6.90268 84.4651 8.62201 82.7714 9.39185C82.3351 9.59714 81.8476 9.72545 81.36 9.80244L83.9775 14.9604H84.0031ZM80.7698 6.6204C81.0008 6.6204 81.2317 6.56909 81.4627 6.46644C82.0785 6.18416 82.4378 5.59395 82.4378 4.95241C82.4378 4.36219 82.1299 3.95161 81.9502 3.74631C81.7449 3.54102 81.36 3.25875 80.7955 3.25875H72.5838V6.59475H80.7955L80.7698 6.6204Z" fill="#183F6E"/>
<path d="M105.817 9.10957C105.817 14.1136 101.762 18.1938 96.7326 18.1938C91.703 18.1938 87.6484 14.1392 87.6484 9.10957C87.6484 4.07991 91.703 0.0253906 96.7326 0.0253906C101.762 0.0253906 105.817 4.07991 105.817 9.10957ZM102.583 9.10957C102.583 5.87622 99.966 3.25875 96.7326 3.25875C93.4993 3.25875 90.8818 5.87622 90.8818 9.10957C90.8818 12.3429 93.4993 14.9604 96.7326 14.9604C99.966 14.9604 102.583 12.3429 102.583 9.10957Z" fill="#183F6E"/>
<path d="M123.032 0.0253906L116 9.13523L123.006 18.1938H118.926L113.973 11.7784L109.02 18.1938H104.94L111.946 9.13523L104.915 0.0253906H108.995L113.999 6.4921L119.003 0.0253906H123.083H123.032ZM104.863 18.2194H104.915L104.863 18.2707V18.2194Z" fill="#183F6E"/>
<path d="M143.153 0L136.121 9.10984L135.737 9.62307V18.194H132.478V9.6744L132.041 9.1355L125.01 0H129.09L134.094 6.4667L139.098 0H143.178H143.153ZM124.984 18.194H125.036L124.984 18.2453V18.194Z" fill="#183F6E"/>
</svg>
