<svg width="185" height="49" viewBox="0 0 185 49" fill="none" xmlns="http://www.w3.org/2000/svg">
<g filter="url(#filter0_d_1516_7079)">
<path d="M44.2883 4.5431V35.7452C44.2883 38.2589 42.2589 40.2883 39.7452 40.2883H14.2854C13.9395 40.2883 13.5935 40.2652 13.2707 40.2421C13.0862 40.2421 12.9017 40.196 12.7172 40.173C9.07351 39.5964 6.05247 37.1288 4.73797 33.7619C4.66878 33.6004 4.5996 33.439 4.55347 33.2776C4.18449 32.2398 4 31.1329 4 29.9798V4.5431C4 2.02941 6.02941 0 8.5431 0H39.7452C42.2589 0 44.2883 2.02941 44.2883 4.5431Z" fill="#183F6E"/>
<path d="M16.292 23.8914H27.9149L32.066 28.0424H16.292V23.8914Z" fill="white"/>
<path d="M16.292 12.2686L20.42 16.3965V28.0195H16.292V12.2686Z" fill="white"/>
<path d="M34.4644 13.9979H22.8184L18.6904 9.86987H34.4644V13.9979Z" fill="white"/>
<path d="M34.4639 25.6439L30.3359 21.4928V9.86987H34.4639V25.6439Z" fill="white"/>
<path d="M19.2208 33.6011L13.271 40.2428C13.0865 40.2428 12.902 40.1966 12.7175 40.1736C9.07382 39.597 6.05278 37.1295 4.73828 33.7625L12.0026 25.6449V33.6011H19.2208Z" fill="white"/>
<path d="M72.5287 22.0945V40.2628H69.2697V28.6895L66.0877 31.153L63.4445 33.2059L60.8014 31.153L57.6194 28.6895V40.2628H54.3604V22.0945L57.6194 24.6093L63.4702 29.1001L69.321 24.6093L72.58 22.0945H72.5287Z" fill="#0DA84B"/>
<path d="M78.3789 27.0214V28.7151H90.0549V31.9485H78.3789V35.3871C78.3789 36.3109 79.123 37.0551 80.0469 37.0551H93.3139V40.2885H80.0469C77.3267 40.2885 75.1455 38.0816 75.1455 35.3871V27.0471C75.1455 24.327 77.3267 22.1458 80.0469 22.1458H93.3139V25.3791H80.0469C79.123 25.3791 78.3789 26.1233 78.3789 27.0471V27.0214Z" fill="#0DA84B"/>
<path d="M114.075 22.0942V40.2626H110.816V28.6892L107.634 31.1528L104.99 33.2057L102.347 31.1528L99.1653 28.6892V40.2626H95.9062V22.0942L99.1653 24.6091L105.016 29.0998L110.867 24.6091L114.126 22.0942H114.075Z" fill="#0DA84B"/>
<path d="M134.219 31.1787C134.219 36.1827 130.165 40.2628 125.135 40.2628C120.105 40.2628 116.051 36.2083 116.051 31.1787C116.051 26.149 120.105 22.0945 125.135 22.0945C130.165 22.0945 134.219 26.149 134.219 31.1787ZM130.986 31.1787C130.986 27.9453 128.368 25.3278 125.135 25.3278C121.902 25.3278 119.284 27.9453 119.284 31.1787C119.284 34.412 121.902 37.0295 125.135 37.0295C128.368 37.0295 130.986 34.412 130.986 31.1787Z" fill="#0DA84B"/>
<path d="M136.22 40.2626V22.0942H139.453V40.2626H136.22Z" fill="#0DA84B"/>
<path d="M160.24 37.0036V40.2369H146.177L142.097 40.2626L144.612 37.0036L149.077 31.2041L151.13 28.5609L153.619 25.3533H142.071V22.0942H156.134H160.214L157.699 25.3533L153.183 31.2041L151.155 33.8472L148.718 37.0036H160.265H160.24Z" fill="#0DA84B"/>
<path d="M166.065 27.0214V28.7151H177.741V31.9485H166.065V35.3871C166.065 36.3109 166.81 37.0551 167.733 37.0551H181V40.2885H167.733C165.013 40.2885 162.832 38.0816 162.832 35.3871V27.0471C162.832 24.327 165.013 22.1458 167.733 22.1458H181V25.3791H167.733C166.81 25.3791 166.065 26.1233 166.065 27.0471V27.0214Z" fill="#0DA84B"/>
<path d="M70.7067 4.92698C70.7067 6.90292 69.5263 8.62225 67.8327 9.39209C67.3964 9.59739 66.9088 9.72569 66.4213 9.80268C66.3699 9.80268 66.3186 9.80268 66.293 9.80268L57.5937 9.82833V18.194H54.3604V0.0256348H65.831C67.1911 0.0256348 68.3972 0.56453 69.2954 1.46268C70.1935 2.36084 70.7324 3.59259 70.7324 4.92698H70.7067ZM67.4734 4.92698C67.4734 4.33677 67.1655 3.92619 66.9858 3.7209C66.7805 3.51561 66.3956 3.23333 65.831 3.23333H57.6194V6.56932H65.831C66.062 6.56932 66.293 6.518 66.4983 6.41536C67.1141 6.13308 67.4734 5.54287 67.4734 4.90133V4.92698Z" fill="#183F6E"/>
<path d="M88.0031 14.9606L89.6455 18.2197H86.0015L84.3336 14.9606L82.5886 11.5477L82.5116 11.3937C81.947 10.4699 80.9206 9.82834 79.7401 9.82834H76.5068V18.194H73.2734V0.0256348H84.7441C86.1042 0.0256348 87.3359 0.56453 88.2084 1.46268C89.0809 2.36084 89.6455 3.59259 89.6455 4.92699C89.6455 6.90292 88.4651 8.62225 86.7714 9.3921C86.3351 9.59739 85.8476 9.7257 85.36 9.80268L87.9775 14.9606H88.0031ZM84.7698 6.62065C85.0008 6.62065 85.2317 6.56933 85.4627 6.46668C86.0785 6.18441 86.4378 5.59419 86.4378 4.95265C86.4378 4.36244 86.1299 3.95185 85.9502 3.74656C85.7449 3.54127 85.36 3.25899 84.7955 3.25899H76.5838V6.59499H84.7955L84.7698 6.62065Z" fill="#183F6E"/>
<path d="M109.816 9.11006C109.816 14.1141 105.761 18.1942 100.732 18.1942C95.702 18.1942 91.6475 14.1397 91.6475 9.11006C91.6475 4.0804 95.702 0.0258789 100.732 0.0258789C105.761 0.0258789 109.816 4.0804 109.816 9.11006ZM106.582 9.11006C106.582 5.87671 103.965 3.25924 100.732 3.25924C97.4983 3.25924 94.8808 5.87671 94.8808 9.11006C94.8808 12.3434 97.4983 14.9609 100.732 14.9609C103.965 14.9609 106.582 12.3434 106.582 9.11006Z" fill="#183F6E"/>
<path d="M127.034 0.0256348L120.002 9.13547L127.008 18.194H122.928L117.975 11.7786L113.022 18.194H108.942L115.948 9.13547L108.917 0.0256348H112.997L118.001 6.49234L123.005 0.0256348H127.085H127.034ZM108.865 18.2197H108.917L108.865 18.271V18.2197Z" fill="#183F6E"/>
<path d="M147.152 0L140.12 9.10984L139.736 9.62307V18.194H136.477V9.6744L136.04 9.1355L129.009 0H133.089L138.093 6.4667L143.097 0H147.177H147.152ZM128.983 18.194H129.035L128.983 18.2453V18.194Z" fill="#183F6E"/>
</g>
<defs>
<filter id="filter0_d_1516_7079" x="0" y="0" width="185" height="48.2885" filterUnits="userSpaceOnUse" color-interpolation-filters="sRGB">
<feFlood flood-opacity="0" result="BackgroundImageFix"/>
<feColorMatrix in="SourceAlpha" type="matrix" values="0 0 0 0 0 0 0 0 0 0 0 0 0 0 0 0 0 0 127 0" result="hardAlpha"/>
<feOffset dy="4"/>
<feGaussianBlur stdDeviation="2"/>
<feComposite in2="hardAlpha" operator="out"/>
<feColorMatrix type="matrix" values="0 0 0 0 0 0 0 0 0 0 0 0 0 0 0 0 0 0 0.25 0"/>
<feBlend mode="normal" in2="BackgroundImageFix" result="effect1_dropShadow_1516_7079"/>
<feBlend mode="normal" in="SourceGraphic" in2="effect1_dropShadow_1516_7079" result="shape"/>
</filter>
</defs>
</svg>
