<svg width="24" height="24" viewBox="0 0 24 24" fill="none" xmlns="http://www.w3.org/2000/svg">
<path d="M23.9995 2.70629V21.2932C23.9995 22.7906 22.7906 23.9995 21.2932 23.9995H6.12694C5.92088 23.9995 5.71481 23.9857 5.52249 23.972C5.41259 23.972 5.30269 23.9445 5.19279 23.9308C3.02226 23.5873 1.22264 22.1174 0.439603 20.1117C0.398391 20.0156 0.357175 19.9194 0.3297 19.8233C0.1099 19.2051 0 18.5457 0 17.8588V2.70629C0 1.2089 1.2089 0 2.7063 0H21.2932C22.7906 0 23.9995 1.2089 23.9995 2.70629Z" fill="#183F6E"/>
<path d="M7.32422 14.2318H14.2479L16.7207 16.7046H7.32422V14.2318Z" fill="white"/>
<path d="M7.32422 7.30762L9.78324 9.76664V16.6904H7.32422V7.30762Z" fill="white"/>
<path d="M18.1504 8.3389H11.2129L8.75391 5.87988H18.1504V8.3389Z" fill="white"/>
<path d="M18.1485 15.2764L15.6895 12.8036V5.87988H18.1485V15.2764Z" fill="white"/>
<path d="M9.06857 20.0153L5.52429 23.9717C5.41439 23.9717 5.30449 23.9443 5.19459 23.9305C3.02406 23.5871 1.22445 22.1172 0.441406 20.1115L4.76873 15.2759V20.0153H9.06857Z" fill="white"/>
</svg>
