<svg width="24" height="24" viewBox="0 0 24 24" fill="none" xmlns="http://www.w3.org/2000/svg">
<path d="M23.9995 2.70629V21.2932C23.9995 22.7906 22.7906 23.9995 21.2932 23.9995H6.12694C5.92088 23.9995 5.71481 23.9857 5.52249 23.972C5.41259 23.972 5.30269 23.9445 5.19279 23.9308C3.02226 23.5873 1.22264 22.1174 0.439603 20.1117C0.398391 20.0156 0.357175 19.9194 0.3297 19.8233C0.1099 19.2051 0 18.5457 0 17.8588V2.70629C0 1.2089 1.2089 0 2.70629 0H21.2932C22.7906 0 23.9995 1.2089 23.9995 2.70629Z" fill="#0DA74B"/>
<path d="M7.32812 14.2324H14.2518L16.7246 16.7052H7.32812V14.2324Z" fill="white"/>
<path d="M7.32812 7.30859L9.78714 9.76761V16.6913H7.32812V7.30859Z" fill="white"/>
<path d="M18.1465 8.33792H11.209L8.75 5.87891H18.1465V8.33792Z" fill="white"/>
<path d="M18.1465 15.2754L15.6875 12.8026V5.87891H18.1465V15.2754Z" fill="white"/>
<path d="M9.06467 20.0148L5.52038 23.9712C5.41048 23.9712 5.30058 23.9438 5.19068 23.93C3.02015 23.5866 1.22054 22.1167 0.4375 20.111L4.76482 15.2754V20.0148H9.06467Z" fill="white"/>
</svg>
