<svg width="24" height="25" viewBox="0 0 24 25" fill="none" xmlns="http://www.w3.org/2000/svg">
<path fill-rule="evenodd" clip-rule="evenodd" d="M14.6815 21.1606C14.8382 19.5893 13.9479 17.943 13.5412 17.5237C15.4365 17.3125 17.4272 16.5945 17.4272 13.301C17.4272 12.4584 17.1032 11.6489 16.5224 11.0378C16.7968 10.3013 16.7773 9.48696 16.4679 8.76404C16.4679 8.76404 15.7557 8.55291 14.1084 9.65723C12.7258 9.28166 11.2683 9.28166 9.88573 9.65723C8.23849 8.55291 7.52627 8.76404 7.52627 8.76404C7.21686 9.48696 7.19741 10.3013 7.47276 11.0378C6.88703 11.6528 6.56303 12.4701 6.56692 13.3185C6.56692 16.5886 8.55859 17.2979 10.453 17.5334C10.0463 17.9518 9.15405 19.5864 9.3107 21.1577C5.6533 20.0203 3 16.5945 3 12.5683C3 7.59453 7.02616 3.56836 12 3.56836C16.9641 3.56836 21 7.59453 21 12.5683C21 16.5945 18.3379 20.0145 14.6815 21.1606Z" stroke="#183F6E" stroke-width="1.5" stroke-linecap="round" stroke-linejoin="round"/>
</svg>
