<svg width="12" height="11" viewBox="0 0 12 11" fill="none" xmlns="http://www.w3.org/2000/svg">
<path d="M6.75508 8.85053C6.50575 9.15562 6.50575 9.65029 6.75508 9.95538C7.00442 10.2605 7.4086 10.2605 7.65796 9.95538L11.063 5.78869C11.1877 5.63619 11.25 5.43619 11.25 5.23629C11.25 5.13035 11.2328 5.02931 11.2016 4.93723C11.1704 4.84514 11.1242 4.75879 11.063 4.68389L7.65796 0.517227C7.4086 0.212123 7.00442 0.212123 6.75508 0.517227C6.50575 0.822331 6.50575 1.31691 6.75508 1.62202L9.07021 4.45504L0.822041 4.45504C0.469449 4.45504 0.183594 4.80483 0.183594 5.23629C0.183594 5.66775 0.469448 6.01754 0.822041 6.01754L9.07021 6.01754L6.75508 8.85053Z" fill="white"/>
</svg>
